%
M48
M72
T01C0.01969
T02C0.02000
T03C0.03150
T04C0.03200
T05C0.03543
T06C0.03600
T07C0.03937
T08C0.04000
T09C0.04400
T10C0.05200
T11C0.05500
T12C0.05906
T13C0.06300
T14C0.12598
T15C0.24803
%
T01
X198500Y118500
X198500Y124750
X198500Y131000
X207250Y179750
X202250Y202250
X187250Y221000
X201000Y223500
X203500Y236000
X216000Y238500
X232250Y223500
X226000Y219750
X238500Y236000
X243500Y239750
X162250Y222250
X146000Y188500
X101000Y233500
X292250Y113500
X302250Y113500
X296000Y121000
T02
X191000Y196000
X172250Y203500
X157250Y193500
X193500Y223500
X212250Y223500
X232250Y216000
X227250Y238500
X193500Y236000
X111000Y201000
T03
X127250Y211000
X137250Y211000
X147250Y211000
X157250Y211000
X157250Y241000
X147250Y241000
X137250Y241000
X127250Y241000
T04
X71000Y249750
X71000Y269750
T05
X94907Y259750
X114593Y259750
X146000Y259750
X156000Y259750
X39750Y253500
X39750Y243500
T06
X213500Y42250
X243500Y42250
T07
X301000Y16000
X301000Y76000
X307250Y203500
X307250Y263500
T08
X312250Y172250
X332250Y172250
X332250Y129750
X312250Y129750
X273500Y62250
X213500Y62250
X147213Y23537
X117213Y23537
X104787Y65963
X74787Y65963
X37250Y107250
X17250Y107250
X17250Y151000
X37250Y151000
T09
X87250Y96000
X97250Y81000
X107250Y96000
X164750Y64750
X174750Y49750
X184750Y64750
X242250Y96000
X252250Y81000
X262250Y96000
T10
X376000Y139850
X376000Y159650
X376000Y179850
X376000Y199650
X23500Y189850
X23500Y209650
X23500Y69650
X23500Y49850
T11
X163500Y19750
X193500Y19750
T12
X343500Y61000
X343500Y71000
X383500Y71000
X383500Y61000
T13
X324787Y206037
X367213Y248463
T14
X14750Y16000
X83215Y26207
X266285Y26207
X384750Y16000
X266285Y198293
X384750Y268500
X83215Y198293
X14750Y268500
T15
X97250Y163323
X174750Y132073
X252250Y163323
M30
