G75*
%MOIN*%
%OFA0B0*%
%FSLAX25Y25*%
%IPPOS*%
%LPD*%
%AMOC8*
5,1,8,0,0,1.08239X$1,22.5*
%
%ADD10C,0.01700*%
%ADD11OC8,0.05600*%
%ADD12C,0.10000*%
%ADD13OC8,0.10000*%
%ADD14C,0.07500*%
%ADD15OC8,0.07500*%
%ADD16C,0.05543*%
%ADD17C,0.09450*%
%ADD18C,0.01200*%
%ADD19OC8,0.15000*%
%ADD20C,0.08858*%
%ADD21OC8,0.06000*%
%ADD22C,0.07800*%
%ADD23C,0.05937*%
%ADD24C,0.05512*%
%ADD25C,0.05700*%
%ADD26OC8,0.12598*%
%ADD27C,0.07600*%
%ADD28C,0.08600*%
%ADD29C,0.03600*%
%ADD30C,0.01600*%
%ADD31C,0.03569*%
D10*
X0321858Y0263582D02*
X0321858Y0269487D01*
X0324810Y0269487D01*
X0325794Y0268503D01*
X0325794Y0266534D01*
X0324810Y0265550D01*
X0321858Y0265550D01*
X0328856Y0266534D02*
X0329840Y0265550D01*
X0331808Y0265550D01*
X0332792Y0266534D01*
X0332792Y0268503D01*
X0331808Y0269487D01*
X0329840Y0269487D01*
X0328856Y0268503D01*
X0328856Y0266534D01*
X0335854Y0266534D02*
X0336838Y0265550D01*
X0337822Y0266534D01*
X0338806Y0265550D01*
X0339790Y0266534D01*
X0339790Y0269487D01*
X0342851Y0270471D02*
X0343836Y0271455D01*
X0345804Y0271455D01*
X0346788Y0270471D01*
X0346788Y0269487D01*
X0345804Y0268503D01*
X0346788Y0267518D01*
X0346788Y0266534D01*
X0345804Y0265550D01*
X0343836Y0265550D01*
X0342851Y0266534D01*
X0344820Y0268503D02*
X0345804Y0268503D01*
X0349849Y0266534D02*
X0350834Y0266534D01*
X0350834Y0265550D01*
X0349849Y0265550D01*
X0349849Y0266534D01*
X0353348Y0266534D02*
X0354333Y0265550D01*
X0356301Y0265550D01*
X0357285Y0266534D01*
X0357285Y0268503D01*
X0356301Y0269487D01*
X0355317Y0269487D01*
X0353348Y0268503D01*
X0353348Y0271455D01*
X0357285Y0271455D01*
X0360346Y0268503D02*
X0361331Y0269487D01*
X0363299Y0269487D01*
X0364283Y0268503D01*
X0364283Y0267518D01*
X0360346Y0267518D01*
X0360346Y0266534D02*
X0360346Y0268503D01*
X0360346Y0266534D02*
X0361331Y0265550D01*
X0363299Y0265550D01*
X0367344Y0265550D02*
X0371281Y0269487D01*
X0371281Y0270471D01*
X0370297Y0271455D01*
X0368329Y0271455D01*
X0367344Y0270471D01*
X0367344Y0265550D02*
X0371281Y0265550D01*
X0335854Y0266534D02*
X0335854Y0269487D01*
D11*
X0243500Y0042250D03*
X0213500Y0042250D03*
D12*
X0332250Y0129750D03*
X0332250Y0172250D03*
X0037250Y0151000D03*
X0037250Y0107250D03*
D13*
X0017250Y0107250D03*
X0017250Y0151000D03*
X0312250Y0129750D03*
X0312250Y0172250D03*
D14*
X0071000Y0249750D03*
D15*
X0071000Y0269750D03*
D16*
X0094907Y0262522D02*
X0094907Y0256978D01*
X0114593Y0256978D02*
X0114593Y0262522D01*
D17*
X0321446Y0202696D02*
X0328128Y0209378D01*
X0363872Y0245122D02*
X0370554Y0251804D01*
D18*
X0105181Y0064164D02*
X0105781Y0063564D01*
X0103793Y0063564D01*
X0102388Y0064969D01*
X0102388Y0066957D01*
X0103793Y0068362D01*
X0105781Y0068362D01*
X0107186Y0066957D01*
X0107186Y0064969D01*
X0105781Y0063564D01*
X0105408Y0064464D01*
X0104166Y0064464D01*
X0103288Y0065342D01*
X0103288Y0066584D01*
X0104166Y0067462D01*
X0105408Y0067462D01*
X0106286Y0066584D01*
X0106286Y0065342D01*
X0105408Y0064464D01*
X0105035Y0065364D01*
X0104539Y0065364D01*
X0104188Y0065715D01*
X0104188Y0066211D01*
X0104539Y0066562D01*
X0105035Y0066562D01*
X0105386Y0066211D01*
X0105386Y0065715D01*
X0105035Y0065364D01*
X0075181Y0064164D02*
X0075781Y0063564D01*
X0073793Y0063564D01*
X0072388Y0064969D01*
X0072388Y0066957D01*
X0073793Y0068362D01*
X0075781Y0068362D01*
X0077186Y0066957D01*
X0077186Y0064969D01*
X0075781Y0063564D01*
X0075408Y0064464D01*
X0074166Y0064464D01*
X0073288Y0065342D01*
X0073288Y0066584D01*
X0074166Y0067462D01*
X0075408Y0067462D01*
X0076286Y0066584D01*
X0076286Y0065342D01*
X0075408Y0064464D01*
X0075035Y0065364D01*
X0074539Y0065364D01*
X0074188Y0065715D01*
X0074188Y0066211D01*
X0074539Y0066562D01*
X0075035Y0066562D01*
X0075386Y0066211D01*
X0075386Y0065715D01*
X0075035Y0065364D01*
X0117607Y0021738D02*
X0118207Y0021138D01*
X0116219Y0021138D01*
X0114814Y0022543D01*
X0114814Y0024531D01*
X0116219Y0025936D01*
X0118207Y0025936D01*
X0119612Y0024531D01*
X0119612Y0022543D01*
X0118207Y0021138D01*
X0117834Y0022038D01*
X0116592Y0022038D01*
X0115714Y0022916D01*
X0115714Y0024158D01*
X0116592Y0025036D01*
X0117834Y0025036D01*
X0118712Y0024158D01*
X0118712Y0022916D01*
X0117834Y0022038D01*
X0117461Y0022938D01*
X0116965Y0022938D01*
X0116614Y0023289D01*
X0116614Y0023785D01*
X0116965Y0024136D01*
X0117461Y0024136D01*
X0117812Y0023785D01*
X0117812Y0023289D01*
X0117461Y0022938D01*
X0147607Y0021738D02*
X0148207Y0021138D01*
X0146219Y0021138D01*
X0144814Y0022543D01*
X0144814Y0024531D01*
X0146219Y0025936D01*
X0148207Y0025936D01*
X0149612Y0024531D01*
X0149612Y0022543D01*
X0148207Y0021138D01*
X0147834Y0022038D01*
X0146592Y0022038D01*
X0145714Y0022916D01*
X0145714Y0024158D01*
X0146592Y0025036D01*
X0147834Y0025036D01*
X0148712Y0024158D01*
X0148712Y0022916D01*
X0147834Y0022038D01*
X0147461Y0022938D01*
X0146965Y0022938D01*
X0146614Y0023289D01*
X0146614Y0023785D01*
X0146965Y0024136D01*
X0147461Y0024136D01*
X0147812Y0023785D01*
X0147812Y0023289D01*
X0147461Y0022938D01*
D19*
X0163500Y0019750D03*
X0193500Y0019750D03*
D20*
X0343500Y0061000D03*
X0343500Y0071000D03*
X0383500Y0071000D03*
X0383500Y0061000D03*
D21*
X0273500Y0062250D03*
X0213500Y0062250D03*
D22*
X0372100Y0139850D02*
X0379900Y0139850D01*
X0379900Y0159650D02*
X0372100Y0159650D01*
X0372100Y0179850D02*
X0379900Y0179850D01*
X0379900Y0199650D02*
X0372100Y0199650D01*
X0027400Y0189850D02*
X0019600Y0189850D01*
X0019600Y0209650D02*
X0027400Y0209650D01*
X0027400Y0069650D02*
X0019600Y0069650D01*
X0019600Y0049850D02*
X0027400Y0049850D01*
D23*
X0298031Y0076000D02*
X0303969Y0076000D01*
X0303969Y0016000D02*
X0298031Y0016000D01*
D24*
X0157250Y0211000D03*
X0147250Y0211000D03*
X0137250Y0211000D03*
X0127250Y0211000D03*
X0127250Y0241000D03*
X0137250Y0241000D03*
X0147250Y0241000D03*
X0157250Y0241000D03*
D25*
X0156000Y0256900D02*
X0156000Y0262600D01*
X0146000Y0262600D02*
X0146000Y0256900D01*
X0042600Y0253500D02*
X0036900Y0253500D01*
X0036900Y0243500D02*
X0042600Y0243500D01*
D26*
X0307250Y0263500D03*
X0307250Y0203500D03*
D27*
X0262250Y0099800D02*
X0262250Y0092200D01*
X0252250Y0084800D02*
X0252250Y0077200D01*
X0242250Y0092200D02*
X0242250Y0099800D01*
D28*
X0184750Y0069050D02*
X0184750Y0060450D01*
X0174750Y0054050D02*
X0174750Y0045450D01*
X0164750Y0060450D02*
X0164750Y0069050D01*
X0107250Y0091700D02*
X0107250Y0100300D01*
X0097250Y0085300D02*
X0097250Y0076700D01*
X0087250Y0091700D02*
X0087250Y0100300D01*
D29*
X0157250Y0193500D03*
X0172250Y0203500D03*
X0191000Y0196000D03*
X0193500Y0223500D03*
X0212250Y0223500D03*
X0232250Y0216000D03*
X0227250Y0238500D03*
X0193500Y0236000D03*
X0111000Y0201000D03*
D30*
X0022803Y0010619D02*
X0020634Y0008450D01*
X0378866Y0008450D01*
X0376697Y0010619D01*
X0375251Y0014110D01*
X0375251Y0017890D01*
X0376697Y0021381D01*
X0379369Y0024053D01*
X0382860Y0025499D01*
X0386640Y0025499D01*
X0390131Y0024053D01*
X0392300Y0021884D01*
X0392300Y0129750D01*
X0366000Y0129750D01*
X0359750Y0136000D01*
X0359750Y0145020D01*
X0359193Y0145984D01*
X0359193Y0145984D01*
X0358250Y0149504D01*
X0358250Y0159964D01*
X0358211Y0160556D01*
X0357905Y0161700D01*
X0357313Y0162726D01*
X0356922Y0163172D01*
X0341742Y0178351D01*
X0341742Y0178351D01*
X0341016Y0179077D01*
X0341016Y0179077D01*
X0340118Y0180631D01*
X0338500Y0182250D01*
X0338500Y0184822D01*
X0338250Y0185755D01*
X0338250Y0208714D01*
X0338211Y0209306D01*
X0337943Y0210307D01*
X0332250Y0216000D01*
X0319750Y0216000D01*
X0313967Y0210217D01*
X0316749Y0207435D01*
X0316749Y0199565D01*
X0311185Y0194001D01*
X0303315Y0194001D01*
X0301000Y0196316D01*
X0301000Y0188500D01*
X0300127Y0128827D01*
X0300461Y0128446D01*
X0300656Y0128251D01*
X0302758Y0126149D01*
X0302758Y0126149D01*
X0303484Y0125423D01*
X0303484Y0125423D01*
X0305307Y0122266D01*
X0305307Y0122266D01*
X0306250Y0118745D01*
X0306250Y0116549D01*
X0306475Y0116323D01*
X0307234Y0114491D01*
X0307234Y0112509D01*
X0306475Y0110677D01*
X0305073Y0109275D01*
X0303241Y0108516D01*
X0301259Y0108516D01*
X0299838Y0109104D01*
X0299750Y0103071D01*
X0317250Y0084750D01*
X0341000Y0084750D01*
X0352250Y0073500D01*
X0352250Y0058500D01*
X0337250Y0043500D01*
X0286000Y0043500D01*
X0281000Y0048500D01*
X0226000Y0048500D01*
X0219500Y0042000D01*
X0219500Y0039765D01*
X0215985Y0036250D01*
X0213750Y0036250D01*
X0212250Y0034750D01*
X0168500Y0034750D01*
X0152250Y0052250D01*
X0071000Y0052250D01*
X0066000Y0057250D01*
X0007200Y0057250D01*
X0007200Y0021884D01*
X0009369Y0024053D01*
X0012860Y0025499D01*
X0016640Y0025499D01*
X0020131Y0024053D01*
X0022803Y0021381D01*
X0024249Y0017890D01*
X0024249Y0014110D01*
X0022803Y0010619D01*
X0022599Y0010415D02*
X0080279Y0010415D01*
X0081269Y0010149D02*
X0085173Y0010149D01*
X0088943Y0011160D01*
X0092324Y0013111D01*
X0095084Y0015872D01*
X0097036Y0019252D01*
X0098046Y0023023D01*
X0098046Y0026926D01*
X0097036Y0030697D01*
X0095084Y0034077D01*
X0092324Y0036838D01*
X0088943Y0038789D01*
X0085173Y0039800D01*
X0081269Y0039800D01*
X0077499Y0038789D01*
X0074118Y0036838D01*
X0071358Y0034077D01*
X0069406Y0030697D01*
X0068396Y0026926D01*
X0068396Y0023023D01*
X0069406Y0019252D01*
X0071358Y0015872D01*
X0074118Y0013111D01*
X0077499Y0011160D01*
X0081269Y0010149D01*
X0076021Y0012013D02*
X0023380Y0012013D01*
X0024043Y0013612D02*
X0073618Y0013612D01*
X0072019Y0015210D02*
X0024249Y0015210D01*
X0024249Y0016809D02*
X0070817Y0016809D01*
X0069894Y0018407D02*
X0024035Y0018407D01*
X0023373Y0020006D02*
X0069204Y0020006D01*
X0068776Y0021604D02*
X0022580Y0021604D01*
X0020981Y0023203D02*
X0068396Y0023203D01*
X0068396Y0024801D02*
X0018325Y0024801D01*
X0011175Y0024801D02*
X0007200Y0024801D01*
X0007200Y0023203D02*
X0008519Y0023203D01*
X0007200Y0026400D02*
X0068396Y0026400D01*
X0068683Y0027998D02*
X0007200Y0027998D01*
X0007200Y0029597D02*
X0069111Y0029597D01*
X0069694Y0031195D02*
X0007200Y0031195D01*
X0007200Y0032794D02*
X0070617Y0032794D01*
X0071673Y0034392D02*
X0007200Y0034392D01*
X0007200Y0035991D02*
X0073271Y0035991D01*
X0075420Y0037589D02*
X0007200Y0037589D01*
X0007200Y0039188D02*
X0078986Y0039188D01*
X0087456Y0039188D02*
X0164379Y0039188D01*
X0162895Y0040786D02*
X0007200Y0040786D01*
X0007200Y0042385D02*
X0161410Y0042385D01*
X0159926Y0043983D02*
X0007200Y0043983D01*
X0007200Y0045582D02*
X0158442Y0045582D01*
X0156957Y0047180D02*
X0007200Y0047180D01*
X0007200Y0048779D02*
X0155473Y0048779D01*
X0153989Y0050377D02*
X0007200Y0050377D01*
X0007200Y0051976D02*
X0152504Y0051976D01*
X0159750Y0059750D02*
X0126000Y0059750D01*
X0126000Y0096000D01*
X0114750Y0107250D01*
X0110070Y0107250D01*
X0108742Y0107800D01*
X0105758Y0107800D01*
X0104430Y0107250D01*
X0090070Y0107250D01*
X0088742Y0107800D01*
X0085758Y0107800D01*
X0084430Y0107250D01*
X0067250Y0107250D01*
X0058500Y0098500D01*
X0007200Y0098500D01*
X0007200Y0197250D01*
X0068396Y0197250D01*
X0068396Y0195073D01*
X0069406Y0191302D01*
X0071358Y0187922D01*
X0074118Y0185162D01*
X0077499Y0183210D01*
X0081269Y0182199D01*
X0085173Y0182199D01*
X0088943Y0183210D01*
X0092324Y0185162D01*
X0095084Y0187922D01*
X0095418Y0188500D01*
X0150343Y0188500D01*
X0168500Y0170343D01*
X0168500Y0146480D01*
X0165170Y0144557D01*
X0162266Y0141652D01*
X0160212Y0138095D01*
X0159148Y0134127D01*
X0159148Y0130019D01*
X0160212Y0126051D01*
X0162266Y0122493D01*
X0165170Y0119588D01*
X0168500Y0117666D01*
X0168500Y0068500D01*
X0159750Y0059750D01*
X0159968Y0059968D02*
X0126000Y0059968D01*
X0126000Y0061567D02*
X0161567Y0061567D01*
X0163166Y0063166D02*
X0126000Y0063166D01*
X0126000Y0064764D02*
X0164764Y0064764D01*
X0166363Y0066363D02*
X0126000Y0066363D01*
X0126000Y0067961D02*
X0167961Y0067961D01*
X0168500Y0069560D02*
X0126000Y0069560D01*
X0126000Y0071158D02*
X0168500Y0071158D01*
X0168500Y0072757D02*
X0126000Y0072757D01*
X0126000Y0074355D02*
X0168500Y0074355D01*
X0168500Y0075954D02*
X0126000Y0075954D01*
X0126000Y0077552D02*
X0168500Y0077552D01*
X0168500Y0079151D02*
X0126000Y0079151D01*
X0126000Y0080749D02*
X0168500Y0080749D01*
X0168500Y0082348D02*
X0126000Y0082348D01*
X0126000Y0083946D02*
X0168500Y0083946D01*
X0168500Y0085545D02*
X0126000Y0085545D01*
X0126000Y0087143D02*
X0168500Y0087143D01*
X0168500Y0088742D02*
X0126000Y0088742D01*
X0126000Y0090340D02*
X0168500Y0090340D01*
X0168500Y0091939D02*
X0126000Y0091939D01*
X0126000Y0093537D02*
X0168500Y0093537D01*
X0168500Y0095136D02*
X0126000Y0095136D01*
X0125266Y0096734D02*
X0168500Y0096734D01*
X0168500Y0098333D02*
X0123667Y0098333D01*
X0122069Y0099931D02*
X0168500Y0099931D01*
X0168500Y0101530D02*
X0120470Y0101530D01*
X0118872Y0103128D02*
X0168500Y0103128D01*
X0168500Y0104727D02*
X0117273Y0104727D01*
X0115675Y0106325D02*
X0168500Y0106325D01*
X0168500Y0107924D02*
X0025450Y0107924D01*
X0025450Y0109522D02*
X0168500Y0109522D01*
X0168500Y0111121D02*
X0024976Y0111121D01*
X0025450Y0110647D02*
X0020647Y0115450D01*
X0013853Y0115450D01*
X0009050Y0110647D01*
X0009050Y0103853D01*
X0013853Y0099050D01*
X0020647Y0099050D01*
X0025450Y0103853D01*
X0025450Y0110647D01*
X0023377Y0112719D02*
X0168500Y0112719D01*
X0168500Y0114318D02*
X0021779Y0114318D01*
X0025450Y0106325D02*
X0066325Y0106325D01*
X0064727Y0104727D02*
X0025450Y0104727D01*
X0024725Y0103128D02*
X0063128Y0103128D01*
X0061530Y0101530D02*
X0023126Y0101530D01*
X0021528Y0099931D02*
X0059931Y0099931D01*
X0067464Y0093286D02*
X0079750Y0093438D01*
X0079750Y0090208D01*
X0080892Y0087452D01*
X0083002Y0085342D01*
X0085758Y0084200D01*
X0088742Y0084200D01*
X0091498Y0085342D01*
X0093608Y0087452D01*
X0094750Y0090208D01*
X0094750Y0093500D01*
X0099750Y0093500D01*
X0099750Y0090208D01*
X0100892Y0087452D01*
X0103002Y0085342D01*
X0105758Y0084200D01*
X0108742Y0084200D01*
X0111000Y0085135D01*
X0111000Y0063500D01*
X0103500Y0057250D01*
X0072250Y0057250D01*
X0067250Y0062250D01*
X0007200Y0062250D01*
X0007200Y0093496D01*
X0067464Y0093286D01*
X0079750Y0091939D02*
X0007200Y0091939D01*
X0007200Y0090340D02*
X0079750Y0090340D01*
X0080357Y0088742D02*
X0007200Y0088742D01*
X0007200Y0087143D02*
X0081200Y0087143D01*
X0082799Y0085545D02*
X0007200Y0085545D01*
X0007200Y0083946D02*
X0111000Y0083946D01*
X0111000Y0082348D02*
X0007200Y0082348D01*
X0007200Y0080749D02*
X0111000Y0080749D01*
X0111000Y0079151D02*
X0007200Y0079151D01*
X0007200Y0077552D02*
X0111000Y0077552D01*
X0111000Y0075954D02*
X0007200Y0075954D01*
X0007200Y0074355D02*
X0111000Y0074355D01*
X0111000Y0072757D02*
X0007200Y0072757D01*
X0007200Y0071158D02*
X0111000Y0071158D01*
X0111000Y0069560D02*
X0007200Y0069560D01*
X0007200Y0067961D02*
X0111000Y0067961D01*
X0111000Y0066363D02*
X0007200Y0066363D01*
X0007200Y0064764D02*
X0111000Y0064764D01*
X0110599Y0063166D02*
X0007200Y0063166D01*
X0007200Y0056771D02*
X0066479Y0056771D01*
X0068077Y0055173D02*
X0007200Y0055173D01*
X0007200Y0053574D02*
X0069676Y0053574D01*
X0071130Y0058370D02*
X0104844Y0058370D01*
X0106762Y0059968D02*
X0069532Y0059968D01*
X0067933Y0061567D02*
X0108680Y0061567D01*
X0102799Y0085545D02*
X0091701Y0085545D01*
X0093300Y0087143D02*
X0101200Y0087143D01*
X0100357Y0088742D02*
X0094143Y0088742D01*
X0094750Y0090340D02*
X0099750Y0090340D01*
X0099750Y0091939D02*
X0094750Y0091939D01*
X0159501Y0128704D02*
X0007200Y0128704D01*
X0007200Y0127106D02*
X0159929Y0127106D01*
X0160525Y0125507D02*
X0007200Y0125507D01*
X0007200Y0123909D02*
X0161448Y0123909D01*
X0162448Y0122310D02*
X0007200Y0122310D01*
X0007200Y0120712D02*
X0164047Y0120712D01*
X0165993Y0119113D02*
X0007200Y0119113D01*
X0007200Y0117515D02*
X0168500Y0117515D01*
X0168500Y0115916D02*
X0007200Y0115916D01*
X0007200Y0114318D02*
X0012721Y0114318D01*
X0011123Y0112719D02*
X0007200Y0112719D01*
X0007200Y0111121D02*
X0009524Y0111121D01*
X0009050Y0109522D02*
X0007200Y0109522D01*
X0007200Y0107924D02*
X0009050Y0107924D01*
X0009050Y0106325D02*
X0007200Y0106325D01*
X0007200Y0104727D02*
X0009050Y0104727D01*
X0009775Y0103128D02*
X0007200Y0103128D01*
X0007200Y0101530D02*
X0011374Y0101530D01*
X0012972Y0099931D02*
X0007200Y0099931D01*
X0007200Y0130303D02*
X0159148Y0130303D01*
X0159148Y0131901D02*
X0007200Y0131901D01*
X0007200Y0133500D02*
X0159148Y0133500D01*
X0159409Y0135099D02*
X0007200Y0135099D01*
X0007200Y0136697D02*
X0159837Y0136697D01*
X0160328Y0138296D02*
X0007200Y0138296D01*
X0007200Y0139894D02*
X0161250Y0139894D01*
X0162173Y0141493D02*
X0007200Y0141493D01*
X0007200Y0143091D02*
X0013562Y0143091D01*
X0013853Y0142800D02*
X0020647Y0142800D01*
X0025450Y0147603D01*
X0025450Y0154397D01*
X0020647Y0159200D01*
X0013853Y0159200D01*
X0009050Y0154397D01*
X0009050Y0147603D01*
X0013853Y0142800D01*
X0011964Y0144690D02*
X0007200Y0144690D01*
X0007200Y0146288D02*
X0010365Y0146288D01*
X0009050Y0147887D02*
X0007200Y0147887D01*
X0007200Y0149485D02*
X0009050Y0149485D01*
X0009050Y0151084D02*
X0007200Y0151084D01*
X0007200Y0152682D02*
X0009050Y0152682D01*
X0009050Y0154281D02*
X0007200Y0154281D01*
X0007200Y0155879D02*
X0010533Y0155879D01*
X0012131Y0157478D02*
X0007200Y0157478D01*
X0007200Y0159076D02*
X0013730Y0159076D01*
X0007200Y0160675D02*
X0081808Y0160675D01*
X0081648Y0161269D02*
X0082712Y0157301D01*
X0084766Y0153743D01*
X0087670Y0150838D01*
X0091228Y0148784D01*
X0095196Y0147721D01*
X0099304Y0147721D01*
X0103272Y0148784D01*
X0106830Y0150838D01*
X0109734Y0153743D01*
X0111788Y0157301D01*
X0112852Y0161269D01*
X0112852Y0165377D01*
X0111788Y0169345D01*
X0109734Y0172902D01*
X0106830Y0175807D01*
X0103272Y0177861D01*
X0099304Y0178924D01*
X0095196Y0178924D01*
X0091228Y0177861D01*
X0087670Y0175807D01*
X0084766Y0172902D01*
X0082712Y0169345D01*
X0081648Y0165377D01*
X0081648Y0161269D01*
X0081648Y0162273D02*
X0007200Y0162273D01*
X0007200Y0163872D02*
X0081648Y0163872D01*
X0081673Y0165470D02*
X0007200Y0165470D01*
X0007200Y0167069D02*
X0082102Y0167069D01*
X0082530Y0168667D02*
X0007200Y0168667D01*
X0007200Y0170266D02*
X0083243Y0170266D01*
X0084166Y0171864D02*
X0007200Y0171864D01*
X0007200Y0173463D02*
X0085326Y0173463D01*
X0086924Y0175061D02*
X0007200Y0175061D01*
X0007200Y0176660D02*
X0089147Y0176660D01*
X0092710Y0178258D02*
X0007200Y0178258D01*
X0007200Y0179857D02*
X0158986Y0179857D01*
X0157388Y0181455D02*
X0007200Y0181455D01*
X0007200Y0183054D02*
X0078081Y0183054D01*
X0075000Y0184652D02*
X0007200Y0184652D01*
X0007200Y0186251D02*
X0073029Y0186251D01*
X0071430Y0187849D02*
X0007200Y0187849D01*
X0007200Y0189448D02*
X0070477Y0189448D01*
X0069554Y0191046D02*
X0007200Y0191046D01*
X0007200Y0192645D02*
X0069047Y0192645D01*
X0068618Y0194243D02*
X0007200Y0194243D01*
X0007200Y0195842D02*
X0068396Y0195842D01*
X0069273Y0202250D02*
X0007200Y0202250D01*
X0007200Y0262616D01*
X0009369Y0260447D01*
X0012860Y0259001D01*
X0016640Y0259001D01*
X0020131Y0260447D01*
X0022803Y0263119D01*
X0024249Y0266610D01*
X0024249Y0270390D01*
X0022803Y0273881D01*
X0020634Y0276050D01*
X0160799Y0276050D01*
X0167250Y0276000D01*
X0167250Y0267250D01*
X0247250Y0267250D01*
X0247250Y0243750D01*
X0246549Y0243750D01*
X0246323Y0243975D01*
X0244491Y0244734D01*
X0242509Y0244734D01*
X0240677Y0243975D01*
X0239275Y0242573D01*
X0238616Y0240984D01*
X0237509Y0240984D01*
X0235677Y0240225D01*
X0234275Y0238823D01*
X0233516Y0236991D01*
X0233516Y0235009D01*
X0234275Y0233177D01*
X0235677Y0231775D01*
X0236943Y0231250D01*
X0205254Y0231250D01*
X0203808Y0230651D01*
X0204173Y0231016D01*
X0204491Y0231016D01*
X0206323Y0231775D01*
X0207725Y0233177D01*
X0208484Y0235009D01*
X0208484Y0236991D01*
X0207725Y0238823D01*
X0206323Y0240225D01*
X0204491Y0240984D01*
X0202509Y0240984D01*
X0200677Y0240225D01*
X0199275Y0238823D01*
X0198516Y0236991D01*
X0198516Y0236677D01*
X0197980Y0236207D01*
X0196659Y0235445D01*
X0195186Y0235050D01*
X0194423Y0235000D01*
X0132250Y0235000D01*
X0132094Y0235012D01*
X0131796Y0235109D01*
X0131543Y0235293D01*
X0131359Y0235546D01*
X0131262Y0235844D01*
X0131250Y0236000D01*
X0131250Y0236577D01*
X0132299Y0237626D01*
X0133003Y0239326D01*
X0133028Y0239251D01*
X0133353Y0238612D01*
X0133775Y0238032D01*
X0134282Y0237525D01*
X0134862Y0237103D01*
X0135501Y0236778D01*
X0136183Y0236556D01*
X0136891Y0236444D01*
X0137250Y0236444D01*
X0137609Y0236444D01*
X0138317Y0236556D01*
X0138999Y0236778D01*
X0139638Y0237103D01*
X0140218Y0237525D01*
X0140725Y0238032D01*
X0141147Y0238612D01*
X0141472Y0239251D01*
X0141497Y0239326D01*
X0142201Y0237626D01*
X0143876Y0235951D01*
X0146065Y0235044D01*
X0148435Y0235044D01*
X0150624Y0235951D01*
X0152250Y0237577D01*
X0153876Y0235951D01*
X0156065Y0235044D01*
X0158435Y0235044D01*
X0160624Y0235951D01*
X0162299Y0237626D01*
X0163206Y0239815D01*
X0163206Y0242000D01*
X0204423Y0242000D01*
X0205186Y0241950D01*
X0206659Y0241555D01*
X0207980Y0240793D01*
X0208554Y0240289D01*
X0208773Y0240070D01*
X0211016Y0237827D01*
X0211016Y0237509D01*
X0211775Y0235677D01*
X0213177Y0234275D01*
X0215009Y0233516D01*
X0216991Y0233516D01*
X0218823Y0234275D01*
X0220225Y0235677D01*
X0220984Y0237509D01*
X0220984Y0239491D01*
X0220225Y0241323D01*
X0218823Y0242725D01*
X0216991Y0243484D01*
X0216673Y0243484D01*
X0214774Y0245383D01*
X0214211Y0245946D01*
X0212923Y0247234D01*
X0212923Y0247234D01*
X0209766Y0249057D01*
X0206245Y0250000D01*
X0150825Y0250000D01*
X0148113Y0249119D01*
X0145807Y0247443D01*
X0145189Y0246593D01*
X0143876Y0246049D01*
X0142201Y0244374D01*
X0141497Y0242674D01*
X0141472Y0242749D01*
X0141147Y0243388D01*
X0140725Y0243968D01*
X0140218Y0244475D01*
X0139638Y0244897D01*
X0138999Y0245222D01*
X0138317Y0245444D01*
X0137609Y0245556D01*
X0137250Y0245556D01*
X0137250Y0241000D01*
X0137250Y0241000D01*
X0137250Y0245556D01*
X0136891Y0245556D01*
X0136183Y0245444D01*
X0135501Y0245222D01*
X0134862Y0244897D01*
X0134282Y0244475D01*
X0133775Y0243968D01*
X0133353Y0243388D01*
X0133028Y0242749D01*
X0133003Y0242674D01*
X0132299Y0244374D01*
X0130624Y0246049D01*
X0128435Y0246956D01*
X0126065Y0246956D01*
X0123876Y0246049D01*
X0122201Y0244374D01*
X0121294Y0242185D01*
X0121294Y0239815D01*
X0122201Y0237626D01*
X0123250Y0236577D01*
X0123250Y0234575D01*
X0124131Y0231863D01*
X0125807Y0229557D01*
X0128113Y0227881D01*
X0128113Y0227881D01*
X0130825Y0227000D01*
X0160693Y0227000D01*
X0159427Y0226475D01*
X0158025Y0225073D01*
X0157266Y0223241D01*
X0157266Y0221259D01*
X0158025Y0219427D01*
X0159427Y0218025D01*
X0161259Y0217266D01*
X0162982Y0217266D01*
X0163623Y0217000D01*
X0184201Y0217000D01*
X0184427Y0216775D01*
X0186259Y0216016D01*
X0188241Y0216016D01*
X0190073Y0216775D01*
X0191475Y0218177D01*
X0192234Y0220009D01*
X0192234Y0221991D01*
X0191475Y0223823D01*
X0190073Y0225225D01*
X0188241Y0225984D01*
X0186259Y0225984D01*
X0184427Y0225225D01*
X0184201Y0225000D01*
X0166506Y0225000D01*
X0166475Y0225073D01*
X0165073Y0226475D01*
X0163807Y0227000D01*
X0196245Y0227000D01*
X0197893Y0227441D01*
X0196775Y0226323D01*
X0196016Y0224491D01*
X0196016Y0222509D01*
X0196775Y0220677D01*
X0198177Y0219275D01*
X0200009Y0218516D01*
X0201991Y0218516D01*
X0203823Y0219275D01*
X0205225Y0220677D01*
X0205984Y0222509D01*
X0205984Y0222796D01*
X0206119Y0222907D01*
X0206853Y0223211D01*
X0207250Y0223250D01*
X0222451Y0223250D01*
X0221775Y0222573D01*
X0221016Y0220741D01*
X0221016Y0218759D01*
X0221775Y0216927D01*
X0223177Y0215525D01*
X0225009Y0214766D01*
X0226991Y0214766D01*
X0228823Y0215525D01*
X0229049Y0215750D01*
X0247250Y0215750D01*
X0247250Y0179750D01*
X0244177Y0176677D01*
X0242670Y0175807D01*
X0239766Y0172902D01*
X0238896Y0171396D01*
X0234750Y0167250D01*
X0211250Y0167250D01*
X0211250Y0176701D01*
X0211475Y0176927D01*
X0212234Y0178759D01*
X0212234Y0180741D01*
X0211475Y0182573D01*
X0210073Y0183975D01*
X0208241Y0184734D01*
X0206259Y0184734D01*
X0206250Y0184731D01*
X0206250Y0199201D01*
X0206475Y0199427D01*
X0207234Y0201259D01*
X0207234Y0203241D01*
X0206475Y0205073D01*
X0205073Y0206475D01*
X0203241Y0207234D01*
X0201259Y0207234D01*
X0199427Y0206475D01*
X0198025Y0205073D01*
X0197266Y0203241D01*
X0197266Y0201259D01*
X0198025Y0199427D01*
X0198250Y0199201D01*
X0198250Y0167250D01*
X0182907Y0167250D01*
X0153261Y0196895D01*
X0153060Y0197207D01*
X0152704Y0197452D01*
X0152399Y0197758D01*
X0152150Y0197861D01*
X0152104Y0197897D01*
X0151607Y0198482D01*
X0151278Y0199175D01*
X0151250Y0199288D01*
X0151250Y0206577D01*
X0152250Y0207577D01*
X0153876Y0205951D01*
X0156065Y0205044D01*
X0158435Y0205044D01*
X0160624Y0205951D01*
X0162299Y0207626D01*
X0163206Y0209815D01*
X0163206Y0212185D01*
X0162299Y0214374D01*
X0160624Y0216049D01*
X0158435Y0216956D01*
X0156065Y0216956D01*
X0153876Y0216049D01*
X0152250Y0214423D01*
X0150624Y0216049D01*
X0148435Y0216956D01*
X0146065Y0216956D01*
X0143876Y0216049D01*
X0142250Y0214423D01*
X0140854Y0215819D01*
X0139895Y0218770D01*
X0139895Y0218770D01*
X0137318Y0222318D01*
X0137318Y0222318D01*
X0137318Y0222318D01*
X0133770Y0224895D01*
X0129600Y0226250D01*
X0116327Y0226250D01*
X0115564Y0226300D01*
X0114091Y0226695D01*
X0112770Y0227457D01*
X0112196Y0227961D01*
X0105984Y0234173D01*
X0105984Y0234491D01*
X0105225Y0236323D01*
X0103823Y0237725D01*
X0101991Y0238484D01*
X0100009Y0238484D01*
X0098177Y0237725D01*
X0096775Y0236323D01*
X0096016Y0234491D01*
X0096016Y0232509D01*
X0096775Y0230677D01*
X0098177Y0229275D01*
X0100009Y0228516D01*
X0100327Y0228516D01*
X0107101Y0221742D01*
X0107101Y0221742D01*
X0107827Y0221016D01*
X0107827Y0221016D01*
X0110984Y0219193D01*
X0114504Y0218250D01*
X0127407Y0218250D01*
X0128321Y0218178D01*
X0130060Y0217613D01*
X0131539Y0216539D01*
X0132613Y0215060D01*
X0132680Y0214853D01*
X0132250Y0214423D01*
X0130624Y0216049D01*
X0128435Y0216956D01*
X0126065Y0216956D01*
X0123876Y0216049D01*
X0122201Y0214374D01*
X0121294Y0212185D01*
X0121294Y0209815D01*
X0122201Y0207626D01*
X0123876Y0205951D01*
X0126065Y0205044D01*
X0128435Y0205044D01*
X0130624Y0205951D01*
X0132250Y0207577D01*
X0133876Y0205951D01*
X0136065Y0205044D01*
X0138435Y0205044D01*
X0140624Y0205951D01*
X0142250Y0207577D01*
X0143250Y0206577D01*
X0143250Y0199252D01*
X0143172Y0198889D01*
X0143250Y0198464D01*
X0143250Y0198031D01*
X0143392Y0197689D01*
X0143575Y0196690D01*
X0144809Y0194088D01*
X0145309Y0193500D01*
X0097625Y0193500D01*
X0098046Y0195073D01*
X0098046Y0198976D01*
X0097036Y0202747D01*
X0095084Y0206127D01*
X0092324Y0208887D01*
X0088943Y0210839D01*
X0085173Y0211849D01*
X0081269Y0211849D01*
X0077499Y0210839D01*
X0074118Y0208887D01*
X0071358Y0206127D01*
X0069406Y0202747D01*
X0069273Y0202250D01*
X0070034Y0203834D02*
X0007200Y0203834D01*
X0007200Y0205433D02*
X0015756Y0205433D01*
X0015887Y0205302D02*
X0016613Y0204775D01*
X0017412Y0204368D01*
X0018265Y0204090D01*
X0019151Y0203950D01*
X0023000Y0203950D01*
X0023000Y0209150D01*
X0024000Y0209150D01*
X0024000Y0210150D01*
X0023000Y0210150D01*
X0023000Y0215350D01*
X0019151Y0215350D01*
X0018265Y0215210D01*
X0017412Y0214932D01*
X0016613Y0214525D01*
X0015887Y0213998D01*
X0015252Y0213363D01*
X0014725Y0212637D01*
X0014318Y0211838D01*
X0014040Y0210985D01*
X0013908Y0210150D01*
X0023000Y0210150D01*
X0023000Y0209150D01*
X0013908Y0209150D01*
X0014040Y0208315D01*
X0014318Y0207462D01*
X0014725Y0206663D01*
X0015252Y0205937D01*
X0015887Y0205302D01*
X0014537Y0207032D02*
X0007200Y0207032D01*
X0007200Y0208630D02*
X0013990Y0208630D01*
X0013921Y0210229D02*
X0007200Y0210229D01*
X0007200Y0211827D02*
X0014314Y0211827D01*
X0015315Y0213426D02*
X0007200Y0213426D01*
X0007200Y0215024D02*
X0017694Y0215024D01*
X0023000Y0215024D02*
X0024000Y0215024D01*
X0024000Y0215350D02*
X0024000Y0210150D01*
X0033092Y0210150D01*
X0032960Y0210985D01*
X0032682Y0211838D01*
X0032275Y0212637D01*
X0031748Y0213363D01*
X0031113Y0213998D01*
X0030387Y0214525D01*
X0029588Y0214932D01*
X0028735Y0215210D01*
X0027849Y0215350D01*
X0024000Y0215350D01*
X0024000Y0213426D02*
X0023000Y0213426D01*
X0023000Y0211827D02*
X0024000Y0211827D01*
X0024000Y0210229D02*
X0023000Y0210229D01*
X0024000Y0209150D02*
X0024000Y0203950D01*
X0027849Y0203950D01*
X0028735Y0204090D01*
X0029588Y0204368D01*
X0030387Y0204775D01*
X0031113Y0205302D01*
X0031748Y0205937D01*
X0032275Y0206663D01*
X0032682Y0207462D01*
X0032960Y0208315D01*
X0033092Y0209150D01*
X0024000Y0209150D01*
X0024000Y0208630D02*
X0023000Y0208630D01*
X0023000Y0207032D02*
X0024000Y0207032D01*
X0024000Y0205433D02*
X0023000Y0205433D01*
X0031244Y0205433D02*
X0070957Y0205433D01*
X0072262Y0207032D02*
X0032463Y0207032D01*
X0033009Y0208630D02*
X0073861Y0208630D01*
X0076441Y0210229D02*
X0033079Y0210229D01*
X0032686Y0211827D02*
X0081186Y0211827D01*
X0085256Y0211827D02*
X0121294Y0211827D01*
X0121294Y0210229D02*
X0090001Y0210229D01*
X0092581Y0208630D02*
X0121785Y0208630D01*
X0122796Y0207032D02*
X0094180Y0207032D01*
X0095485Y0205433D02*
X0125126Y0205433D01*
X0129374Y0205433D02*
X0135126Y0205433D01*
X0132796Y0207032D02*
X0131704Y0207032D01*
X0137250Y0211000D02*
X0137250Y0212407D01*
X0141649Y0215024D02*
X0142851Y0215024D01*
X0140593Y0216623D02*
X0145261Y0216623D01*
X0149239Y0216623D02*
X0155261Y0216623D01*
X0152851Y0215024D02*
X0151649Y0215024D01*
X0159239Y0216623D02*
X0184794Y0216623D01*
X0189706Y0216623D02*
X0222079Y0216623D01*
X0221238Y0218221D02*
X0191494Y0218221D01*
X0192156Y0219820D02*
X0197632Y0219820D01*
X0196467Y0221418D02*
X0192234Y0221418D01*
X0191810Y0223017D02*
X0196016Y0223017D01*
X0196067Y0224615D02*
X0190684Y0224615D01*
X0187250Y0221000D02*
X0165268Y0221000D01*
X0165139Y0221002D01*
X0165010Y0221008D01*
X0164882Y0221018D01*
X0164754Y0221031D01*
X0164626Y0221049D01*
X0164499Y0221070D01*
X0164372Y0221095D01*
X0164247Y0221124D01*
X0164122Y0221157D01*
X0163998Y0221193D01*
X0163876Y0221233D01*
X0163755Y0221277D01*
X0163635Y0221325D01*
X0163516Y0221376D01*
X0163400Y0221431D01*
X0163285Y0221489D01*
X0163171Y0221551D01*
X0163060Y0221616D01*
X0162951Y0221684D01*
X0162843Y0221756D01*
X0162739Y0221830D01*
X0162636Y0221908D01*
X0162536Y0221989D01*
X0162438Y0222073D01*
X0162343Y0222160D01*
X0162250Y0222250D01*
X0157835Y0224615D02*
X0134155Y0224615D01*
X0133770Y0224895D02*
X0133770Y0224895D01*
X0136355Y0223017D02*
X0157266Y0223017D01*
X0157266Y0221418D02*
X0137971Y0221418D01*
X0139133Y0219820D02*
X0157862Y0219820D01*
X0159230Y0218221D02*
X0140073Y0218221D01*
X0132625Y0215024D02*
X0131649Y0215024D01*
X0131423Y0216623D02*
X0129239Y0216623D01*
X0127775Y0218221D02*
X0007200Y0218221D01*
X0007200Y0216623D02*
X0125261Y0216623D01*
X0122851Y0215024D02*
X0029306Y0215024D01*
X0031685Y0213426D02*
X0121808Y0213426D01*
X0127407Y0222250D02*
X0127645Y0222247D01*
X0127883Y0222239D01*
X0128120Y0222224D01*
X0128357Y0222204D01*
X0128593Y0222178D01*
X0128829Y0222147D01*
X0129064Y0222110D01*
X0129298Y0222067D01*
X0129531Y0222018D01*
X0129763Y0221964D01*
X0129993Y0221904D01*
X0130222Y0221839D01*
X0130449Y0221768D01*
X0130674Y0221692D01*
X0130897Y0221610D01*
X0131119Y0221523D01*
X0131338Y0221431D01*
X0131555Y0221333D01*
X0131769Y0221231D01*
X0131981Y0221123D01*
X0132191Y0221009D01*
X0132397Y0220891D01*
X0132601Y0220768D01*
X0132801Y0220640D01*
X0132998Y0220508D01*
X0133193Y0220370D01*
X0133383Y0220228D01*
X0133571Y0220081D01*
X0133754Y0219930D01*
X0133934Y0219775D01*
X0134110Y0219615D01*
X0134282Y0219451D01*
X0134451Y0219282D01*
X0134615Y0219110D01*
X0134775Y0218934D01*
X0134930Y0218754D01*
X0135081Y0218571D01*
X0135228Y0218383D01*
X0135370Y0218193D01*
X0135508Y0217998D01*
X0135640Y0217801D01*
X0135768Y0217601D01*
X0135891Y0217397D01*
X0136009Y0217191D01*
X0136123Y0216981D01*
X0136231Y0216769D01*
X0136333Y0216555D01*
X0136431Y0216338D01*
X0136523Y0216119D01*
X0136610Y0215897D01*
X0136692Y0215674D01*
X0136768Y0215449D01*
X0136839Y0215222D01*
X0136904Y0214993D01*
X0136964Y0214763D01*
X0137018Y0214531D01*
X0137067Y0214298D01*
X0137110Y0214064D01*
X0137147Y0213829D01*
X0137178Y0213593D01*
X0137204Y0213357D01*
X0137224Y0213120D01*
X0137239Y0212883D01*
X0137247Y0212645D01*
X0137250Y0212407D01*
X0141704Y0207032D02*
X0142796Y0207032D01*
X0143250Y0205433D02*
X0139374Y0205433D01*
X0143250Y0203834D02*
X0096408Y0203834D01*
X0097173Y0202236D02*
X0143250Y0202236D01*
X0143250Y0200637D02*
X0097601Y0200637D01*
X0098029Y0199039D02*
X0143204Y0199039D01*
X0143437Y0197440D02*
X0098046Y0197440D01*
X0098046Y0195842D02*
X0143977Y0195842D01*
X0143575Y0196690D02*
X0143575Y0196690D01*
X0144735Y0194243D02*
X0097824Y0194243D01*
X0095012Y0187849D02*
X0150994Y0187849D01*
X0152592Y0186251D02*
X0093413Y0186251D01*
X0091442Y0184652D02*
X0154191Y0184652D01*
X0155789Y0183054D02*
X0088361Y0183054D01*
X0101790Y0178258D02*
X0160585Y0178258D01*
X0162183Y0176660D02*
X0105353Y0176660D01*
X0107575Y0175061D02*
X0163782Y0175061D01*
X0165380Y0173463D02*
X0109174Y0173463D01*
X0110334Y0171864D02*
X0166979Y0171864D01*
X0168500Y0170266D02*
X0111257Y0170266D01*
X0111970Y0168667D02*
X0168500Y0168667D01*
X0168500Y0167069D02*
X0112398Y0167069D01*
X0112827Y0165470D02*
X0168500Y0165470D01*
X0168500Y0163872D02*
X0112852Y0163872D01*
X0112852Y0162273D02*
X0168500Y0162273D01*
X0168500Y0160675D02*
X0112692Y0160675D01*
X0112264Y0159076D02*
X0168500Y0159076D01*
X0168500Y0157478D02*
X0111836Y0157478D01*
X0110968Y0155879D02*
X0168500Y0155879D01*
X0168500Y0154281D02*
X0110045Y0154281D01*
X0108673Y0152682D02*
X0168500Y0152682D01*
X0168500Y0151084D02*
X0107075Y0151084D01*
X0104485Y0149485D02*
X0168500Y0149485D01*
X0168500Y0147887D02*
X0099921Y0147887D01*
X0094579Y0147887D02*
X0025450Y0147887D01*
X0025450Y0149485D02*
X0090014Y0149485D01*
X0087425Y0151084D02*
X0025450Y0151084D01*
X0025450Y0152682D02*
X0085827Y0152682D01*
X0084455Y0154281D02*
X0025450Y0154281D01*
X0023967Y0155879D02*
X0083532Y0155879D01*
X0082664Y0157478D02*
X0022369Y0157478D01*
X0020770Y0159076D02*
X0082236Y0159076D01*
X0024135Y0146288D02*
X0168168Y0146288D01*
X0165400Y0144690D02*
X0022536Y0144690D01*
X0020938Y0143091D02*
X0163704Y0143091D01*
X0195617Y0148883D02*
X0195781Y0148715D01*
X0195940Y0148544D01*
X0196096Y0148369D01*
X0196247Y0148190D01*
X0196394Y0148008D01*
X0196537Y0147822D01*
X0196675Y0147633D01*
X0196808Y0147440D01*
X0196937Y0147245D01*
X0197062Y0147046D01*
X0197181Y0146845D01*
X0197296Y0146640D01*
X0197406Y0146433D01*
X0197511Y0146224D01*
X0197611Y0146012D01*
X0197705Y0145798D01*
X0197795Y0145581D01*
X0197879Y0145363D01*
X0197959Y0145142D01*
X0198033Y0144920D01*
X0198101Y0144696D01*
X0198165Y0144471D01*
X0198223Y0144244D01*
X0198275Y0144015D01*
X0198322Y0143786D01*
X0198364Y0143555D01*
X0198400Y0143324D01*
X0198430Y0143092D01*
X0198455Y0142859D01*
X0198475Y0142625D01*
X0198489Y0142391D01*
X0198497Y0142157D01*
X0198500Y0141923D01*
X0198500Y0131000D01*
X0207250Y0131327D02*
X0207247Y0131093D01*
X0207239Y0130859D01*
X0207225Y0130625D01*
X0207205Y0130391D01*
X0207180Y0130158D01*
X0207150Y0129926D01*
X0207114Y0129695D01*
X0207072Y0129464D01*
X0207025Y0129235D01*
X0206973Y0129006D01*
X0206915Y0128779D01*
X0206851Y0128554D01*
X0206783Y0128330D01*
X0206709Y0128108D01*
X0206629Y0127887D01*
X0206545Y0127669D01*
X0206455Y0127452D01*
X0206361Y0127238D01*
X0206261Y0127026D01*
X0206156Y0126817D01*
X0206046Y0126610D01*
X0205931Y0126405D01*
X0205812Y0126204D01*
X0205687Y0126005D01*
X0205558Y0125810D01*
X0205425Y0125617D01*
X0205287Y0125428D01*
X0205144Y0125242D01*
X0204997Y0125060D01*
X0204846Y0124881D01*
X0204690Y0124706D01*
X0204531Y0124535D01*
X0204367Y0124367D01*
X0198500Y0118500D01*
X0203484Y0117827D02*
X0203484Y0117509D01*
X0202725Y0115677D01*
X0201323Y0114275D01*
X0199491Y0113516D01*
X0197509Y0113516D01*
X0197007Y0113723D01*
X0173500Y0091000D01*
X0173500Y0067250D01*
X0172250Y0066000D01*
X0172250Y0058958D01*
X0171108Y0056202D01*
X0168998Y0054092D01*
X0166242Y0052950D01*
X0166000Y0052950D01*
X0166000Y0044750D01*
X0171000Y0039750D01*
X0207515Y0039750D01*
X0207500Y0039765D01*
X0207500Y0044735D01*
X0211015Y0048250D01*
X0215985Y0048250D01*
X0217743Y0046493D01*
X0224750Y0053500D01*
X0282250Y0053500D01*
X0287250Y0048500D01*
X0336000Y0048500D01*
X0347250Y0059750D01*
X0347250Y0072250D01*
X0339750Y0079750D01*
X0316000Y0079750D01*
X0268500Y0127250D01*
X0211000Y0127250D01*
X0210522Y0126788D01*
X0210307Y0125984D01*
X0210307Y0125984D01*
X0208484Y0122827D01*
X0208484Y0122827D01*
X0207758Y0122101D01*
X0207758Y0122101D01*
X0203484Y0117827D01*
X0203484Y0117515D02*
X0278235Y0117515D01*
X0276637Y0119113D02*
X0204770Y0119113D01*
X0206369Y0120712D02*
X0275038Y0120712D01*
X0273440Y0122310D02*
X0207967Y0122310D01*
X0208484Y0122827D02*
X0208484Y0122827D01*
X0209109Y0123909D02*
X0271841Y0123909D01*
X0270243Y0125507D02*
X0210032Y0125507D01*
X0210851Y0127106D02*
X0268644Y0127106D01*
X0279834Y0115916D02*
X0202825Y0115916D01*
X0201367Y0114318D02*
X0281432Y0114318D01*
X0283031Y0112719D02*
X0195968Y0112719D01*
X0194315Y0111121D02*
X0284629Y0111121D01*
X0286228Y0109522D02*
X0192661Y0109522D01*
X0191007Y0107924D02*
X0287826Y0107924D01*
X0289425Y0106325D02*
X0264788Y0106325D01*
X0263642Y0106800D02*
X0260858Y0106800D01*
X0258285Y0105734D01*
X0256316Y0103765D01*
X0255250Y0101192D01*
X0255250Y0090808D01*
X0256316Y0088235D01*
X0258285Y0086266D01*
X0260858Y0085200D01*
X0263642Y0085200D01*
X0266215Y0086266D01*
X0268184Y0088235D01*
X0269250Y0090808D01*
X0269250Y0101192D01*
X0268184Y0103765D01*
X0266215Y0105734D01*
X0263642Y0106800D01*
X0259712Y0106325D02*
X0244788Y0106325D01*
X0243642Y0106800D02*
X0240858Y0106800D01*
X0238285Y0105734D01*
X0236316Y0103765D01*
X0235250Y0101192D01*
X0235250Y0090808D01*
X0236316Y0088235D01*
X0238285Y0086266D01*
X0240858Y0085200D01*
X0243642Y0085200D01*
X0246215Y0086266D01*
X0248184Y0088235D01*
X0249250Y0090808D01*
X0249250Y0101192D01*
X0248184Y0103765D01*
X0246215Y0105734D01*
X0243642Y0106800D01*
X0239712Y0106325D02*
X0189354Y0106325D01*
X0187700Y0104727D02*
X0237277Y0104727D01*
X0236052Y0103128D02*
X0186046Y0103128D01*
X0184393Y0101530D02*
X0235390Y0101530D01*
X0235250Y0099931D02*
X0182739Y0099931D01*
X0181086Y0098333D02*
X0235250Y0098333D01*
X0235250Y0096734D02*
X0179432Y0096734D01*
X0177778Y0095136D02*
X0235250Y0095136D01*
X0235250Y0093537D02*
X0176125Y0093537D01*
X0174471Y0091939D02*
X0235250Y0091939D01*
X0235444Y0090340D02*
X0173500Y0090340D01*
X0173500Y0088742D02*
X0236106Y0088742D01*
X0237407Y0087143D02*
X0173500Y0087143D01*
X0173500Y0085545D02*
X0240026Y0085545D01*
X0244474Y0085545D02*
X0260026Y0085545D01*
X0257407Y0087143D02*
X0247093Y0087143D01*
X0248394Y0088742D02*
X0256106Y0088742D01*
X0255444Y0090340D02*
X0249056Y0090340D01*
X0249250Y0091939D02*
X0255250Y0091939D01*
X0255250Y0093537D02*
X0249250Y0093537D01*
X0249250Y0095136D02*
X0255250Y0095136D01*
X0255250Y0096734D02*
X0249250Y0096734D01*
X0249250Y0098333D02*
X0255250Y0098333D01*
X0255250Y0099931D02*
X0249250Y0099931D01*
X0249110Y0101530D02*
X0255390Y0101530D01*
X0256052Y0103128D02*
X0248448Y0103128D01*
X0247223Y0104727D02*
X0257277Y0104727D01*
X0267223Y0104727D02*
X0291023Y0104727D01*
X0292622Y0103128D02*
X0268448Y0103128D01*
X0269110Y0101530D02*
X0294220Y0101530D01*
X0295819Y0099931D02*
X0269250Y0099931D01*
X0269250Y0098333D02*
X0297417Y0098333D01*
X0299016Y0096734D02*
X0269250Y0096734D01*
X0269250Y0095136D02*
X0300614Y0095136D01*
X0302213Y0093537D02*
X0269250Y0093537D01*
X0269250Y0091939D02*
X0303811Y0091939D01*
X0305410Y0090340D02*
X0269056Y0090340D01*
X0268394Y0088742D02*
X0307008Y0088742D01*
X0308607Y0087143D02*
X0267093Y0087143D01*
X0264474Y0085545D02*
X0310205Y0085545D01*
X0311804Y0083946D02*
X0173500Y0083946D01*
X0173500Y0082348D02*
X0313402Y0082348D01*
X0315001Y0080749D02*
X0307943Y0080749D01*
X0307463Y0081229D02*
X0305195Y0082168D01*
X0296804Y0082168D01*
X0294537Y0081229D01*
X0292802Y0079494D01*
X0291863Y0077227D01*
X0291863Y0074773D01*
X0292802Y0072506D01*
X0294537Y0070771D01*
X0296804Y0069831D01*
X0305195Y0069831D01*
X0307463Y0070771D01*
X0309198Y0072506D01*
X0310137Y0074773D01*
X0310137Y0077227D01*
X0309198Y0079494D01*
X0307463Y0081229D01*
X0309340Y0079151D02*
X0340349Y0079151D01*
X0341948Y0077552D02*
X0310002Y0077552D01*
X0310137Y0075954D02*
X0343546Y0075954D01*
X0345145Y0074355D02*
X0309964Y0074355D01*
X0309302Y0072757D02*
X0346743Y0072757D01*
X0347250Y0071158D02*
X0307850Y0071158D01*
X0294150Y0071158D02*
X0191995Y0071158D01*
X0192250Y0070542D02*
X0191108Y0073298D01*
X0188998Y0075408D01*
X0186242Y0076550D01*
X0183258Y0076550D01*
X0180502Y0075408D01*
X0178392Y0073298D01*
X0177250Y0070542D01*
X0177250Y0058958D01*
X0178392Y0056202D01*
X0180502Y0054092D01*
X0183258Y0052950D01*
X0186242Y0052950D01*
X0188998Y0054092D01*
X0191108Y0056202D01*
X0192250Y0058958D01*
X0192250Y0070542D01*
X0192250Y0069560D02*
X0347250Y0069560D01*
X0347250Y0067961D02*
X0216557Y0067961D01*
X0216068Y0068450D02*
X0210932Y0068450D01*
X0207300Y0064818D01*
X0207300Y0059682D01*
X0210932Y0056050D01*
X0216068Y0056050D01*
X0219700Y0059682D01*
X0219700Y0064818D01*
X0216068Y0068450D01*
X0218156Y0066363D02*
X0347250Y0066363D01*
X0347250Y0064764D02*
X0219700Y0064764D01*
X0219700Y0063166D02*
X0347250Y0063166D01*
X0347250Y0061567D02*
X0219700Y0061567D01*
X0219700Y0059968D02*
X0347250Y0059968D01*
X0345870Y0058370D02*
X0218388Y0058370D01*
X0216790Y0056771D02*
X0344271Y0056771D01*
X0342673Y0055173D02*
X0190080Y0055173D01*
X0191344Y0056771D02*
X0210210Y0056771D01*
X0208612Y0058370D02*
X0192006Y0058370D01*
X0192250Y0059968D02*
X0207300Y0059968D01*
X0207300Y0061567D02*
X0192250Y0061567D01*
X0192250Y0063166D02*
X0207300Y0063166D01*
X0207300Y0064764D02*
X0192250Y0064764D01*
X0192250Y0066363D02*
X0208844Y0066363D01*
X0210443Y0067961D02*
X0192250Y0067961D01*
X0191333Y0072757D02*
X0292698Y0072757D01*
X0292036Y0074355D02*
X0190052Y0074355D01*
X0187682Y0075954D02*
X0291863Y0075954D01*
X0291998Y0077552D02*
X0173500Y0077552D01*
X0173500Y0075954D02*
X0181818Y0075954D01*
X0179448Y0074355D02*
X0173500Y0074355D01*
X0173500Y0072757D02*
X0178167Y0072757D01*
X0177505Y0071158D02*
X0173500Y0071158D01*
X0173500Y0069560D02*
X0177250Y0069560D01*
X0177250Y0067961D02*
X0173500Y0067961D01*
X0172613Y0066363D02*
X0177250Y0066363D01*
X0177250Y0064764D02*
X0172250Y0064764D01*
X0172250Y0063166D02*
X0177250Y0063166D01*
X0177250Y0061567D02*
X0172250Y0061567D01*
X0172250Y0059968D02*
X0177250Y0059968D01*
X0177494Y0058370D02*
X0172006Y0058370D01*
X0171344Y0056771D02*
X0178156Y0056771D01*
X0179420Y0055173D02*
X0170080Y0055173D01*
X0167749Y0053574D02*
X0181751Y0053574D01*
X0187749Y0053574D02*
X0341074Y0053574D01*
X0339476Y0051976D02*
X0283774Y0051976D01*
X0285373Y0050377D02*
X0337877Y0050377D01*
X0336279Y0048779D02*
X0286971Y0048779D01*
X0283918Y0045582D02*
X0248653Y0045582D01*
X0249500Y0044735D02*
X0245985Y0048250D01*
X0241015Y0048250D01*
X0237500Y0044735D01*
X0237500Y0039765D01*
X0241015Y0036250D01*
X0245985Y0036250D01*
X0249500Y0039765D01*
X0249500Y0044735D01*
X0249500Y0043983D02*
X0285517Y0043983D01*
X0282320Y0047180D02*
X0247055Y0047180D01*
X0249500Y0042385D02*
X0392300Y0042385D01*
X0392300Y0043983D02*
X0337733Y0043983D01*
X0339332Y0045582D02*
X0392300Y0045582D01*
X0392300Y0047180D02*
X0340930Y0047180D01*
X0342529Y0048779D02*
X0392300Y0048779D01*
X0392300Y0050377D02*
X0344127Y0050377D01*
X0345726Y0051976D02*
X0392300Y0051976D01*
X0392300Y0053574D02*
X0347324Y0053574D01*
X0348923Y0055173D02*
X0392300Y0055173D01*
X0392300Y0056771D02*
X0350521Y0056771D01*
X0352120Y0058370D02*
X0392300Y0058370D01*
X0392300Y0059968D02*
X0352250Y0059968D01*
X0352250Y0061567D02*
X0392300Y0061567D01*
X0392300Y0063166D02*
X0352250Y0063166D01*
X0352250Y0064764D02*
X0392300Y0064764D01*
X0392300Y0066363D02*
X0352250Y0066363D01*
X0352250Y0067961D02*
X0392300Y0067961D01*
X0392300Y0069560D02*
X0352250Y0069560D01*
X0352250Y0071158D02*
X0392300Y0071158D01*
X0392300Y0072757D02*
X0352250Y0072757D01*
X0351395Y0074355D02*
X0392300Y0074355D01*
X0392300Y0075954D02*
X0349796Y0075954D01*
X0348198Y0077552D02*
X0392300Y0077552D01*
X0392300Y0079151D02*
X0346599Y0079151D01*
X0345001Y0080749D02*
X0392300Y0080749D01*
X0392300Y0082348D02*
X0343402Y0082348D01*
X0341804Y0083946D02*
X0392300Y0083946D01*
X0392300Y0085545D02*
X0316491Y0085545D01*
X0314964Y0087143D02*
X0392300Y0087143D01*
X0392300Y0088742D02*
X0313437Y0088742D01*
X0311910Y0090340D02*
X0392300Y0090340D01*
X0392300Y0091939D02*
X0310383Y0091939D01*
X0308857Y0093537D02*
X0392300Y0093537D01*
X0392300Y0095136D02*
X0307330Y0095136D01*
X0305803Y0096734D02*
X0392300Y0096734D01*
X0392300Y0098333D02*
X0304276Y0098333D01*
X0302749Y0099931D02*
X0392300Y0099931D01*
X0392300Y0101530D02*
X0301222Y0101530D01*
X0299751Y0103128D02*
X0392300Y0103128D01*
X0392300Y0104727D02*
X0299774Y0104727D01*
X0299798Y0106325D02*
X0392300Y0106325D01*
X0392300Y0107924D02*
X0299821Y0107924D01*
X0305321Y0109522D02*
X0392300Y0109522D01*
X0392300Y0111121D02*
X0306659Y0111121D01*
X0307234Y0112719D02*
X0392300Y0112719D01*
X0392300Y0114318D02*
X0307234Y0114318D01*
X0306644Y0115916D02*
X0392300Y0115916D01*
X0392300Y0117515D02*
X0306250Y0117515D01*
X0306151Y0119113D02*
X0392300Y0119113D01*
X0392300Y0120712D02*
X0305723Y0120712D01*
X0305281Y0122310D02*
X0308093Y0122310D01*
X0308853Y0121550D02*
X0315647Y0121550D01*
X0320450Y0126353D01*
X0320450Y0133147D01*
X0315647Y0137950D01*
X0308853Y0137950D01*
X0304050Y0133147D01*
X0304050Y0126353D01*
X0308853Y0121550D01*
X0306495Y0123909D02*
X0304358Y0123909D01*
X0304896Y0125507D02*
X0303399Y0125507D01*
X0304050Y0127106D02*
X0301801Y0127106D01*
X0300234Y0128704D02*
X0304050Y0128704D01*
X0304050Y0130303D02*
X0300148Y0130303D01*
X0291000Y0130077D02*
X0291003Y0129843D01*
X0291011Y0129609D01*
X0291025Y0129375D01*
X0291045Y0129141D01*
X0291070Y0128908D01*
X0291100Y0128676D01*
X0291136Y0128445D01*
X0291178Y0128214D01*
X0291225Y0127985D01*
X0291277Y0127756D01*
X0291335Y0127529D01*
X0291399Y0127304D01*
X0291467Y0127080D01*
X0291541Y0126858D01*
X0291621Y0126637D01*
X0291705Y0126419D01*
X0291795Y0126202D01*
X0291889Y0125988D01*
X0291989Y0125776D01*
X0292094Y0125567D01*
X0292204Y0125360D01*
X0292319Y0125155D01*
X0292438Y0124954D01*
X0292563Y0124755D01*
X0292692Y0124560D01*
X0292825Y0124367D01*
X0292963Y0124178D01*
X0293106Y0123992D01*
X0293253Y0123810D01*
X0293404Y0123631D01*
X0293560Y0123456D01*
X0293719Y0123285D01*
X0293883Y0123117D01*
X0296000Y0121000D01*
X0290133Y0115617D02*
X0289969Y0115785D01*
X0289810Y0115956D01*
X0289654Y0116131D01*
X0289503Y0116310D01*
X0289356Y0116492D01*
X0289213Y0116678D01*
X0289075Y0116867D01*
X0288942Y0117060D01*
X0288813Y0117255D01*
X0288688Y0117454D01*
X0288569Y0117655D01*
X0288454Y0117860D01*
X0288344Y0118067D01*
X0288239Y0118276D01*
X0288139Y0118488D01*
X0288045Y0118702D01*
X0287955Y0118919D01*
X0287871Y0119137D01*
X0287791Y0119358D01*
X0287717Y0119580D01*
X0287649Y0119804D01*
X0287585Y0120029D01*
X0287527Y0120256D01*
X0287475Y0120485D01*
X0287428Y0120714D01*
X0287386Y0120945D01*
X0287350Y0121176D01*
X0287320Y0121408D01*
X0287295Y0121641D01*
X0287275Y0121875D01*
X0287261Y0122109D01*
X0287253Y0122343D01*
X0287250Y0122577D01*
X0287250Y0205179D01*
X0291000Y0206429D02*
X0290998Y0206569D01*
X0290992Y0206709D01*
X0290982Y0206849D01*
X0290969Y0206989D01*
X0290951Y0207128D01*
X0290929Y0207267D01*
X0290904Y0207404D01*
X0290875Y0207542D01*
X0290842Y0207678D01*
X0290805Y0207813D01*
X0290764Y0207947D01*
X0290719Y0208080D01*
X0290671Y0208212D01*
X0290619Y0208342D01*
X0290564Y0208471D01*
X0290505Y0208598D01*
X0290442Y0208724D01*
X0290376Y0208848D01*
X0290307Y0208969D01*
X0290234Y0209089D01*
X0290157Y0209207D01*
X0290078Y0209322D01*
X0289995Y0209436D01*
X0289909Y0209546D01*
X0289820Y0209655D01*
X0289728Y0209761D01*
X0289633Y0209864D01*
X0289536Y0209965D01*
X0289536Y0209964D02*
X0278883Y0220617D01*
X0279750Y0226000D02*
X0279657Y0226090D01*
X0279562Y0226177D01*
X0279464Y0226261D01*
X0279364Y0226342D01*
X0279261Y0226420D01*
X0279157Y0226494D01*
X0279049Y0226566D01*
X0278940Y0226634D01*
X0278829Y0226699D01*
X0278715Y0226761D01*
X0278600Y0226819D01*
X0278484Y0226874D01*
X0278365Y0226925D01*
X0278245Y0226973D01*
X0278124Y0227017D01*
X0278002Y0227057D01*
X0277878Y0227093D01*
X0277753Y0227126D01*
X0277628Y0227155D01*
X0277501Y0227180D01*
X0277374Y0227201D01*
X0277246Y0227219D01*
X0277118Y0227232D01*
X0276990Y0227242D01*
X0276861Y0227248D01*
X0276732Y0227250D01*
X0207250Y0227250D01*
X0204672Y0231009D02*
X0204166Y0231009D01*
X0207156Y0232608D02*
X0234844Y0232608D01*
X0233848Y0234206D02*
X0218658Y0234206D01*
X0220278Y0235805D02*
X0233516Y0235805D01*
X0233686Y0237403D02*
X0220941Y0237403D01*
X0220984Y0239002D02*
X0234453Y0239002D01*
X0236582Y0240600D02*
X0220525Y0240600D01*
X0219350Y0242199D02*
X0239119Y0242199D01*
X0240498Y0243797D02*
X0216360Y0243797D01*
X0214774Y0245383D02*
X0214774Y0245383D01*
X0214761Y0245396D02*
X0247250Y0245396D01*
X0247250Y0246994D02*
X0213163Y0246994D01*
X0210569Y0248593D02*
X0247250Y0248593D01*
X0247250Y0250191D02*
X0077950Y0250191D01*
X0077950Y0251132D02*
X0076892Y0253687D01*
X0074937Y0255642D01*
X0072382Y0256700D01*
X0069618Y0256700D01*
X0067063Y0255642D01*
X0065108Y0253687D01*
X0064050Y0251132D01*
X0064050Y0248368D01*
X0065108Y0245813D01*
X0067063Y0243858D01*
X0069618Y0242800D01*
X0072382Y0242800D01*
X0074937Y0243858D01*
X0076892Y0245813D01*
X0077950Y0248368D01*
X0077950Y0251132D01*
X0077678Y0251790D02*
X0091829Y0251790D01*
X0091525Y0251916D02*
X0093720Y0251007D01*
X0096095Y0251007D01*
X0098290Y0251916D01*
X0099970Y0253596D01*
X0100879Y0255791D01*
X0100879Y0263709D01*
X0099970Y0265904D01*
X0098290Y0267584D01*
X0096095Y0268493D01*
X0093720Y0268493D01*
X0091525Y0267584D01*
X0089845Y0265904D01*
X0088936Y0263709D01*
X0088936Y0255791D01*
X0089845Y0253596D01*
X0091525Y0251916D01*
X0090052Y0253388D02*
X0077016Y0253388D01*
X0075592Y0254987D02*
X0089269Y0254987D01*
X0088936Y0256585D02*
X0072659Y0256585D01*
X0069341Y0256585D02*
X0046091Y0256585D01*
X0046147Y0256529D02*
X0045629Y0257047D01*
X0045037Y0257477D01*
X0044385Y0257809D01*
X0043689Y0258035D01*
X0042966Y0258150D01*
X0039836Y0258150D01*
X0039836Y0253586D01*
X0039664Y0253586D01*
X0039664Y0258150D01*
X0036534Y0258150D01*
X0035811Y0258035D01*
X0035115Y0257809D01*
X0034463Y0257477D01*
X0033871Y0257047D01*
X0033353Y0256529D01*
X0032923Y0255937D01*
X0032591Y0255285D01*
X0032364Y0254589D01*
X0032250Y0253866D01*
X0032250Y0253586D01*
X0039664Y0253586D01*
X0039664Y0253414D01*
X0032250Y0253414D01*
X0032250Y0253134D01*
X0032364Y0252411D01*
X0032591Y0251715D01*
X0032923Y0251063D01*
X0033353Y0250471D01*
X0033871Y0249953D01*
X0034463Y0249523D01*
X0034987Y0249256D01*
X0033473Y0248629D01*
X0031771Y0246927D01*
X0030850Y0244703D01*
X0030850Y0242297D01*
X0031771Y0240073D01*
X0033473Y0238371D01*
X0035697Y0237450D01*
X0043803Y0237450D01*
X0046027Y0238371D01*
X0047729Y0240073D01*
X0048650Y0242297D01*
X0048650Y0244703D01*
X0047729Y0246927D01*
X0046027Y0248629D01*
X0044513Y0249256D01*
X0045037Y0249523D01*
X0045629Y0249953D01*
X0046147Y0250471D01*
X0046577Y0251063D01*
X0046909Y0251715D01*
X0047135Y0252411D01*
X0047250Y0253134D01*
X0047250Y0253414D01*
X0039836Y0253414D01*
X0039836Y0253586D01*
X0047250Y0253586D01*
X0047250Y0253866D01*
X0047135Y0254589D01*
X0046909Y0255285D01*
X0046577Y0255937D01*
X0046147Y0256529D01*
X0047006Y0254987D02*
X0066408Y0254987D01*
X0064984Y0253388D02*
X0047250Y0253388D01*
X0046934Y0251790D02*
X0064322Y0251790D01*
X0064050Y0250191D02*
X0045867Y0250191D01*
X0046063Y0248593D02*
X0064050Y0248593D01*
X0064619Y0246994D02*
X0047662Y0246994D01*
X0048363Y0245396D02*
X0065525Y0245396D01*
X0067210Y0243797D02*
X0048650Y0243797D01*
X0048609Y0242199D02*
X0121300Y0242199D01*
X0121294Y0240600D02*
X0047947Y0240600D01*
X0046658Y0239002D02*
X0121631Y0239002D01*
X0122424Y0237403D02*
X0104146Y0237403D01*
X0105440Y0235805D02*
X0123250Y0235805D01*
X0123370Y0234206D02*
X0105984Y0234206D01*
X0107549Y0232608D02*
X0123889Y0232608D01*
X0124131Y0231863D02*
X0124131Y0231863D01*
X0124751Y0231009D02*
X0109148Y0231009D01*
X0110746Y0229411D02*
X0126008Y0229411D01*
X0125807Y0229557D02*
X0125807Y0229557D01*
X0125807Y0229557D01*
X0128325Y0227812D02*
X0112366Y0227812D01*
X0109367Y0225133D02*
X0101000Y0233500D01*
X0096560Y0235805D02*
X0007200Y0235805D01*
X0007200Y0237403D02*
X0097854Y0237403D01*
X0096016Y0234206D02*
X0007200Y0234206D01*
X0007200Y0232608D02*
X0096016Y0232608D01*
X0096637Y0231009D02*
X0007200Y0231009D01*
X0007200Y0229411D02*
X0098041Y0229411D01*
X0101031Y0227812D02*
X0007200Y0227812D01*
X0007200Y0226214D02*
X0102629Y0226214D01*
X0104228Y0224615D02*
X0007200Y0224615D01*
X0007200Y0223017D02*
X0105827Y0223017D01*
X0107425Y0221418D02*
X0007200Y0221418D01*
X0007200Y0219820D02*
X0109899Y0219820D01*
X0110984Y0219193D02*
X0110984Y0219193D01*
X0116327Y0222250D02*
X0127407Y0222250D01*
X0129712Y0226214D02*
X0159165Y0226214D01*
X0165335Y0226214D02*
X0196729Y0226214D01*
X0201000Y0223500D02*
X0202982Y0225482D01*
X0206384Y0223017D02*
X0222218Y0223017D01*
X0221296Y0221418D02*
X0205533Y0221418D01*
X0202982Y0225482D02*
X0203091Y0225589D01*
X0203204Y0225693D01*
X0203318Y0225794D01*
X0203436Y0225892D01*
X0203555Y0225987D01*
X0203677Y0226079D01*
X0203802Y0226168D01*
X0203928Y0226254D01*
X0204057Y0226336D01*
X0204188Y0226416D01*
X0204321Y0226492D01*
X0204455Y0226564D01*
X0204592Y0226633D01*
X0204730Y0226699D01*
X0204870Y0226761D01*
X0205011Y0226819D01*
X0205154Y0226874D01*
X0205298Y0226926D01*
X0205443Y0226973D01*
X0205590Y0227017D01*
X0205737Y0227057D01*
X0205886Y0227094D01*
X0206035Y0227126D01*
X0206185Y0227155D01*
X0206336Y0227180D01*
X0206487Y0227202D01*
X0206639Y0227219D01*
X0206792Y0227233D01*
X0206944Y0227242D01*
X0207097Y0227248D01*
X0207250Y0227250D01*
X0208152Y0234206D02*
X0213342Y0234206D01*
X0211722Y0235805D02*
X0208484Y0235805D01*
X0208314Y0237403D02*
X0211059Y0237403D01*
X0209841Y0239002D02*
X0207547Y0239002D01*
X0208199Y0240600D02*
X0205418Y0240600D01*
X0205186Y0241950D02*
X0205186Y0241950D01*
X0201582Y0240600D02*
X0163206Y0240600D01*
X0162869Y0239002D02*
X0199453Y0239002D01*
X0198686Y0237403D02*
X0162076Y0237403D01*
X0160271Y0235805D02*
X0197282Y0235805D01*
X0201383Y0233883D02*
X0203500Y0236000D01*
X0204423Y0246000D02*
X0204657Y0245997D01*
X0204891Y0245989D01*
X0205125Y0245975D01*
X0205359Y0245955D01*
X0205592Y0245930D01*
X0205824Y0245900D01*
X0206055Y0245864D01*
X0206286Y0245822D01*
X0206515Y0245775D01*
X0206744Y0245723D01*
X0206971Y0245665D01*
X0207196Y0245601D01*
X0207420Y0245533D01*
X0207642Y0245459D01*
X0207863Y0245379D01*
X0208081Y0245295D01*
X0208298Y0245205D01*
X0208512Y0245111D01*
X0208724Y0245011D01*
X0208933Y0244906D01*
X0209140Y0244796D01*
X0209345Y0244681D01*
X0209546Y0244562D01*
X0209745Y0244437D01*
X0209940Y0244308D01*
X0210133Y0244175D01*
X0210322Y0244037D01*
X0210508Y0243894D01*
X0210690Y0243747D01*
X0210869Y0243596D01*
X0211044Y0243440D01*
X0211215Y0243281D01*
X0211383Y0243117D01*
X0216000Y0238500D01*
X0209766Y0249057D02*
X0209766Y0249057D01*
X0204423Y0246000D02*
X0152250Y0246000D01*
X0148113Y0249119D02*
X0148113Y0249119D01*
X0147389Y0248593D02*
X0077950Y0248593D01*
X0077381Y0246994D02*
X0145481Y0246994D01*
X0145807Y0247443D02*
X0145807Y0247443D01*
X0145807Y0247443D01*
X0143223Y0245396D02*
X0138464Y0245396D01*
X0137250Y0245396D02*
X0137250Y0245396D01*
X0136036Y0245396D02*
X0131277Y0245396D01*
X0132538Y0243797D02*
X0133651Y0243797D01*
X0137250Y0243797D02*
X0137250Y0243797D01*
X0137250Y0242199D02*
X0137250Y0242199D01*
X0137250Y0241000D02*
X0137250Y0236444D01*
X0137250Y0241000D01*
X0137250Y0241000D01*
X0137250Y0240600D02*
X0137250Y0240600D01*
X0137250Y0239002D02*
X0137250Y0239002D01*
X0137250Y0237403D02*
X0137250Y0237403D01*
X0140050Y0237403D02*
X0142424Y0237403D01*
X0141631Y0239002D02*
X0141345Y0239002D01*
X0144229Y0235805D02*
X0131275Y0235805D01*
X0127250Y0236000D02*
X0127252Y0235860D01*
X0127258Y0235720D01*
X0127268Y0235580D01*
X0127281Y0235440D01*
X0127299Y0235301D01*
X0127321Y0235162D01*
X0127346Y0235025D01*
X0127375Y0234887D01*
X0127408Y0234751D01*
X0127445Y0234616D01*
X0127486Y0234482D01*
X0127531Y0234349D01*
X0127579Y0234217D01*
X0127631Y0234087D01*
X0127686Y0233958D01*
X0127745Y0233831D01*
X0127808Y0233705D01*
X0127874Y0233581D01*
X0127943Y0233460D01*
X0128016Y0233340D01*
X0128093Y0233222D01*
X0128172Y0233107D01*
X0128255Y0232993D01*
X0128341Y0232883D01*
X0128430Y0232774D01*
X0128522Y0232668D01*
X0128617Y0232565D01*
X0128714Y0232464D01*
X0128815Y0232367D01*
X0128918Y0232272D01*
X0129024Y0232180D01*
X0129133Y0232091D01*
X0129243Y0232005D01*
X0129357Y0231922D01*
X0129472Y0231843D01*
X0129590Y0231766D01*
X0129710Y0231693D01*
X0129831Y0231624D01*
X0129955Y0231558D01*
X0130081Y0231495D01*
X0130208Y0231436D01*
X0130337Y0231381D01*
X0130467Y0231329D01*
X0130599Y0231281D01*
X0130732Y0231236D01*
X0130866Y0231195D01*
X0131001Y0231158D01*
X0131137Y0231125D01*
X0131275Y0231096D01*
X0131412Y0231071D01*
X0131551Y0231049D01*
X0131690Y0231031D01*
X0131830Y0231018D01*
X0131970Y0231008D01*
X0132110Y0231002D01*
X0132250Y0231000D01*
X0194423Y0231000D01*
X0194657Y0231003D01*
X0194891Y0231011D01*
X0195125Y0231025D01*
X0195359Y0231045D01*
X0195592Y0231070D01*
X0195824Y0231100D01*
X0196055Y0231136D01*
X0196286Y0231178D01*
X0196515Y0231225D01*
X0196744Y0231277D01*
X0196971Y0231335D01*
X0197196Y0231399D01*
X0197420Y0231467D01*
X0197642Y0231541D01*
X0197863Y0231621D01*
X0198081Y0231705D01*
X0198298Y0231795D01*
X0198512Y0231889D01*
X0198724Y0231989D01*
X0198933Y0232094D01*
X0199140Y0232204D01*
X0199345Y0232319D01*
X0199546Y0232438D01*
X0199745Y0232563D01*
X0199940Y0232692D01*
X0200133Y0232825D01*
X0200322Y0232963D01*
X0200508Y0233106D01*
X0200690Y0233253D01*
X0200869Y0233404D01*
X0201044Y0233560D01*
X0201215Y0233719D01*
X0201383Y0233883D01*
X0204368Y0219820D02*
X0221016Y0219820D01*
X0226000Y0219750D02*
X0270673Y0219750D01*
X0271923Y0223500D02*
X0232250Y0223500D01*
X0227615Y0215024D02*
X0247250Y0215024D01*
X0247250Y0213426D02*
X0162692Y0213426D01*
X0163206Y0211827D02*
X0247250Y0211827D01*
X0247250Y0210229D02*
X0163206Y0210229D01*
X0162715Y0208630D02*
X0247250Y0208630D01*
X0247250Y0207032D02*
X0203731Y0207032D01*
X0206116Y0205433D02*
X0247250Y0205433D01*
X0247250Y0203834D02*
X0206989Y0203834D01*
X0207234Y0202236D02*
X0247250Y0202236D01*
X0247250Y0200637D02*
X0206977Y0200637D01*
X0206250Y0199039D02*
X0247250Y0199039D01*
X0247250Y0197440D02*
X0206250Y0197440D01*
X0206250Y0195842D02*
X0247250Y0195842D01*
X0247250Y0194243D02*
X0206250Y0194243D01*
X0206250Y0192645D02*
X0247250Y0192645D01*
X0247250Y0191046D02*
X0206250Y0191046D01*
X0206250Y0189448D02*
X0247250Y0189448D01*
X0247250Y0187849D02*
X0206250Y0187849D01*
X0206250Y0186251D02*
X0247250Y0186251D01*
X0247250Y0184652D02*
X0208439Y0184652D01*
X0210995Y0183054D02*
X0247250Y0183054D01*
X0247250Y0181455D02*
X0211939Y0181455D01*
X0212234Y0179857D02*
X0247250Y0179857D01*
X0245758Y0178258D02*
X0212027Y0178258D01*
X0211250Y0176660D02*
X0244147Y0176660D01*
X0241924Y0175061D02*
X0211250Y0175061D01*
X0211250Y0173463D02*
X0240326Y0173463D01*
X0239166Y0171864D02*
X0211250Y0171864D01*
X0211250Y0170266D02*
X0237766Y0170266D01*
X0236167Y0168667D02*
X0211250Y0168667D01*
X0198250Y0168667D02*
X0181490Y0168667D01*
X0179891Y0170266D02*
X0198250Y0170266D01*
X0198250Y0171864D02*
X0178293Y0171864D01*
X0176694Y0173463D02*
X0198250Y0173463D01*
X0198250Y0175061D02*
X0175096Y0175061D01*
X0173497Y0176660D02*
X0198250Y0176660D01*
X0198250Y0178258D02*
X0171899Y0178258D01*
X0170300Y0179857D02*
X0198250Y0179857D01*
X0198250Y0181455D02*
X0168702Y0181455D01*
X0167103Y0183054D02*
X0198250Y0183054D01*
X0198250Y0184652D02*
X0165504Y0184652D01*
X0163906Y0186251D02*
X0198250Y0186251D01*
X0198250Y0187849D02*
X0162307Y0187849D01*
X0160709Y0189448D02*
X0198250Y0189448D01*
X0198250Y0191046D02*
X0159110Y0191046D01*
X0157512Y0192645D02*
X0198250Y0192645D01*
X0198250Y0194243D02*
X0155913Y0194243D01*
X0154315Y0195842D02*
X0198250Y0195842D01*
X0198250Y0197440D02*
X0152722Y0197440D01*
X0151607Y0198482D02*
X0151607Y0198482D01*
X0151343Y0199039D02*
X0198250Y0199039D01*
X0197523Y0200637D02*
X0151250Y0200637D01*
X0151250Y0202236D02*
X0197266Y0202236D01*
X0197511Y0203834D02*
X0151250Y0203834D01*
X0151250Y0205433D02*
X0155126Y0205433D01*
X0152796Y0207032D02*
X0151704Y0207032D01*
X0159374Y0205433D02*
X0198384Y0205433D01*
X0200769Y0207032D02*
X0161704Y0207032D01*
X0161649Y0215024D02*
X0224385Y0215024D01*
X0202250Y0202250D02*
X0202250Y0131821D01*
X0207250Y0131327D02*
X0207250Y0179750D01*
X0195617Y0148883D02*
X0150133Y0194367D01*
X0147250Y0198827D02*
X0147250Y0211000D01*
X0147251Y0198827D02*
X0147282Y0198665D01*
X0147318Y0198504D01*
X0147357Y0198343D01*
X0147400Y0198184D01*
X0147447Y0198026D01*
X0147498Y0197869D01*
X0147552Y0197713D01*
X0147610Y0197558D01*
X0147672Y0197405D01*
X0147738Y0197253D01*
X0147807Y0197103D01*
X0147879Y0196955D01*
X0147955Y0196808D01*
X0148035Y0196664D01*
X0148118Y0196521D01*
X0148204Y0196380D01*
X0148294Y0196242D01*
X0148386Y0196105D01*
X0148483Y0195971D01*
X0148582Y0195839D01*
X0148684Y0195709D01*
X0148790Y0195582D01*
X0148898Y0195458D01*
X0149010Y0195336D01*
X0149124Y0195217D01*
X0149241Y0195100D01*
X0149361Y0194987D01*
X0149483Y0194876D01*
X0149608Y0194768D01*
X0149736Y0194663D01*
X0149866Y0194562D01*
X0149998Y0194463D01*
X0150133Y0194368D01*
X0116327Y0222250D02*
X0116093Y0222253D01*
X0115859Y0222261D01*
X0115625Y0222275D01*
X0115391Y0222295D01*
X0115158Y0222320D01*
X0114926Y0222350D01*
X0114695Y0222386D01*
X0114464Y0222428D01*
X0114235Y0222475D01*
X0114006Y0222527D01*
X0113779Y0222585D01*
X0113554Y0222649D01*
X0113330Y0222717D01*
X0113108Y0222791D01*
X0112887Y0222871D01*
X0112669Y0222955D01*
X0112452Y0223045D01*
X0112238Y0223139D01*
X0112026Y0223239D01*
X0111817Y0223344D01*
X0111610Y0223454D01*
X0111405Y0223569D01*
X0111204Y0223688D01*
X0111005Y0223813D01*
X0110810Y0223942D01*
X0110617Y0224075D01*
X0110428Y0224213D01*
X0110242Y0224356D01*
X0110060Y0224503D01*
X0109881Y0224654D01*
X0109706Y0224810D01*
X0109535Y0224969D01*
X0109367Y0225133D01*
X0127250Y0236000D02*
X0127250Y0241000D01*
X0132869Y0239002D02*
X0133155Y0239002D01*
X0132076Y0237403D02*
X0134450Y0237403D01*
X0140849Y0243797D02*
X0141962Y0243797D01*
X0150271Y0235805D02*
X0154229Y0235805D01*
X0152424Y0237403D02*
X0152076Y0237403D01*
X0147250Y0241000D02*
X0147252Y0241140D01*
X0147258Y0241280D01*
X0147268Y0241420D01*
X0147281Y0241560D01*
X0147299Y0241699D01*
X0147321Y0241838D01*
X0147346Y0241975D01*
X0147375Y0242113D01*
X0147408Y0242249D01*
X0147445Y0242384D01*
X0147486Y0242518D01*
X0147531Y0242651D01*
X0147579Y0242783D01*
X0147631Y0242913D01*
X0147686Y0243042D01*
X0147745Y0243169D01*
X0147808Y0243295D01*
X0147874Y0243419D01*
X0147943Y0243540D01*
X0148016Y0243660D01*
X0148093Y0243778D01*
X0148172Y0243893D01*
X0148255Y0244007D01*
X0148341Y0244117D01*
X0148430Y0244226D01*
X0148522Y0244332D01*
X0148617Y0244435D01*
X0148714Y0244536D01*
X0148815Y0244633D01*
X0148918Y0244728D01*
X0149024Y0244820D01*
X0149133Y0244909D01*
X0149243Y0244995D01*
X0149357Y0245078D01*
X0149472Y0245157D01*
X0149590Y0245234D01*
X0149710Y0245307D01*
X0149831Y0245376D01*
X0149955Y0245442D01*
X0150081Y0245505D01*
X0150208Y0245564D01*
X0150337Y0245619D01*
X0150467Y0245671D01*
X0150599Y0245719D01*
X0150732Y0245764D01*
X0150866Y0245805D01*
X0151001Y0245842D01*
X0151137Y0245875D01*
X0151275Y0245904D01*
X0151412Y0245929D01*
X0151551Y0245951D01*
X0151690Y0245969D01*
X0151830Y0245982D01*
X0151970Y0245992D01*
X0152110Y0245998D01*
X0152250Y0246000D01*
X0154797Y0250850D02*
X0157203Y0250850D01*
X0159427Y0251771D01*
X0161129Y0253473D01*
X0162050Y0255697D01*
X0162050Y0263803D01*
X0161129Y0266027D01*
X0159427Y0267729D01*
X0157203Y0268650D01*
X0154797Y0268650D01*
X0152573Y0267729D01*
X0150871Y0266027D01*
X0150244Y0264513D01*
X0149977Y0265037D01*
X0149547Y0265629D01*
X0149029Y0266147D01*
X0148437Y0266577D01*
X0147785Y0266909D01*
X0147089Y0267135D01*
X0146366Y0267250D01*
X0146086Y0267250D01*
X0146086Y0259836D01*
X0145914Y0259836D01*
X0145914Y0267250D01*
X0145634Y0267250D01*
X0144911Y0267135D01*
X0144215Y0266909D01*
X0143563Y0266577D01*
X0142971Y0266147D01*
X0142453Y0265629D01*
X0142023Y0265037D01*
X0141691Y0264385D01*
X0141464Y0263689D01*
X0141350Y0262966D01*
X0141350Y0259836D01*
X0145914Y0259836D01*
X0145914Y0259664D01*
X0141350Y0259664D01*
X0141350Y0256534D01*
X0141464Y0255811D01*
X0141691Y0255115D01*
X0142023Y0254463D01*
X0142453Y0253871D01*
X0142971Y0253353D01*
X0143563Y0252923D01*
X0144215Y0252591D01*
X0144911Y0252364D01*
X0145634Y0252250D01*
X0145914Y0252250D01*
X0145914Y0259664D01*
X0146086Y0259664D01*
X0146086Y0252250D01*
X0146366Y0252250D01*
X0147089Y0252364D01*
X0147785Y0252591D01*
X0148437Y0252923D01*
X0149029Y0253353D01*
X0149547Y0253871D01*
X0149977Y0254463D01*
X0150244Y0254987D01*
X0150871Y0253473D01*
X0152573Y0251771D01*
X0154797Y0250850D01*
X0152554Y0251790D02*
X0117671Y0251790D01*
X0117975Y0251916D02*
X0119655Y0253596D01*
X0120564Y0255791D01*
X0120564Y0263709D01*
X0119655Y0265904D01*
X0117975Y0267584D01*
X0115780Y0268493D01*
X0113405Y0268493D01*
X0111210Y0267584D01*
X0109530Y0265904D01*
X0108621Y0263709D01*
X0108621Y0255791D01*
X0109530Y0253596D01*
X0111210Y0251916D01*
X0113405Y0251007D01*
X0115780Y0251007D01*
X0117975Y0251916D01*
X0119448Y0253388D02*
X0142936Y0253388D01*
X0141756Y0254987D02*
X0120231Y0254987D01*
X0120564Y0256585D02*
X0141350Y0256585D01*
X0141350Y0258184D02*
X0120564Y0258184D01*
X0120564Y0259782D02*
X0145914Y0259782D01*
X0145914Y0258184D02*
X0146086Y0258184D01*
X0146086Y0256585D02*
X0145914Y0256585D01*
X0145914Y0254987D02*
X0146086Y0254987D01*
X0146086Y0253388D02*
X0145914Y0253388D01*
X0149064Y0253388D02*
X0150956Y0253388D01*
X0159446Y0251790D02*
X0247250Y0251790D01*
X0247250Y0253388D02*
X0161044Y0253388D01*
X0161756Y0254987D02*
X0247250Y0254987D01*
X0247250Y0256585D02*
X0162050Y0256585D01*
X0162050Y0258184D02*
X0247250Y0258184D01*
X0247250Y0259782D02*
X0162050Y0259782D01*
X0162050Y0261381D02*
X0247250Y0261381D01*
X0247250Y0262979D02*
X0162050Y0262979D01*
X0161729Y0264578D02*
X0247250Y0264578D01*
X0247250Y0266176D02*
X0160980Y0266176D01*
X0159316Y0267775D02*
X0167250Y0267775D01*
X0167250Y0269373D02*
X0076550Y0269373D01*
X0076550Y0269750D02*
X0071000Y0269750D01*
X0071000Y0269750D01*
X0071000Y0275300D01*
X0073299Y0275300D01*
X0076550Y0272049D01*
X0076550Y0269750D01*
X0071000Y0269750D01*
X0071000Y0269750D01*
X0071000Y0269750D01*
X0065450Y0269750D01*
X0065450Y0272049D01*
X0068701Y0275300D01*
X0071000Y0275300D01*
X0071000Y0269750D01*
X0071000Y0264200D01*
X0073299Y0264200D01*
X0076550Y0267451D01*
X0076550Y0269750D01*
X0076550Y0270972D02*
X0167250Y0270972D01*
X0167250Y0272570D02*
X0076028Y0272570D01*
X0074430Y0274169D02*
X0167250Y0274169D01*
X0167250Y0275768D02*
X0020916Y0275768D01*
X0022515Y0274169D02*
X0067570Y0274169D01*
X0065972Y0272570D02*
X0023346Y0272570D01*
X0024008Y0270972D02*
X0065450Y0270972D01*
X0065450Y0269750D02*
X0065450Y0267451D01*
X0068701Y0264200D01*
X0071000Y0264200D01*
X0071000Y0269750D01*
X0071000Y0269750D01*
X0065450Y0269750D01*
X0065450Y0269373D02*
X0024249Y0269373D01*
X0024249Y0267775D02*
X0065450Y0267775D01*
X0066725Y0266176D02*
X0024069Y0266176D01*
X0023407Y0264578D02*
X0068323Y0264578D01*
X0071000Y0264578D02*
X0071000Y0264578D01*
X0071000Y0266176D02*
X0071000Y0266176D01*
X0071000Y0267775D02*
X0071000Y0267775D01*
X0071000Y0269373D02*
X0071000Y0269373D01*
X0071000Y0270972D02*
X0071000Y0270972D01*
X0071000Y0272570D02*
X0071000Y0272570D01*
X0071000Y0274169D02*
X0071000Y0274169D01*
X0076550Y0267775D02*
X0091985Y0267775D01*
X0090117Y0266176D02*
X0075275Y0266176D01*
X0073677Y0264578D02*
X0089296Y0264578D01*
X0088936Y0262979D02*
X0022663Y0262979D01*
X0021065Y0261381D02*
X0088936Y0261381D01*
X0088936Y0259782D02*
X0018526Y0259782D01*
X0010973Y0259782D02*
X0007200Y0259782D01*
X0007200Y0258184D02*
X0088936Y0258184D01*
X0097986Y0251790D02*
X0111514Y0251790D01*
X0109737Y0253388D02*
X0099763Y0253388D01*
X0100546Y0254987D02*
X0108954Y0254987D01*
X0108621Y0256585D02*
X0100879Y0256585D01*
X0100879Y0258184D02*
X0108621Y0258184D01*
X0108621Y0259782D02*
X0100879Y0259782D01*
X0100879Y0261381D02*
X0108621Y0261381D01*
X0108621Y0262979D02*
X0100879Y0262979D01*
X0100519Y0264578D02*
X0108981Y0264578D01*
X0109802Y0266176D02*
X0099698Y0266176D01*
X0097830Y0267775D02*
X0111670Y0267775D01*
X0117515Y0267775D02*
X0152684Y0267775D01*
X0151020Y0266176D02*
X0148988Y0266176D01*
X0150211Y0264578D02*
X0150271Y0264578D01*
X0146086Y0264578D02*
X0145914Y0264578D01*
X0145914Y0266176D02*
X0146086Y0266176D01*
X0143012Y0266176D02*
X0119383Y0266176D01*
X0120204Y0264578D02*
X0141789Y0264578D01*
X0141352Y0262979D02*
X0120564Y0262979D01*
X0120564Y0261381D02*
X0141350Y0261381D01*
X0145914Y0261381D02*
X0146086Y0261381D01*
X0146086Y0262979D02*
X0145914Y0262979D01*
X0123223Y0245396D02*
X0076475Y0245396D01*
X0074790Y0243797D02*
X0121962Y0243797D01*
X0039836Y0254987D02*
X0039664Y0254987D01*
X0039664Y0256585D02*
X0039836Y0256585D01*
X0033409Y0256585D02*
X0007200Y0256585D01*
X0007200Y0254987D02*
X0032494Y0254987D01*
X0032250Y0253388D02*
X0007200Y0253388D01*
X0007200Y0251790D02*
X0032566Y0251790D01*
X0033633Y0250191D02*
X0007200Y0250191D01*
X0007200Y0248593D02*
X0033437Y0248593D01*
X0031838Y0246994D02*
X0007200Y0246994D01*
X0007200Y0245396D02*
X0031137Y0245396D01*
X0030850Y0243797D02*
X0007200Y0243797D01*
X0007200Y0242199D02*
X0030891Y0242199D01*
X0031553Y0240600D02*
X0007200Y0240600D01*
X0007200Y0239002D02*
X0032842Y0239002D01*
X0008435Y0261381D02*
X0007200Y0261381D01*
X0202250Y0131821D02*
X0202248Y0131630D01*
X0202241Y0131439D01*
X0202230Y0131249D01*
X0202214Y0131059D01*
X0202193Y0130869D01*
X0202168Y0130680D01*
X0202139Y0130491D01*
X0202105Y0130304D01*
X0202067Y0130117D01*
X0202024Y0129931D01*
X0201977Y0129746D01*
X0201925Y0129562D01*
X0201869Y0129380D01*
X0201809Y0129199D01*
X0201744Y0129019D01*
X0201676Y0128841D01*
X0201603Y0128665D01*
X0201525Y0128490D01*
X0201444Y0128318D01*
X0201359Y0128147D01*
X0201269Y0127978D01*
X0201176Y0127812D01*
X0201078Y0127648D01*
X0200977Y0127486D01*
X0200872Y0127327D01*
X0200763Y0127170D01*
X0200651Y0127016D01*
X0200535Y0126865D01*
X0200415Y0126716D01*
X0200292Y0126570D01*
X0200165Y0126428D01*
X0200035Y0126288D01*
X0199902Y0126151D01*
X0199902Y0126152D02*
X0198500Y0124750D01*
X0173500Y0080749D02*
X0294057Y0080749D01*
X0292660Y0079151D02*
X0173500Y0079151D01*
X0166000Y0051976D02*
X0223226Y0051976D01*
X0221627Y0050377D02*
X0166000Y0050377D01*
X0166000Y0048779D02*
X0220029Y0048779D01*
X0218430Y0047180D02*
X0217055Y0047180D01*
X0221483Y0043983D02*
X0237500Y0043983D01*
X0237500Y0042385D02*
X0219885Y0042385D01*
X0219500Y0040786D02*
X0237500Y0040786D01*
X0238077Y0039188D02*
X0218923Y0039188D01*
X0217325Y0037589D02*
X0239675Y0037589D01*
X0247325Y0037589D02*
X0258350Y0037589D01*
X0257113Y0036875D02*
X0260505Y0038833D01*
X0264287Y0039847D01*
X0268203Y0039847D01*
X0271985Y0038833D01*
X0275377Y0036875D01*
X0278146Y0034106D01*
X0280104Y0030715D01*
X0281117Y0026932D01*
X0281117Y0023017D01*
X0280104Y0019234D01*
X0278146Y0015843D01*
X0275377Y0013074D01*
X0271985Y0011116D01*
X0268203Y0010102D01*
X0264287Y0010102D01*
X0260505Y0011116D01*
X0257113Y0013074D01*
X0254344Y0015843D01*
X0252386Y0019234D01*
X0251373Y0023017D01*
X0251373Y0026932D01*
X0252386Y0030715D01*
X0254344Y0034106D01*
X0257113Y0036875D01*
X0256229Y0035991D02*
X0213491Y0035991D01*
X0207500Y0040786D02*
X0169964Y0040786D01*
X0168365Y0042385D02*
X0207500Y0042385D01*
X0207500Y0043983D02*
X0166767Y0043983D01*
X0166000Y0045582D02*
X0208347Y0045582D01*
X0209945Y0047180D02*
X0166000Y0047180D01*
X0165863Y0037589D02*
X0091022Y0037589D01*
X0093171Y0035991D02*
X0167348Y0035991D01*
X0182800Y0024182D02*
X0182800Y0015318D01*
X0189068Y0009050D01*
X0197932Y0009050D01*
X0204200Y0015318D01*
X0204200Y0024182D01*
X0197932Y0030450D01*
X0189068Y0030450D01*
X0182800Y0024182D01*
X0183419Y0024801D02*
X0098046Y0024801D01*
X0098046Y0023203D02*
X0182800Y0023203D01*
X0182800Y0021604D02*
X0097666Y0021604D01*
X0097238Y0020006D02*
X0182800Y0020006D01*
X0182800Y0018407D02*
X0096548Y0018407D01*
X0095625Y0016809D02*
X0182800Y0016809D01*
X0182908Y0015210D02*
X0094423Y0015210D01*
X0092824Y0013612D02*
X0184506Y0013612D01*
X0186105Y0012013D02*
X0090421Y0012013D01*
X0086163Y0010415D02*
X0187703Y0010415D01*
X0199297Y0010415D02*
X0263121Y0010415D01*
X0258950Y0012013D02*
X0200895Y0012013D01*
X0202494Y0013612D02*
X0256575Y0013612D01*
X0254977Y0015210D02*
X0204092Y0015210D01*
X0204200Y0016809D02*
X0253786Y0016809D01*
X0252864Y0018407D02*
X0204200Y0018407D01*
X0204200Y0020006D02*
X0252179Y0020006D01*
X0251751Y0021604D02*
X0204200Y0021604D01*
X0204200Y0023203D02*
X0251373Y0023203D01*
X0251373Y0024801D02*
X0203581Y0024801D01*
X0201982Y0026400D02*
X0251373Y0026400D01*
X0251658Y0027998D02*
X0200384Y0027998D01*
X0198785Y0029597D02*
X0252087Y0029597D01*
X0252664Y0031195D02*
X0096748Y0031195D01*
X0097331Y0029597D02*
X0188215Y0029597D01*
X0186616Y0027998D02*
X0097759Y0027998D01*
X0098046Y0026400D02*
X0185018Y0026400D01*
X0223082Y0045582D02*
X0238347Y0045582D01*
X0239945Y0047180D02*
X0224680Y0047180D01*
X0248923Y0039188D02*
X0261828Y0039188D01*
X0254630Y0034392D02*
X0094769Y0034392D01*
X0095825Y0032794D02*
X0253586Y0032794D01*
X0249500Y0040786D02*
X0392300Y0040786D01*
X0392300Y0039188D02*
X0270662Y0039188D01*
X0274140Y0037589D02*
X0392300Y0037589D01*
X0392300Y0035991D02*
X0276261Y0035991D01*
X0277860Y0034392D02*
X0392300Y0034392D01*
X0392300Y0032794D02*
X0278904Y0032794D01*
X0279827Y0031195D02*
X0392300Y0031195D01*
X0392300Y0029597D02*
X0280403Y0029597D01*
X0280832Y0027998D02*
X0392300Y0027998D01*
X0392300Y0026400D02*
X0281117Y0026400D01*
X0281117Y0024801D02*
X0381175Y0024801D01*
X0378519Y0023203D02*
X0281117Y0023203D01*
X0280739Y0021604D02*
X0376920Y0021604D01*
X0376127Y0020006D02*
X0280311Y0020006D01*
X0279626Y0018407D02*
X0375465Y0018407D01*
X0375251Y0016809D02*
X0278704Y0016809D01*
X0277513Y0015210D02*
X0375251Y0015210D01*
X0375457Y0013612D02*
X0275915Y0013612D01*
X0273540Y0012013D02*
X0376120Y0012013D01*
X0376901Y0010415D02*
X0269369Y0010415D01*
X0378500Y0008816D02*
X0021000Y0008816D01*
X0290133Y0115617D02*
X0292250Y0113500D01*
X0302250Y0116923D02*
X0302247Y0117157D01*
X0302239Y0117391D01*
X0302225Y0117625D01*
X0302205Y0117859D01*
X0302180Y0118092D01*
X0302150Y0118324D01*
X0302114Y0118555D01*
X0302072Y0118786D01*
X0302025Y0119015D01*
X0301973Y0119244D01*
X0301915Y0119471D01*
X0301851Y0119696D01*
X0301783Y0119920D01*
X0301709Y0120142D01*
X0301629Y0120363D01*
X0301545Y0120581D01*
X0301455Y0120798D01*
X0301361Y0121012D01*
X0301261Y0121224D01*
X0301156Y0121433D01*
X0301046Y0121640D01*
X0300931Y0121845D01*
X0300812Y0122046D01*
X0300687Y0122245D01*
X0300558Y0122440D01*
X0300425Y0122633D01*
X0300287Y0122822D01*
X0300144Y0123008D01*
X0299997Y0123190D01*
X0299846Y0123369D01*
X0299690Y0123544D01*
X0299531Y0123715D01*
X0299367Y0123883D01*
X0297633Y0125617D01*
X0300172Y0131901D02*
X0304050Y0131901D01*
X0297633Y0125617D02*
X0297469Y0125785D01*
X0297310Y0125956D01*
X0297154Y0126131D01*
X0297003Y0126310D01*
X0296856Y0126492D01*
X0296713Y0126678D01*
X0296575Y0126867D01*
X0296442Y0127060D01*
X0296313Y0127255D01*
X0296188Y0127454D01*
X0296069Y0127655D01*
X0295954Y0127860D01*
X0295844Y0128067D01*
X0295739Y0128276D01*
X0295639Y0128488D01*
X0295545Y0128702D01*
X0295455Y0128919D01*
X0295371Y0129137D01*
X0295291Y0129358D01*
X0295217Y0129580D01*
X0295149Y0129804D01*
X0295085Y0130029D01*
X0295027Y0130256D01*
X0294975Y0130485D01*
X0294928Y0130714D01*
X0294886Y0130945D01*
X0294850Y0131176D01*
X0294820Y0131408D01*
X0294795Y0131641D01*
X0294775Y0131875D01*
X0294761Y0132109D01*
X0294753Y0132343D01*
X0294750Y0132577D01*
X0294750Y0206923D01*
X0291000Y0206429D02*
X0291000Y0130077D01*
X0300195Y0133500D02*
X0304403Y0133500D01*
X0306002Y0135099D02*
X0300219Y0135099D01*
X0300242Y0136697D02*
X0307600Y0136697D01*
X0300265Y0138296D02*
X0359750Y0138296D01*
X0359750Y0139894D02*
X0300289Y0139894D01*
X0300312Y0141493D02*
X0359750Y0141493D01*
X0359750Y0143091D02*
X0300336Y0143091D01*
X0300359Y0144690D02*
X0359750Y0144690D01*
X0359112Y0146288D02*
X0300382Y0146288D01*
X0300406Y0147887D02*
X0358684Y0147887D01*
X0358255Y0149485D02*
X0300429Y0149485D01*
X0300453Y0151084D02*
X0358250Y0151084D01*
X0358250Y0152682D02*
X0300476Y0152682D01*
X0300499Y0154281D02*
X0358250Y0154281D01*
X0358250Y0155879D02*
X0300523Y0155879D01*
X0300546Y0157478D02*
X0358250Y0157478D01*
X0358250Y0159076D02*
X0300569Y0159076D01*
X0300593Y0160675D02*
X0358180Y0160675D01*
X0357574Y0162273D02*
X0300616Y0162273D01*
X0300640Y0163872D02*
X0356221Y0163872D01*
X0354623Y0165470D02*
X0317067Y0165470D01*
X0315647Y0164050D02*
X0320450Y0168853D01*
X0320450Y0175647D01*
X0315647Y0180450D01*
X0308853Y0180450D01*
X0304050Y0175647D01*
X0304050Y0168853D01*
X0308853Y0164050D01*
X0315647Y0164050D01*
X0318665Y0167069D02*
X0353024Y0167069D01*
X0351426Y0168667D02*
X0320264Y0168667D01*
X0320450Y0170266D02*
X0349827Y0170266D01*
X0348229Y0171864D02*
X0320450Y0171864D01*
X0320450Y0173463D02*
X0346630Y0173463D01*
X0345032Y0175061D02*
X0320450Y0175061D01*
X0319437Y0176660D02*
X0343433Y0176660D01*
X0341835Y0178258D02*
X0317838Y0178258D01*
X0316240Y0179857D02*
X0340566Y0179857D01*
X0339295Y0181455D02*
X0300897Y0181455D01*
X0300874Y0179857D02*
X0308260Y0179857D01*
X0306662Y0178258D02*
X0300850Y0178258D01*
X0300827Y0176660D02*
X0305063Y0176660D01*
X0304050Y0175061D02*
X0300803Y0175061D01*
X0300780Y0173463D02*
X0304050Y0173463D01*
X0304050Y0171864D02*
X0300757Y0171864D01*
X0300733Y0170266D02*
X0304050Y0170266D01*
X0304236Y0168667D02*
X0300710Y0168667D01*
X0300686Y0167069D02*
X0305835Y0167069D01*
X0307433Y0165470D02*
X0300663Y0165470D01*
X0300920Y0183054D02*
X0338500Y0183054D01*
X0338500Y0184652D02*
X0300944Y0184652D01*
X0300967Y0186251D02*
X0338250Y0186251D01*
X0338250Y0187849D02*
X0300990Y0187849D01*
X0301000Y0189448D02*
X0338250Y0189448D01*
X0338250Y0191046D02*
X0301000Y0191046D01*
X0301000Y0192645D02*
X0338250Y0192645D01*
X0338250Y0194243D02*
X0311427Y0194243D01*
X0313026Y0195842D02*
X0338250Y0195842D01*
X0338250Y0197440D02*
X0314624Y0197440D01*
X0316223Y0199039D02*
X0338250Y0199039D01*
X0338250Y0200637D02*
X0316749Y0200637D01*
X0316749Y0202236D02*
X0338250Y0202236D01*
X0338250Y0203834D02*
X0316749Y0203834D01*
X0316749Y0205433D02*
X0338250Y0205433D01*
X0338250Y0207032D02*
X0316749Y0207032D01*
X0315554Y0208630D02*
X0338250Y0208630D01*
X0337964Y0210229D02*
X0313979Y0210229D01*
X0315577Y0211827D02*
X0336423Y0211827D01*
X0334824Y0213426D02*
X0317176Y0213426D01*
X0318774Y0215024D02*
X0333226Y0215024D01*
X0338883Y0221867D02*
X0338715Y0222031D01*
X0338544Y0222190D01*
X0338369Y0222346D01*
X0338190Y0222497D01*
X0338008Y0222644D01*
X0337822Y0222787D01*
X0337633Y0222925D01*
X0337440Y0223058D01*
X0337245Y0223187D01*
X0337046Y0223312D01*
X0336845Y0223431D01*
X0336640Y0223546D01*
X0336433Y0223656D01*
X0336224Y0223761D01*
X0336012Y0223861D01*
X0335798Y0223955D01*
X0335581Y0224045D01*
X0335363Y0224129D01*
X0335142Y0224209D01*
X0334920Y0224283D01*
X0334696Y0224351D01*
X0334471Y0224415D01*
X0334244Y0224473D01*
X0334015Y0224525D01*
X0333786Y0224572D01*
X0333555Y0224614D01*
X0333324Y0224650D01*
X0333092Y0224680D01*
X0332859Y0224705D01*
X0332625Y0224725D01*
X0332391Y0224739D01*
X0332157Y0224747D01*
X0331923Y0224750D01*
X0298500Y0224750D01*
X0292098Y0227402D02*
X0282633Y0236867D01*
X0280133Y0233117D02*
X0289367Y0223883D01*
X0296327Y0221000D02*
X0329423Y0221000D01*
X0336383Y0218117D02*
X0339750Y0214750D01*
X0342250Y0208714D02*
X0342250Y0187577D01*
X0347250Y0187849D02*
X0392300Y0187849D01*
X0392300Y0186251D02*
X0347250Y0186251D01*
X0347250Y0184652D02*
X0392300Y0184652D01*
X0392300Y0183054D02*
X0348353Y0183054D01*
X0347961Y0183446D02*
X0347457Y0184020D01*
X0347250Y0184379D01*
X0347250Y0207843D01*
X0347353Y0207741D01*
X0348351Y0206742D01*
X0349077Y0206016D01*
X0349077Y0206016D01*
X0352234Y0204193D01*
X0355754Y0203250D01*
X0365906Y0203250D01*
X0365000Y0201062D01*
X0365000Y0198238D01*
X0366081Y0195628D01*
X0368078Y0193631D01*
X0370688Y0192550D01*
X0381312Y0192550D01*
X0383922Y0193631D01*
X0385919Y0195628D01*
X0387000Y0198238D01*
X0387000Y0201062D01*
X0385919Y0203672D01*
X0383922Y0205669D01*
X0381312Y0206750D01*
X0374557Y0206750D01*
X0373488Y0207819D01*
X0372925Y0208381D01*
X0371548Y0209759D01*
X0367948Y0211250D01*
X0357577Y0211250D01*
X0356814Y0211300D01*
X0355341Y0211695D01*
X0354020Y0212457D01*
X0353446Y0212961D01*
X0347250Y0219157D01*
X0347250Y0252250D01*
X0392300Y0252250D01*
X0392300Y0173500D01*
X0357907Y0173500D01*
X0347961Y0183446D01*
X0349952Y0181455D02*
X0392300Y0181455D01*
X0392300Y0179857D02*
X0351550Y0179857D01*
X0353149Y0178258D02*
X0392300Y0178258D01*
X0392300Y0176660D02*
X0354747Y0176660D01*
X0356346Y0175061D02*
X0392300Y0175061D01*
X0392300Y0189448D02*
X0347250Y0189448D01*
X0347250Y0191046D02*
X0392300Y0191046D01*
X0392300Y0192645D02*
X0381541Y0192645D01*
X0384534Y0194243D02*
X0392300Y0194243D01*
X0392300Y0195842D02*
X0386008Y0195842D01*
X0386670Y0197440D02*
X0392300Y0197440D01*
X0392300Y0199039D02*
X0387000Y0199039D01*
X0387000Y0200637D02*
X0392300Y0200637D01*
X0392300Y0202236D02*
X0386514Y0202236D01*
X0385756Y0203834D02*
X0392300Y0203834D01*
X0392300Y0205433D02*
X0384158Y0205433D01*
X0392300Y0207032D02*
X0374275Y0207032D01*
X0373488Y0207819D02*
X0373488Y0207819D01*
X0372677Y0208630D02*
X0392300Y0208630D01*
X0392300Y0210229D02*
X0370414Y0210229D01*
X0371548Y0209759D02*
X0371548Y0209759D01*
X0366000Y0207250D02*
X0357577Y0207250D01*
X0355112Y0211827D02*
X0392300Y0211827D01*
X0392300Y0213426D02*
X0352981Y0213426D01*
X0351383Y0215024D02*
X0392300Y0215024D01*
X0392300Y0216623D02*
X0349784Y0216623D01*
X0348186Y0218221D02*
X0392300Y0218221D01*
X0392300Y0219820D02*
X0347250Y0219820D01*
X0347250Y0221418D02*
X0392300Y0221418D01*
X0392300Y0223017D02*
X0347250Y0223017D01*
X0347250Y0224615D02*
X0392300Y0224615D01*
X0392300Y0226214D02*
X0347250Y0226214D01*
X0347250Y0227812D02*
X0392300Y0227812D01*
X0392300Y0229411D02*
X0347250Y0229411D01*
X0347250Y0231009D02*
X0392300Y0231009D01*
X0392300Y0232608D02*
X0347250Y0232608D01*
X0347250Y0234206D02*
X0392300Y0234206D01*
X0392300Y0235805D02*
X0347250Y0235805D01*
X0347250Y0237403D02*
X0392300Y0237403D01*
X0392300Y0239002D02*
X0347250Y0239002D01*
X0347250Y0240600D02*
X0392300Y0240600D01*
X0392300Y0242199D02*
X0347250Y0242199D01*
X0347250Y0243797D02*
X0392300Y0243797D01*
X0392300Y0245396D02*
X0347250Y0245396D01*
X0347250Y0246994D02*
X0392300Y0246994D01*
X0392300Y0248593D02*
X0347250Y0248593D01*
X0347250Y0250191D02*
X0392300Y0250191D01*
X0392300Y0251790D02*
X0347250Y0251790D01*
X0338883Y0221867D02*
X0350617Y0210133D01*
X0348062Y0207032D02*
X0347250Y0207032D01*
X0347250Y0205433D02*
X0350087Y0205433D01*
X0352234Y0204193D02*
X0352234Y0204193D01*
X0353573Y0203834D02*
X0347250Y0203834D01*
X0347250Y0202236D02*
X0365486Y0202236D01*
X0366000Y0207250D02*
X0366152Y0207248D01*
X0366303Y0207242D01*
X0366455Y0207232D01*
X0366606Y0207218D01*
X0366756Y0207200D01*
X0366906Y0207179D01*
X0367056Y0207153D01*
X0367205Y0207123D01*
X0367353Y0207090D01*
X0367500Y0207053D01*
X0367646Y0207011D01*
X0367790Y0206966D01*
X0367934Y0206918D01*
X0368076Y0206865D01*
X0368217Y0206809D01*
X0368357Y0206749D01*
X0368494Y0206686D01*
X0368630Y0206618D01*
X0368765Y0206548D01*
X0368897Y0206474D01*
X0369027Y0206396D01*
X0369156Y0206315D01*
X0369282Y0206231D01*
X0369406Y0206143D01*
X0369527Y0206053D01*
X0369646Y0205959D01*
X0369763Y0205862D01*
X0369877Y0205762D01*
X0369988Y0205659D01*
X0370097Y0205553D01*
X0376000Y0199650D01*
X0370459Y0192645D02*
X0347250Y0192645D01*
X0347250Y0194243D02*
X0367466Y0194243D01*
X0365992Y0195842D02*
X0347250Y0195842D01*
X0347250Y0197440D02*
X0365330Y0197440D01*
X0365000Y0199039D02*
X0347250Y0199039D01*
X0347250Y0200637D02*
X0365000Y0200637D01*
X0342250Y0187577D02*
X0342253Y0187343D01*
X0342261Y0187109D01*
X0342275Y0186875D01*
X0342295Y0186641D01*
X0342320Y0186408D01*
X0342350Y0186176D01*
X0342386Y0185945D01*
X0342428Y0185714D01*
X0342475Y0185485D01*
X0342527Y0185256D01*
X0342585Y0185029D01*
X0342649Y0184804D01*
X0342717Y0184580D01*
X0342791Y0184358D01*
X0342871Y0184137D01*
X0342955Y0183919D01*
X0343045Y0183702D01*
X0343139Y0183488D01*
X0343239Y0183276D01*
X0343344Y0183067D01*
X0343454Y0182860D01*
X0343569Y0182655D01*
X0343688Y0182454D01*
X0343813Y0182255D01*
X0343942Y0182060D01*
X0344075Y0181867D01*
X0344213Y0181678D01*
X0344356Y0181492D01*
X0344503Y0181310D01*
X0344654Y0181131D01*
X0344810Y0180956D01*
X0344969Y0180785D01*
X0345133Y0180617D01*
X0359750Y0166000D01*
X0362250Y0159964D02*
X0362250Y0151327D01*
X0365133Y0144367D02*
X0369750Y0139750D01*
X0375759Y0139750D01*
X0375792Y0139752D01*
X0375826Y0139757D01*
X0375858Y0139765D01*
X0375889Y0139776D01*
X0375920Y0139790D01*
X0375948Y0139807D01*
X0375975Y0139827D01*
X0376000Y0139850D01*
X0365447Y0130303D02*
X0320450Y0130303D01*
X0320450Y0131901D02*
X0363849Y0131901D01*
X0362250Y0133500D02*
X0320097Y0133500D01*
X0318498Y0135099D02*
X0360651Y0135099D01*
X0359750Y0136697D02*
X0316900Y0136697D01*
X0320450Y0128704D02*
X0392300Y0128704D01*
X0392300Y0127106D02*
X0320450Y0127106D01*
X0319604Y0125507D02*
X0392300Y0125507D01*
X0392300Y0123909D02*
X0318005Y0123909D01*
X0316407Y0122310D02*
X0392300Y0122310D01*
X0365133Y0144367D02*
X0364969Y0144535D01*
X0364810Y0144706D01*
X0364654Y0144881D01*
X0364503Y0145060D01*
X0364356Y0145242D01*
X0364213Y0145428D01*
X0364075Y0145617D01*
X0363942Y0145810D01*
X0363813Y0146005D01*
X0363688Y0146204D01*
X0363569Y0146405D01*
X0363454Y0146610D01*
X0363344Y0146817D01*
X0363239Y0147026D01*
X0363139Y0147238D01*
X0363045Y0147452D01*
X0362955Y0147669D01*
X0362871Y0147887D01*
X0362791Y0148108D01*
X0362717Y0148330D01*
X0362649Y0148554D01*
X0362585Y0148779D01*
X0362527Y0149006D01*
X0362475Y0149235D01*
X0362428Y0149464D01*
X0362386Y0149695D01*
X0362350Y0149926D01*
X0362320Y0150158D01*
X0362295Y0150391D01*
X0362275Y0150625D01*
X0362261Y0150859D01*
X0362253Y0151093D01*
X0362250Y0151327D01*
X0362250Y0159964D02*
X0362247Y0160173D01*
X0362240Y0160383D01*
X0362227Y0160592D01*
X0362209Y0160801D01*
X0362186Y0161009D01*
X0362158Y0161216D01*
X0362124Y0161423D01*
X0362086Y0161629D01*
X0362043Y0161834D01*
X0361994Y0162038D01*
X0361941Y0162241D01*
X0361882Y0162442D01*
X0361819Y0162642D01*
X0361751Y0162840D01*
X0361678Y0163036D01*
X0361600Y0163231D01*
X0361518Y0163423D01*
X0361430Y0163614D01*
X0361339Y0163802D01*
X0361242Y0163988D01*
X0361141Y0164171D01*
X0361036Y0164352D01*
X0360926Y0164531D01*
X0360811Y0164706D01*
X0360693Y0164879D01*
X0360570Y0165049D01*
X0360443Y0165216D01*
X0360312Y0165379D01*
X0360178Y0165539D01*
X0360039Y0165696D01*
X0359896Y0165850D01*
X0359750Y0166000D01*
X0303073Y0194243D02*
X0301000Y0194243D01*
X0301000Y0195842D02*
X0301474Y0195842D01*
X0294750Y0206923D02*
X0294747Y0207157D01*
X0294739Y0207391D01*
X0294725Y0207625D01*
X0294705Y0207859D01*
X0294680Y0208092D01*
X0294650Y0208324D01*
X0294614Y0208555D01*
X0294572Y0208786D01*
X0294525Y0209015D01*
X0294473Y0209244D01*
X0294415Y0209471D01*
X0294351Y0209696D01*
X0294283Y0209920D01*
X0294209Y0210142D01*
X0294129Y0210363D01*
X0294045Y0210581D01*
X0293955Y0210798D01*
X0293861Y0211012D01*
X0293761Y0211224D01*
X0293656Y0211433D01*
X0293546Y0211640D01*
X0293431Y0211845D01*
X0293312Y0212046D01*
X0293187Y0212245D01*
X0293058Y0212440D01*
X0292925Y0212633D01*
X0292787Y0212822D01*
X0292644Y0213008D01*
X0292497Y0213190D01*
X0292346Y0213369D01*
X0292190Y0213544D01*
X0292031Y0213715D01*
X0291867Y0213883D01*
X0279750Y0226000D01*
X0282633Y0236867D02*
X0282465Y0237031D01*
X0282294Y0237190D01*
X0282119Y0237346D01*
X0281940Y0237497D01*
X0281758Y0237644D01*
X0281572Y0237787D01*
X0281383Y0237925D01*
X0281190Y0238058D01*
X0280995Y0238187D01*
X0280796Y0238312D01*
X0280595Y0238431D01*
X0280390Y0238546D01*
X0280183Y0238656D01*
X0279974Y0238761D01*
X0279762Y0238861D01*
X0279548Y0238955D01*
X0279331Y0239045D01*
X0279113Y0239129D01*
X0278892Y0239209D01*
X0278670Y0239283D01*
X0278446Y0239351D01*
X0278221Y0239415D01*
X0277994Y0239473D01*
X0277765Y0239525D01*
X0277536Y0239572D01*
X0277305Y0239614D01*
X0277074Y0239650D01*
X0276842Y0239680D01*
X0276609Y0239705D01*
X0276375Y0239725D01*
X0276141Y0239739D01*
X0275907Y0239747D01*
X0275673Y0239750D01*
X0243500Y0239750D01*
X0246501Y0243797D02*
X0247250Y0243797D01*
X0238500Y0236000D02*
X0273173Y0236000D01*
X0273407Y0235997D01*
X0273641Y0235989D01*
X0273875Y0235975D01*
X0274109Y0235955D01*
X0274342Y0235930D01*
X0274574Y0235900D01*
X0274805Y0235864D01*
X0275036Y0235822D01*
X0275265Y0235775D01*
X0275494Y0235723D01*
X0275721Y0235665D01*
X0275946Y0235601D01*
X0276170Y0235533D01*
X0276392Y0235459D01*
X0276613Y0235379D01*
X0276831Y0235295D01*
X0277048Y0235205D01*
X0277262Y0235111D01*
X0277474Y0235011D01*
X0277683Y0234906D01*
X0277890Y0234796D01*
X0278095Y0234681D01*
X0278296Y0234562D01*
X0278495Y0234437D01*
X0278690Y0234308D01*
X0278883Y0234175D01*
X0279072Y0234037D01*
X0279258Y0233894D01*
X0279440Y0233747D01*
X0279619Y0233596D01*
X0279794Y0233440D01*
X0279965Y0233281D01*
X0280133Y0233117D01*
X0289367Y0223883D02*
X0289535Y0223719D01*
X0289706Y0223560D01*
X0289881Y0223404D01*
X0290060Y0223253D01*
X0290242Y0223106D01*
X0290428Y0222963D01*
X0290617Y0222825D01*
X0290810Y0222692D01*
X0291005Y0222563D01*
X0291204Y0222438D01*
X0291405Y0222319D01*
X0291610Y0222204D01*
X0291817Y0222094D01*
X0292026Y0221989D01*
X0292238Y0221889D01*
X0292452Y0221795D01*
X0292669Y0221705D01*
X0292887Y0221621D01*
X0293108Y0221541D01*
X0293330Y0221467D01*
X0293554Y0221399D01*
X0293779Y0221335D01*
X0294006Y0221277D01*
X0294235Y0221225D01*
X0294464Y0221178D01*
X0294695Y0221136D01*
X0294926Y0221100D01*
X0295158Y0221070D01*
X0295391Y0221045D01*
X0295625Y0221025D01*
X0295859Y0221011D01*
X0296093Y0221003D01*
X0296327Y0221000D01*
X0285786Y0208714D02*
X0277633Y0216867D01*
X0278883Y0220617D02*
X0278715Y0220781D01*
X0278544Y0220940D01*
X0278369Y0221096D01*
X0278190Y0221247D01*
X0278008Y0221394D01*
X0277822Y0221537D01*
X0277633Y0221675D01*
X0277440Y0221808D01*
X0277245Y0221937D01*
X0277046Y0222062D01*
X0276845Y0222181D01*
X0276640Y0222296D01*
X0276433Y0222406D01*
X0276224Y0222511D01*
X0276012Y0222611D01*
X0275798Y0222705D01*
X0275581Y0222795D01*
X0275363Y0222879D01*
X0275142Y0222959D01*
X0274920Y0223033D01*
X0274696Y0223101D01*
X0274471Y0223165D01*
X0274244Y0223223D01*
X0274015Y0223275D01*
X0273786Y0223322D01*
X0273555Y0223364D01*
X0273324Y0223400D01*
X0273092Y0223430D01*
X0272859Y0223455D01*
X0272625Y0223475D01*
X0272391Y0223489D01*
X0272157Y0223497D01*
X0271923Y0223500D01*
X0270673Y0219750D02*
X0270907Y0219747D01*
X0271141Y0219739D01*
X0271375Y0219725D01*
X0271609Y0219705D01*
X0271842Y0219680D01*
X0272074Y0219650D01*
X0272305Y0219614D01*
X0272536Y0219572D01*
X0272765Y0219525D01*
X0272994Y0219473D01*
X0273221Y0219415D01*
X0273446Y0219351D01*
X0273670Y0219283D01*
X0273892Y0219209D01*
X0274113Y0219129D01*
X0274331Y0219045D01*
X0274548Y0218955D01*
X0274762Y0218861D01*
X0274974Y0218761D01*
X0275183Y0218656D01*
X0275390Y0218546D01*
X0275595Y0218431D01*
X0275796Y0218312D01*
X0275995Y0218187D01*
X0276190Y0218058D01*
X0276383Y0217925D01*
X0276572Y0217787D01*
X0276758Y0217644D01*
X0276940Y0217497D01*
X0277119Y0217346D01*
X0277294Y0217190D01*
X0277465Y0217031D01*
X0277633Y0216867D01*
X0285786Y0208715D02*
X0285883Y0208614D01*
X0285978Y0208511D01*
X0286070Y0208405D01*
X0286159Y0208296D01*
X0286245Y0208186D01*
X0286328Y0208072D01*
X0286407Y0207957D01*
X0286484Y0207839D01*
X0286557Y0207719D01*
X0286626Y0207598D01*
X0286692Y0207474D01*
X0286755Y0207348D01*
X0286814Y0207221D01*
X0286869Y0207092D01*
X0286921Y0206962D01*
X0286969Y0206830D01*
X0287014Y0206697D01*
X0287055Y0206563D01*
X0287092Y0206428D01*
X0287125Y0206292D01*
X0287154Y0206154D01*
X0287179Y0206017D01*
X0287201Y0205878D01*
X0287219Y0205739D01*
X0287232Y0205599D01*
X0287242Y0205459D01*
X0287248Y0205319D01*
X0287250Y0205179D01*
X0298500Y0224750D02*
X0298278Y0224753D01*
X0298056Y0224761D01*
X0297834Y0224775D01*
X0297613Y0224794D01*
X0297392Y0224818D01*
X0297172Y0224848D01*
X0296952Y0224883D01*
X0296734Y0224924D01*
X0296516Y0224970D01*
X0296300Y0225021D01*
X0296085Y0225078D01*
X0295872Y0225140D01*
X0295660Y0225207D01*
X0295450Y0225279D01*
X0295242Y0225357D01*
X0295036Y0225439D01*
X0294831Y0225527D01*
X0294629Y0225619D01*
X0294430Y0225717D01*
X0294232Y0225819D01*
X0294038Y0225926D01*
X0293846Y0226038D01*
X0293657Y0226155D01*
X0293470Y0226276D01*
X0293287Y0226401D01*
X0293107Y0226532D01*
X0292930Y0226666D01*
X0292757Y0226805D01*
X0292587Y0226948D01*
X0292420Y0227095D01*
X0292258Y0227246D01*
X0292099Y0227402D01*
X0329423Y0221000D02*
X0329657Y0220997D01*
X0329891Y0220989D01*
X0330125Y0220975D01*
X0330359Y0220955D01*
X0330592Y0220930D01*
X0330824Y0220900D01*
X0331055Y0220864D01*
X0331286Y0220822D01*
X0331515Y0220775D01*
X0331744Y0220723D01*
X0331971Y0220665D01*
X0332196Y0220601D01*
X0332420Y0220533D01*
X0332642Y0220459D01*
X0332863Y0220379D01*
X0333081Y0220295D01*
X0333298Y0220205D01*
X0333512Y0220111D01*
X0333724Y0220011D01*
X0333933Y0219906D01*
X0334140Y0219796D01*
X0334345Y0219681D01*
X0334546Y0219562D01*
X0334745Y0219437D01*
X0334940Y0219308D01*
X0335133Y0219175D01*
X0335322Y0219037D01*
X0335508Y0218894D01*
X0335690Y0218747D01*
X0335869Y0218596D01*
X0336044Y0218440D01*
X0336215Y0218281D01*
X0336383Y0218117D01*
X0339750Y0214750D02*
X0339896Y0214600D01*
X0340039Y0214446D01*
X0340178Y0214289D01*
X0340312Y0214129D01*
X0340443Y0213966D01*
X0340570Y0213799D01*
X0340693Y0213629D01*
X0340811Y0213456D01*
X0340926Y0213281D01*
X0341036Y0213102D01*
X0341141Y0212921D01*
X0341242Y0212738D01*
X0341339Y0212552D01*
X0341430Y0212364D01*
X0341518Y0212173D01*
X0341600Y0211981D01*
X0341678Y0211786D01*
X0341751Y0211590D01*
X0341819Y0211392D01*
X0341882Y0211192D01*
X0341941Y0210991D01*
X0341994Y0210788D01*
X0342043Y0210584D01*
X0342086Y0210379D01*
X0342124Y0210173D01*
X0342158Y0209966D01*
X0342186Y0209759D01*
X0342209Y0209551D01*
X0342227Y0209342D01*
X0342240Y0209133D01*
X0342247Y0208923D01*
X0342250Y0208714D01*
X0350617Y0210133D02*
X0350785Y0209969D01*
X0350956Y0209810D01*
X0351131Y0209654D01*
X0351310Y0209503D01*
X0351492Y0209356D01*
X0351678Y0209213D01*
X0351867Y0209075D01*
X0352060Y0208942D01*
X0352255Y0208813D01*
X0352454Y0208688D01*
X0352655Y0208569D01*
X0352860Y0208454D01*
X0353067Y0208344D01*
X0353276Y0208239D01*
X0353488Y0208139D01*
X0353702Y0208045D01*
X0353919Y0207955D01*
X0354137Y0207871D01*
X0354358Y0207791D01*
X0354580Y0207717D01*
X0354804Y0207649D01*
X0355029Y0207585D01*
X0355256Y0207527D01*
X0355485Y0207475D01*
X0355714Y0207428D01*
X0355945Y0207386D01*
X0356176Y0207350D01*
X0356408Y0207320D01*
X0356641Y0207295D01*
X0356875Y0207275D01*
X0357109Y0207261D01*
X0357343Y0207253D01*
X0357577Y0207250D01*
X0302250Y0116923D02*
X0302250Y0113500D01*
X0388325Y0024801D02*
X0392300Y0024801D01*
X0392300Y0023203D02*
X0390981Y0023203D01*
D31*
X0302250Y0113500D03*
X0292250Y0113500D03*
X0296000Y0121000D03*
X0207250Y0179750D03*
X0202250Y0202250D03*
X0187250Y0221000D03*
X0201000Y0223500D03*
X0203500Y0236000D03*
X0216000Y0238500D03*
X0232250Y0223500D03*
X0226000Y0219750D03*
X0238500Y0236000D03*
X0243500Y0239750D03*
X0162250Y0222250D03*
X0146000Y0188500D03*
X0101000Y0233500D03*
X0198500Y0131000D03*
X0198500Y0124750D03*
X0198500Y0118500D03*
M02*
