G75*
%MOIN*%
%OFA0B0*%
%FSLAX25Y25*%
%IPPOS*%
%LPD*%
%AMOC8*
5,1,8,0,0,1.08239X$1,22.5*
%
%ADD10C,0.13398*%
%ADD11OC8,0.06400*%
%ADD12C,0.10800*%
%ADD13OC8,0.10800*%
%ADD14C,0.08300*%
%ADD15OC8,0.08300*%
%ADD16C,0.06343*%
%ADD17C,0.10250*%
%ADD18C,0.01360*%
%ADD19OC8,0.15800*%
%ADD20C,0.09658*%
%ADD21OC8,0.06800*%
%ADD22C,0.08600*%
%ADD23C,0.06737*%
%ADD24C,0.06312*%
%ADD25C,0.06500*%
%ADD26OC8,0.13398*%
%ADD27C,0.08400*%
%ADD28C,0.25603*%
%ADD29C,0.09400*%
%ADD30C,0.04400*%
%ADD31C,0.04369*%
D10*
X0014750Y0016000D03*
X0083215Y0026207D03*
X0266285Y0026207D03*
X0384750Y0016000D03*
X0266285Y0198293D03*
X0384750Y0268500D03*
X0083215Y0198293D03*
X0014750Y0268500D03*
D11*
X0213500Y0042250D03*
X0243500Y0042250D03*
D12*
X0332250Y0129750D03*
X0332250Y0172250D03*
X0037250Y0151000D03*
X0037250Y0107250D03*
D13*
X0017250Y0107250D03*
X0017250Y0151000D03*
X0312250Y0129750D03*
X0312250Y0172250D03*
D14*
X0071000Y0249750D03*
D15*
X0071000Y0269750D03*
D16*
X0094907Y0262522D02*
X0094907Y0256978D01*
X0114593Y0256978D02*
X0114593Y0262522D01*
D17*
X0321446Y0202696D02*
X0328128Y0209378D01*
X0363872Y0245122D02*
X0370554Y0251804D01*
D18*
X0105234Y0063924D02*
X0105914Y0063244D01*
X0103660Y0063244D01*
X0102068Y0064836D01*
X0102068Y0067090D01*
X0103660Y0068682D01*
X0105914Y0068682D01*
X0107506Y0067090D01*
X0107506Y0064836D01*
X0105914Y0063244D01*
X0105491Y0064264D01*
X0104083Y0064264D01*
X0103088Y0065259D01*
X0103088Y0066667D01*
X0104083Y0067662D01*
X0105491Y0067662D01*
X0106486Y0066667D01*
X0106486Y0065259D01*
X0105491Y0064264D01*
X0105069Y0065284D01*
X0104505Y0065284D01*
X0104108Y0065681D01*
X0104108Y0066245D01*
X0104505Y0066642D01*
X0105069Y0066642D01*
X0105466Y0066245D01*
X0105466Y0065681D01*
X0105069Y0065284D01*
X0075234Y0063924D02*
X0075914Y0063244D01*
X0073660Y0063244D01*
X0072068Y0064836D01*
X0072068Y0067090D01*
X0073660Y0068682D01*
X0075914Y0068682D01*
X0077506Y0067090D01*
X0077506Y0064836D01*
X0075914Y0063244D01*
X0075491Y0064264D01*
X0074083Y0064264D01*
X0073088Y0065259D01*
X0073088Y0066667D01*
X0074083Y0067662D01*
X0075491Y0067662D01*
X0076486Y0066667D01*
X0076486Y0065259D01*
X0075491Y0064264D01*
X0075069Y0065284D01*
X0074505Y0065284D01*
X0074108Y0065681D01*
X0074108Y0066245D01*
X0074505Y0066642D01*
X0075069Y0066642D01*
X0075466Y0066245D01*
X0075466Y0065681D01*
X0075069Y0065284D01*
X0117660Y0021498D02*
X0118340Y0020818D01*
X0116086Y0020818D01*
X0114494Y0022410D01*
X0114494Y0024664D01*
X0116086Y0026256D01*
X0118340Y0026256D01*
X0119932Y0024664D01*
X0119932Y0022410D01*
X0118340Y0020818D01*
X0117917Y0021838D01*
X0116509Y0021838D01*
X0115514Y0022833D01*
X0115514Y0024241D01*
X0116509Y0025236D01*
X0117917Y0025236D01*
X0118912Y0024241D01*
X0118912Y0022833D01*
X0117917Y0021838D01*
X0117495Y0022858D01*
X0116931Y0022858D01*
X0116534Y0023255D01*
X0116534Y0023819D01*
X0116931Y0024216D01*
X0117495Y0024216D01*
X0117892Y0023819D01*
X0117892Y0023255D01*
X0117495Y0022858D01*
X0147660Y0021498D02*
X0148340Y0020818D01*
X0146086Y0020818D01*
X0144494Y0022410D01*
X0144494Y0024664D01*
X0146086Y0026256D01*
X0148340Y0026256D01*
X0149932Y0024664D01*
X0149932Y0022410D01*
X0148340Y0020818D01*
X0147917Y0021838D01*
X0146509Y0021838D01*
X0145514Y0022833D01*
X0145514Y0024241D01*
X0146509Y0025236D01*
X0147917Y0025236D01*
X0148912Y0024241D01*
X0148912Y0022833D01*
X0147917Y0021838D01*
X0147495Y0022858D01*
X0146931Y0022858D01*
X0146534Y0023255D01*
X0146534Y0023819D01*
X0146931Y0024216D01*
X0147495Y0024216D01*
X0147892Y0023819D01*
X0147892Y0023255D01*
X0147495Y0022858D01*
D19*
X0163500Y0019750D03*
X0193500Y0019750D03*
D20*
X0343500Y0061000D03*
X0343500Y0071000D03*
X0383500Y0071000D03*
X0383500Y0061000D03*
D21*
X0273500Y0062250D03*
X0213500Y0062250D03*
D22*
X0372100Y0139850D02*
X0379900Y0139850D01*
X0379900Y0159650D02*
X0372100Y0159650D01*
X0372100Y0179850D02*
X0379900Y0179850D01*
X0379900Y0199650D02*
X0372100Y0199650D01*
X0027400Y0189850D02*
X0019600Y0189850D01*
X0019600Y0209650D02*
X0027400Y0209650D01*
X0027400Y0069650D02*
X0019600Y0069650D01*
X0019600Y0049850D02*
X0027400Y0049850D01*
D23*
X0298031Y0076000D02*
X0303969Y0076000D01*
X0303969Y0016000D02*
X0298031Y0016000D01*
D24*
X0157250Y0211000D03*
X0147250Y0211000D03*
X0137250Y0211000D03*
X0127250Y0211000D03*
X0127250Y0241000D03*
X0137250Y0241000D03*
X0147250Y0241000D03*
X0157250Y0241000D03*
D25*
X0156000Y0256900D02*
X0156000Y0262600D01*
X0146000Y0262600D02*
X0146000Y0256900D01*
X0042600Y0253500D02*
X0036900Y0253500D01*
X0036900Y0243500D02*
X0042600Y0243500D01*
D26*
X0307250Y0263500D03*
X0307250Y0203500D03*
D27*
X0262250Y0099800D02*
X0262250Y0092200D01*
X0252250Y0084800D02*
X0252250Y0077200D01*
X0242250Y0092200D02*
X0242250Y0099800D01*
D28*
X0174750Y0132073D03*
X0097250Y0163323D03*
X0252250Y0163323D03*
D29*
X0184750Y0069050D02*
X0184750Y0060450D01*
X0174750Y0054050D02*
X0174750Y0045450D01*
X0164750Y0060450D02*
X0164750Y0069050D01*
X0107250Y0091700D02*
X0107250Y0100300D01*
X0097250Y0085300D02*
X0097250Y0076700D01*
X0087250Y0091700D02*
X0087250Y0100300D01*
D30*
X0157250Y0193500D03*
X0172250Y0203500D03*
X0191000Y0196000D03*
X0193500Y0223500D03*
X0212250Y0223500D03*
X0232250Y0216000D03*
X0227250Y0238500D03*
X0193500Y0236000D03*
X0111000Y0201000D03*
D31*
X0146000Y0188500D03*
X0187250Y0221000D03*
X0201000Y0223500D03*
X0203500Y0236000D03*
X0216000Y0238500D03*
X0232250Y0223500D03*
X0226000Y0219750D03*
X0238500Y0236000D03*
X0243500Y0239750D03*
X0202250Y0202250D03*
X0207250Y0179750D03*
X0162250Y0222250D03*
X0101000Y0233500D03*
X0198500Y0131000D03*
X0198500Y0124750D03*
X0198500Y0118500D03*
X0292250Y0113500D03*
X0302250Y0113500D03*
X0296000Y0121000D03*
M02*
