G75*
%MOIN*%
%OFA0B0*%
%FSLAX25Y25*%
%IPPOS*%
%LPD*%
%AMOC8*
5,1,8,0,0,1.08239X$1,22.5*
%
%ADD10C,0.01000*%
%ADD11C,0.00000*%
D10*
X0003500Y0004750D02*
X0003500Y0279750D01*
X0168500Y0279750D01*
X0168598Y0279748D01*
X0168696Y0279742D01*
X0168794Y0279733D01*
X0168891Y0279719D01*
X0168988Y0279702D01*
X0169084Y0279681D01*
X0169179Y0279656D01*
X0169273Y0279628D01*
X0169365Y0279595D01*
X0169457Y0279560D01*
X0169547Y0279520D01*
X0169635Y0279478D01*
X0169722Y0279431D01*
X0169806Y0279382D01*
X0169889Y0279329D01*
X0169969Y0279273D01*
X0170048Y0279213D01*
X0170124Y0279151D01*
X0170197Y0279086D01*
X0170268Y0279018D01*
X0170336Y0278947D01*
X0170401Y0278874D01*
X0170463Y0278798D01*
X0170523Y0278719D01*
X0170579Y0278639D01*
X0170632Y0278556D01*
X0170681Y0278472D01*
X0170728Y0278385D01*
X0170770Y0278297D01*
X0170810Y0278207D01*
X0170845Y0278115D01*
X0170878Y0278023D01*
X0170906Y0277929D01*
X0170931Y0277834D01*
X0170952Y0277738D01*
X0170969Y0277641D01*
X0170983Y0277544D01*
X0170992Y0277446D01*
X0170998Y0277348D01*
X0171000Y0277250D01*
X0171000Y0273500D01*
X0171002Y0273402D01*
X0171008Y0273304D01*
X0171017Y0273206D01*
X0171031Y0273109D01*
X0171048Y0273012D01*
X0171069Y0272916D01*
X0171094Y0272821D01*
X0171122Y0272727D01*
X0171155Y0272635D01*
X0171190Y0272543D01*
X0171230Y0272453D01*
X0171272Y0272365D01*
X0171319Y0272278D01*
X0171368Y0272194D01*
X0171421Y0272111D01*
X0171477Y0272031D01*
X0171537Y0271952D01*
X0171599Y0271876D01*
X0171664Y0271803D01*
X0171732Y0271732D01*
X0171803Y0271664D01*
X0171876Y0271599D01*
X0171952Y0271537D01*
X0172031Y0271477D01*
X0172111Y0271421D01*
X0172194Y0271368D01*
X0172278Y0271319D01*
X0172365Y0271272D01*
X0172453Y0271230D01*
X0172543Y0271190D01*
X0172635Y0271155D01*
X0172727Y0271122D01*
X0172821Y0271094D01*
X0172916Y0271069D01*
X0173012Y0271048D01*
X0173109Y0271031D01*
X0173206Y0271017D01*
X0173304Y0271008D01*
X0173402Y0271002D01*
X0173500Y0271000D01*
X0261000Y0271000D01*
X0261098Y0271002D01*
X0261196Y0271008D01*
X0261294Y0271017D01*
X0261391Y0271031D01*
X0261488Y0271048D01*
X0261584Y0271069D01*
X0261679Y0271094D01*
X0261773Y0271122D01*
X0261865Y0271155D01*
X0261957Y0271190D01*
X0262047Y0271230D01*
X0262135Y0271272D01*
X0262222Y0271319D01*
X0262306Y0271368D01*
X0262389Y0271421D01*
X0262469Y0271477D01*
X0262548Y0271537D01*
X0262624Y0271599D01*
X0262697Y0271664D01*
X0262768Y0271732D01*
X0262836Y0271803D01*
X0262901Y0271876D01*
X0262963Y0271952D01*
X0263023Y0272031D01*
X0263079Y0272111D01*
X0263132Y0272194D01*
X0263181Y0272278D01*
X0263228Y0272365D01*
X0263270Y0272453D01*
X0263310Y0272543D01*
X0263345Y0272635D01*
X0263378Y0272727D01*
X0263406Y0272821D01*
X0263431Y0272916D01*
X0263452Y0273012D01*
X0263469Y0273109D01*
X0263483Y0273206D01*
X0263492Y0273304D01*
X0263498Y0273402D01*
X0263500Y0273500D01*
X0263500Y0277250D01*
X0263502Y0277348D01*
X0263508Y0277446D01*
X0263517Y0277544D01*
X0263531Y0277641D01*
X0263548Y0277738D01*
X0263569Y0277834D01*
X0263594Y0277929D01*
X0263622Y0278023D01*
X0263655Y0278115D01*
X0263690Y0278207D01*
X0263730Y0278297D01*
X0263772Y0278385D01*
X0263819Y0278472D01*
X0263868Y0278556D01*
X0263921Y0278639D01*
X0263977Y0278719D01*
X0264037Y0278798D01*
X0264099Y0278874D01*
X0264164Y0278947D01*
X0264232Y0279018D01*
X0264303Y0279086D01*
X0264376Y0279151D01*
X0264452Y0279213D01*
X0264531Y0279273D01*
X0264611Y0279329D01*
X0264694Y0279382D01*
X0264778Y0279431D01*
X0264865Y0279478D01*
X0264953Y0279520D01*
X0265043Y0279560D01*
X0265135Y0279595D01*
X0265227Y0279628D01*
X0265321Y0279656D01*
X0265416Y0279681D01*
X0265512Y0279702D01*
X0265609Y0279719D01*
X0265706Y0279733D01*
X0265804Y0279742D01*
X0265902Y0279748D01*
X0266000Y0279750D01*
X0396000Y0279750D01*
X0396000Y0004750D01*
X0003500Y0004750D01*
D11*
X0008451Y0016000D02*
X0008453Y0016158D01*
X0008459Y0016316D01*
X0008469Y0016474D01*
X0008483Y0016632D01*
X0008501Y0016789D01*
X0008522Y0016946D01*
X0008548Y0017102D01*
X0008578Y0017258D01*
X0008611Y0017413D01*
X0008649Y0017566D01*
X0008690Y0017719D01*
X0008735Y0017871D01*
X0008784Y0018022D01*
X0008837Y0018171D01*
X0008893Y0018319D01*
X0008953Y0018465D01*
X0009017Y0018610D01*
X0009085Y0018753D01*
X0009156Y0018895D01*
X0009230Y0019035D01*
X0009308Y0019172D01*
X0009390Y0019308D01*
X0009474Y0019442D01*
X0009563Y0019573D01*
X0009654Y0019702D01*
X0009749Y0019829D01*
X0009846Y0019954D01*
X0009947Y0020076D01*
X0010051Y0020195D01*
X0010158Y0020312D01*
X0010268Y0020426D01*
X0010381Y0020537D01*
X0010496Y0020646D01*
X0010614Y0020751D01*
X0010735Y0020853D01*
X0010858Y0020953D01*
X0010984Y0021049D01*
X0011112Y0021142D01*
X0011242Y0021232D01*
X0011375Y0021318D01*
X0011510Y0021402D01*
X0011646Y0021481D01*
X0011785Y0021558D01*
X0011926Y0021630D01*
X0012068Y0021700D01*
X0012212Y0021765D01*
X0012358Y0021827D01*
X0012505Y0021885D01*
X0012654Y0021940D01*
X0012804Y0021991D01*
X0012955Y0022038D01*
X0013107Y0022081D01*
X0013260Y0022120D01*
X0013415Y0022156D01*
X0013570Y0022187D01*
X0013726Y0022215D01*
X0013882Y0022239D01*
X0014039Y0022259D01*
X0014197Y0022275D01*
X0014354Y0022287D01*
X0014513Y0022295D01*
X0014671Y0022299D01*
X0014829Y0022299D01*
X0014987Y0022295D01*
X0015146Y0022287D01*
X0015303Y0022275D01*
X0015461Y0022259D01*
X0015618Y0022239D01*
X0015774Y0022215D01*
X0015930Y0022187D01*
X0016085Y0022156D01*
X0016240Y0022120D01*
X0016393Y0022081D01*
X0016545Y0022038D01*
X0016696Y0021991D01*
X0016846Y0021940D01*
X0016995Y0021885D01*
X0017142Y0021827D01*
X0017288Y0021765D01*
X0017432Y0021700D01*
X0017574Y0021630D01*
X0017715Y0021558D01*
X0017854Y0021481D01*
X0017990Y0021402D01*
X0018125Y0021318D01*
X0018258Y0021232D01*
X0018388Y0021142D01*
X0018516Y0021049D01*
X0018642Y0020953D01*
X0018765Y0020853D01*
X0018886Y0020751D01*
X0019004Y0020646D01*
X0019119Y0020537D01*
X0019232Y0020426D01*
X0019342Y0020312D01*
X0019449Y0020195D01*
X0019553Y0020076D01*
X0019654Y0019954D01*
X0019751Y0019829D01*
X0019846Y0019702D01*
X0019937Y0019573D01*
X0020026Y0019442D01*
X0020110Y0019308D01*
X0020192Y0019172D01*
X0020270Y0019035D01*
X0020344Y0018895D01*
X0020415Y0018753D01*
X0020483Y0018610D01*
X0020547Y0018465D01*
X0020607Y0018319D01*
X0020663Y0018171D01*
X0020716Y0018022D01*
X0020765Y0017871D01*
X0020810Y0017719D01*
X0020851Y0017566D01*
X0020889Y0017413D01*
X0020922Y0017258D01*
X0020952Y0017102D01*
X0020978Y0016946D01*
X0020999Y0016789D01*
X0021017Y0016632D01*
X0021031Y0016474D01*
X0021041Y0016316D01*
X0021047Y0016158D01*
X0021049Y0016000D01*
X0021047Y0015842D01*
X0021041Y0015684D01*
X0021031Y0015526D01*
X0021017Y0015368D01*
X0020999Y0015211D01*
X0020978Y0015054D01*
X0020952Y0014898D01*
X0020922Y0014742D01*
X0020889Y0014587D01*
X0020851Y0014434D01*
X0020810Y0014281D01*
X0020765Y0014129D01*
X0020716Y0013978D01*
X0020663Y0013829D01*
X0020607Y0013681D01*
X0020547Y0013535D01*
X0020483Y0013390D01*
X0020415Y0013247D01*
X0020344Y0013105D01*
X0020270Y0012965D01*
X0020192Y0012828D01*
X0020110Y0012692D01*
X0020026Y0012558D01*
X0019937Y0012427D01*
X0019846Y0012298D01*
X0019751Y0012171D01*
X0019654Y0012046D01*
X0019553Y0011924D01*
X0019449Y0011805D01*
X0019342Y0011688D01*
X0019232Y0011574D01*
X0019119Y0011463D01*
X0019004Y0011354D01*
X0018886Y0011249D01*
X0018765Y0011147D01*
X0018642Y0011047D01*
X0018516Y0010951D01*
X0018388Y0010858D01*
X0018258Y0010768D01*
X0018125Y0010682D01*
X0017990Y0010598D01*
X0017854Y0010519D01*
X0017715Y0010442D01*
X0017574Y0010370D01*
X0017432Y0010300D01*
X0017288Y0010235D01*
X0017142Y0010173D01*
X0016995Y0010115D01*
X0016846Y0010060D01*
X0016696Y0010009D01*
X0016545Y0009962D01*
X0016393Y0009919D01*
X0016240Y0009880D01*
X0016085Y0009844D01*
X0015930Y0009813D01*
X0015774Y0009785D01*
X0015618Y0009761D01*
X0015461Y0009741D01*
X0015303Y0009725D01*
X0015146Y0009713D01*
X0014987Y0009705D01*
X0014829Y0009701D01*
X0014671Y0009701D01*
X0014513Y0009705D01*
X0014354Y0009713D01*
X0014197Y0009725D01*
X0014039Y0009741D01*
X0013882Y0009761D01*
X0013726Y0009785D01*
X0013570Y0009813D01*
X0013415Y0009844D01*
X0013260Y0009880D01*
X0013107Y0009919D01*
X0012955Y0009962D01*
X0012804Y0010009D01*
X0012654Y0010060D01*
X0012505Y0010115D01*
X0012358Y0010173D01*
X0012212Y0010235D01*
X0012068Y0010300D01*
X0011926Y0010370D01*
X0011785Y0010442D01*
X0011646Y0010519D01*
X0011510Y0010598D01*
X0011375Y0010682D01*
X0011242Y0010768D01*
X0011112Y0010858D01*
X0010984Y0010951D01*
X0010858Y0011047D01*
X0010735Y0011147D01*
X0010614Y0011249D01*
X0010496Y0011354D01*
X0010381Y0011463D01*
X0010268Y0011574D01*
X0010158Y0011688D01*
X0010051Y0011805D01*
X0009947Y0011924D01*
X0009846Y0012046D01*
X0009749Y0012171D01*
X0009654Y0012298D01*
X0009563Y0012427D01*
X0009474Y0012558D01*
X0009390Y0012692D01*
X0009308Y0012828D01*
X0009230Y0012965D01*
X0009156Y0013105D01*
X0009085Y0013247D01*
X0009017Y0013390D01*
X0008953Y0013535D01*
X0008893Y0013681D01*
X0008837Y0013829D01*
X0008784Y0013978D01*
X0008735Y0014129D01*
X0008690Y0014281D01*
X0008649Y0014434D01*
X0008611Y0014587D01*
X0008578Y0014742D01*
X0008548Y0014898D01*
X0008522Y0015054D01*
X0008501Y0015211D01*
X0008483Y0015368D01*
X0008469Y0015526D01*
X0008459Y0015684D01*
X0008453Y0015842D01*
X0008451Y0016000D01*
X0076916Y0026207D02*
X0076918Y0026365D01*
X0076924Y0026523D01*
X0076934Y0026681D01*
X0076948Y0026839D01*
X0076966Y0026996D01*
X0076987Y0027153D01*
X0077013Y0027309D01*
X0077043Y0027465D01*
X0077076Y0027620D01*
X0077114Y0027773D01*
X0077155Y0027926D01*
X0077200Y0028078D01*
X0077249Y0028229D01*
X0077302Y0028378D01*
X0077358Y0028526D01*
X0077418Y0028672D01*
X0077482Y0028817D01*
X0077550Y0028960D01*
X0077621Y0029102D01*
X0077695Y0029242D01*
X0077773Y0029379D01*
X0077855Y0029515D01*
X0077939Y0029649D01*
X0078028Y0029780D01*
X0078119Y0029909D01*
X0078214Y0030036D01*
X0078311Y0030161D01*
X0078412Y0030283D01*
X0078516Y0030402D01*
X0078623Y0030519D01*
X0078733Y0030633D01*
X0078846Y0030744D01*
X0078961Y0030853D01*
X0079079Y0030958D01*
X0079200Y0031060D01*
X0079323Y0031160D01*
X0079449Y0031256D01*
X0079577Y0031349D01*
X0079707Y0031439D01*
X0079840Y0031525D01*
X0079975Y0031609D01*
X0080111Y0031688D01*
X0080250Y0031765D01*
X0080391Y0031837D01*
X0080533Y0031907D01*
X0080677Y0031972D01*
X0080823Y0032034D01*
X0080970Y0032092D01*
X0081119Y0032147D01*
X0081269Y0032198D01*
X0081420Y0032245D01*
X0081572Y0032288D01*
X0081725Y0032327D01*
X0081880Y0032363D01*
X0082035Y0032394D01*
X0082191Y0032422D01*
X0082347Y0032446D01*
X0082504Y0032466D01*
X0082662Y0032482D01*
X0082819Y0032494D01*
X0082978Y0032502D01*
X0083136Y0032506D01*
X0083294Y0032506D01*
X0083452Y0032502D01*
X0083611Y0032494D01*
X0083768Y0032482D01*
X0083926Y0032466D01*
X0084083Y0032446D01*
X0084239Y0032422D01*
X0084395Y0032394D01*
X0084550Y0032363D01*
X0084705Y0032327D01*
X0084858Y0032288D01*
X0085010Y0032245D01*
X0085161Y0032198D01*
X0085311Y0032147D01*
X0085460Y0032092D01*
X0085607Y0032034D01*
X0085753Y0031972D01*
X0085897Y0031907D01*
X0086039Y0031837D01*
X0086180Y0031765D01*
X0086319Y0031688D01*
X0086455Y0031609D01*
X0086590Y0031525D01*
X0086723Y0031439D01*
X0086853Y0031349D01*
X0086981Y0031256D01*
X0087107Y0031160D01*
X0087230Y0031060D01*
X0087351Y0030958D01*
X0087469Y0030853D01*
X0087584Y0030744D01*
X0087697Y0030633D01*
X0087807Y0030519D01*
X0087914Y0030402D01*
X0088018Y0030283D01*
X0088119Y0030161D01*
X0088216Y0030036D01*
X0088311Y0029909D01*
X0088402Y0029780D01*
X0088491Y0029649D01*
X0088575Y0029515D01*
X0088657Y0029379D01*
X0088735Y0029242D01*
X0088809Y0029102D01*
X0088880Y0028960D01*
X0088948Y0028817D01*
X0089012Y0028672D01*
X0089072Y0028526D01*
X0089128Y0028378D01*
X0089181Y0028229D01*
X0089230Y0028078D01*
X0089275Y0027926D01*
X0089316Y0027773D01*
X0089354Y0027620D01*
X0089387Y0027465D01*
X0089417Y0027309D01*
X0089443Y0027153D01*
X0089464Y0026996D01*
X0089482Y0026839D01*
X0089496Y0026681D01*
X0089506Y0026523D01*
X0089512Y0026365D01*
X0089514Y0026207D01*
X0089512Y0026049D01*
X0089506Y0025891D01*
X0089496Y0025733D01*
X0089482Y0025575D01*
X0089464Y0025418D01*
X0089443Y0025261D01*
X0089417Y0025105D01*
X0089387Y0024949D01*
X0089354Y0024794D01*
X0089316Y0024641D01*
X0089275Y0024488D01*
X0089230Y0024336D01*
X0089181Y0024185D01*
X0089128Y0024036D01*
X0089072Y0023888D01*
X0089012Y0023742D01*
X0088948Y0023597D01*
X0088880Y0023454D01*
X0088809Y0023312D01*
X0088735Y0023172D01*
X0088657Y0023035D01*
X0088575Y0022899D01*
X0088491Y0022765D01*
X0088402Y0022634D01*
X0088311Y0022505D01*
X0088216Y0022378D01*
X0088119Y0022253D01*
X0088018Y0022131D01*
X0087914Y0022012D01*
X0087807Y0021895D01*
X0087697Y0021781D01*
X0087584Y0021670D01*
X0087469Y0021561D01*
X0087351Y0021456D01*
X0087230Y0021354D01*
X0087107Y0021254D01*
X0086981Y0021158D01*
X0086853Y0021065D01*
X0086723Y0020975D01*
X0086590Y0020889D01*
X0086455Y0020805D01*
X0086319Y0020726D01*
X0086180Y0020649D01*
X0086039Y0020577D01*
X0085897Y0020507D01*
X0085753Y0020442D01*
X0085607Y0020380D01*
X0085460Y0020322D01*
X0085311Y0020267D01*
X0085161Y0020216D01*
X0085010Y0020169D01*
X0084858Y0020126D01*
X0084705Y0020087D01*
X0084550Y0020051D01*
X0084395Y0020020D01*
X0084239Y0019992D01*
X0084083Y0019968D01*
X0083926Y0019948D01*
X0083768Y0019932D01*
X0083611Y0019920D01*
X0083452Y0019912D01*
X0083294Y0019908D01*
X0083136Y0019908D01*
X0082978Y0019912D01*
X0082819Y0019920D01*
X0082662Y0019932D01*
X0082504Y0019948D01*
X0082347Y0019968D01*
X0082191Y0019992D01*
X0082035Y0020020D01*
X0081880Y0020051D01*
X0081725Y0020087D01*
X0081572Y0020126D01*
X0081420Y0020169D01*
X0081269Y0020216D01*
X0081119Y0020267D01*
X0080970Y0020322D01*
X0080823Y0020380D01*
X0080677Y0020442D01*
X0080533Y0020507D01*
X0080391Y0020577D01*
X0080250Y0020649D01*
X0080111Y0020726D01*
X0079975Y0020805D01*
X0079840Y0020889D01*
X0079707Y0020975D01*
X0079577Y0021065D01*
X0079449Y0021158D01*
X0079323Y0021254D01*
X0079200Y0021354D01*
X0079079Y0021456D01*
X0078961Y0021561D01*
X0078846Y0021670D01*
X0078733Y0021781D01*
X0078623Y0021895D01*
X0078516Y0022012D01*
X0078412Y0022131D01*
X0078311Y0022253D01*
X0078214Y0022378D01*
X0078119Y0022505D01*
X0078028Y0022634D01*
X0077939Y0022765D01*
X0077855Y0022899D01*
X0077773Y0023035D01*
X0077695Y0023172D01*
X0077621Y0023312D01*
X0077550Y0023454D01*
X0077482Y0023597D01*
X0077418Y0023742D01*
X0077358Y0023888D01*
X0077302Y0024036D01*
X0077249Y0024185D01*
X0077200Y0024336D01*
X0077155Y0024488D01*
X0077114Y0024641D01*
X0077076Y0024794D01*
X0077043Y0024949D01*
X0077013Y0025105D01*
X0076987Y0025261D01*
X0076966Y0025418D01*
X0076948Y0025575D01*
X0076934Y0025733D01*
X0076924Y0025891D01*
X0076918Y0026049D01*
X0076916Y0026207D01*
X0162348Y0132073D02*
X0162352Y0132377D01*
X0162363Y0132682D01*
X0162382Y0132985D01*
X0162408Y0133289D01*
X0162441Y0133591D01*
X0162482Y0133893D01*
X0162531Y0134193D01*
X0162586Y0134493D01*
X0162649Y0134790D01*
X0162720Y0135086D01*
X0162797Y0135381D01*
X0162882Y0135673D01*
X0162974Y0135963D01*
X0163073Y0136251D01*
X0163179Y0136536D01*
X0163292Y0136819D01*
X0163412Y0137099D01*
X0163539Y0137376D01*
X0163672Y0137649D01*
X0163812Y0137919D01*
X0163959Y0138186D01*
X0164112Y0138449D01*
X0164272Y0138708D01*
X0164438Y0138963D01*
X0164610Y0139214D01*
X0164789Y0139461D01*
X0164973Y0139703D01*
X0165163Y0139941D01*
X0165359Y0140174D01*
X0165561Y0140402D01*
X0165768Y0140625D01*
X0165980Y0140843D01*
X0166198Y0141055D01*
X0166421Y0141262D01*
X0166649Y0141464D01*
X0166882Y0141660D01*
X0167120Y0141850D01*
X0167362Y0142034D01*
X0167609Y0142213D01*
X0167860Y0142385D01*
X0168115Y0142551D01*
X0168374Y0142711D01*
X0168637Y0142864D01*
X0168904Y0143011D01*
X0169174Y0143151D01*
X0169447Y0143284D01*
X0169724Y0143411D01*
X0170004Y0143531D01*
X0170287Y0143644D01*
X0170572Y0143750D01*
X0170860Y0143849D01*
X0171150Y0143941D01*
X0171442Y0144026D01*
X0171737Y0144103D01*
X0172033Y0144174D01*
X0172330Y0144237D01*
X0172630Y0144292D01*
X0172930Y0144341D01*
X0173232Y0144382D01*
X0173534Y0144415D01*
X0173838Y0144441D01*
X0174141Y0144460D01*
X0174446Y0144471D01*
X0174750Y0144475D01*
X0175054Y0144471D01*
X0175359Y0144460D01*
X0175662Y0144441D01*
X0175966Y0144415D01*
X0176268Y0144382D01*
X0176570Y0144341D01*
X0176870Y0144292D01*
X0177170Y0144237D01*
X0177467Y0144174D01*
X0177763Y0144103D01*
X0178058Y0144026D01*
X0178350Y0143941D01*
X0178640Y0143849D01*
X0178928Y0143750D01*
X0179213Y0143644D01*
X0179496Y0143531D01*
X0179776Y0143411D01*
X0180053Y0143284D01*
X0180326Y0143151D01*
X0180596Y0143011D01*
X0180863Y0142864D01*
X0181126Y0142711D01*
X0181385Y0142551D01*
X0181640Y0142385D01*
X0181891Y0142213D01*
X0182138Y0142034D01*
X0182380Y0141850D01*
X0182618Y0141660D01*
X0182851Y0141464D01*
X0183079Y0141262D01*
X0183302Y0141055D01*
X0183520Y0140843D01*
X0183732Y0140625D01*
X0183939Y0140402D01*
X0184141Y0140174D01*
X0184337Y0139941D01*
X0184527Y0139703D01*
X0184711Y0139461D01*
X0184890Y0139214D01*
X0185062Y0138963D01*
X0185228Y0138708D01*
X0185388Y0138449D01*
X0185541Y0138186D01*
X0185688Y0137919D01*
X0185828Y0137649D01*
X0185961Y0137376D01*
X0186088Y0137099D01*
X0186208Y0136819D01*
X0186321Y0136536D01*
X0186427Y0136251D01*
X0186526Y0135963D01*
X0186618Y0135673D01*
X0186703Y0135381D01*
X0186780Y0135086D01*
X0186851Y0134790D01*
X0186914Y0134493D01*
X0186969Y0134193D01*
X0187018Y0133893D01*
X0187059Y0133591D01*
X0187092Y0133289D01*
X0187118Y0132985D01*
X0187137Y0132682D01*
X0187148Y0132377D01*
X0187152Y0132073D01*
X0187148Y0131769D01*
X0187137Y0131464D01*
X0187118Y0131161D01*
X0187092Y0130857D01*
X0187059Y0130555D01*
X0187018Y0130253D01*
X0186969Y0129953D01*
X0186914Y0129653D01*
X0186851Y0129356D01*
X0186780Y0129060D01*
X0186703Y0128765D01*
X0186618Y0128473D01*
X0186526Y0128183D01*
X0186427Y0127895D01*
X0186321Y0127610D01*
X0186208Y0127327D01*
X0186088Y0127047D01*
X0185961Y0126770D01*
X0185828Y0126497D01*
X0185688Y0126227D01*
X0185541Y0125960D01*
X0185388Y0125697D01*
X0185228Y0125438D01*
X0185062Y0125183D01*
X0184890Y0124932D01*
X0184711Y0124685D01*
X0184527Y0124443D01*
X0184337Y0124205D01*
X0184141Y0123972D01*
X0183939Y0123744D01*
X0183732Y0123521D01*
X0183520Y0123303D01*
X0183302Y0123091D01*
X0183079Y0122884D01*
X0182851Y0122682D01*
X0182618Y0122486D01*
X0182380Y0122296D01*
X0182138Y0122112D01*
X0181891Y0121933D01*
X0181640Y0121761D01*
X0181385Y0121595D01*
X0181126Y0121435D01*
X0180863Y0121282D01*
X0180596Y0121135D01*
X0180326Y0120995D01*
X0180053Y0120862D01*
X0179776Y0120735D01*
X0179496Y0120615D01*
X0179213Y0120502D01*
X0178928Y0120396D01*
X0178640Y0120297D01*
X0178350Y0120205D01*
X0178058Y0120120D01*
X0177763Y0120043D01*
X0177467Y0119972D01*
X0177170Y0119909D01*
X0176870Y0119854D01*
X0176570Y0119805D01*
X0176268Y0119764D01*
X0175966Y0119731D01*
X0175662Y0119705D01*
X0175359Y0119686D01*
X0175054Y0119675D01*
X0174750Y0119671D01*
X0174446Y0119675D01*
X0174141Y0119686D01*
X0173838Y0119705D01*
X0173534Y0119731D01*
X0173232Y0119764D01*
X0172930Y0119805D01*
X0172630Y0119854D01*
X0172330Y0119909D01*
X0172033Y0119972D01*
X0171737Y0120043D01*
X0171442Y0120120D01*
X0171150Y0120205D01*
X0170860Y0120297D01*
X0170572Y0120396D01*
X0170287Y0120502D01*
X0170004Y0120615D01*
X0169724Y0120735D01*
X0169447Y0120862D01*
X0169174Y0120995D01*
X0168904Y0121135D01*
X0168637Y0121282D01*
X0168374Y0121435D01*
X0168115Y0121595D01*
X0167860Y0121761D01*
X0167609Y0121933D01*
X0167362Y0122112D01*
X0167120Y0122296D01*
X0166882Y0122486D01*
X0166649Y0122682D01*
X0166421Y0122884D01*
X0166198Y0123091D01*
X0165980Y0123303D01*
X0165768Y0123521D01*
X0165561Y0123744D01*
X0165359Y0123972D01*
X0165163Y0124205D01*
X0164973Y0124443D01*
X0164789Y0124685D01*
X0164610Y0124932D01*
X0164438Y0125183D01*
X0164272Y0125438D01*
X0164112Y0125697D01*
X0163959Y0125960D01*
X0163812Y0126227D01*
X0163672Y0126497D01*
X0163539Y0126770D01*
X0163412Y0127047D01*
X0163292Y0127327D01*
X0163179Y0127610D01*
X0163073Y0127895D01*
X0162974Y0128183D01*
X0162882Y0128473D01*
X0162797Y0128765D01*
X0162720Y0129060D01*
X0162649Y0129356D01*
X0162586Y0129653D01*
X0162531Y0129953D01*
X0162482Y0130253D01*
X0162441Y0130555D01*
X0162408Y0130857D01*
X0162382Y0131161D01*
X0162363Y0131464D01*
X0162352Y0131769D01*
X0162348Y0132073D01*
X0084848Y0163323D02*
X0084852Y0163627D01*
X0084863Y0163932D01*
X0084882Y0164235D01*
X0084908Y0164539D01*
X0084941Y0164841D01*
X0084982Y0165143D01*
X0085031Y0165443D01*
X0085086Y0165743D01*
X0085149Y0166040D01*
X0085220Y0166336D01*
X0085297Y0166631D01*
X0085382Y0166923D01*
X0085474Y0167213D01*
X0085573Y0167501D01*
X0085679Y0167786D01*
X0085792Y0168069D01*
X0085912Y0168349D01*
X0086039Y0168626D01*
X0086172Y0168899D01*
X0086312Y0169169D01*
X0086459Y0169436D01*
X0086612Y0169699D01*
X0086772Y0169958D01*
X0086938Y0170213D01*
X0087110Y0170464D01*
X0087289Y0170711D01*
X0087473Y0170953D01*
X0087663Y0171191D01*
X0087859Y0171424D01*
X0088061Y0171652D01*
X0088268Y0171875D01*
X0088480Y0172093D01*
X0088698Y0172305D01*
X0088921Y0172512D01*
X0089149Y0172714D01*
X0089382Y0172910D01*
X0089620Y0173100D01*
X0089862Y0173284D01*
X0090109Y0173463D01*
X0090360Y0173635D01*
X0090615Y0173801D01*
X0090874Y0173961D01*
X0091137Y0174114D01*
X0091404Y0174261D01*
X0091674Y0174401D01*
X0091947Y0174534D01*
X0092224Y0174661D01*
X0092504Y0174781D01*
X0092787Y0174894D01*
X0093072Y0175000D01*
X0093360Y0175099D01*
X0093650Y0175191D01*
X0093942Y0175276D01*
X0094237Y0175353D01*
X0094533Y0175424D01*
X0094830Y0175487D01*
X0095130Y0175542D01*
X0095430Y0175591D01*
X0095732Y0175632D01*
X0096034Y0175665D01*
X0096338Y0175691D01*
X0096641Y0175710D01*
X0096946Y0175721D01*
X0097250Y0175725D01*
X0097554Y0175721D01*
X0097859Y0175710D01*
X0098162Y0175691D01*
X0098466Y0175665D01*
X0098768Y0175632D01*
X0099070Y0175591D01*
X0099370Y0175542D01*
X0099670Y0175487D01*
X0099967Y0175424D01*
X0100263Y0175353D01*
X0100558Y0175276D01*
X0100850Y0175191D01*
X0101140Y0175099D01*
X0101428Y0175000D01*
X0101713Y0174894D01*
X0101996Y0174781D01*
X0102276Y0174661D01*
X0102553Y0174534D01*
X0102826Y0174401D01*
X0103096Y0174261D01*
X0103363Y0174114D01*
X0103626Y0173961D01*
X0103885Y0173801D01*
X0104140Y0173635D01*
X0104391Y0173463D01*
X0104638Y0173284D01*
X0104880Y0173100D01*
X0105118Y0172910D01*
X0105351Y0172714D01*
X0105579Y0172512D01*
X0105802Y0172305D01*
X0106020Y0172093D01*
X0106232Y0171875D01*
X0106439Y0171652D01*
X0106641Y0171424D01*
X0106837Y0171191D01*
X0107027Y0170953D01*
X0107211Y0170711D01*
X0107390Y0170464D01*
X0107562Y0170213D01*
X0107728Y0169958D01*
X0107888Y0169699D01*
X0108041Y0169436D01*
X0108188Y0169169D01*
X0108328Y0168899D01*
X0108461Y0168626D01*
X0108588Y0168349D01*
X0108708Y0168069D01*
X0108821Y0167786D01*
X0108927Y0167501D01*
X0109026Y0167213D01*
X0109118Y0166923D01*
X0109203Y0166631D01*
X0109280Y0166336D01*
X0109351Y0166040D01*
X0109414Y0165743D01*
X0109469Y0165443D01*
X0109518Y0165143D01*
X0109559Y0164841D01*
X0109592Y0164539D01*
X0109618Y0164235D01*
X0109637Y0163932D01*
X0109648Y0163627D01*
X0109652Y0163323D01*
X0109648Y0163019D01*
X0109637Y0162714D01*
X0109618Y0162411D01*
X0109592Y0162107D01*
X0109559Y0161805D01*
X0109518Y0161503D01*
X0109469Y0161203D01*
X0109414Y0160903D01*
X0109351Y0160606D01*
X0109280Y0160310D01*
X0109203Y0160015D01*
X0109118Y0159723D01*
X0109026Y0159433D01*
X0108927Y0159145D01*
X0108821Y0158860D01*
X0108708Y0158577D01*
X0108588Y0158297D01*
X0108461Y0158020D01*
X0108328Y0157747D01*
X0108188Y0157477D01*
X0108041Y0157210D01*
X0107888Y0156947D01*
X0107728Y0156688D01*
X0107562Y0156433D01*
X0107390Y0156182D01*
X0107211Y0155935D01*
X0107027Y0155693D01*
X0106837Y0155455D01*
X0106641Y0155222D01*
X0106439Y0154994D01*
X0106232Y0154771D01*
X0106020Y0154553D01*
X0105802Y0154341D01*
X0105579Y0154134D01*
X0105351Y0153932D01*
X0105118Y0153736D01*
X0104880Y0153546D01*
X0104638Y0153362D01*
X0104391Y0153183D01*
X0104140Y0153011D01*
X0103885Y0152845D01*
X0103626Y0152685D01*
X0103363Y0152532D01*
X0103096Y0152385D01*
X0102826Y0152245D01*
X0102553Y0152112D01*
X0102276Y0151985D01*
X0101996Y0151865D01*
X0101713Y0151752D01*
X0101428Y0151646D01*
X0101140Y0151547D01*
X0100850Y0151455D01*
X0100558Y0151370D01*
X0100263Y0151293D01*
X0099967Y0151222D01*
X0099670Y0151159D01*
X0099370Y0151104D01*
X0099070Y0151055D01*
X0098768Y0151014D01*
X0098466Y0150981D01*
X0098162Y0150955D01*
X0097859Y0150936D01*
X0097554Y0150925D01*
X0097250Y0150921D01*
X0096946Y0150925D01*
X0096641Y0150936D01*
X0096338Y0150955D01*
X0096034Y0150981D01*
X0095732Y0151014D01*
X0095430Y0151055D01*
X0095130Y0151104D01*
X0094830Y0151159D01*
X0094533Y0151222D01*
X0094237Y0151293D01*
X0093942Y0151370D01*
X0093650Y0151455D01*
X0093360Y0151547D01*
X0093072Y0151646D01*
X0092787Y0151752D01*
X0092504Y0151865D01*
X0092224Y0151985D01*
X0091947Y0152112D01*
X0091674Y0152245D01*
X0091404Y0152385D01*
X0091137Y0152532D01*
X0090874Y0152685D01*
X0090615Y0152845D01*
X0090360Y0153011D01*
X0090109Y0153183D01*
X0089862Y0153362D01*
X0089620Y0153546D01*
X0089382Y0153736D01*
X0089149Y0153932D01*
X0088921Y0154134D01*
X0088698Y0154341D01*
X0088480Y0154553D01*
X0088268Y0154771D01*
X0088061Y0154994D01*
X0087859Y0155222D01*
X0087663Y0155455D01*
X0087473Y0155693D01*
X0087289Y0155935D01*
X0087110Y0156182D01*
X0086938Y0156433D01*
X0086772Y0156688D01*
X0086612Y0156947D01*
X0086459Y0157210D01*
X0086312Y0157477D01*
X0086172Y0157747D01*
X0086039Y0158020D01*
X0085912Y0158297D01*
X0085792Y0158577D01*
X0085679Y0158860D01*
X0085573Y0159145D01*
X0085474Y0159433D01*
X0085382Y0159723D01*
X0085297Y0160015D01*
X0085220Y0160310D01*
X0085149Y0160606D01*
X0085086Y0160903D01*
X0085031Y0161203D01*
X0084982Y0161503D01*
X0084941Y0161805D01*
X0084908Y0162107D01*
X0084882Y0162411D01*
X0084863Y0162714D01*
X0084852Y0163019D01*
X0084848Y0163323D01*
X0076916Y0198293D02*
X0076918Y0198451D01*
X0076924Y0198609D01*
X0076934Y0198767D01*
X0076948Y0198925D01*
X0076966Y0199082D01*
X0076987Y0199239D01*
X0077013Y0199395D01*
X0077043Y0199551D01*
X0077076Y0199706D01*
X0077114Y0199859D01*
X0077155Y0200012D01*
X0077200Y0200164D01*
X0077249Y0200315D01*
X0077302Y0200464D01*
X0077358Y0200612D01*
X0077418Y0200758D01*
X0077482Y0200903D01*
X0077550Y0201046D01*
X0077621Y0201188D01*
X0077695Y0201328D01*
X0077773Y0201465D01*
X0077855Y0201601D01*
X0077939Y0201735D01*
X0078028Y0201866D01*
X0078119Y0201995D01*
X0078214Y0202122D01*
X0078311Y0202247D01*
X0078412Y0202369D01*
X0078516Y0202488D01*
X0078623Y0202605D01*
X0078733Y0202719D01*
X0078846Y0202830D01*
X0078961Y0202939D01*
X0079079Y0203044D01*
X0079200Y0203146D01*
X0079323Y0203246D01*
X0079449Y0203342D01*
X0079577Y0203435D01*
X0079707Y0203525D01*
X0079840Y0203611D01*
X0079975Y0203695D01*
X0080111Y0203774D01*
X0080250Y0203851D01*
X0080391Y0203923D01*
X0080533Y0203993D01*
X0080677Y0204058D01*
X0080823Y0204120D01*
X0080970Y0204178D01*
X0081119Y0204233D01*
X0081269Y0204284D01*
X0081420Y0204331D01*
X0081572Y0204374D01*
X0081725Y0204413D01*
X0081880Y0204449D01*
X0082035Y0204480D01*
X0082191Y0204508D01*
X0082347Y0204532D01*
X0082504Y0204552D01*
X0082662Y0204568D01*
X0082819Y0204580D01*
X0082978Y0204588D01*
X0083136Y0204592D01*
X0083294Y0204592D01*
X0083452Y0204588D01*
X0083611Y0204580D01*
X0083768Y0204568D01*
X0083926Y0204552D01*
X0084083Y0204532D01*
X0084239Y0204508D01*
X0084395Y0204480D01*
X0084550Y0204449D01*
X0084705Y0204413D01*
X0084858Y0204374D01*
X0085010Y0204331D01*
X0085161Y0204284D01*
X0085311Y0204233D01*
X0085460Y0204178D01*
X0085607Y0204120D01*
X0085753Y0204058D01*
X0085897Y0203993D01*
X0086039Y0203923D01*
X0086180Y0203851D01*
X0086319Y0203774D01*
X0086455Y0203695D01*
X0086590Y0203611D01*
X0086723Y0203525D01*
X0086853Y0203435D01*
X0086981Y0203342D01*
X0087107Y0203246D01*
X0087230Y0203146D01*
X0087351Y0203044D01*
X0087469Y0202939D01*
X0087584Y0202830D01*
X0087697Y0202719D01*
X0087807Y0202605D01*
X0087914Y0202488D01*
X0088018Y0202369D01*
X0088119Y0202247D01*
X0088216Y0202122D01*
X0088311Y0201995D01*
X0088402Y0201866D01*
X0088491Y0201735D01*
X0088575Y0201601D01*
X0088657Y0201465D01*
X0088735Y0201328D01*
X0088809Y0201188D01*
X0088880Y0201046D01*
X0088948Y0200903D01*
X0089012Y0200758D01*
X0089072Y0200612D01*
X0089128Y0200464D01*
X0089181Y0200315D01*
X0089230Y0200164D01*
X0089275Y0200012D01*
X0089316Y0199859D01*
X0089354Y0199706D01*
X0089387Y0199551D01*
X0089417Y0199395D01*
X0089443Y0199239D01*
X0089464Y0199082D01*
X0089482Y0198925D01*
X0089496Y0198767D01*
X0089506Y0198609D01*
X0089512Y0198451D01*
X0089514Y0198293D01*
X0089512Y0198135D01*
X0089506Y0197977D01*
X0089496Y0197819D01*
X0089482Y0197661D01*
X0089464Y0197504D01*
X0089443Y0197347D01*
X0089417Y0197191D01*
X0089387Y0197035D01*
X0089354Y0196880D01*
X0089316Y0196727D01*
X0089275Y0196574D01*
X0089230Y0196422D01*
X0089181Y0196271D01*
X0089128Y0196122D01*
X0089072Y0195974D01*
X0089012Y0195828D01*
X0088948Y0195683D01*
X0088880Y0195540D01*
X0088809Y0195398D01*
X0088735Y0195258D01*
X0088657Y0195121D01*
X0088575Y0194985D01*
X0088491Y0194851D01*
X0088402Y0194720D01*
X0088311Y0194591D01*
X0088216Y0194464D01*
X0088119Y0194339D01*
X0088018Y0194217D01*
X0087914Y0194098D01*
X0087807Y0193981D01*
X0087697Y0193867D01*
X0087584Y0193756D01*
X0087469Y0193647D01*
X0087351Y0193542D01*
X0087230Y0193440D01*
X0087107Y0193340D01*
X0086981Y0193244D01*
X0086853Y0193151D01*
X0086723Y0193061D01*
X0086590Y0192975D01*
X0086455Y0192891D01*
X0086319Y0192812D01*
X0086180Y0192735D01*
X0086039Y0192663D01*
X0085897Y0192593D01*
X0085753Y0192528D01*
X0085607Y0192466D01*
X0085460Y0192408D01*
X0085311Y0192353D01*
X0085161Y0192302D01*
X0085010Y0192255D01*
X0084858Y0192212D01*
X0084705Y0192173D01*
X0084550Y0192137D01*
X0084395Y0192106D01*
X0084239Y0192078D01*
X0084083Y0192054D01*
X0083926Y0192034D01*
X0083768Y0192018D01*
X0083611Y0192006D01*
X0083452Y0191998D01*
X0083294Y0191994D01*
X0083136Y0191994D01*
X0082978Y0191998D01*
X0082819Y0192006D01*
X0082662Y0192018D01*
X0082504Y0192034D01*
X0082347Y0192054D01*
X0082191Y0192078D01*
X0082035Y0192106D01*
X0081880Y0192137D01*
X0081725Y0192173D01*
X0081572Y0192212D01*
X0081420Y0192255D01*
X0081269Y0192302D01*
X0081119Y0192353D01*
X0080970Y0192408D01*
X0080823Y0192466D01*
X0080677Y0192528D01*
X0080533Y0192593D01*
X0080391Y0192663D01*
X0080250Y0192735D01*
X0080111Y0192812D01*
X0079975Y0192891D01*
X0079840Y0192975D01*
X0079707Y0193061D01*
X0079577Y0193151D01*
X0079449Y0193244D01*
X0079323Y0193340D01*
X0079200Y0193440D01*
X0079079Y0193542D01*
X0078961Y0193647D01*
X0078846Y0193756D01*
X0078733Y0193867D01*
X0078623Y0193981D01*
X0078516Y0194098D01*
X0078412Y0194217D01*
X0078311Y0194339D01*
X0078214Y0194464D01*
X0078119Y0194591D01*
X0078028Y0194720D01*
X0077939Y0194851D01*
X0077855Y0194985D01*
X0077773Y0195121D01*
X0077695Y0195258D01*
X0077621Y0195398D01*
X0077550Y0195540D01*
X0077482Y0195683D01*
X0077418Y0195828D01*
X0077358Y0195974D01*
X0077302Y0196122D01*
X0077249Y0196271D01*
X0077200Y0196422D01*
X0077155Y0196574D01*
X0077114Y0196727D01*
X0077076Y0196880D01*
X0077043Y0197035D01*
X0077013Y0197191D01*
X0076987Y0197347D01*
X0076966Y0197504D01*
X0076948Y0197661D01*
X0076934Y0197819D01*
X0076924Y0197977D01*
X0076918Y0198135D01*
X0076916Y0198293D01*
X0008451Y0268500D02*
X0008453Y0268658D01*
X0008459Y0268816D01*
X0008469Y0268974D01*
X0008483Y0269132D01*
X0008501Y0269289D01*
X0008522Y0269446D01*
X0008548Y0269602D01*
X0008578Y0269758D01*
X0008611Y0269913D01*
X0008649Y0270066D01*
X0008690Y0270219D01*
X0008735Y0270371D01*
X0008784Y0270522D01*
X0008837Y0270671D01*
X0008893Y0270819D01*
X0008953Y0270965D01*
X0009017Y0271110D01*
X0009085Y0271253D01*
X0009156Y0271395D01*
X0009230Y0271535D01*
X0009308Y0271672D01*
X0009390Y0271808D01*
X0009474Y0271942D01*
X0009563Y0272073D01*
X0009654Y0272202D01*
X0009749Y0272329D01*
X0009846Y0272454D01*
X0009947Y0272576D01*
X0010051Y0272695D01*
X0010158Y0272812D01*
X0010268Y0272926D01*
X0010381Y0273037D01*
X0010496Y0273146D01*
X0010614Y0273251D01*
X0010735Y0273353D01*
X0010858Y0273453D01*
X0010984Y0273549D01*
X0011112Y0273642D01*
X0011242Y0273732D01*
X0011375Y0273818D01*
X0011510Y0273902D01*
X0011646Y0273981D01*
X0011785Y0274058D01*
X0011926Y0274130D01*
X0012068Y0274200D01*
X0012212Y0274265D01*
X0012358Y0274327D01*
X0012505Y0274385D01*
X0012654Y0274440D01*
X0012804Y0274491D01*
X0012955Y0274538D01*
X0013107Y0274581D01*
X0013260Y0274620D01*
X0013415Y0274656D01*
X0013570Y0274687D01*
X0013726Y0274715D01*
X0013882Y0274739D01*
X0014039Y0274759D01*
X0014197Y0274775D01*
X0014354Y0274787D01*
X0014513Y0274795D01*
X0014671Y0274799D01*
X0014829Y0274799D01*
X0014987Y0274795D01*
X0015146Y0274787D01*
X0015303Y0274775D01*
X0015461Y0274759D01*
X0015618Y0274739D01*
X0015774Y0274715D01*
X0015930Y0274687D01*
X0016085Y0274656D01*
X0016240Y0274620D01*
X0016393Y0274581D01*
X0016545Y0274538D01*
X0016696Y0274491D01*
X0016846Y0274440D01*
X0016995Y0274385D01*
X0017142Y0274327D01*
X0017288Y0274265D01*
X0017432Y0274200D01*
X0017574Y0274130D01*
X0017715Y0274058D01*
X0017854Y0273981D01*
X0017990Y0273902D01*
X0018125Y0273818D01*
X0018258Y0273732D01*
X0018388Y0273642D01*
X0018516Y0273549D01*
X0018642Y0273453D01*
X0018765Y0273353D01*
X0018886Y0273251D01*
X0019004Y0273146D01*
X0019119Y0273037D01*
X0019232Y0272926D01*
X0019342Y0272812D01*
X0019449Y0272695D01*
X0019553Y0272576D01*
X0019654Y0272454D01*
X0019751Y0272329D01*
X0019846Y0272202D01*
X0019937Y0272073D01*
X0020026Y0271942D01*
X0020110Y0271808D01*
X0020192Y0271672D01*
X0020270Y0271535D01*
X0020344Y0271395D01*
X0020415Y0271253D01*
X0020483Y0271110D01*
X0020547Y0270965D01*
X0020607Y0270819D01*
X0020663Y0270671D01*
X0020716Y0270522D01*
X0020765Y0270371D01*
X0020810Y0270219D01*
X0020851Y0270066D01*
X0020889Y0269913D01*
X0020922Y0269758D01*
X0020952Y0269602D01*
X0020978Y0269446D01*
X0020999Y0269289D01*
X0021017Y0269132D01*
X0021031Y0268974D01*
X0021041Y0268816D01*
X0021047Y0268658D01*
X0021049Y0268500D01*
X0021047Y0268342D01*
X0021041Y0268184D01*
X0021031Y0268026D01*
X0021017Y0267868D01*
X0020999Y0267711D01*
X0020978Y0267554D01*
X0020952Y0267398D01*
X0020922Y0267242D01*
X0020889Y0267087D01*
X0020851Y0266934D01*
X0020810Y0266781D01*
X0020765Y0266629D01*
X0020716Y0266478D01*
X0020663Y0266329D01*
X0020607Y0266181D01*
X0020547Y0266035D01*
X0020483Y0265890D01*
X0020415Y0265747D01*
X0020344Y0265605D01*
X0020270Y0265465D01*
X0020192Y0265328D01*
X0020110Y0265192D01*
X0020026Y0265058D01*
X0019937Y0264927D01*
X0019846Y0264798D01*
X0019751Y0264671D01*
X0019654Y0264546D01*
X0019553Y0264424D01*
X0019449Y0264305D01*
X0019342Y0264188D01*
X0019232Y0264074D01*
X0019119Y0263963D01*
X0019004Y0263854D01*
X0018886Y0263749D01*
X0018765Y0263647D01*
X0018642Y0263547D01*
X0018516Y0263451D01*
X0018388Y0263358D01*
X0018258Y0263268D01*
X0018125Y0263182D01*
X0017990Y0263098D01*
X0017854Y0263019D01*
X0017715Y0262942D01*
X0017574Y0262870D01*
X0017432Y0262800D01*
X0017288Y0262735D01*
X0017142Y0262673D01*
X0016995Y0262615D01*
X0016846Y0262560D01*
X0016696Y0262509D01*
X0016545Y0262462D01*
X0016393Y0262419D01*
X0016240Y0262380D01*
X0016085Y0262344D01*
X0015930Y0262313D01*
X0015774Y0262285D01*
X0015618Y0262261D01*
X0015461Y0262241D01*
X0015303Y0262225D01*
X0015146Y0262213D01*
X0014987Y0262205D01*
X0014829Y0262201D01*
X0014671Y0262201D01*
X0014513Y0262205D01*
X0014354Y0262213D01*
X0014197Y0262225D01*
X0014039Y0262241D01*
X0013882Y0262261D01*
X0013726Y0262285D01*
X0013570Y0262313D01*
X0013415Y0262344D01*
X0013260Y0262380D01*
X0013107Y0262419D01*
X0012955Y0262462D01*
X0012804Y0262509D01*
X0012654Y0262560D01*
X0012505Y0262615D01*
X0012358Y0262673D01*
X0012212Y0262735D01*
X0012068Y0262800D01*
X0011926Y0262870D01*
X0011785Y0262942D01*
X0011646Y0263019D01*
X0011510Y0263098D01*
X0011375Y0263182D01*
X0011242Y0263268D01*
X0011112Y0263358D01*
X0010984Y0263451D01*
X0010858Y0263547D01*
X0010735Y0263647D01*
X0010614Y0263749D01*
X0010496Y0263854D01*
X0010381Y0263963D01*
X0010268Y0264074D01*
X0010158Y0264188D01*
X0010051Y0264305D01*
X0009947Y0264424D01*
X0009846Y0264546D01*
X0009749Y0264671D01*
X0009654Y0264798D01*
X0009563Y0264927D01*
X0009474Y0265058D01*
X0009390Y0265192D01*
X0009308Y0265328D01*
X0009230Y0265465D01*
X0009156Y0265605D01*
X0009085Y0265747D01*
X0009017Y0265890D01*
X0008953Y0266035D01*
X0008893Y0266181D01*
X0008837Y0266329D01*
X0008784Y0266478D01*
X0008735Y0266629D01*
X0008690Y0266781D01*
X0008649Y0266934D01*
X0008611Y0267087D01*
X0008578Y0267242D01*
X0008548Y0267398D01*
X0008522Y0267554D01*
X0008501Y0267711D01*
X0008483Y0267868D01*
X0008469Y0268026D01*
X0008459Y0268184D01*
X0008453Y0268342D01*
X0008451Y0268500D01*
X0239848Y0163323D02*
X0239852Y0163627D01*
X0239863Y0163932D01*
X0239882Y0164235D01*
X0239908Y0164539D01*
X0239941Y0164841D01*
X0239982Y0165143D01*
X0240031Y0165443D01*
X0240086Y0165743D01*
X0240149Y0166040D01*
X0240220Y0166336D01*
X0240297Y0166631D01*
X0240382Y0166923D01*
X0240474Y0167213D01*
X0240573Y0167501D01*
X0240679Y0167786D01*
X0240792Y0168069D01*
X0240912Y0168349D01*
X0241039Y0168626D01*
X0241172Y0168899D01*
X0241312Y0169169D01*
X0241459Y0169436D01*
X0241612Y0169699D01*
X0241772Y0169958D01*
X0241938Y0170213D01*
X0242110Y0170464D01*
X0242289Y0170711D01*
X0242473Y0170953D01*
X0242663Y0171191D01*
X0242859Y0171424D01*
X0243061Y0171652D01*
X0243268Y0171875D01*
X0243480Y0172093D01*
X0243698Y0172305D01*
X0243921Y0172512D01*
X0244149Y0172714D01*
X0244382Y0172910D01*
X0244620Y0173100D01*
X0244862Y0173284D01*
X0245109Y0173463D01*
X0245360Y0173635D01*
X0245615Y0173801D01*
X0245874Y0173961D01*
X0246137Y0174114D01*
X0246404Y0174261D01*
X0246674Y0174401D01*
X0246947Y0174534D01*
X0247224Y0174661D01*
X0247504Y0174781D01*
X0247787Y0174894D01*
X0248072Y0175000D01*
X0248360Y0175099D01*
X0248650Y0175191D01*
X0248942Y0175276D01*
X0249237Y0175353D01*
X0249533Y0175424D01*
X0249830Y0175487D01*
X0250130Y0175542D01*
X0250430Y0175591D01*
X0250732Y0175632D01*
X0251034Y0175665D01*
X0251338Y0175691D01*
X0251641Y0175710D01*
X0251946Y0175721D01*
X0252250Y0175725D01*
X0252554Y0175721D01*
X0252859Y0175710D01*
X0253162Y0175691D01*
X0253466Y0175665D01*
X0253768Y0175632D01*
X0254070Y0175591D01*
X0254370Y0175542D01*
X0254670Y0175487D01*
X0254967Y0175424D01*
X0255263Y0175353D01*
X0255558Y0175276D01*
X0255850Y0175191D01*
X0256140Y0175099D01*
X0256428Y0175000D01*
X0256713Y0174894D01*
X0256996Y0174781D01*
X0257276Y0174661D01*
X0257553Y0174534D01*
X0257826Y0174401D01*
X0258096Y0174261D01*
X0258363Y0174114D01*
X0258626Y0173961D01*
X0258885Y0173801D01*
X0259140Y0173635D01*
X0259391Y0173463D01*
X0259638Y0173284D01*
X0259880Y0173100D01*
X0260118Y0172910D01*
X0260351Y0172714D01*
X0260579Y0172512D01*
X0260802Y0172305D01*
X0261020Y0172093D01*
X0261232Y0171875D01*
X0261439Y0171652D01*
X0261641Y0171424D01*
X0261837Y0171191D01*
X0262027Y0170953D01*
X0262211Y0170711D01*
X0262390Y0170464D01*
X0262562Y0170213D01*
X0262728Y0169958D01*
X0262888Y0169699D01*
X0263041Y0169436D01*
X0263188Y0169169D01*
X0263328Y0168899D01*
X0263461Y0168626D01*
X0263588Y0168349D01*
X0263708Y0168069D01*
X0263821Y0167786D01*
X0263927Y0167501D01*
X0264026Y0167213D01*
X0264118Y0166923D01*
X0264203Y0166631D01*
X0264280Y0166336D01*
X0264351Y0166040D01*
X0264414Y0165743D01*
X0264469Y0165443D01*
X0264518Y0165143D01*
X0264559Y0164841D01*
X0264592Y0164539D01*
X0264618Y0164235D01*
X0264637Y0163932D01*
X0264648Y0163627D01*
X0264652Y0163323D01*
X0264648Y0163019D01*
X0264637Y0162714D01*
X0264618Y0162411D01*
X0264592Y0162107D01*
X0264559Y0161805D01*
X0264518Y0161503D01*
X0264469Y0161203D01*
X0264414Y0160903D01*
X0264351Y0160606D01*
X0264280Y0160310D01*
X0264203Y0160015D01*
X0264118Y0159723D01*
X0264026Y0159433D01*
X0263927Y0159145D01*
X0263821Y0158860D01*
X0263708Y0158577D01*
X0263588Y0158297D01*
X0263461Y0158020D01*
X0263328Y0157747D01*
X0263188Y0157477D01*
X0263041Y0157210D01*
X0262888Y0156947D01*
X0262728Y0156688D01*
X0262562Y0156433D01*
X0262390Y0156182D01*
X0262211Y0155935D01*
X0262027Y0155693D01*
X0261837Y0155455D01*
X0261641Y0155222D01*
X0261439Y0154994D01*
X0261232Y0154771D01*
X0261020Y0154553D01*
X0260802Y0154341D01*
X0260579Y0154134D01*
X0260351Y0153932D01*
X0260118Y0153736D01*
X0259880Y0153546D01*
X0259638Y0153362D01*
X0259391Y0153183D01*
X0259140Y0153011D01*
X0258885Y0152845D01*
X0258626Y0152685D01*
X0258363Y0152532D01*
X0258096Y0152385D01*
X0257826Y0152245D01*
X0257553Y0152112D01*
X0257276Y0151985D01*
X0256996Y0151865D01*
X0256713Y0151752D01*
X0256428Y0151646D01*
X0256140Y0151547D01*
X0255850Y0151455D01*
X0255558Y0151370D01*
X0255263Y0151293D01*
X0254967Y0151222D01*
X0254670Y0151159D01*
X0254370Y0151104D01*
X0254070Y0151055D01*
X0253768Y0151014D01*
X0253466Y0150981D01*
X0253162Y0150955D01*
X0252859Y0150936D01*
X0252554Y0150925D01*
X0252250Y0150921D01*
X0251946Y0150925D01*
X0251641Y0150936D01*
X0251338Y0150955D01*
X0251034Y0150981D01*
X0250732Y0151014D01*
X0250430Y0151055D01*
X0250130Y0151104D01*
X0249830Y0151159D01*
X0249533Y0151222D01*
X0249237Y0151293D01*
X0248942Y0151370D01*
X0248650Y0151455D01*
X0248360Y0151547D01*
X0248072Y0151646D01*
X0247787Y0151752D01*
X0247504Y0151865D01*
X0247224Y0151985D01*
X0246947Y0152112D01*
X0246674Y0152245D01*
X0246404Y0152385D01*
X0246137Y0152532D01*
X0245874Y0152685D01*
X0245615Y0152845D01*
X0245360Y0153011D01*
X0245109Y0153183D01*
X0244862Y0153362D01*
X0244620Y0153546D01*
X0244382Y0153736D01*
X0244149Y0153932D01*
X0243921Y0154134D01*
X0243698Y0154341D01*
X0243480Y0154553D01*
X0243268Y0154771D01*
X0243061Y0154994D01*
X0242859Y0155222D01*
X0242663Y0155455D01*
X0242473Y0155693D01*
X0242289Y0155935D01*
X0242110Y0156182D01*
X0241938Y0156433D01*
X0241772Y0156688D01*
X0241612Y0156947D01*
X0241459Y0157210D01*
X0241312Y0157477D01*
X0241172Y0157747D01*
X0241039Y0158020D01*
X0240912Y0158297D01*
X0240792Y0158577D01*
X0240679Y0158860D01*
X0240573Y0159145D01*
X0240474Y0159433D01*
X0240382Y0159723D01*
X0240297Y0160015D01*
X0240220Y0160310D01*
X0240149Y0160606D01*
X0240086Y0160903D01*
X0240031Y0161203D01*
X0239982Y0161503D01*
X0239941Y0161805D01*
X0239908Y0162107D01*
X0239882Y0162411D01*
X0239863Y0162714D01*
X0239852Y0163019D01*
X0239848Y0163323D01*
X0259986Y0198293D02*
X0259988Y0198451D01*
X0259994Y0198609D01*
X0260004Y0198767D01*
X0260018Y0198925D01*
X0260036Y0199082D01*
X0260057Y0199239D01*
X0260083Y0199395D01*
X0260113Y0199551D01*
X0260146Y0199706D01*
X0260184Y0199859D01*
X0260225Y0200012D01*
X0260270Y0200164D01*
X0260319Y0200315D01*
X0260372Y0200464D01*
X0260428Y0200612D01*
X0260488Y0200758D01*
X0260552Y0200903D01*
X0260620Y0201046D01*
X0260691Y0201188D01*
X0260765Y0201328D01*
X0260843Y0201465D01*
X0260925Y0201601D01*
X0261009Y0201735D01*
X0261098Y0201866D01*
X0261189Y0201995D01*
X0261284Y0202122D01*
X0261381Y0202247D01*
X0261482Y0202369D01*
X0261586Y0202488D01*
X0261693Y0202605D01*
X0261803Y0202719D01*
X0261916Y0202830D01*
X0262031Y0202939D01*
X0262149Y0203044D01*
X0262270Y0203146D01*
X0262393Y0203246D01*
X0262519Y0203342D01*
X0262647Y0203435D01*
X0262777Y0203525D01*
X0262910Y0203611D01*
X0263045Y0203695D01*
X0263181Y0203774D01*
X0263320Y0203851D01*
X0263461Y0203923D01*
X0263603Y0203993D01*
X0263747Y0204058D01*
X0263893Y0204120D01*
X0264040Y0204178D01*
X0264189Y0204233D01*
X0264339Y0204284D01*
X0264490Y0204331D01*
X0264642Y0204374D01*
X0264795Y0204413D01*
X0264950Y0204449D01*
X0265105Y0204480D01*
X0265261Y0204508D01*
X0265417Y0204532D01*
X0265574Y0204552D01*
X0265732Y0204568D01*
X0265889Y0204580D01*
X0266048Y0204588D01*
X0266206Y0204592D01*
X0266364Y0204592D01*
X0266522Y0204588D01*
X0266681Y0204580D01*
X0266838Y0204568D01*
X0266996Y0204552D01*
X0267153Y0204532D01*
X0267309Y0204508D01*
X0267465Y0204480D01*
X0267620Y0204449D01*
X0267775Y0204413D01*
X0267928Y0204374D01*
X0268080Y0204331D01*
X0268231Y0204284D01*
X0268381Y0204233D01*
X0268530Y0204178D01*
X0268677Y0204120D01*
X0268823Y0204058D01*
X0268967Y0203993D01*
X0269109Y0203923D01*
X0269250Y0203851D01*
X0269389Y0203774D01*
X0269525Y0203695D01*
X0269660Y0203611D01*
X0269793Y0203525D01*
X0269923Y0203435D01*
X0270051Y0203342D01*
X0270177Y0203246D01*
X0270300Y0203146D01*
X0270421Y0203044D01*
X0270539Y0202939D01*
X0270654Y0202830D01*
X0270767Y0202719D01*
X0270877Y0202605D01*
X0270984Y0202488D01*
X0271088Y0202369D01*
X0271189Y0202247D01*
X0271286Y0202122D01*
X0271381Y0201995D01*
X0271472Y0201866D01*
X0271561Y0201735D01*
X0271645Y0201601D01*
X0271727Y0201465D01*
X0271805Y0201328D01*
X0271879Y0201188D01*
X0271950Y0201046D01*
X0272018Y0200903D01*
X0272082Y0200758D01*
X0272142Y0200612D01*
X0272198Y0200464D01*
X0272251Y0200315D01*
X0272300Y0200164D01*
X0272345Y0200012D01*
X0272386Y0199859D01*
X0272424Y0199706D01*
X0272457Y0199551D01*
X0272487Y0199395D01*
X0272513Y0199239D01*
X0272534Y0199082D01*
X0272552Y0198925D01*
X0272566Y0198767D01*
X0272576Y0198609D01*
X0272582Y0198451D01*
X0272584Y0198293D01*
X0272582Y0198135D01*
X0272576Y0197977D01*
X0272566Y0197819D01*
X0272552Y0197661D01*
X0272534Y0197504D01*
X0272513Y0197347D01*
X0272487Y0197191D01*
X0272457Y0197035D01*
X0272424Y0196880D01*
X0272386Y0196727D01*
X0272345Y0196574D01*
X0272300Y0196422D01*
X0272251Y0196271D01*
X0272198Y0196122D01*
X0272142Y0195974D01*
X0272082Y0195828D01*
X0272018Y0195683D01*
X0271950Y0195540D01*
X0271879Y0195398D01*
X0271805Y0195258D01*
X0271727Y0195121D01*
X0271645Y0194985D01*
X0271561Y0194851D01*
X0271472Y0194720D01*
X0271381Y0194591D01*
X0271286Y0194464D01*
X0271189Y0194339D01*
X0271088Y0194217D01*
X0270984Y0194098D01*
X0270877Y0193981D01*
X0270767Y0193867D01*
X0270654Y0193756D01*
X0270539Y0193647D01*
X0270421Y0193542D01*
X0270300Y0193440D01*
X0270177Y0193340D01*
X0270051Y0193244D01*
X0269923Y0193151D01*
X0269793Y0193061D01*
X0269660Y0192975D01*
X0269525Y0192891D01*
X0269389Y0192812D01*
X0269250Y0192735D01*
X0269109Y0192663D01*
X0268967Y0192593D01*
X0268823Y0192528D01*
X0268677Y0192466D01*
X0268530Y0192408D01*
X0268381Y0192353D01*
X0268231Y0192302D01*
X0268080Y0192255D01*
X0267928Y0192212D01*
X0267775Y0192173D01*
X0267620Y0192137D01*
X0267465Y0192106D01*
X0267309Y0192078D01*
X0267153Y0192054D01*
X0266996Y0192034D01*
X0266838Y0192018D01*
X0266681Y0192006D01*
X0266522Y0191998D01*
X0266364Y0191994D01*
X0266206Y0191994D01*
X0266048Y0191998D01*
X0265889Y0192006D01*
X0265732Y0192018D01*
X0265574Y0192034D01*
X0265417Y0192054D01*
X0265261Y0192078D01*
X0265105Y0192106D01*
X0264950Y0192137D01*
X0264795Y0192173D01*
X0264642Y0192212D01*
X0264490Y0192255D01*
X0264339Y0192302D01*
X0264189Y0192353D01*
X0264040Y0192408D01*
X0263893Y0192466D01*
X0263747Y0192528D01*
X0263603Y0192593D01*
X0263461Y0192663D01*
X0263320Y0192735D01*
X0263181Y0192812D01*
X0263045Y0192891D01*
X0262910Y0192975D01*
X0262777Y0193061D01*
X0262647Y0193151D01*
X0262519Y0193244D01*
X0262393Y0193340D01*
X0262270Y0193440D01*
X0262149Y0193542D01*
X0262031Y0193647D01*
X0261916Y0193756D01*
X0261803Y0193867D01*
X0261693Y0193981D01*
X0261586Y0194098D01*
X0261482Y0194217D01*
X0261381Y0194339D01*
X0261284Y0194464D01*
X0261189Y0194591D01*
X0261098Y0194720D01*
X0261009Y0194851D01*
X0260925Y0194985D01*
X0260843Y0195121D01*
X0260765Y0195258D01*
X0260691Y0195398D01*
X0260620Y0195540D01*
X0260552Y0195683D01*
X0260488Y0195828D01*
X0260428Y0195974D01*
X0260372Y0196122D01*
X0260319Y0196271D01*
X0260270Y0196422D01*
X0260225Y0196574D01*
X0260184Y0196727D01*
X0260146Y0196880D01*
X0260113Y0197035D01*
X0260083Y0197191D01*
X0260057Y0197347D01*
X0260036Y0197504D01*
X0260018Y0197661D01*
X0260004Y0197819D01*
X0259994Y0197977D01*
X0259988Y0198135D01*
X0259986Y0198293D01*
X0378451Y0268500D02*
X0378453Y0268658D01*
X0378459Y0268816D01*
X0378469Y0268974D01*
X0378483Y0269132D01*
X0378501Y0269289D01*
X0378522Y0269446D01*
X0378548Y0269602D01*
X0378578Y0269758D01*
X0378611Y0269913D01*
X0378649Y0270066D01*
X0378690Y0270219D01*
X0378735Y0270371D01*
X0378784Y0270522D01*
X0378837Y0270671D01*
X0378893Y0270819D01*
X0378953Y0270965D01*
X0379017Y0271110D01*
X0379085Y0271253D01*
X0379156Y0271395D01*
X0379230Y0271535D01*
X0379308Y0271672D01*
X0379390Y0271808D01*
X0379474Y0271942D01*
X0379563Y0272073D01*
X0379654Y0272202D01*
X0379749Y0272329D01*
X0379846Y0272454D01*
X0379947Y0272576D01*
X0380051Y0272695D01*
X0380158Y0272812D01*
X0380268Y0272926D01*
X0380381Y0273037D01*
X0380496Y0273146D01*
X0380614Y0273251D01*
X0380735Y0273353D01*
X0380858Y0273453D01*
X0380984Y0273549D01*
X0381112Y0273642D01*
X0381242Y0273732D01*
X0381375Y0273818D01*
X0381510Y0273902D01*
X0381646Y0273981D01*
X0381785Y0274058D01*
X0381926Y0274130D01*
X0382068Y0274200D01*
X0382212Y0274265D01*
X0382358Y0274327D01*
X0382505Y0274385D01*
X0382654Y0274440D01*
X0382804Y0274491D01*
X0382955Y0274538D01*
X0383107Y0274581D01*
X0383260Y0274620D01*
X0383415Y0274656D01*
X0383570Y0274687D01*
X0383726Y0274715D01*
X0383882Y0274739D01*
X0384039Y0274759D01*
X0384197Y0274775D01*
X0384354Y0274787D01*
X0384513Y0274795D01*
X0384671Y0274799D01*
X0384829Y0274799D01*
X0384987Y0274795D01*
X0385146Y0274787D01*
X0385303Y0274775D01*
X0385461Y0274759D01*
X0385618Y0274739D01*
X0385774Y0274715D01*
X0385930Y0274687D01*
X0386085Y0274656D01*
X0386240Y0274620D01*
X0386393Y0274581D01*
X0386545Y0274538D01*
X0386696Y0274491D01*
X0386846Y0274440D01*
X0386995Y0274385D01*
X0387142Y0274327D01*
X0387288Y0274265D01*
X0387432Y0274200D01*
X0387574Y0274130D01*
X0387715Y0274058D01*
X0387854Y0273981D01*
X0387990Y0273902D01*
X0388125Y0273818D01*
X0388258Y0273732D01*
X0388388Y0273642D01*
X0388516Y0273549D01*
X0388642Y0273453D01*
X0388765Y0273353D01*
X0388886Y0273251D01*
X0389004Y0273146D01*
X0389119Y0273037D01*
X0389232Y0272926D01*
X0389342Y0272812D01*
X0389449Y0272695D01*
X0389553Y0272576D01*
X0389654Y0272454D01*
X0389751Y0272329D01*
X0389846Y0272202D01*
X0389937Y0272073D01*
X0390026Y0271942D01*
X0390110Y0271808D01*
X0390192Y0271672D01*
X0390270Y0271535D01*
X0390344Y0271395D01*
X0390415Y0271253D01*
X0390483Y0271110D01*
X0390547Y0270965D01*
X0390607Y0270819D01*
X0390663Y0270671D01*
X0390716Y0270522D01*
X0390765Y0270371D01*
X0390810Y0270219D01*
X0390851Y0270066D01*
X0390889Y0269913D01*
X0390922Y0269758D01*
X0390952Y0269602D01*
X0390978Y0269446D01*
X0390999Y0269289D01*
X0391017Y0269132D01*
X0391031Y0268974D01*
X0391041Y0268816D01*
X0391047Y0268658D01*
X0391049Y0268500D01*
X0391047Y0268342D01*
X0391041Y0268184D01*
X0391031Y0268026D01*
X0391017Y0267868D01*
X0390999Y0267711D01*
X0390978Y0267554D01*
X0390952Y0267398D01*
X0390922Y0267242D01*
X0390889Y0267087D01*
X0390851Y0266934D01*
X0390810Y0266781D01*
X0390765Y0266629D01*
X0390716Y0266478D01*
X0390663Y0266329D01*
X0390607Y0266181D01*
X0390547Y0266035D01*
X0390483Y0265890D01*
X0390415Y0265747D01*
X0390344Y0265605D01*
X0390270Y0265465D01*
X0390192Y0265328D01*
X0390110Y0265192D01*
X0390026Y0265058D01*
X0389937Y0264927D01*
X0389846Y0264798D01*
X0389751Y0264671D01*
X0389654Y0264546D01*
X0389553Y0264424D01*
X0389449Y0264305D01*
X0389342Y0264188D01*
X0389232Y0264074D01*
X0389119Y0263963D01*
X0389004Y0263854D01*
X0388886Y0263749D01*
X0388765Y0263647D01*
X0388642Y0263547D01*
X0388516Y0263451D01*
X0388388Y0263358D01*
X0388258Y0263268D01*
X0388125Y0263182D01*
X0387990Y0263098D01*
X0387854Y0263019D01*
X0387715Y0262942D01*
X0387574Y0262870D01*
X0387432Y0262800D01*
X0387288Y0262735D01*
X0387142Y0262673D01*
X0386995Y0262615D01*
X0386846Y0262560D01*
X0386696Y0262509D01*
X0386545Y0262462D01*
X0386393Y0262419D01*
X0386240Y0262380D01*
X0386085Y0262344D01*
X0385930Y0262313D01*
X0385774Y0262285D01*
X0385618Y0262261D01*
X0385461Y0262241D01*
X0385303Y0262225D01*
X0385146Y0262213D01*
X0384987Y0262205D01*
X0384829Y0262201D01*
X0384671Y0262201D01*
X0384513Y0262205D01*
X0384354Y0262213D01*
X0384197Y0262225D01*
X0384039Y0262241D01*
X0383882Y0262261D01*
X0383726Y0262285D01*
X0383570Y0262313D01*
X0383415Y0262344D01*
X0383260Y0262380D01*
X0383107Y0262419D01*
X0382955Y0262462D01*
X0382804Y0262509D01*
X0382654Y0262560D01*
X0382505Y0262615D01*
X0382358Y0262673D01*
X0382212Y0262735D01*
X0382068Y0262800D01*
X0381926Y0262870D01*
X0381785Y0262942D01*
X0381646Y0263019D01*
X0381510Y0263098D01*
X0381375Y0263182D01*
X0381242Y0263268D01*
X0381112Y0263358D01*
X0380984Y0263451D01*
X0380858Y0263547D01*
X0380735Y0263647D01*
X0380614Y0263749D01*
X0380496Y0263854D01*
X0380381Y0263963D01*
X0380268Y0264074D01*
X0380158Y0264188D01*
X0380051Y0264305D01*
X0379947Y0264424D01*
X0379846Y0264546D01*
X0379749Y0264671D01*
X0379654Y0264798D01*
X0379563Y0264927D01*
X0379474Y0265058D01*
X0379390Y0265192D01*
X0379308Y0265328D01*
X0379230Y0265465D01*
X0379156Y0265605D01*
X0379085Y0265747D01*
X0379017Y0265890D01*
X0378953Y0266035D01*
X0378893Y0266181D01*
X0378837Y0266329D01*
X0378784Y0266478D01*
X0378735Y0266629D01*
X0378690Y0266781D01*
X0378649Y0266934D01*
X0378611Y0267087D01*
X0378578Y0267242D01*
X0378548Y0267398D01*
X0378522Y0267554D01*
X0378501Y0267711D01*
X0378483Y0267868D01*
X0378469Y0268026D01*
X0378459Y0268184D01*
X0378453Y0268342D01*
X0378451Y0268500D01*
X0259986Y0026207D02*
X0259988Y0026365D01*
X0259994Y0026523D01*
X0260004Y0026681D01*
X0260018Y0026839D01*
X0260036Y0026996D01*
X0260057Y0027153D01*
X0260083Y0027309D01*
X0260113Y0027465D01*
X0260146Y0027620D01*
X0260184Y0027773D01*
X0260225Y0027926D01*
X0260270Y0028078D01*
X0260319Y0028229D01*
X0260372Y0028378D01*
X0260428Y0028526D01*
X0260488Y0028672D01*
X0260552Y0028817D01*
X0260620Y0028960D01*
X0260691Y0029102D01*
X0260765Y0029242D01*
X0260843Y0029379D01*
X0260925Y0029515D01*
X0261009Y0029649D01*
X0261098Y0029780D01*
X0261189Y0029909D01*
X0261284Y0030036D01*
X0261381Y0030161D01*
X0261482Y0030283D01*
X0261586Y0030402D01*
X0261693Y0030519D01*
X0261803Y0030633D01*
X0261916Y0030744D01*
X0262031Y0030853D01*
X0262149Y0030958D01*
X0262270Y0031060D01*
X0262393Y0031160D01*
X0262519Y0031256D01*
X0262647Y0031349D01*
X0262777Y0031439D01*
X0262910Y0031525D01*
X0263045Y0031609D01*
X0263181Y0031688D01*
X0263320Y0031765D01*
X0263461Y0031837D01*
X0263603Y0031907D01*
X0263747Y0031972D01*
X0263893Y0032034D01*
X0264040Y0032092D01*
X0264189Y0032147D01*
X0264339Y0032198D01*
X0264490Y0032245D01*
X0264642Y0032288D01*
X0264795Y0032327D01*
X0264950Y0032363D01*
X0265105Y0032394D01*
X0265261Y0032422D01*
X0265417Y0032446D01*
X0265574Y0032466D01*
X0265732Y0032482D01*
X0265889Y0032494D01*
X0266048Y0032502D01*
X0266206Y0032506D01*
X0266364Y0032506D01*
X0266522Y0032502D01*
X0266681Y0032494D01*
X0266838Y0032482D01*
X0266996Y0032466D01*
X0267153Y0032446D01*
X0267309Y0032422D01*
X0267465Y0032394D01*
X0267620Y0032363D01*
X0267775Y0032327D01*
X0267928Y0032288D01*
X0268080Y0032245D01*
X0268231Y0032198D01*
X0268381Y0032147D01*
X0268530Y0032092D01*
X0268677Y0032034D01*
X0268823Y0031972D01*
X0268967Y0031907D01*
X0269109Y0031837D01*
X0269250Y0031765D01*
X0269389Y0031688D01*
X0269525Y0031609D01*
X0269660Y0031525D01*
X0269793Y0031439D01*
X0269923Y0031349D01*
X0270051Y0031256D01*
X0270177Y0031160D01*
X0270300Y0031060D01*
X0270421Y0030958D01*
X0270539Y0030853D01*
X0270654Y0030744D01*
X0270767Y0030633D01*
X0270877Y0030519D01*
X0270984Y0030402D01*
X0271088Y0030283D01*
X0271189Y0030161D01*
X0271286Y0030036D01*
X0271381Y0029909D01*
X0271472Y0029780D01*
X0271561Y0029649D01*
X0271645Y0029515D01*
X0271727Y0029379D01*
X0271805Y0029242D01*
X0271879Y0029102D01*
X0271950Y0028960D01*
X0272018Y0028817D01*
X0272082Y0028672D01*
X0272142Y0028526D01*
X0272198Y0028378D01*
X0272251Y0028229D01*
X0272300Y0028078D01*
X0272345Y0027926D01*
X0272386Y0027773D01*
X0272424Y0027620D01*
X0272457Y0027465D01*
X0272487Y0027309D01*
X0272513Y0027153D01*
X0272534Y0026996D01*
X0272552Y0026839D01*
X0272566Y0026681D01*
X0272576Y0026523D01*
X0272582Y0026365D01*
X0272584Y0026207D01*
X0272582Y0026049D01*
X0272576Y0025891D01*
X0272566Y0025733D01*
X0272552Y0025575D01*
X0272534Y0025418D01*
X0272513Y0025261D01*
X0272487Y0025105D01*
X0272457Y0024949D01*
X0272424Y0024794D01*
X0272386Y0024641D01*
X0272345Y0024488D01*
X0272300Y0024336D01*
X0272251Y0024185D01*
X0272198Y0024036D01*
X0272142Y0023888D01*
X0272082Y0023742D01*
X0272018Y0023597D01*
X0271950Y0023454D01*
X0271879Y0023312D01*
X0271805Y0023172D01*
X0271727Y0023035D01*
X0271645Y0022899D01*
X0271561Y0022765D01*
X0271472Y0022634D01*
X0271381Y0022505D01*
X0271286Y0022378D01*
X0271189Y0022253D01*
X0271088Y0022131D01*
X0270984Y0022012D01*
X0270877Y0021895D01*
X0270767Y0021781D01*
X0270654Y0021670D01*
X0270539Y0021561D01*
X0270421Y0021456D01*
X0270300Y0021354D01*
X0270177Y0021254D01*
X0270051Y0021158D01*
X0269923Y0021065D01*
X0269793Y0020975D01*
X0269660Y0020889D01*
X0269525Y0020805D01*
X0269389Y0020726D01*
X0269250Y0020649D01*
X0269109Y0020577D01*
X0268967Y0020507D01*
X0268823Y0020442D01*
X0268677Y0020380D01*
X0268530Y0020322D01*
X0268381Y0020267D01*
X0268231Y0020216D01*
X0268080Y0020169D01*
X0267928Y0020126D01*
X0267775Y0020087D01*
X0267620Y0020051D01*
X0267465Y0020020D01*
X0267309Y0019992D01*
X0267153Y0019968D01*
X0266996Y0019948D01*
X0266838Y0019932D01*
X0266681Y0019920D01*
X0266522Y0019912D01*
X0266364Y0019908D01*
X0266206Y0019908D01*
X0266048Y0019912D01*
X0265889Y0019920D01*
X0265732Y0019932D01*
X0265574Y0019948D01*
X0265417Y0019968D01*
X0265261Y0019992D01*
X0265105Y0020020D01*
X0264950Y0020051D01*
X0264795Y0020087D01*
X0264642Y0020126D01*
X0264490Y0020169D01*
X0264339Y0020216D01*
X0264189Y0020267D01*
X0264040Y0020322D01*
X0263893Y0020380D01*
X0263747Y0020442D01*
X0263603Y0020507D01*
X0263461Y0020577D01*
X0263320Y0020649D01*
X0263181Y0020726D01*
X0263045Y0020805D01*
X0262910Y0020889D01*
X0262777Y0020975D01*
X0262647Y0021065D01*
X0262519Y0021158D01*
X0262393Y0021254D01*
X0262270Y0021354D01*
X0262149Y0021456D01*
X0262031Y0021561D01*
X0261916Y0021670D01*
X0261803Y0021781D01*
X0261693Y0021895D01*
X0261586Y0022012D01*
X0261482Y0022131D01*
X0261381Y0022253D01*
X0261284Y0022378D01*
X0261189Y0022505D01*
X0261098Y0022634D01*
X0261009Y0022765D01*
X0260925Y0022899D01*
X0260843Y0023035D01*
X0260765Y0023172D01*
X0260691Y0023312D01*
X0260620Y0023454D01*
X0260552Y0023597D01*
X0260488Y0023742D01*
X0260428Y0023888D01*
X0260372Y0024036D01*
X0260319Y0024185D01*
X0260270Y0024336D01*
X0260225Y0024488D01*
X0260184Y0024641D01*
X0260146Y0024794D01*
X0260113Y0024949D01*
X0260083Y0025105D01*
X0260057Y0025261D01*
X0260036Y0025418D01*
X0260018Y0025575D01*
X0260004Y0025733D01*
X0259994Y0025891D01*
X0259988Y0026049D01*
X0259986Y0026207D01*
X0378451Y0016000D02*
X0378453Y0016158D01*
X0378459Y0016316D01*
X0378469Y0016474D01*
X0378483Y0016632D01*
X0378501Y0016789D01*
X0378522Y0016946D01*
X0378548Y0017102D01*
X0378578Y0017258D01*
X0378611Y0017413D01*
X0378649Y0017566D01*
X0378690Y0017719D01*
X0378735Y0017871D01*
X0378784Y0018022D01*
X0378837Y0018171D01*
X0378893Y0018319D01*
X0378953Y0018465D01*
X0379017Y0018610D01*
X0379085Y0018753D01*
X0379156Y0018895D01*
X0379230Y0019035D01*
X0379308Y0019172D01*
X0379390Y0019308D01*
X0379474Y0019442D01*
X0379563Y0019573D01*
X0379654Y0019702D01*
X0379749Y0019829D01*
X0379846Y0019954D01*
X0379947Y0020076D01*
X0380051Y0020195D01*
X0380158Y0020312D01*
X0380268Y0020426D01*
X0380381Y0020537D01*
X0380496Y0020646D01*
X0380614Y0020751D01*
X0380735Y0020853D01*
X0380858Y0020953D01*
X0380984Y0021049D01*
X0381112Y0021142D01*
X0381242Y0021232D01*
X0381375Y0021318D01*
X0381510Y0021402D01*
X0381646Y0021481D01*
X0381785Y0021558D01*
X0381926Y0021630D01*
X0382068Y0021700D01*
X0382212Y0021765D01*
X0382358Y0021827D01*
X0382505Y0021885D01*
X0382654Y0021940D01*
X0382804Y0021991D01*
X0382955Y0022038D01*
X0383107Y0022081D01*
X0383260Y0022120D01*
X0383415Y0022156D01*
X0383570Y0022187D01*
X0383726Y0022215D01*
X0383882Y0022239D01*
X0384039Y0022259D01*
X0384197Y0022275D01*
X0384354Y0022287D01*
X0384513Y0022295D01*
X0384671Y0022299D01*
X0384829Y0022299D01*
X0384987Y0022295D01*
X0385146Y0022287D01*
X0385303Y0022275D01*
X0385461Y0022259D01*
X0385618Y0022239D01*
X0385774Y0022215D01*
X0385930Y0022187D01*
X0386085Y0022156D01*
X0386240Y0022120D01*
X0386393Y0022081D01*
X0386545Y0022038D01*
X0386696Y0021991D01*
X0386846Y0021940D01*
X0386995Y0021885D01*
X0387142Y0021827D01*
X0387288Y0021765D01*
X0387432Y0021700D01*
X0387574Y0021630D01*
X0387715Y0021558D01*
X0387854Y0021481D01*
X0387990Y0021402D01*
X0388125Y0021318D01*
X0388258Y0021232D01*
X0388388Y0021142D01*
X0388516Y0021049D01*
X0388642Y0020953D01*
X0388765Y0020853D01*
X0388886Y0020751D01*
X0389004Y0020646D01*
X0389119Y0020537D01*
X0389232Y0020426D01*
X0389342Y0020312D01*
X0389449Y0020195D01*
X0389553Y0020076D01*
X0389654Y0019954D01*
X0389751Y0019829D01*
X0389846Y0019702D01*
X0389937Y0019573D01*
X0390026Y0019442D01*
X0390110Y0019308D01*
X0390192Y0019172D01*
X0390270Y0019035D01*
X0390344Y0018895D01*
X0390415Y0018753D01*
X0390483Y0018610D01*
X0390547Y0018465D01*
X0390607Y0018319D01*
X0390663Y0018171D01*
X0390716Y0018022D01*
X0390765Y0017871D01*
X0390810Y0017719D01*
X0390851Y0017566D01*
X0390889Y0017413D01*
X0390922Y0017258D01*
X0390952Y0017102D01*
X0390978Y0016946D01*
X0390999Y0016789D01*
X0391017Y0016632D01*
X0391031Y0016474D01*
X0391041Y0016316D01*
X0391047Y0016158D01*
X0391049Y0016000D01*
X0391047Y0015842D01*
X0391041Y0015684D01*
X0391031Y0015526D01*
X0391017Y0015368D01*
X0390999Y0015211D01*
X0390978Y0015054D01*
X0390952Y0014898D01*
X0390922Y0014742D01*
X0390889Y0014587D01*
X0390851Y0014434D01*
X0390810Y0014281D01*
X0390765Y0014129D01*
X0390716Y0013978D01*
X0390663Y0013829D01*
X0390607Y0013681D01*
X0390547Y0013535D01*
X0390483Y0013390D01*
X0390415Y0013247D01*
X0390344Y0013105D01*
X0390270Y0012965D01*
X0390192Y0012828D01*
X0390110Y0012692D01*
X0390026Y0012558D01*
X0389937Y0012427D01*
X0389846Y0012298D01*
X0389751Y0012171D01*
X0389654Y0012046D01*
X0389553Y0011924D01*
X0389449Y0011805D01*
X0389342Y0011688D01*
X0389232Y0011574D01*
X0389119Y0011463D01*
X0389004Y0011354D01*
X0388886Y0011249D01*
X0388765Y0011147D01*
X0388642Y0011047D01*
X0388516Y0010951D01*
X0388388Y0010858D01*
X0388258Y0010768D01*
X0388125Y0010682D01*
X0387990Y0010598D01*
X0387854Y0010519D01*
X0387715Y0010442D01*
X0387574Y0010370D01*
X0387432Y0010300D01*
X0387288Y0010235D01*
X0387142Y0010173D01*
X0386995Y0010115D01*
X0386846Y0010060D01*
X0386696Y0010009D01*
X0386545Y0009962D01*
X0386393Y0009919D01*
X0386240Y0009880D01*
X0386085Y0009844D01*
X0385930Y0009813D01*
X0385774Y0009785D01*
X0385618Y0009761D01*
X0385461Y0009741D01*
X0385303Y0009725D01*
X0385146Y0009713D01*
X0384987Y0009705D01*
X0384829Y0009701D01*
X0384671Y0009701D01*
X0384513Y0009705D01*
X0384354Y0009713D01*
X0384197Y0009725D01*
X0384039Y0009741D01*
X0383882Y0009761D01*
X0383726Y0009785D01*
X0383570Y0009813D01*
X0383415Y0009844D01*
X0383260Y0009880D01*
X0383107Y0009919D01*
X0382955Y0009962D01*
X0382804Y0010009D01*
X0382654Y0010060D01*
X0382505Y0010115D01*
X0382358Y0010173D01*
X0382212Y0010235D01*
X0382068Y0010300D01*
X0381926Y0010370D01*
X0381785Y0010442D01*
X0381646Y0010519D01*
X0381510Y0010598D01*
X0381375Y0010682D01*
X0381242Y0010768D01*
X0381112Y0010858D01*
X0380984Y0010951D01*
X0380858Y0011047D01*
X0380735Y0011147D01*
X0380614Y0011249D01*
X0380496Y0011354D01*
X0380381Y0011463D01*
X0380268Y0011574D01*
X0380158Y0011688D01*
X0380051Y0011805D01*
X0379947Y0011924D01*
X0379846Y0012046D01*
X0379749Y0012171D01*
X0379654Y0012298D01*
X0379563Y0012427D01*
X0379474Y0012558D01*
X0379390Y0012692D01*
X0379308Y0012828D01*
X0379230Y0012965D01*
X0379156Y0013105D01*
X0379085Y0013247D01*
X0379017Y0013390D01*
X0378953Y0013535D01*
X0378893Y0013681D01*
X0378837Y0013829D01*
X0378784Y0013978D01*
X0378735Y0014129D01*
X0378690Y0014281D01*
X0378649Y0014434D01*
X0378611Y0014587D01*
X0378578Y0014742D01*
X0378548Y0014898D01*
X0378522Y0015054D01*
X0378501Y0015211D01*
X0378483Y0015368D01*
X0378469Y0015526D01*
X0378459Y0015684D01*
X0378453Y0015842D01*
X0378451Y0016000D01*
M02*
