G75*
%MOIN*%
%OFA0B0*%
%FSLAX25Y25*%
%IPPOS*%
%LPD*%
%AMOC8*
5,1,8,0,0,1.08239X$1,22.5*
%
%ADD10C,0.00900*%
%ADD11C,0.01100*%
%ADD12C,0.04000*%
%ADD13C,0.01800*%
%ADD14C,0.00600*%
%ADD15C,0.01600*%
%ADD16C,0.00400*%
%ADD17R,0.02500X0.09000*%
%ADD18C,0.00060*%
%ADD19R,0.08000X0.02000*%
%ADD20C,0.00800*%
%ADD21R,0.02000X0.36000*%
%ADD22R,0.05000X0.05000*%
%ADD23R,0.01600X0.03200*%
%ADD24C,0.00200*%
%ADD25R,0.02400X0.01400*%
%ADD26C,0.00500*%
%ADD27C,0.05118*%
%ADD28R,0.05000X0.06500*%
%ADD29R,0.36220X0.52756*%
D10*
X0047813Y0092851D02*
X0047813Y0096654D01*
X0045911Y0094752D02*
X0049715Y0094752D01*
X0047813Y0160351D02*
X0047813Y0164154D01*
X0045911Y0162252D02*
X0049715Y0162252D01*
X0075313Y0241601D02*
X0075313Y0245404D01*
X0073411Y0243502D02*
X0077215Y0243502D01*
X0335911Y0188502D02*
X0339715Y0188502D01*
X0337813Y0190404D02*
X0337813Y0186601D01*
X0344063Y0121654D02*
X0344063Y0117851D01*
X0342161Y0119752D02*
X0345965Y0119752D01*
D11*
X0338053Y0042290D02*
X0338053Y0041206D01*
X0338053Y0039037D02*
X0338053Y0034700D01*
X0339137Y0034700D02*
X0336968Y0034700D01*
X0334307Y0035784D02*
X0333223Y0036869D01*
X0331055Y0036869D01*
X0329970Y0037953D01*
X0331055Y0039037D01*
X0334307Y0039037D01*
X0336968Y0039037D02*
X0338053Y0039037D01*
X0341634Y0037953D02*
X0341634Y0035784D01*
X0342718Y0034700D01*
X0345971Y0034700D01*
X0345971Y0033616D02*
X0345971Y0039037D01*
X0342718Y0039037D01*
X0341634Y0037953D01*
X0343802Y0032531D02*
X0344886Y0032531D01*
X0345971Y0033616D01*
X0348632Y0034700D02*
X0348632Y0039037D01*
X0351884Y0039037D01*
X0352969Y0037953D01*
X0352969Y0034700D01*
X0355630Y0035784D02*
X0355630Y0037953D01*
X0356714Y0039037D01*
X0358882Y0039037D01*
X0359967Y0037953D01*
X0359967Y0036869D01*
X0355630Y0036869D01*
X0355630Y0035784D02*
X0356714Y0034700D01*
X0358882Y0034700D01*
X0362628Y0035784D02*
X0362628Y0037953D01*
X0363712Y0039037D01*
X0366965Y0039037D01*
X0366965Y0041206D02*
X0366965Y0034700D01*
X0363712Y0034700D01*
X0362628Y0035784D01*
X0362964Y0027637D02*
X0361880Y0027637D01*
X0359712Y0025469D01*
X0359712Y0027637D02*
X0359712Y0023300D01*
X0357051Y0024384D02*
X0357051Y0026553D01*
X0355967Y0027637D01*
X0353798Y0027637D01*
X0352714Y0026553D01*
X0352714Y0024384D01*
X0353798Y0023300D01*
X0355967Y0023300D01*
X0357051Y0024384D01*
X0350053Y0023300D02*
X0350053Y0026553D01*
X0348969Y0027637D01*
X0347884Y0026553D01*
X0347884Y0023300D01*
X0345716Y0023300D02*
X0345716Y0027637D01*
X0346800Y0027637D01*
X0347884Y0026553D01*
X0343219Y0023300D02*
X0341050Y0023300D01*
X0342135Y0023300D02*
X0342135Y0029806D01*
X0341050Y0029806D01*
X0338390Y0028721D02*
X0337305Y0029806D01*
X0335137Y0029806D01*
X0334052Y0028721D01*
X0334052Y0024384D01*
X0335137Y0023300D01*
X0337305Y0023300D01*
X0338390Y0024384D01*
X0338390Y0028721D01*
X0333223Y0034700D02*
X0329970Y0034700D01*
X0333223Y0034700D02*
X0334307Y0035784D01*
X0327309Y0036869D02*
X0322972Y0036869D01*
X0322972Y0037953D02*
X0322972Y0035784D01*
X0324057Y0034700D01*
X0326225Y0034700D01*
X0327309Y0036869D02*
X0327309Y0037953D01*
X0326225Y0039037D01*
X0324057Y0039037D01*
X0322972Y0037953D01*
X0320311Y0040121D02*
X0319227Y0041206D01*
X0315974Y0041206D01*
X0315974Y0034700D01*
X0319227Y0034700D01*
X0320311Y0035784D01*
X0320311Y0040121D01*
X0313059Y0029806D02*
X0313059Y0023300D01*
X0316311Y0023300D01*
X0317396Y0024384D01*
X0317396Y0026553D01*
X0316311Y0027637D01*
X0313059Y0027637D01*
X0320057Y0027637D02*
X0320057Y0024384D01*
X0321141Y0023300D01*
X0324394Y0023300D01*
X0324394Y0022216D02*
X0323309Y0021131D01*
X0322225Y0021131D01*
X0324394Y0022216D02*
X0324394Y0027637D01*
X0365543Y0026553D02*
X0365543Y0024384D01*
X0366628Y0023300D01*
X0368796Y0023300D01*
X0369880Y0024384D01*
X0369880Y0026553D01*
X0368796Y0027637D01*
X0366628Y0027637D01*
X0365543Y0026553D01*
D12*
X0347257Y0152532D02*
X0347257Y0163208D01*
X0352595Y0157870D02*
X0341919Y0157870D01*
X0347257Y0173782D02*
X0347257Y0184458D01*
D13*
X0053857Y0188775D02*
X0048386Y0188775D01*
X0045650Y0191510D01*
X0048386Y0194246D01*
X0053857Y0194246D01*
X0052489Y0197983D02*
X0053857Y0199350D01*
X0053857Y0202086D01*
X0052489Y0203454D01*
X0051121Y0203454D01*
X0049754Y0202086D01*
X0049754Y0197983D01*
X0052489Y0197983D02*
X0047018Y0197983D01*
X0045650Y0199350D01*
X0045650Y0202086D01*
X0047018Y0203454D01*
X0045650Y0207190D02*
X0045650Y0212662D01*
X0045650Y0209926D02*
X0053857Y0209926D01*
X0051121Y0212662D01*
X0049754Y0216398D02*
X0049754Y0221870D01*
X0049754Y0185038D02*
X0049754Y0179567D01*
X0052489Y0182303D02*
X0047018Y0182303D01*
X0045650Y0077266D02*
X0045650Y0071794D01*
X0047018Y0068058D02*
X0045650Y0066690D01*
X0045650Y0063954D01*
X0047018Y0062587D01*
X0052489Y0062587D01*
X0053857Y0063954D01*
X0053857Y0066690D01*
X0052489Y0068058D01*
X0047018Y0068058D01*
X0045650Y0077266D02*
X0053857Y0077266D01*
X0051121Y0058850D02*
X0045650Y0058850D01*
X0049754Y0058850D02*
X0049754Y0053379D01*
X0051121Y0053379D02*
X0045650Y0053379D01*
X0045650Y0049642D02*
X0045650Y0045539D01*
X0047018Y0044171D01*
X0052489Y0044171D01*
X0053857Y0045539D01*
X0053857Y0049642D01*
X0045650Y0049642D01*
X0051121Y0053379D02*
X0053857Y0056114D01*
X0051121Y0058850D01*
D14*
X0022132Y0036954D02*
X0019196Y0032550D01*
X0022132Y0032550D02*
X0019196Y0036954D01*
X0023800Y0036954D02*
X0023800Y0034752D01*
X0025268Y0035486D01*
X0026002Y0035486D01*
X0026736Y0034752D01*
X0026736Y0033284D01*
X0026002Y0032550D01*
X0024534Y0032550D01*
X0023800Y0033284D01*
X0023800Y0036954D02*
X0026736Y0036954D01*
X0043500Y0039750D02*
X0003500Y0039750D01*
X0003500Y0079750D01*
X0009750Y0079750D01*
X0013500Y0079750D01*
X0033500Y0079750D01*
X0037250Y0079750D01*
X0043500Y0079750D01*
X0043500Y0039750D01*
X0073726Y0055003D02*
X0076201Y0052528D01*
X0076908Y0052528D01*
X0103778Y0025658D01*
X0103778Y0024951D01*
X0106253Y0022476D01*
X0106297Y0022434D01*
X0106343Y0022396D01*
X0106392Y0022360D01*
X0106443Y0022327D01*
X0106495Y0022298D01*
X0106550Y0022271D01*
X0106605Y0022248D01*
X0106662Y0022228D01*
X0106721Y0022212D01*
X0106780Y0022199D01*
X0106839Y0022190D01*
X0106900Y0022185D01*
X0106960Y0022183D01*
X0107020Y0022185D01*
X0107081Y0022190D01*
X0107140Y0022199D01*
X0107199Y0022212D01*
X0107258Y0022228D01*
X0107315Y0022248D01*
X0107370Y0022271D01*
X0107425Y0022298D01*
X0107477Y0022327D01*
X0107528Y0022360D01*
X0107577Y0022396D01*
X0107623Y0022434D01*
X0107667Y0022476D01*
X0118274Y0033083D01*
X0118316Y0033127D01*
X0118354Y0033173D01*
X0118390Y0033222D01*
X0118423Y0033273D01*
X0118452Y0033325D01*
X0118479Y0033380D01*
X0118502Y0033435D01*
X0118522Y0033492D01*
X0118538Y0033551D01*
X0118551Y0033610D01*
X0118560Y0033669D01*
X0118565Y0033730D01*
X0118567Y0033790D01*
X0118565Y0033850D01*
X0118560Y0033911D01*
X0118551Y0033970D01*
X0118538Y0034029D01*
X0118522Y0034088D01*
X0118502Y0034145D01*
X0118479Y0034200D01*
X0118452Y0034255D01*
X0118423Y0034307D01*
X0118390Y0034358D01*
X0118354Y0034407D01*
X0118316Y0034453D01*
X0118274Y0034497D01*
X0115799Y0036972D01*
X0115092Y0036972D01*
X0088222Y0063842D01*
X0088222Y0064549D01*
X0085747Y0067024D01*
X0085703Y0067066D01*
X0085657Y0067104D01*
X0085608Y0067140D01*
X0085557Y0067173D01*
X0085505Y0067202D01*
X0085450Y0067229D01*
X0085395Y0067252D01*
X0085338Y0067272D01*
X0085279Y0067288D01*
X0085220Y0067301D01*
X0085161Y0067310D01*
X0085100Y0067315D01*
X0085040Y0067317D01*
X0084980Y0067315D01*
X0084919Y0067310D01*
X0084860Y0067301D01*
X0084801Y0067288D01*
X0084742Y0067272D01*
X0084685Y0067252D01*
X0084630Y0067229D01*
X0084575Y0067202D01*
X0084523Y0067173D01*
X0084472Y0067140D01*
X0084423Y0067104D01*
X0084377Y0067066D01*
X0084333Y0067024D01*
X0073726Y0056417D01*
X0073684Y0056373D01*
X0073646Y0056327D01*
X0073610Y0056278D01*
X0073577Y0056227D01*
X0073548Y0056175D01*
X0073521Y0056120D01*
X0073498Y0056065D01*
X0073478Y0056008D01*
X0073462Y0055949D01*
X0073449Y0055890D01*
X0073440Y0055831D01*
X0073435Y0055770D01*
X0073433Y0055710D01*
X0073435Y0055650D01*
X0073440Y0055589D01*
X0073449Y0055530D01*
X0073462Y0055471D01*
X0073478Y0055412D01*
X0073498Y0055355D01*
X0073521Y0055300D01*
X0073548Y0055245D01*
X0073577Y0055193D01*
X0073610Y0055142D01*
X0073646Y0055093D01*
X0073684Y0055047D01*
X0073726Y0055003D01*
X0103726Y0055003D02*
X0106201Y0052528D01*
X0106908Y0052528D01*
X0133778Y0025658D01*
X0133778Y0024951D01*
X0136253Y0022476D01*
X0136297Y0022434D01*
X0136343Y0022396D01*
X0136392Y0022360D01*
X0136443Y0022327D01*
X0136495Y0022298D01*
X0136550Y0022271D01*
X0136605Y0022248D01*
X0136662Y0022228D01*
X0136721Y0022212D01*
X0136780Y0022199D01*
X0136839Y0022190D01*
X0136900Y0022185D01*
X0136960Y0022183D01*
X0137020Y0022185D01*
X0137081Y0022190D01*
X0137140Y0022199D01*
X0137199Y0022212D01*
X0137258Y0022228D01*
X0137315Y0022248D01*
X0137370Y0022271D01*
X0137425Y0022298D01*
X0137477Y0022327D01*
X0137528Y0022360D01*
X0137577Y0022396D01*
X0137623Y0022434D01*
X0137667Y0022476D01*
X0148274Y0033083D01*
X0148316Y0033127D01*
X0148354Y0033173D01*
X0148390Y0033222D01*
X0148423Y0033273D01*
X0148452Y0033325D01*
X0148479Y0033380D01*
X0148502Y0033435D01*
X0148522Y0033492D01*
X0148538Y0033551D01*
X0148551Y0033610D01*
X0148560Y0033669D01*
X0148565Y0033730D01*
X0148567Y0033790D01*
X0148565Y0033850D01*
X0148560Y0033911D01*
X0148551Y0033970D01*
X0148538Y0034029D01*
X0148522Y0034088D01*
X0148502Y0034145D01*
X0148479Y0034200D01*
X0148452Y0034255D01*
X0148423Y0034307D01*
X0148390Y0034358D01*
X0148354Y0034407D01*
X0148316Y0034453D01*
X0148274Y0034497D01*
X0145799Y0036972D01*
X0145092Y0036972D01*
X0118222Y0063842D01*
X0118222Y0064549D01*
X0115747Y0067024D01*
X0115703Y0067066D01*
X0115657Y0067104D01*
X0115608Y0067140D01*
X0115557Y0067173D01*
X0115505Y0067202D01*
X0115450Y0067229D01*
X0115395Y0067252D01*
X0115338Y0067272D01*
X0115279Y0067288D01*
X0115220Y0067301D01*
X0115161Y0067310D01*
X0115100Y0067315D01*
X0115040Y0067317D01*
X0114980Y0067315D01*
X0114919Y0067310D01*
X0114860Y0067301D01*
X0114801Y0067288D01*
X0114742Y0067272D01*
X0114685Y0067252D01*
X0114630Y0067229D01*
X0114575Y0067202D01*
X0114523Y0067173D01*
X0114472Y0067140D01*
X0114423Y0067104D01*
X0114377Y0067066D01*
X0114333Y0067024D01*
X0103726Y0056417D01*
X0103684Y0056373D01*
X0103646Y0056327D01*
X0103610Y0056278D01*
X0103577Y0056227D01*
X0103548Y0056175D01*
X0103521Y0056120D01*
X0103498Y0056065D01*
X0103478Y0056008D01*
X0103462Y0055949D01*
X0103449Y0055890D01*
X0103440Y0055831D01*
X0103435Y0055770D01*
X0103433Y0055710D01*
X0103435Y0055650D01*
X0103440Y0055589D01*
X0103449Y0055530D01*
X0103462Y0055471D01*
X0103478Y0055412D01*
X0103498Y0055355D01*
X0103521Y0055300D01*
X0103548Y0055245D01*
X0103577Y0055193D01*
X0103610Y0055142D01*
X0103646Y0055093D01*
X0103684Y0055047D01*
X0103726Y0055003D01*
X0154250Y0081000D02*
X0154250Y0143500D01*
X0195250Y0143500D01*
X0195250Y0081000D01*
X0154250Y0081000D01*
X0117750Y0112250D02*
X0117750Y0174750D01*
X0076750Y0174750D01*
X0076750Y0112250D01*
X0117750Y0112250D01*
X0043750Y0102250D02*
X0040750Y0102250D01*
X0042250Y0100750D02*
X0042250Y0103750D01*
X0031750Y0107250D02*
X0030750Y0107250D01*
X0030750Y0102750D01*
X0028250Y0102750D01*
X0028250Y0111750D01*
X0030750Y0111750D01*
X0030750Y0107250D01*
X0007250Y0107250D02*
X0007256Y0107741D01*
X0007274Y0108231D01*
X0007304Y0108721D01*
X0007346Y0109210D01*
X0007400Y0109698D01*
X0007466Y0110185D01*
X0007544Y0110669D01*
X0007634Y0111152D01*
X0007736Y0111632D01*
X0007849Y0112110D01*
X0007974Y0112584D01*
X0008111Y0113056D01*
X0008259Y0113524D01*
X0008419Y0113988D01*
X0008590Y0114448D01*
X0008772Y0114904D01*
X0008966Y0115355D01*
X0009170Y0115801D01*
X0009386Y0116242D01*
X0009612Y0116678D01*
X0009848Y0117108D01*
X0010095Y0117532D01*
X0010353Y0117950D01*
X0010621Y0118361D01*
X0010898Y0118766D01*
X0011186Y0119164D01*
X0011483Y0119555D01*
X0011790Y0119938D01*
X0012106Y0120313D01*
X0012431Y0120681D01*
X0012765Y0121041D01*
X0013108Y0121392D01*
X0013459Y0121735D01*
X0013819Y0122069D01*
X0014187Y0122394D01*
X0014562Y0122710D01*
X0014945Y0123017D01*
X0015336Y0123314D01*
X0015734Y0123602D01*
X0016139Y0123879D01*
X0016550Y0124147D01*
X0016968Y0124405D01*
X0017392Y0124652D01*
X0017822Y0124888D01*
X0018258Y0125114D01*
X0018699Y0125330D01*
X0019145Y0125534D01*
X0019596Y0125728D01*
X0020052Y0125910D01*
X0020512Y0126081D01*
X0020976Y0126241D01*
X0021444Y0126389D01*
X0021916Y0126526D01*
X0022390Y0126651D01*
X0022868Y0126764D01*
X0023348Y0126866D01*
X0023831Y0126956D01*
X0024315Y0127034D01*
X0024802Y0127100D01*
X0025290Y0127154D01*
X0025779Y0127196D01*
X0026269Y0127226D01*
X0026759Y0127244D01*
X0027250Y0127250D01*
X0027741Y0127244D01*
X0028231Y0127226D01*
X0028721Y0127196D01*
X0029210Y0127154D01*
X0029698Y0127100D01*
X0030185Y0127034D01*
X0030669Y0126956D01*
X0031152Y0126866D01*
X0031632Y0126764D01*
X0032110Y0126651D01*
X0032584Y0126526D01*
X0033056Y0126389D01*
X0033524Y0126241D01*
X0033988Y0126081D01*
X0034448Y0125910D01*
X0034904Y0125728D01*
X0035355Y0125534D01*
X0035801Y0125330D01*
X0036242Y0125114D01*
X0036678Y0124888D01*
X0037108Y0124652D01*
X0037532Y0124405D01*
X0037950Y0124147D01*
X0038361Y0123879D01*
X0038766Y0123602D01*
X0039164Y0123314D01*
X0039555Y0123017D01*
X0039938Y0122710D01*
X0040313Y0122394D01*
X0040681Y0122069D01*
X0041041Y0121735D01*
X0041392Y0121392D01*
X0041735Y0121041D01*
X0042069Y0120681D01*
X0042394Y0120313D01*
X0042710Y0119938D01*
X0043017Y0119555D01*
X0043314Y0119164D01*
X0043602Y0118766D01*
X0043879Y0118361D01*
X0044147Y0117950D01*
X0044405Y0117532D01*
X0044652Y0117108D01*
X0044888Y0116678D01*
X0045114Y0116242D01*
X0045330Y0115801D01*
X0045534Y0115355D01*
X0045728Y0114904D01*
X0045910Y0114448D01*
X0046081Y0113988D01*
X0046241Y0113524D01*
X0046389Y0113056D01*
X0046526Y0112584D01*
X0046651Y0112110D01*
X0046764Y0111632D01*
X0046866Y0111152D01*
X0046956Y0110669D01*
X0047034Y0110185D01*
X0047100Y0109698D01*
X0047154Y0109210D01*
X0047196Y0108721D01*
X0047226Y0108231D01*
X0047244Y0107741D01*
X0047250Y0107250D01*
X0047244Y0106759D01*
X0047226Y0106269D01*
X0047196Y0105779D01*
X0047154Y0105290D01*
X0047100Y0104802D01*
X0047034Y0104315D01*
X0046956Y0103831D01*
X0046866Y0103348D01*
X0046764Y0102868D01*
X0046651Y0102390D01*
X0046526Y0101916D01*
X0046389Y0101444D01*
X0046241Y0100976D01*
X0046081Y0100512D01*
X0045910Y0100052D01*
X0045728Y0099596D01*
X0045534Y0099145D01*
X0045330Y0098699D01*
X0045114Y0098258D01*
X0044888Y0097822D01*
X0044652Y0097392D01*
X0044405Y0096968D01*
X0044147Y0096550D01*
X0043879Y0096139D01*
X0043602Y0095734D01*
X0043314Y0095336D01*
X0043017Y0094945D01*
X0042710Y0094562D01*
X0042394Y0094187D01*
X0042069Y0093819D01*
X0041735Y0093459D01*
X0041392Y0093108D01*
X0041041Y0092765D01*
X0040681Y0092431D01*
X0040313Y0092106D01*
X0039938Y0091790D01*
X0039555Y0091483D01*
X0039164Y0091186D01*
X0038766Y0090898D01*
X0038361Y0090621D01*
X0037950Y0090353D01*
X0037532Y0090095D01*
X0037108Y0089848D01*
X0036678Y0089612D01*
X0036242Y0089386D01*
X0035801Y0089170D01*
X0035355Y0088966D01*
X0034904Y0088772D01*
X0034448Y0088590D01*
X0033988Y0088419D01*
X0033524Y0088259D01*
X0033056Y0088111D01*
X0032584Y0087974D01*
X0032110Y0087849D01*
X0031632Y0087736D01*
X0031152Y0087634D01*
X0030669Y0087544D01*
X0030185Y0087466D01*
X0029698Y0087400D01*
X0029210Y0087346D01*
X0028721Y0087304D01*
X0028231Y0087274D01*
X0027741Y0087256D01*
X0027250Y0087250D01*
X0026759Y0087256D01*
X0026269Y0087274D01*
X0025779Y0087304D01*
X0025290Y0087346D01*
X0024802Y0087400D01*
X0024315Y0087466D01*
X0023831Y0087544D01*
X0023348Y0087634D01*
X0022868Y0087736D01*
X0022390Y0087849D01*
X0021916Y0087974D01*
X0021444Y0088111D01*
X0020976Y0088259D01*
X0020512Y0088419D01*
X0020052Y0088590D01*
X0019596Y0088772D01*
X0019145Y0088966D01*
X0018699Y0089170D01*
X0018258Y0089386D01*
X0017822Y0089612D01*
X0017392Y0089848D01*
X0016968Y0090095D01*
X0016550Y0090353D01*
X0016139Y0090621D01*
X0015734Y0090898D01*
X0015336Y0091186D01*
X0014945Y0091483D01*
X0014562Y0091790D01*
X0014187Y0092106D01*
X0013819Y0092431D01*
X0013459Y0092765D01*
X0013108Y0093108D01*
X0012765Y0093459D01*
X0012431Y0093819D01*
X0012106Y0094187D01*
X0011790Y0094562D01*
X0011483Y0094945D01*
X0011186Y0095336D01*
X0010898Y0095734D01*
X0010621Y0096139D01*
X0010353Y0096550D01*
X0010095Y0096968D01*
X0009848Y0097392D01*
X0009612Y0097822D01*
X0009386Y0098258D01*
X0009170Y0098699D01*
X0008966Y0099145D01*
X0008772Y0099596D01*
X0008590Y0100052D01*
X0008419Y0100512D01*
X0008259Y0100976D01*
X0008111Y0101444D01*
X0007974Y0101916D01*
X0007849Y0102390D01*
X0007736Y0102868D01*
X0007634Y0103348D01*
X0007544Y0103831D01*
X0007466Y0104315D01*
X0007400Y0104802D01*
X0007346Y0105290D01*
X0007304Y0105779D01*
X0007274Y0106269D01*
X0007256Y0106759D01*
X0007250Y0107250D01*
X0022750Y0107250D02*
X0024750Y0107250D01*
X0028250Y0146500D02*
X0030750Y0146500D01*
X0030750Y0151000D01*
X0030750Y0155500D01*
X0028250Y0155500D01*
X0028250Y0146500D01*
X0007250Y0151000D02*
X0007256Y0151491D01*
X0007274Y0151981D01*
X0007304Y0152471D01*
X0007346Y0152960D01*
X0007400Y0153448D01*
X0007466Y0153935D01*
X0007544Y0154419D01*
X0007634Y0154902D01*
X0007736Y0155382D01*
X0007849Y0155860D01*
X0007974Y0156334D01*
X0008111Y0156806D01*
X0008259Y0157274D01*
X0008419Y0157738D01*
X0008590Y0158198D01*
X0008772Y0158654D01*
X0008966Y0159105D01*
X0009170Y0159551D01*
X0009386Y0159992D01*
X0009612Y0160428D01*
X0009848Y0160858D01*
X0010095Y0161282D01*
X0010353Y0161700D01*
X0010621Y0162111D01*
X0010898Y0162516D01*
X0011186Y0162914D01*
X0011483Y0163305D01*
X0011790Y0163688D01*
X0012106Y0164063D01*
X0012431Y0164431D01*
X0012765Y0164791D01*
X0013108Y0165142D01*
X0013459Y0165485D01*
X0013819Y0165819D01*
X0014187Y0166144D01*
X0014562Y0166460D01*
X0014945Y0166767D01*
X0015336Y0167064D01*
X0015734Y0167352D01*
X0016139Y0167629D01*
X0016550Y0167897D01*
X0016968Y0168155D01*
X0017392Y0168402D01*
X0017822Y0168638D01*
X0018258Y0168864D01*
X0018699Y0169080D01*
X0019145Y0169284D01*
X0019596Y0169478D01*
X0020052Y0169660D01*
X0020512Y0169831D01*
X0020976Y0169991D01*
X0021444Y0170139D01*
X0021916Y0170276D01*
X0022390Y0170401D01*
X0022868Y0170514D01*
X0023348Y0170616D01*
X0023831Y0170706D01*
X0024315Y0170784D01*
X0024802Y0170850D01*
X0025290Y0170904D01*
X0025779Y0170946D01*
X0026269Y0170976D01*
X0026759Y0170994D01*
X0027250Y0171000D01*
X0027741Y0170994D01*
X0028231Y0170976D01*
X0028721Y0170946D01*
X0029210Y0170904D01*
X0029698Y0170850D01*
X0030185Y0170784D01*
X0030669Y0170706D01*
X0031152Y0170616D01*
X0031632Y0170514D01*
X0032110Y0170401D01*
X0032584Y0170276D01*
X0033056Y0170139D01*
X0033524Y0169991D01*
X0033988Y0169831D01*
X0034448Y0169660D01*
X0034904Y0169478D01*
X0035355Y0169284D01*
X0035801Y0169080D01*
X0036242Y0168864D01*
X0036678Y0168638D01*
X0037108Y0168402D01*
X0037532Y0168155D01*
X0037950Y0167897D01*
X0038361Y0167629D01*
X0038766Y0167352D01*
X0039164Y0167064D01*
X0039555Y0166767D01*
X0039938Y0166460D01*
X0040313Y0166144D01*
X0040681Y0165819D01*
X0041041Y0165485D01*
X0041392Y0165142D01*
X0041735Y0164791D01*
X0042069Y0164431D01*
X0042394Y0164063D01*
X0042710Y0163688D01*
X0043017Y0163305D01*
X0043314Y0162914D01*
X0043602Y0162516D01*
X0043879Y0162111D01*
X0044147Y0161700D01*
X0044405Y0161282D01*
X0044652Y0160858D01*
X0044888Y0160428D01*
X0045114Y0159992D01*
X0045330Y0159551D01*
X0045534Y0159105D01*
X0045728Y0158654D01*
X0045910Y0158198D01*
X0046081Y0157738D01*
X0046241Y0157274D01*
X0046389Y0156806D01*
X0046526Y0156334D01*
X0046651Y0155860D01*
X0046764Y0155382D01*
X0046866Y0154902D01*
X0046956Y0154419D01*
X0047034Y0153935D01*
X0047100Y0153448D01*
X0047154Y0152960D01*
X0047196Y0152471D01*
X0047226Y0151981D01*
X0047244Y0151491D01*
X0047250Y0151000D01*
X0047244Y0150509D01*
X0047226Y0150019D01*
X0047196Y0149529D01*
X0047154Y0149040D01*
X0047100Y0148552D01*
X0047034Y0148065D01*
X0046956Y0147581D01*
X0046866Y0147098D01*
X0046764Y0146618D01*
X0046651Y0146140D01*
X0046526Y0145666D01*
X0046389Y0145194D01*
X0046241Y0144726D01*
X0046081Y0144262D01*
X0045910Y0143802D01*
X0045728Y0143346D01*
X0045534Y0142895D01*
X0045330Y0142449D01*
X0045114Y0142008D01*
X0044888Y0141572D01*
X0044652Y0141142D01*
X0044405Y0140718D01*
X0044147Y0140300D01*
X0043879Y0139889D01*
X0043602Y0139484D01*
X0043314Y0139086D01*
X0043017Y0138695D01*
X0042710Y0138312D01*
X0042394Y0137937D01*
X0042069Y0137569D01*
X0041735Y0137209D01*
X0041392Y0136858D01*
X0041041Y0136515D01*
X0040681Y0136181D01*
X0040313Y0135856D01*
X0039938Y0135540D01*
X0039555Y0135233D01*
X0039164Y0134936D01*
X0038766Y0134648D01*
X0038361Y0134371D01*
X0037950Y0134103D01*
X0037532Y0133845D01*
X0037108Y0133598D01*
X0036678Y0133362D01*
X0036242Y0133136D01*
X0035801Y0132920D01*
X0035355Y0132716D01*
X0034904Y0132522D01*
X0034448Y0132340D01*
X0033988Y0132169D01*
X0033524Y0132009D01*
X0033056Y0131861D01*
X0032584Y0131724D01*
X0032110Y0131599D01*
X0031632Y0131486D01*
X0031152Y0131384D01*
X0030669Y0131294D01*
X0030185Y0131216D01*
X0029698Y0131150D01*
X0029210Y0131096D01*
X0028721Y0131054D01*
X0028231Y0131024D01*
X0027741Y0131006D01*
X0027250Y0131000D01*
X0026759Y0131006D01*
X0026269Y0131024D01*
X0025779Y0131054D01*
X0025290Y0131096D01*
X0024802Y0131150D01*
X0024315Y0131216D01*
X0023831Y0131294D01*
X0023348Y0131384D01*
X0022868Y0131486D01*
X0022390Y0131599D01*
X0021916Y0131724D01*
X0021444Y0131861D01*
X0020976Y0132009D01*
X0020512Y0132169D01*
X0020052Y0132340D01*
X0019596Y0132522D01*
X0019145Y0132716D01*
X0018699Y0132920D01*
X0018258Y0133136D01*
X0017822Y0133362D01*
X0017392Y0133598D01*
X0016968Y0133845D01*
X0016550Y0134103D01*
X0016139Y0134371D01*
X0015734Y0134648D01*
X0015336Y0134936D01*
X0014945Y0135233D01*
X0014562Y0135540D01*
X0014187Y0135856D01*
X0013819Y0136181D01*
X0013459Y0136515D01*
X0013108Y0136858D01*
X0012765Y0137209D01*
X0012431Y0137569D01*
X0012106Y0137937D01*
X0011790Y0138312D01*
X0011483Y0138695D01*
X0011186Y0139086D01*
X0010898Y0139484D01*
X0010621Y0139889D01*
X0010353Y0140300D01*
X0010095Y0140718D01*
X0009848Y0141142D01*
X0009612Y0141572D01*
X0009386Y0142008D01*
X0009170Y0142449D01*
X0008966Y0142895D01*
X0008772Y0143346D01*
X0008590Y0143802D01*
X0008419Y0144262D01*
X0008259Y0144726D01*
X0008111Y0145194D01*
X0007974Y0145666D01*
X0007849Y0146140D01*
X0007736Y0146618D01*
X0007634Y0147098D01*
X0007544Y0147581D01*
X0007466Y0148065D01*
X0007400Y0148552D01*
X0007346Y0149040D01*
X0007304Y0149529D01*
X0007274Y0150019D01*
X0007256Y0150509D01*
X0007250Y0151000D01*
X0022750Y0151000D02*
X0024750Y0151000D01*
X0030750Y0151000D02*
X0031750Y0151000D01*
X0040750Y0146000D02*
X0043750Y0146000D01*
X0042250Y0144500D02*
X0042250Y0147500D01*
X0043500Y0179750D02*
X0003500Y0179750D01*
X0003500Y0219750D01*
X0009750Y0219750D01*
X0013500Y0219750D01*
X0033500Y0219750D01*
X0037250Y0219750D01*
X0043500Y0219750D01*
X0043500Y0179750D01*
X0026002Y0222550D02*
X0026002Y0226954D01*
X0023800Y0224752D01*
X0026736Y0224752D01*
X0022132Y0226954D02*
X0019196Y0222550D01*
X0022132Y0222550D02*
X0019196Y0226954D01*
X0023284Y0245264D02*
X0022550Y0245998D01*
X0022550Y0247466D01*
X0023284Y0248200D01*
X0022550Y0249868D02*
X0026954Y0252804D01*
X0026954Y0249868D02*
X0022550Y0252804D01*
X0026220Y0248200D02*
X0026954Y0247466D01*
X0026954Y0245998D01*
X0026220Y0245264D01*
X0025486Y0245264D01*
X0024752Y0245998D01*
X0024018Y0245264D01*
X0023284Y0245264D01*
X0024752Y0245998D02*
X0024752Y0246732D01*
X0067000Y0256750D02*
X0071000Y0256750D01*
X0075000Y0256750D01*
X0075000Y0258750D01*
X0067000Y0258750D01*
X0067000Y0256750D01*
X0068500Y0255750D02*
X0068500Y0253750D01*
X0069500Y0254750D02*
X0067500Y0254750D01*
X0071000Y0254250D02*
X0071000Y0256750D01*
X0071000Y0262250D02*
X0071000Y0265250D01*
X0122250Y0237500D02*
X0122250Y0214500D01*
X0162250Y0214500D01*
X0162250Y0222000D01*
X0162124Y0222002D01*
X0161999Y0222008D01*
X0161874Y0222018D01*
X0161749Y0222032D01*
X0161624Y0222049D01*
X0161500Y0222071D01*
X0161377Y0222096D01*
X0161255Y0222126D01*
X0161134Y0222159D01*
X0161014Y0222196D01*
X0160895Y0222236D01*
X0160778Y0222281D01*
X0160661Y0222329D01*
X0160547Y0222381D01*
X0160434Y0222436D01*
X0160323Y0222495D01*
X0160214Y0222557D01*
X0160107Y0222623D01*
X0160002Y0222692D01*
X0159899Y0222764D01*
X0159798Y0222839D01*
X0159700Y0222918D01*
X0159605Y0223000D01*
X0159512Y0223084D01*
X0159422Y0223172D01*
X0159334Y0223262D01*
X0159250Y0223355D01*
X0159168Y0223450D01*
X0159089Y0223548D01*
X0159014Y0223649D01*
X0158942Y0223752D01*
X0158873Y0223857D01*
X0158807Y0223964D01*
X0158745Y0224073D01*
X0158686Y0224184D01*
X0158631Y0224297D01*
X0158579Y0224411D01*
X0158531Y0224528D01*
X0158486Y0224645D01*
X0158446Y0224764D01*
X0158409Y0224884D01*
X0158376Y0225005D01*
X0158346Y0225127D01*
X0158321Y0225250D01*
X0158299Y0225374D01*
X0158282Y0225499D01*
X0158268Y0225624D01*
X0158258Y0225749D01*
X0158252Y0225874D01*
X0158250Y0226000D01*
X0158252Y0226126D01*
X0158258Y0226251D01*
X0158268Y0226376D01*
X0158282Y0226501D01*
X0158299Y0226626D01*
X0158321Y0226750D01*
X0158346Y0226873D01*
X0158376Y0226995D01*
X0158409Y0227116D01*
X0158446Y0227236D01*
X0158486Y0227355D01*
X0158531Y0227472D01*
X0158579Y0227589D01*
X0158631Y0227703D01*
X0158686Y0227816D01*
X0158745Y0227927D01*
X0158807Y0228036D01*
X0158873Y0228143D01*
X0158942Y0228248D01*
X0159014Y0228351D01*
X0159089Y0228452D01*
X0159168Y0228550D01*
X0159250Y0228645D01*
X0159334Y0228738D01*
X0159422Y0228828D01*
X0159512Y0228916D01*
X0159605Y0229000D01*
X0159700Y0229082D01*
X0159798Y0229161D01*
X0159899Y0229236D01*
X0160002Y0229308D01*
X0160107Y0229377D01*
X0160214Y0229443D01*
X0160323Y0229505D01*
X0160434Y0229564D01*
X0160547Y0229619D01*
X0160661Y0229671D01*
X0160778Y0229719D01*
X0160895Y0229764D01*
X0161014Y0229804D01*
X0161134Y0229841D01*
X0161255Y0229874D01*
X0161377Y0229904D01*
X0161500Y0229929D01*
X0161624Y0229951D01*
X0161749Y0229968D01*
X0161874Y0229982D01*
X0161999Y0229992D01*
X0162124Y0229998D01*
X0162250Y0230000D01*
X0162250Y0237500D01*
X0122250Y0237500D01*
X0128800Y0256514D02*
X0128800Y0259450D01*
X0131736Y0256514D01*
X0132470Y0256514D01*
X0133204Y0257248D01*
X0133204Y0258716D01*
X0132470Y0259450D01*
X0133204Y0261118D02*
X0128800Y0264054D01*
X0128800Y0261118D02*
X0133204Y0264054D01*
X0231750Y0174750D02*
X0231750Y0112250D01*
X0272750Y0112250D01*
X0272750Y0174750D01*
X0231750Y0174750D01*
X0317750Y0172250D02*
X0319750Y0172250D01*
X0302250Y0172250D02*
X0302256Y0172741D01*
X0302274Y0173231D01*
X0302304Y0173721D01*
X0302346Y0174210D01*
X0302400Y0174698D01*
X0302466Y0175185D01*
X0302544Y0175669D01*
X0302634Y0176152D01*
X0302736Y0176632D01*
X0302849Y0177110D01*
X0302974Y0177584D01*
X0303111Y0178056D01*
X0303259Y0178524D01*
X0303419Y0178988D01*
X0303590Y0179448D01*
X0303772Y0179904D01*
X0303966Y0180355D01*
X0304170Y0180801D01*
X0304386Y0181242D01*
X0304612Y0181678D01*
X0304848Y0182108D01*
X0305095Y0182532D01*
X0305353Y0182950D01*
X0305621Y0183361D01*
X0305898Y0183766D01*
X0306186Y0184164D01*
X0306483Y0184555D01*
X0306790Y0184938D01*
X0307106Y0185313D01*
X0307431Y0185681D01*
X0307765Y0186041D01*
X0308108Y0186392D01*
X0308459Y0186735D01*
X0308819Y0187069D01*
X0309187Y0187394D01*
X0309562Y0187710D01*
X0309945Y0188017D01*
X0310336Y0188314D01*
X0310734Y0188602D01*
X0311139Y0188879D01*
X0311550Y0189147D01*
X0311968Y0189405D01*
X0312392Y0189652D01*
X0312822Y0189888D01*
X0313258Y0190114D01*
X0313699Y0190330D01*
X0314145Y0190534D01*
X0314596Y0190728D01*
X0315052Y0190910D01*
X0315512Y0191081D01*
X0315976Y0191241D01*
X0316444Y0191389D01*
X0316916Y0191526D01*
X0317390Y0191651D01*
X0317868Y0191764D01*
X0318348Y0191866D01*
X0318831Y0191956D01*
X0319315Y0192034D01*
X0319802Y0192100D01*
X0320290Y0192154D01*
X0320779Y0192196D01*
X0321269Y0192226D01*
X0321759Y0192244D01*
X0322250Y0192250D01*
X0322741Y0192244D01*
X0323231Y0192226D01*
X0323721Y0192196D01*
X0324210Y0192154D01*
X0324698Y0192100D01*
X0325185Y0192034D01*
X0325669Y0191956D01*
X0326152Y0191866D01*
X0326632Y0191764D01*
X0327110Y0191651D01*
X0327584Y0191526D01*
X0328056Y0191389D01*
X0328524Y0191241D01*
X0328988Y0191081D01*
X0329448Y0190910D01*
X0329904Y0190728D01*
X0330355Y0190534D01*
X0330801Y0190330D01*
X0331242Y0190114D01*
X0331678Y0189888D01*
X0332108Y0189652D01*
X0332532Y0189405D01*
X0332950Y0189147D01*
X0333361Y0188879D01*
X0333766Y0188602D01*
X0334164Y0188314D01*
X0334555Y0188017D01*
X0334938Y0187710D01*
X0335313Y0187394D01*
X0335681Y0187069D01*
X0336041Y0186735D01*
X0336392Y0186392D01*
X0336735Y0186041D01*
X0337069Y0185681D01*
X0337394Y0185313D01*
X0337710Y0184938D01*
X0338017Y0184555D01*
X0338314Y0184164D01*
X0338602Y0183766D01*
X0338879Y0183361D01*
X0339147Y0182950D01*
X0339405Y0182532D01*
X0339652Y0182108D01*
X0339888Y0181678D01*
X0340114Y0181242D01*
X0340330Y0180801D01*
X0340534Y0180355D01*
X0340728Y0179904D01*
X0340910Y0179448D01*
X0341081Y0178988D01*
X0341241Y0178524D01*
X0341389Y0178056D01*
X0341526Y0177584D01*
X0341651Y0177110D01*
X0341764Y0176632D01*
X0341866Y0176152D01*
X0341956Y0175669D01*
X0342034Y0175185D01*
X0342100Y0174698D01*
X0342154Y0174210D01*
X0342196Y0173721D01*
X0342226Y0173231D01*
X0342244Y0172741D01*
X0342250Y0172250D01*
X0342244Y0171759D01*
X0342226Y0171269D01*
X0342196Y0170779D01*
X0342154Y0170290D01*
X0342100Y0169802D01*
X0342034Y0169315D01*
X0341956Y0168831D01*
X0341866Y0168348D01*
X0341764Y0167868D01*
X0341651Y0167390D01*
X0341526Y0166916D01*
X0341389Y0166444D01*
X0341241Y0165976D01*
X0341081Y0165512D01*
X0340910Y0165052D01*
X0340728Y0164596D01*
X0340534Y0164145D01*
X0340330Y0163699D01*
X0340114Y0163258D01*
X0339888Y0162822D01*
X0339652Y0162392D01*
X0339405Y0161968D01*
X0339147Y0161550D01*
X0338879Y0161139D01*
X0338602Y0160734D01*
X0338314Y0160336D01*
X0338017Y0159945D01*
X0337710Y0159562D01*
X0337394Y0159187D01*
X0337069Y0158819D01*
X0336735Y0158459D01*
X0336392Y0158108D01*
X0336041Y0157765D01*
X0335681Y0157431D01*
X0335313Y0157106D01*
X0334938Y0156790D01*
X0334555Y0156483D01*
X0334164Y0156186D01*
X0333766Y0155898D01*
X0333361Y0155621D01*
X0332950Y0155353D01*
X0332532Y0155095D01*
X0332108Y0154848D01*
X0331678Y0154612D01*
X0331242Y0154386D01*
X0330801Y0154170D01*
X0330355Y0153966D01*
X0329904Y0153772D01*
X0329448Y0153590D01*
X0328988Y0153419D01*
X0328524Y0153259D01*
X0328056Y0153111D01*
X0327584Y0152974D01*
X0327110Y0152849D01*
X0326632Y0152736D01*
X0326152Y0152634D01*
X0325669Y0152544D01*
X0325185Y0152466D01*
X0324698Y0152400D01*
X0324210Y0152346D01*
X0323721Y0152304D01*
X0323231Y0152274D01*
X0322741Y0152256D01*
X0322250Y0152250D01*
X0321759Y0152256D01*
X0321269Y0152274D01*
X0320779Y0152304D01*
X0320290Y0152346D01*
X0319802Y0152400D01*
X0319315Y0152466D01*
X0318831Y0152544D01*
X0318348Y0152634D01*
X0317868Y0152736D01*
X0317390Y0152849D01*
X0316916Y0152974D01*
X0316444Y0153111D01*
X0315976Y0153259D01*
X0315512Y0153419D01*
X0315052Y0153590D01*
X0314596Y0153772D01*
X0314145Y0153966D01*
X0313699Y0154170D01*
X0313258Y0154386D01*
X0312822Y0154612D01*
X0312392Y0154848D01*
X0311968Y0155095D01*
X0311550Y0155353D01*
X0311139Y0155621D01*
X0310734Y0155898D01*
X0310336Y0156186D01*
X0309945Y0156483D01*
X0309562Y0156790D01*
X0309187Y0157106D01*
X0308819Y0157431D01*
X0308459Y0157765D01*
X0308108Y0158108D01*
X0307765Y0158459D01*
X0307431Y0158819D01*
X0307106Y0159187D01*
X0306790Y0159562D01*
X0306483Y0159945D01*
X0306186Y0160336D01*
X0305898Y0160734D01*
X0305621Y0161139D01*
X0305353Y0161550D01*
X0305095Y0161968D01*
X0304848Y0162392D01*
X0304612Y0162822D01*
X0304386Y0163258D01*
X0304170Y0163699D01*
X0303966Y0164145D01*
X0303772Y0164596D01*
X0303590Y0165052D01*
X0303419Y0165512D01*
X0303259Y0165976D01*
X0303111Y0166444D01*
X0302974Y0166916D01*
X0302849Y0167390D01*
X0302736Y0167868D01*
X0302634Y0168348D01*
X0302544Y0168831D01*
X0302466Y0169315D01*
X0302400Y0169802D01*
X0302346Y0170290D01*
X0302304Y0170779D01*
X0302274Y0171269D01*
X0302256Y0171759D01*
X0302250Y0172250D01*
X0323250Y0167750D02*
X0325750Y0167750D01*
X0325750Y0172250D01*
X0325750Y0176750D01*
X0323250Y0176750D01*
X0323250Y0167750D01*
X0325750Y0172250D02*
X0326750Y0172250D01*
X0335750Y0167250D02*
X0338750Y0167250D01*
X0337250Y0165750D02*
X0337250Y0168750D01*
X0356000Y0169750D02*
X0362250Y0169750D01*
X0366000Y0169750D01*
X0386000Y0169750D01*
X0389750Y0169750D01*
X0396000Y0169750D01*
X0396000Y0209750D01*
X0356000Y0209750D01*
X0356000Y0169750D01*
X0396000Y0169750D01*
X0396000Y0129750D01*
X0389750Y0129750D01*
X0386000Y0129750D01*
X0366000Y0129750D01*
X0362250Y0129750D01*
X0356000Y0129750D01*
X0356000Y0169750D01*
X0345646Y0201441D02*
X0371809Y0227604D01*
X0346354Y0253059D01*
X0320191Y0226896D01*
X0345646Y0201441D01*
X0342818Y0224068D02*
X0346000Y0227250D01*
X0351303Y0229018D01*
X0347768Y0232553D01*
X0346000Y0227250D01*
X0347768Y0225482D01*
X0346000Y0227250D02*
X0353071Y0234321D01*
X0346000Y0227250D02*
X0344232Y0229018D01*
X0372946Y0216954D02*
X0375882Y0212550D01*
X0377550Y0212550D02*
X0377550Y0213284D01*
X0380486Y0216220D01*
X0380486Y0216954D01*
X0377550Y0216954D01*
X0375882Y0216954D02*
X0372946Y0212550D01*
X0325750Y0134250D02*
X0323250Y0134250D01*
X0323250Y0125250D01*
X0325750Y0125250D01*
X0325750Y0129750D01*
X0325750Y0134250D01*
X0325750Y0129750D02*
X0326750Y0129750D01*
X0302250Y0129750D02*
X0302256Y0130241D01*
X0302274Y0130731D01*
X0302304Y0131221D01*
X0302346Y0131710D01*
X0302400Y0132198D01*
X0302466Y0132685D01*
X0302544Y0133169D01*
X0302634Y0133652D01*
X0302736Y0134132D01*
X0302849Y0134610D01*
X0302974Y0135084D01*
X0303111Y0135556D01*
X0303259Y0136024D01*
X0303419Y0136488D01*
X0303590Y0136948D01*
X0303772Y0137404D01*
X0303966Y0137855D01*
X0304170Y0138301D01*
X0304386Y0138742D01*
X0304612Y0139178D01*
X0304848Y0139608D01*
X0305095Y0140032D01*
X0305353Y0140450D01*
X0305621Y0140861D01*
X0305898Y0141266D01*
X0306186Y0141664D01*
X0306483Y0142055D01*
X0306790Y0142438D01*
X0307106Y0142813D01*
X0307431Y0143181D01*
X0307765Y0143541D01*
X0308108Y0143892D01*
X0308459Y0144235D01*
X0308819Y0144569D01*
X0309187Y0144894D01*
X0309562Y0145210D01*
X0309945Y0145517D01*
X0310336Y0145814D01*
X0310734Y0146102D01*
X0311139Y0146379D01*
X0311550Y0146647D01*
X0311968Y0146905D01*
X0312392Y0147152D01*
X0312822Y0147388D01*
X0313258Y0147614D01*
X0313699Y0147830D01*
X0314145Y0148034D01*
X0314596Y0148228D01*
X0315052Y0148410D01*
X0315512Y0148581D01*
X0315976Y0148741D01*
X0316444Y0148889D01*
X0316916Y0149026D01*
X0317390Y0149151D01*
X0317868Y0149264D01*
X0318348Y0149366D01*
X0318831Y0149456D01*
X0319315Y0149534D01*
X0319802Y0149600D01*
X0320290Y0149654D01*
X0320779Y0149696D01*
X0321269Y0149726D01*
X0321759Y0149744D01*
X0322250Y0149750D01*
X0322741Y0149744D01*
X0323231Y0149726D01*
X0323721Y0149696D01*
X0324210Y0149654D01*
X0324698Y0149600D01*
X0325185Y0149534D01*
X0325669Y0149456D01*
X0326152Y0149366D01*
X0326632Y0149264D01*
X0327110Y0149151D01*
X0327584Y0149026D01*
X0328056Y0148889D01*
X0328524Y0148741D01*
X0328988Y0148581D01*
X0329448Y0148410D01*
X0329904Y0148228D01*
X0330355Y0148034D01*
X0330801Y0147830D01*
X0331242Y0147614D01*
X0331678Y0147388D01*
X0332108Y0147152D01*
X0332532Y0146905D01*
X0332950Y0146647D01*
X0333361Y0146379D01*
X0333766Y0146102D01*
X0334164Y0145814D01*
X0334555Y0145517D01*
X0334938Y0145210D01*
X0335313Y0144894D01*
X0335681Y0144569D01*
X0336041Y0144235D01*
X0336392Y0143892D01*
X0336735Y0143541D01*
X0337069Y0143181D01*
X0337394Y0142813D01*
X0337710Y0142438D01*
X0338017Y0142055D01*
X0338314Y0141664D01*
X0338602Y0141266D01*
X0338879Y0140861D01*
X0339147Y0140450D01*
X0339405Y0140032D01*
X0339652Y0139608D01*
X0339888Y0139178D01*
X0340114Y0138742D01*
X0340330Y0138301D01*
X0340534Y0137855D01*
X0340728Y0137404D01*
X0340910Y0136948D01*
X0341081Y0136488D01*
X0341241Y0136024D01*
X0341389Y0135556D01*
X0341526Y0135084D01*
X0341651Y0134610D01*
X0341764Y0134132D01*
X0341866Y0133652D01*
X0341956Y0133169D01*
X0342034Y0132685D01*
X0342100Y0132198D01*
X0342154Y0131710D01*
X0342196Y0131221D01*
X0342226Y0130731D01*
X0342244Y0130241D01*
X0342250Y0129750D01*
X0342244Y0129259D01*
X0342226Y0128769D01*
X0342196Y0128279D01*
X0342154Y0127790D01*
X0342100Y0127302D01*
X0342034Y0126815D01*
X0341956Y0126331D01*
X0341866Y0125848D01*
X0341764Y0125368D01*
X0341651Y0124890D01*
X0341526Y0124416D01*
X0341389Y0123944D01*
X0341241Y0123476D01*
X0341081Y0123012D01*
X0340910Y0122552D01*
X0340728Y0122096D01*
X0340534Y0121645D01*
X0340330Y0121199D01*
X0340114Y0120758D01*
X0339888Y0120322D01*
X0339652Y0119892D01*
X0339405Y0119468D01*
X0339147Y0119050D01*
X0338879Y0118639D01*
X0338602Y0118234D01*
X0338314Y0117836D01*
X0338017Y0117445D01*
X0337710Y0117062D01*
X0337394Y0116687D01*
X0337069Y0116319D01*
X0336735Y0115959D01*
X0336392Y0115608D01*
X0336041Y0115265D01*
X0335681Y0114931D01*
X0335313Y0114606D01*
X0334938Y0114290D01*
X0334555Y0113983D01*
X0334164Y0113686D01*
X0333766Y0113398D01*
X0333361Y0113121D01*
X0332950Y0112853D01*
X0332532Y0112595D01*
X0332108Y0112348D01*
X0331678Y0112112D01*
X0331242Y0111886D01*
X0330801Y0111670D01*
X0330355Y0111466D01*
X0329904Y0111272D01*
X0329448Y0111090D01*
X0328988Y0110919D01*
X0328524Y0110759D01*
X0328056Y0110611D01*
X0327584Y0110474D01*
X0327110Y0110349D01*
X0326632Y0110236D01*
X0326152Y0110134D01*
X0325669Y0110044D01*
X0325185Y0109966D01*
X0324698Y0109900D01*
X0324210Y0109846D01*
X0323721Y0109804D01*
X0323231Y0109774D01*
X0322741Y0109756D01*
X0322250Y0109750D01*
X0321759Y0109756D01*
X0321269Y0109774D01*
X0320779Y0109804D01*
X0320290Y0109846D01*
X0319802Y0109900D01*
X0319315Y0109966D01*
X0318831Y0110044D01*
X0318348Y0110134D01*
X0317868Y0110236D01*
X0317390Y0110349D01*
X0316916Y0110474D01*
X0316444Y0110611D01*
X0315976Y0110759D01*
X0315512Y0110919D01*
X0315052Y0111090D01*
X0314596Y0111272D01*
X0314145Y0111466D01*
X0313699Y0111670D01*
X0313258Y0111886D01*
X0312822Y0112112D01*
X0312392Y0112348D01*
X0311968Y0112595D01*
X0311550Y0112853D01*
X0311139Y0113121D01*
X0310734Y0113398D01*
X0310336Y0113686D01*
X0309945Y0113983D01*
X0309562Y0114290D01*
X0309187Y0114606D01*
X0308819Y0114931D01*
X0308459Y0115265D01*
X0308108Y0115608D01*
X0307765Y0115959D01*
X0307431Y0116319D01*
X0307106Y0116687D01*
X0306790Y0117062D01*
X0306483Y0117445D01*
X0306186Y0117836D01*
X0305898Y0118234D01*
X0305621Y0118639D01*
X0305353Y0119050D01*
X0305095Y0119468D01*
X0304848Y0119892D01*
X0304612Y0120322D01*
X0304386Y0120758D01*
X0304170Y0121199D01*
X0303966Y0121645D01*
X0303772Y0122096D01*
X0303590Y0122552D01*
X0303419Y0123012D01*
X0303259Y0123476D01*
X0303111Y0123944D01*
X0302974Y0124416D01*
X0302849Y0124890D01*
X0302736Y0125368D01*
X0302634Y0125848D01*
X0302544Y0126331D01*
X0302466Y0126815D01*
X0302400Y0127302D01*
X0302346Y0127790D01*
X0302304Y0128279D01*
X0302274Y0128769D01*
X0302256Y0129259D01*
X0302250Y0129750D01*
X0317750Y0129750D02*
X0319750Y0129750D01*
X0335750Y0124750D02*
X0338750Y0124750D01*
X0337250Y0123250D02*
X0337250Y0126250D01*
X0371696Y0126954D02*
X0374632Y0122550D01*
X0376300Y0123284D02*
X0377034Y0122550D01*
X0378502Y0122550D01*
X0379236Y0123284D01*
X0379236Y0124018D01*
X0378502Y0124752D01*
X0376300Y0124752D01*
X0376300Y0123284D01*
X0376300Y0124752D02*
X0377768Y0126220D01*
X0379236Y0126954D01*
X0374632Y0126954D02*
X0371696Y0122550D01*
X0305500Y0071000D02*
X0296500Y0071000D01*
X0296500Y0070000D01*
X0293500Y0067000D01*
X0293500Y0062000D01*
X0294500Y0061000D01*
X0294500Y0031000D01*
X0293500Y0030000D01*
X0293500Y0025000D01*
X0296500Y0022000D01*
X0296500Y0021000D01*
X0305500Y0021000D01*
X0305500Y0022000D01*
X0308500Y0025000D01*
X0308500Y0030000D01*
X0307500Y0031000D01*
X0307500Y0061000D01*
X0308500Y0062000D01*
X0308500Y0067000D01*
X0305500Y0070000D01*
X0305500Y0071000D01*
X0267500Y0069750D02*
X0267500Y0054750D01*
X0267498Y0054690D01*
X0267493Y0054629D01*
X0267484Y0054570D01*
X0267471Y0054511D01*
X0267455Y0054452D01*
X0267435Y0054395D01*
X0267412Y0054340D01*
X0267385Y0054285D01*
X0267356Y0054233D01*
X0267323Y0054182D01*
X0267287Y0054133D01*
X0267249Y0054087D01*
X0267207Y0054043D01*
X0267163Y0054001D01*
X0267117Y0053963D01*
X0267068Y0053927D01*
X0267017Y0053894D01*
X0266965Y0053865D01*
X0266910Y0053838D01*
X0266855Y0053815D01*
X0266798Y0053795D01*
X0266739Y0053779D01*
X0266680Y0053766D01*
X0266621Y0053757D01*
X0266560Y0053752D01*
X0266500Y0053750D01*
X0263000Y0053750D01*
X0262500Y0054250D01*
X0224500Y0054250D01*
X0224000Y0053750D01*
X0220500Y0053750D01*
X0220440Y0053752D01*
X0220379Y0053757D01*
X0220320Y0053766D01*
X0220261Y0053779D01*
X0220202Y0053795D01*
X0220145Y0053815D01*
X0220090Y0053838D01*
X0220035Y0053865D01*
X0219983Y0053894D01*
X0219932Y0053927D01*
X0219883Y0053963D01*
X0219837Y0054001D01*
X0219793Y0054043D01*
X0219751Y0054087D01*
X0219713Y0054133D01*
X0219677Y0054182D01*
X0219644Y0054233D01*
X0219615Y0054285D01*
X0219588Y0054340D01*
X0219565Y0054395D01*
X0219545Y0054452D01*
X0219529Y0054511D01*
X0219516Y0054570D01*
X0219507Y0054629D01*
X0219502Y0054690D01*
X0219500Y0054750D01*
X0219500Y0069750D01*
X0219502Y0069810D01*
X0219507Y0069871D01*
X0219516Y0069930D01*
X0219529Y0069989D01*
X0219545Y0070048D01*
X0219565Y0070105D01*
X0219588Y0070160D01*
X0219615Y0070215D01*
X0219644Y0070267D01*
X0219677Y0070318D01*
X0219713Y0070367D01*
X0219751Y0070413D01*
X0219793Y0070457D01*
X0219837Y0070499D01*
X0219883Y0070537D01*
X0219932Y0070573D01*
X0219983Y0070606D01*
X0220035Y0070635D01*
X0220090Y0070662D01*
X0220145Y0070685D01*
X0220202Y0070705D01*
X0220261Y0070721D01*
X0220320Y0070734D01*
X0220379Y0070743D01*
X0220440Y0070748D01*
X0220500Y0070750D01*
X0224000Y0070750D01*
X0224500Y0070250D01*
X0262500Y0070250D01*
X0263000Y0070750D01*
X0266500Y0070750D01*
X0266560Y0070748D01*
X0266621Y0070743D01*
X0266680Y0070734D01*
X0266739Y0070721D01*
X0266798Y0070705D01*
X0266855Y0070685D01*
X0266910Y0070662D01*
X0266965Y0070635D01*
X0267017Y0070606D01*
X0267068Y0070573D01*
X0267117Y0070537D01*
X0267163Y0070499D01*
X0267207Y0070457D01*
X0267249Y0070413D01*
X0267287Y0070367D01*
X0267323Y0070318D01*
X0267356Y0070267D01*
X0267385Y0070215D01*
X0267412Y0070160D01*
X0267435Y0070105D01*
X0267455Y0070048D01*
X0267471Y0069989D01*
X0267484Y0069930D01*
X0267493Y0069871D01*
X0267498Y0069810D01*
X0267500Y0069750D01*
X0247500Y0050250D02*
X0209500Y0050250D01*
X0209440Y0050248D01*
X0209379Y0050243D01*
X0209320Y0050234D01*
X0209261Y0050221D01*
X0209202Y0050205D01*
X0209145Y0050185D01*
X0209090Y0050162D01*
X0209035Y0050135D01*
X0208983Y0050106D01*
X0208932Y0050073D01*
X0208883Y0050037D01*
X0208837Y0049999D01*
X0208793Y0049957D01*
X0208751Y0049913D01*
X0208713Y0049867D01*
X0208677Y0049818D01*
X0208644Y0049767D01*
X0208615Y0049715D01*
X0208588Y0049660D01*
X0208565Y0049605D01*
X0208545Y0049548D01*
X0208529Y0049489D01*
X0208516Y0049430D01*
X0208507Y0049371D01*
X0208502Y0049310D01*
X0208500Y0049250D01*
X0208500Y0035250D01*
X0208502Y0035190D01*
X0208507Y0035129D01*
X0208516Y0035070D01*
X0208529Y0035011D01*
X0208545Y0034952D01*
X0208565Y0034895D01*
X0208588Y0034840D01*
X0208615Y0034785D01*
X0208644Y0034733D01*
X0208677Y0034682D01*
X0208713Y0034633D01*
X0208751Y0034587D01*
X0208793Y0034543D01*
X0208837Y0034501D01*
X0208883Y0034463D01*
X0208932Y0034427D01*
X0208983Y0034394D01*
X0209035Y0034365D01*
X0209090Y0034338D01*
X0209145Y0034315D01*
X0209202Y0034295D01*
X0209261Y0034279D01*
X0209320Y0034266D01*
X0209379Y0034257D01*
X0209440Y0034252D01*
X0209500Y0034250D01*
X0247500Y0034250D01*
X0247560Y0034252D01*
X0247621Y0034257D01*
X0247680Y0034266D01*
X0247739Y0034279D01*
X0247798Y0034295D01*
X0247855Y0034315D01*
X0247910Y0034338D01*
X0247965Y0034365D01*
X0248017Y0034394D01*
X0248068Y0034427D01*
X0248117Y0034463D01*
X0248163Y0034501D01*
X0248207Y0034543D01*
X0248249Y0034587D01*
X0248287Y0034633D01*
X0248323Y0034682D01*
X0248356Y0034733D01*
X0248385Y0034785D01*
X0248412Y0034840D01*
X0248435Y0034895D01*
X0248455Y0034952D01*
X0248471Y0035011D01*
X0248484Y0035070D01*
X0248493Y0035129D01*
X0248498Y0035190D01*
X0248500Y0035250D01*
X0248500Y0049250D01*
X0248498Y0049310D01*
X0248493Y0049371D01*
X0248484Y0049430D01*
X0248471Y0049489D01*
X0248455Y0049548D01*
X0248435Y0049605D01*
X0248412Y0049660D01*
X0248385Y0049715D01*
X0248356Y0049767D01*
X0248323Y0049818D01*
X0248287Y0049867D01*
X0248249Y0049913D01*
X0248207Y0049957D01*
X0248163Y0049999D01*
X0248117Y0050037D01*
X0248068Y0050073D01*
X0248017Y0050106D01*
X0247965Y0050135D01*
X0247910Y0050162D01*
X0247855Y0050185D01*
X0247798Y0050205D01*
X0247739Y0050221D01*
X0247680Y0050234D01*
X0247621Y0050243D01*
X0247560Y0050248D01*
X0247500Y0050250D01*
X0239000Y0042250D02*
X0223500Y0042250D01*
X0220000Y0042250D02*
X0218000Y0042250D01*
X0201000Y0027250D02*
X0198500Y0027250D01*
X0201000Y0027250D02*
X0201000Y0024750D01*
X0201000Y0014750D02*
X0201000Y0012250D01*
X0198500Y0012250D01*
X0188500Y0012250D02*
X0186000Y0012250D01*
X0186000Y0014750D01*
X0186000Y0024750D02*
X0186000Y0027250D01*
X0188500Y0027250D01*
X0171000Y0027250D02*
X0171000Y0024750D01*
X0171000Y0027250D02*
X0168500Y0027250D01*
X0158500Y0027250D02*
X0156000Y0027250D01*
X0156000Y0024750D01*
X0156000Y0014750D02*
X0156000Y0012250D01*
X0158500Y0012250D01*
X0168500Y0012250D02*
X0171000Y0012250D01*
X0171000Y0014750D01*
D15*
X0220000Y0037250D02*
X0220000Y0042250D01*
X0220000Y0047250D01*
X0223500Y0047250D02*
X0223500Y0042250D01*
X0223500Y0037250D01*
D16*
X0240017Y0055950D02*
X0240017Y0059553D01*
X0241818Y0059553D01*
X0242419Y0058953D01*
X0242419Y0057752D01*
X0241818Y0057151D01*
X0240017Y0057151D01*
X0241218Y0057151D02*
X0242419Y0055950D01*
X0243700Y0055950D02*
X0246102Y0058352D01*
X0246102Y0058953D01*
X0245502Y0059553D01*
X0244301Y0059553D01*
X0243700Y0058953D01*
X0243700Y0055950D02*
X0246102Y0055950D01*
X0250617Y0044803D02*
X0250017Y0044203D01*
X0250017Y0041801D01*
X0250617Y0041200D01*
X0251818Y0041200D01*
X0252419Y0041801D01*
X0253700Y0041801D02*
X0254301Y0041200D01*
X0255502Y0041200D01*
X0256102Y0041801D01*
X0256102Y0043002D01*
X0255502Y0043602D01*
X0254901Y0043602D01*
X0253700Y0043002D01*
X0253700Y0044803D01*
X0256102Y0044803D01*
X0252419Y0044203D02*
X0251818Y0044803D01*
X0250617Y0044803D01*
X0334741Y0109002D02*
X0335341Y0108402D01*
X0336542Y0108402D01*
X0337143Y0109002D01*
X0338424Y0109002D02*
X0339024Y0108402D01*
X0340226Y0108402D01*
X0340826Y0109002D01*
X0340826Y0109603D01*
X0340226Y0110203D01*
X0338424Y0110203D01*
X0338424Y0109002D01*
X0338424Y0110203D02*
X0339625Y0111404D01*
X0340826Y0112005D01*
X0337143Y0111404D02*
X0336542Y0112005D01*
X0335341Y0112005D01*
X0334741Y0111404D01*
X0334741Y0109002D01*
X0372200Y0089483D02*
X0372200Y0087081D01*
X0372200Y0085800D02*
X0374602Y0083398D01*
X0375203Y0083398D01*
X0375803Y0083998D01*
X0375803Y0085199D01*
X0375203Y0085800D01*
X0372200Y0085800D02*
X0372200Y0083398D01*
X0372200Y0089483D02*
X0375803Y0089483D01*
X0341073Y0192340D02*
X0339872Y0192340D01*
X0339271Y0192941D01*
X0339271Y0193541D01*
X0339872Y0194142D01*
X0341073Y0194142D01*
X0341673Y0193541D01*
X0341673Y0192941D01*
X0341073Y0192340D01*
X0341073Y0194142D02*
X0341673Y0194742D01*
X0341673Y0195343D01*
X0341073Y0195943D01*
X0339872Y0195943D01*
X0339271Y0195343D01*
X0339271Y0194742D01*
X0339872Y0194142D01*
X0337990Y0195343D02*
X0337389Y0195943D01*
X0336188Y0195943D01*
X0335588Y0195343D01*
X0335588Y0192941D01*
X0336188Y0192340D01*
X0337389Y0192340D01*
X0337990Y0192941D01*
X0299700Y0229056D02*
X0299700Y0231458D01*
X0299700Y0230257D02*
X0303303Y0230257D01*
X0302102Y0231458D01*
X0302703Y0232740D02*
X0303303Y0233340D01*
X0303303Y0234541D01*
X0302703Y0235142D01*
X0302102Y0235142D01*
X0301502Y0234541D01*
X0301502Y0233340D01*
X0300901Y0232740D01*
X0300301Y0232740D01*
X0299700Y0233340D01*
X0299700Y0234541D01*
X0300301Y0235142D01*
X0299700Y0236423D02*
X0300901Y0237624D01*
X0300901Y0237023D02*
X0300901Y0238825D01*
X0299700Y0238825D02*
X0303303Y0238825D01*
X0303303Y0237023D01*
X0302703Y0236423D01*
X0301502Y0236423D01*
X0300901Y0237023D01*
X0326805Y0241274D02*
X0328504Y0239575D01*
X0330202Y0239575D01*
X0330202Y0241274D01*
X0328504Y0242972D01*
X0329410Y0243878D02*
X0330683Y0245152D01*
X0331533Y0245152D01*
X0333231Y0243453D01*
X0333231Y0242604D01*
X0331957Y0241330D01*
X0329410Y0243878D01*
X0333288Y0245208D02*
X0334986Y0246907D01*
X0333288Y0247756D02*
X0333288Y0245208D01*
X0335836Y0245208D02*
X0333288Y0247756D01*
X0177993Y0157928D02*
X0177993Y0154325D01*
X0176792Y0154325D02*
X0179194Y0154325D01*
X0176792Y0156727D02*
X0177993Y0157928D01*
X0175510Y0157328D02*
X0174910Y0157928D01*
X0173709Y0157928D01*
X0173108Y0157328D01*
X0173108Y0156727D01*
X0173709Y0156127D01*
X0174910Y0156127D01*
X0175510Y0155526D01*
X0175510Y0154926D01*
X0174910Y0154325D01*
X0173709Y0154325D01*
X0173108Y0154926D01*
X0171827Y0154325D02*
X0171827Y0157928D01*
X0171827Y0156127D02*
X0169425Y0156127D01*
X0169425Y0157928D02*
X0169425Y0154325D01*
X0169602Y0221806D02*
X0170203Y0221806D01*
X0170803Y0222407D01*
X0170803Y0223608D01*
X0170203Y0224208D01*
X0169602Y0225490D02*
X0167200Y0225490D01*
X0167200Y0224208D02*
X0169602Y0221806D01*
X0167200Y0221806D02*
X0167200Y0224208D01*
X0169002Y0225490D02*
X0169002Y0227892D01*
X0169602Y0227892D02*
X0170803Y0226691D01*
X0169602Y0225490D01*
X0169602Y0227892D02*
X0167200Y0227892D01*
X0167801Y0229173D02*
X0170203Y0229173D01*
X0170803Y0229773D01*
X0170803Y0231575D01*
X0167200Y0231575D01*
X0167200Y0229773D01*
X0167801Y0229173D01*
X0127697Y0247916D02*
X0125295Y0247916D01*
X0126496Y0247916D02*
X0126496Y0251519D01*
X0125295Y0250318D01*
X0124013Y0247916D02*
X0121611Y0247916D01*
X0121611Y0251519D01*
X0088819Y0248571D02*
X0087618Y0247970D01*
X0086417Y0246769D01*
X0088219Y0246769D01*
X0088819Y0246169D01*
X0088819Y0245568D01*
X0088219Y0244968D01*
X0087018Y0244968D01*
X0086417Y0245568D01*
X0086417Y0246769D01*
X0085136Y0244968D02*
X0082734Y0244968D01*
X0083935Y0244968D02*
X0083935Y0248571D01*
X0082734Y0247370D01*
X0081453Y0247970D02*
X0080852Y0248571D01*
X0079651Y0248571D01*
X0079051Y0247970D01*
X0079051Y0245568D01*
X0079651Y0244968D01*
X0080852Y0244968D01*
X0081453Y0245568D01*
X0044901Y0172053D02*
X0044901Y0168450D01*
X0043700Y0168450D02*
X0046102Y0168450D01*
X0043700Y0170852D02*
X0044901Y0172053D01*
X0042419Y0171453D02*
X0041818Y0172053D01*
X0040617Y0172053D01*
X0040017Y0171453D01*
X0040017Y0169051D01*
X0040617Y0168450D01*
X0041818Y0168450D01*
X0042419Y0169051D01*
X0041818Y0089553D02*
X0040617Y0089553D01*
X0040017Y0088953D01*
X0040017Y0086551D01*
X0040617Y0085950D01*
X0041818Y0085950D01*
X0042419Y0086551D01*
X0043700Y0086551D02*
X0044301Y0085950D01*
X0045502Y0085950D01*
X0046102Y0086551D01*
X0046102Y0087151D01*
X0045502Y0087752D01*
X0044901Y0087752D01*
X0045502Y0087752D02*
X0046102Y0088352D01*
X0046102Y0088953D01*
X0045502Y0089553D01*
X0044301Y0089553D01*
X0043700Y0088953D01*
X0042419Y0088953D02*
X0041818Y0089553D01*
X0073452Y0051878D02*
X0074726Y0050605D01*
X0074726Y0049755D01*
X0073876Y0048906D01*
X0073027Y0048906D01*
X0071753Y0050180D01*
X0070904Y0049331D02*
X0073452Y0051878D01*
X0072602Y0049331D02*
X0072602Y0047632D01*
X0073508Y0046726D02*
X0076905Y0046726D01*
X0077330Y0047151D01*
X0077330Y0048000D01*
X0076481Y0048849D01*
X0075631Y0048849D01*
X0073508Y0046726D02*
X0075207Y0045028D01*
X0077387Y0045396D02*
X0079085Y0043697D01*
X0077387Y0042848D02*
X0079934Y0045396D01*
X0077387Y0045396D01*
X0129770Y0056404D02*
X0132318Y0058952D01*
X0133592Y0057678D01*
X0133592Y0056829D01*
X0132743Y0055979D01*
X0131893Y0055979D01*
X0130619Y0057253D01*
X0131469Y0056404D02*
X0131469Y0054706D01*
X0132375Y0053800D02*
X0135772Y0053800D01*
X0136196Y0054224D01*
X0136196Y0055074D01*
X0135347Y0055923D01*
X0134498Y0055923D01*
X0132375Y0053800D02*
X0134073Y0052101D01*
X0135404Y0051620D02*
X0135404Y0050771D01*
X0136253Y0049921D01*
X0137102Y0049921D01*
X0137527Y0050346D01*
X0137527Y0051195D01*
X0137102Y0051620D01*
X0137527Y0051195D02*
X0138376Y0051195D01*
X0138801Y0051620D01*
X0138801Y0052469D01*
X0137951Y0053318D01*
X0137102Y0053318D01*
D17*
X0025000Y0107250D03*
X0025000Y0151000D03*
X0320000Y0129750D03*
X0320000Y0172250D03*
D18*
X0076486Y0248219D02*
X0076255Y0248707D01*
X0076256Y0248707D02*
X0076525Y0248839D01*
X0076790Y0248977D01*
X0077052Y0249123D01*
X0077311Y0249274D01*
X0077565Y0249432D01*
X0077816Y0249595D01*
X0078063Y0249765D01*
X0078305Y0249941D01*
X0078543Y0250123D01*
X0078777Y0250311D01*
X0079005Y0250504D01*
X0079229Y0250703D01*
X0079448Y0250907D01*
X0079662Y0251117D01*
X0079871Y0251331D01*
X0080075Y0251551D01*
X0080273Y0251776D01*
X0080465Y0252005D01*
X0080652Y0252239D01*
X0080833Y0252478D01*
X0081008Y0252721D01*
X0081177Y0252968D01*
X0081340Y0253220D01*
X0081497Y0253475D01*
X0081648Y0253734D01*
X0081792Y0253996D01*
X0081930Y0254262D01*
X0082061Y0254531D01*
X0082185Y0254804D01*
X0082303Y0255079D01*
X0082414Y0255358D01*
X0082518Y0255638D01*
X0082615Y0255922D01*
X0082706Y0256207D01*
X0082789Y0256495D01*
X0082865Y0256785D01*
X0082934Y0257076D01*
X0082996Y0257369D01*
X0083051Y0257664D01*
X0083098Y0257959D01*
X0083138Y0258256D01*
X0083171Y0258554D01*
X0083197Y0258852D01*
X0083215Y0259151D01*
X0083226Y0259451D01*
X0083230Y0259750D01*
X0083226Y0260049D01*
X0083215Y0260349D01*
X0083197Y0260648D01*
X0083171Y0260946D01*
X0083138Y0261244D01*
X0083098Y0261541D01*
X0083051Y0261836D01*
X0082996Y0262131D01*
X0082934Y0262424D01*
X0082865Y0262715D01*
X0082789Y0263005D01*
X0082706Y0263293D01*
X0082615Y0263578D01*
X0082518Y0263862D01*
X0082414Y0264142D01*
X0082303Y0264421D01*
X0082185Y0264696D01*
X0082061Y0264969D01*
X0081930Y0265238D01*
X0081792Y0265504D01*
X0081648Y0265766D01*
X0081497Y0266025D01*
X0081340Y0266280D01*
X0081177Y0266532D01*
X0081008Y0266779D01*
X0080833Y0267022D01*
X0080652Y0267261D01*
X0080465Y0267495D01*
X0080273Y0267724D01*
X0080075Y0267949D01*
X0079871Y0268169D01*
X0079662Y0268383D01*
X0079448Y0268593D01*
X0079229Y0268797D01*
X0079005Y0268996D01*
X0078777Y0269189D01*
X0078543Y0269377D01*
X0078305Y0269559D01*
X0078063Y0269735D01*
X0077816Y0269905D01*
X0077565Y0270068D01*
X0077311Y0270226D01*
X0077052Y0270377D01*
X0076790Y0270523D01*
X0076525Y0270661D01*
X0076256Y0270793D01*
X0076486Y0271281D01*
X0076487Y0271281D01*
X0076767Y0271143D01*
X0077045Y0270999D01*
X0077318Y0270847D01*
X0077588Y0270689D01*
X0077854Y0270525D01*
X0078116Y0270354D01*
X0078374Y0270176D01*
X0078627Y0269992D01*
X0078875Y0269803D01*
X0079119Y0269607D01*
X0079358Y0269405D01*
X0079592Y0269197D01*
X0079821Y0268984D01*
X0080044Y0268765D01*
X0080262Y0268541D01*
X0080475Y0268311D01*
X0080682Y0268077D01*
X0080883Y0267837D01*
X0081078Y0267593D01*
X0081267Y0267344D01*
X0081450Y0267090D01*
X0081626Y0266832D01*
X0081797Y0266569D01*
X0081960Y0266303D01*
X0082118Y0266033D01*
X0082268Y0265758D01*
X0082412Y0265481D01*
X0082549Y0265199D01*
X0082679Y0264915D01*
X0082802Y0264627D01*
X0082918Y0264337D01*
X0083027Y0264044D01*
X0083128Y0263748D01*
X0083222Y0263450D01*
X0083309Y0263149D01*
X0083389Y0262847D01*
X0083461Y0262542D01*
X0083526Y0262236D01*
X0083583Y0261929D01*
X0083632Y0261620D01*
X0083674Y0261310D01*
X0083709Y0260999D01*
X0083736Y0260687D01*
X0083755Y0260375D01*
X0083766Y0260063D01*
X0083770Y0259750D01*
X0083766Y0259437D01*
X0083755Y0259125D01*
X0083736Y0258813D01*
X0083709Y0258501D01*
X0083674Y0258190D01*
X0083632Y0257880D01*
X0083583Y0257571D01*
X0083526Y0257264D01*
X0083461Y0256958D01*
X0083389Y0256653D01*
X0083309Y0256351D01*
X0083222Y0256050D01*
X0083128Y0255752D01*
X0083027Y0255456D01*
X0082918Y0255163D01*
X0082802Y0254873D01*
X0082679Y0254585D01*
X0082549Y0254301D01*
X0082412Y0254019D01*
X0082268Y0253742D01*
X0082118Y0253467D01*
X0081960Y0253197D01*
X0081797Y0252931D01*
X0081626Y0252668D01*
X0081450Y0252410D01*
X0081267Y0252156D01*
X0081078Y0251907D01*
X0080883Y0251663D01*
X0080682Y0251423D01*
X0080475Y0251189D01*
X0080262Y0250959D01*
X0080044Y0250735D01*
X0079821Y0250516D01*
X0079592Y0250303D01*
X0079358Y0250095D01*
X0079119Y0249893D01*
X0078875Y0249697D01*
X0078627Y0249508D01*
X0078374Y0249324D01*
X0078116Y0249146D01*
X0077854Y0248975D01*
X0077588Y0248811D01*
X0077318Y0248653D01*
X0077045Y0248501D01*
X0076767Y0248357D01*
X0076487Y0248219D01*
X0076463Y0248269D01*
X0076742Y0248407D01*
X0077018Y0248551D01*
X0077291Y0248701D01*
X0077559Y0248859D01*
X0077824Y0249023D01*
X0078085Y0249193D01*
X0078341Y0249370D01*
X0078593Y0249553D01*
X0078841Y0249742D01*
X0079084Y0249937D01*
X0079321Y0250138D01*
X0079554Y0250344D01*
X0079782Y0250557D01*
X0080005Y0250774D01*
X0080222Y0250998D01*
X0080433Y0251226D01*
X0080639Y0251460D01*
X0080839Y0251698D01*
X0081034Y0251942D01*
X0081222Y0252190D01*
X0081404Y0252442D01*
X0081580Y0252699D01*
X0081749Y0252961D01*
X0081912Y0253226D01*
X0082069Y0253495D01*
X0082219Y0253768D01*
X0082362Y0254045D01*
X0082498Y0254325D01*
X0082628Y0254608D01*
X0082750Y0254894D01*
X0082866Y0255183D01*
X0082974Y0255475D01*
X0083075Y0255770D01*
X0083169Y0256067D01*
X0083255Y0256366D01*
X0083335Y0256667D01*
X0083406Y0256970D01*
X0083471Y0257275D01*
X0083528Y0257581D01*
X0083577Y0257888D01*
X0083619Y0258197D01*
X0083653Y0258506D01*
X0083680Y0258817D01*
X0083699Y0259127D01*
X0083710Y0259439D01*
X0083714Y0259750D01*
X0083710Y0260061D01*
X0083699Y0260373D01*
X0083680Y0260683D01*
X0083653Y0260994D01*
X0083619Y0261303D01*
X0083577Y0261612D01*
X0083528Y0261919D01*
X0083471Y0262225D01*
X0083406Y0262530D01*
X0083335Y0262833D01*
X0083255Y0263134D01*
X0083169Y0263433D01*
X0083075Y0263730D01*
X0082974Y0264025D01*
X0082866Y0264317D01*
X0082750Y0264606D01*
X0082628Y0264892D01*
X0082498Y0265175D01*
X0082362Y0265455D01*
X0082219Y0265732D01*
X0082069Y0266005D01*
X0081912Y0266274D01*
X0081749Y0266539D01*
X0081580Y0266801D01*
X0081404Y0267058D01*
X0081222Y0267310D01*
X0081034Y0267558D01*
X0080839Y0267802D01*
X0080639Y0268040D01*
X0080433Y0268274D01*
X0080222Y0268502D01*
X0080005Y0268726D01*
X0079782Y0268943D01*
X0079554Y0269156D01*
X0079321Y0269362D01*
X0079084Y0269563D01*
X0078841Y0269758D01*
X0078593Y0269947D01*
X0078341Y0270130D01*
X0078085Y0270307D01*
X0077824Y0270477D01*
X0077559Y0270641D01*
X0077291Y0270799D01*
X0077018Y0270949D01*
X0076742Y0271093D01*
X0076463Y0271231D01*
X0076439Y0271180D01*
X0076717Y0271043D01*
X0076992Y0270900D01*
X0077263Y0270750D01*
X0077531Y0270593D01*
X0077794Y0270430D01*
X0078054Y0270260D01*
X0078309Y0270085D01*
X0078560Y0269902D01*
X0078806Y0269714D01*
X0079048Y0269520D01*
X0079285Y0269320D01*
X0079517Y0269114D01*
X0079744Y0268903D01*
X0079965Y0268686D01*
X0080181Y0268464D01*
X0080392Y0268236D01*
X0080597Y0268004D01*
X0080796Y0267766D01*
X0080990Y0267524D01*
X0081177Y0267277D01*
X0081358Y0267025D01*
X0081533Y0266770D01*
X0081702Y0266509D01*
X0081864Y0266245D01*
X0082020Y0265977D01*
X0082169Y0265706D01*
X0082312Y0265430D01*
X0082448Y0265152D01*
X0082576Y0264870D01*
X0082698Y0264584D01*
X0082813Y0264297D01*
X0082921Y0264006D01*
X0083022Y0263713D01*
X0083115Y0263417D01*
X0083201Y0263119D01*
X0083280Y0262819D01*
X0083352Y0262518D01*
X0083416Y0262214D01*
X0083472Y0261910D01*
X0083522Y0261603D01*
X0083563Y0261296D01*
X0083597Y0260988D01*
X0083624Y0260679D01*
X0083643Y0260370D01*
X0083654Y0260060D01*
X0083658Y0259750D01*
X0083654Y0259440D01*
X0083643Y0259130D01*
X0083624Y0258821D01*
X0083597Y0258512D01*
X0083563Y0258204D01*
X0083522Y0257897D01*
X0083472Y0257590D01*
X0083416Y0257286D01*
X0083352Y0256982D01*
X0083280Y0256681D01*
X0083201Y0256381D01*
X0083115Y0256083D01*
X0083022Y0255787D01*
X0082921Y0255494D01*
X0082813Y0255203D01*
X0082698Y0254916D01*
X0082576Y0254630D01*
X0082448Y0254348D01*
X0082312Y0254070D01*
X0082169Y0253794D01*
X0082020Y0253523D01*
X0081864Y0253255D01*
X0081702Y0252991D01*
X0081533Y0252730D01*
X0081358Y0252475D01*
X0081177Y0252223D01*
X0080990Y0251976D01*
X0080796Y0251734D01*
X0080597Y0251496D01*
X0080392Y0251264D01*
X0080181Y0251036D01*
X0079965Y0250814D01*
X0079744Y0250597D01*
X0079517Y0250386D01*
X0079285Y0250180D01*
X0079048Y0249980D01*
X0078806Y0249786D01*
X0078560Y0249598D01*
X0078309Y0249415D01*
X0078054Y0249240D01*
X0077794Y0249070D01*
X0077531Y0248907D01*
X0077263Y0248750D01*
X0076992Y0248600D01*
X0076717Y0248457D01*
X0076439Y0248320D01*
X0076415Y0248371D01*
X0076692Y0248507D01*
X0076966Y0248649D01*
X0077236Y0248799D01*
X0077502Y0248955D01*
X0077764Y0249117D01*
X0078023Y0249286D01*
X0078277Y0249461D01*
X0078527Y0249643D01*
X0078772Y0249830D01*
X0079013Y0250023D01*
X0079248Y0250222D01*
X0079479Y0250427D01*
X0079705Y0250638D01*
X0079926Y0250854D01*
X0080141Y0251075D01*
X0080350Y0251301D01*
X0080555Y0251533D01*
X0080753Y0251769D01*
X0080945Y0252011D01*
X0081132Y0252256D01*
X0081312Y0252507D01*
X0081487Y0252762D01*
X0081655Y0253020D01*
X0081816Y0253283D01*
X0081971Y0253550D01*
X0082120Y0253821D01*
X0082262Y0254095D01*
X0082397Y0254372D01*
X0082525Y0254653D01*
X0082647Y0254937D01*
X0082761Y0255224D01*
X0082868Y0255513D01*
X0082969Y0255805D01*
X0083062Y0256099D01*
X0083147Y0256396D01*
X0083226Y0256694D01*
X0083297Y0256995D01*
X0083361Y0257297D01*
X0083417Y0257600D01*
X0083466Y0257905D01*
X0083508Y0258211D01*
X0083542Y0258517D01*
X0083568Y0258825D01*
X0083587Y0259133D01*
X0083598Y0259441D01*
X0083602Y0259750D01*
X0083598Y0260059D01*
X0083587Y0260367D01*
X0083568Y0260675D01*
X0083542Y0260983D01*
X0083508Y0261289D01*
X0083466Y0261595D01*
X0083417Y0261900D01*
X0083361Y0262203D01*
X0083297Y0262505D01*
X0083226Y0262806D01*
X0083147Y0263104D01*
X0083062Y0263401D01*
X0082969Y0263695D01*
X0082868Y0263987D01*
X0082761Y0264276D01*
X0082647Y0264563D01*
X0082525Y0264847D01*
X0082397Y0265128D01*
X0082262Y0265405D01*
X0082120Y0265679D01*
X0081971Y0265950D01*
X0081816Y0266217D01*
X0081655Y0266480D01*
X0081487Y0266738D01*
X0081312Y0266993D01*
X0081132Y0267244D01*
X0080945Y0267489D01*
X0080753Y0267731D01*
X0080555Y0267967D01*
X0080350Y0268199D01*
X0080141Y0268425D01*
X0079926Y0268646D01*
X0079705Y0268862D01*
X0079479Y0269073D01*
X0079248Y0269278D01*
X0079013Y0269477D01*
X0078772Y0269670D01*
X0078527Y0269857D01*
X0078277Y0270039D01*
X0078023Y0270214D01*
X0077764Y0270383D01*
X0077502Y0270545D01*
X0077236Y0270701D01*
X0076966Y0270851D01*
X0076692Y0270993D01*
X0076415Y0271129D01*
X0076391Y0271079D01*
X0076667Y0270943D01*
X0076939Y0270801D01*
X0077208Y0270652D01*
X0077473Y0270497D01*
X0077734Y0270335D01*
X0077992Y0270167D01*
X0078245Y0269993D01*
X0078493Y0269812D01*
X0078737Y0269626D01*
X0078977Y0269433D01*
X0079212Y0269235D01*
X0079442Y0269031D01*
X0079666Y0268822D01*
X0079886Y0268607D01*
X0080100Y0268387D01*
X0080309Y0268161D01*
X0080512Y0267931D01*
X0080710Y0267695D01*
X0080901Y0267455D01*
X0081087Y0267210D01*
X0081267Y0266961D01*
X0081440Y0266707D01*
X0081607Y0266450D01*
X0081768Y0266188D01*
X0081923Y0265922D01*
X0082071Y0265653D01*
X0082212Y0265380D01*
X0082346Y0265104D01*
X0082474Y0264824D01*
X0082595Y0264542D01*
X0082709Y0264256D01*
X0082816Y0263968D01*
X0082915Y0263677D01*
X0083008Y0263385D01*
X0083093Y0263089D01*
X0083172Y0262792D01*
X0083242Y0262493D01*
X0083306Y0262193D01*
X0083362Y0261890D01*
X0083411Y0261587D01*
X0083452Y0261283D01*
X0083486Y0260977D01*
X0083512Y0260671D01*
X0083531Y0260364D01*
X0083542Y0260057D01*
X0083546Y0259750D01*
X0083542Y0259443D01*
X0083531Y0259136D01*
X0083512Y0258829D01*
X0083486Y0258523D01*
X0083452Y0258217D01*
X0083411Y0257913D01*
X0083362Y0257610D01*
X0083306Y0257307D01*
X0083242Y0257007D01*
X0083172Y0256708D01*
X0083093Y0256411D01*
X0083008Y0256115D01*
X0082915Y0255823D01*
X0082816Y0255532D01*
X0082709Y0255244D01*
X0082595Y0254958D01*
X0082474Y0254676D01*
X0082346Y0254396D01*
X0082212Y0254120D01*
X0082071Y0253847D01*
X0081923Y0253578D01*
X0081768Y0253312D01*
X0081607Y0253050D01*
X0081440Y0252793D01*
X0081267Y0252539D01*
X0081087Y0252290D01*
X0080901Y0252045D01*
X0080710Y0251805D01*
X0080512Y0251569D01*
X0080309Y0251339D01*
X0080100Y0251113D01*
X0079886Y0250893D01*
X0079666Y0250678D01*
X0079442Y0250469D01*
X0079212Y0250265D01*
X0078977Y0250067D01*
X0078737Y0249874D01*
X0078493Y0249688D01*
X0078245Y0249507D01*
X0077992Y0249333D01*
X0077734Y0249165D01*
X0077473Y0249003D01*
X0077208Y0248848D01*
X0076939Y0248699D01*
X0076667Y0248557D01*
X0076391Y0248421D01*
X0076367Y0248472D01*
X0076642Y0248607D01*
X0076913Y0248748D01*
X0077180Y0248896D01*
X0077444Y0249051D01*
X0077704Y0249212D01*
X0077960Y0249379D01*
X0078212Y0249553D01*
X0078460Y0249733D01*
X0078703Y0249918D01*
X0078941Y0250110D01*
X0079175Y0250307D01*
X0079404Y0250510D01*
X0079628Y0250719D01*
X0079846Y0250933D01*
X0080060Y0251152D01*
X0080267Y0251377D01*
X0080470Y0251606D01*
X0080666Y0251840D01*
X0080857Y0252079D01*
X0081042Y0252323D01*
X0081221Y0252571D01*
X0081394Y0252824D01*
X0081560Y0253080D01*
X0081720Y0253341D01*
X0081874Y0253605D01*
X0082021Y0253874D01*
X0082162Y0254145D01*
X0082296Y0254420D01*
X0082423Y0254699D01*
X0082543Y0254980D01*
X0082657Y0255264D01*
X0082763Y0255551D01*
X0082862Y0255840D01*
X0082954Y0256132D01*
X0083039Y0256426D01*
X0083117Y0256721D01*
X0083188Y0257019D01*
X0083251Y0257318D01*
X0083307Y0257619D01*
X0083355Y0257921D01*
X0083396Y0258224D01*
X0083430Y0258528D01*
X0083456Y0258833D01*
X0083475Y0259138D01*
X0083486Y0259444D01*
X0083490Y0259750D01*
X0083486Y0260056D01*
X0083475Y0260362D01*
X0083456Y0260667D01*
X0083430Y0260972D01*
X0083396Y0261276D01*
X0083355Y0261579D01*
X0083307Y0261881D01*
X0083251Y0262182D01*
X0083188Y0262481D01*
X0083117Y0262779D01*
X0083039Y0263074D01*
X0082954Y0263368D01*
X0082862Y0263660D01*
X0082763Y0263949D01*
X0082657Y0264236D01*
X0082543Y0264520D01*
X0082423Y0264801D01*
X0082296Y0265080D01*
X0082162Y0265355D01*
X0082021Y0265626D01*
X0081874Y0265895D01*
X0081720Y0266159D01*
X0081560Y0266420D01*
X0081394Y0266676D01*
X0081221Y0266929D01*
X0081042Y0267177D01*
X0080857Y0267421D01*
X0080666Y0267660D01*
X0080470Y0267894D01*
X0080267Y0268123D01*
X0080060Y0268348D01*
X0079846Y0268567D01*
X0079628Y0268781D01*
X0079404Y0268990D01*
X0079175Y0269193D01*
X0078941Y0269390D01*
X0078703Y0269582D01*
X0078460Y0269767D01*
X0078212Y0269947D01*
X0077960Y0270121D01*
X0077704Y0270288D01*
X0077444Y0270449D01*
X0077180Y0270604D01*
X0076913Y0270752D01*
X0076642Y0270893D01*
X0076367Y0271028D01*
X0076343Y0270978D01*
X0076616Y0270843D01*
X0076886Y0270702D01*
X0077153Y0270555D01*
X0077416Y0270401D01*
X0077674Y0270241D01*
X0077929Y0270074D01*
X0078180Y0269901D01*
X0078427Y0269722D01*
X0078669Y0269538D01*
X0078906Y0269347D01*
X0079139Y0269150D01*
X0079366Y0268948D01*
X0079589Y0268741D01*
X0079807Y0268528D01*
X0080019Y0268309D01*
X0080226Y0268086D01*
X0080427Y0267857D01*
X0080623Y0267624D01*
X0080813Y0267386D01*
X0080997Y0267143D01*
X0081175Y0266896D01*
X0081347Y0266645D01*
X0081513Y0266390D01*
X0081672Y0266130D01*
X0081825Y0265867D01*
X0081972Y0265600D01*
X0082112Y0265330D01*
X0082245Y0265056D01*
X0082372Y0264779D01*
X0082491Y0264499D01*
X0082604Y0264216D01*
X0082710Y0263930D01*
X0082809Y0263642D01*
X0082901Y0263352D01*
X0082985Y0263059D01*
X0083063Y0262765D01*
X0083133Y0262469D01*
X0083196Y0262171D01*
X0083252Y0261871D01*
X0083300Y0261571D01*
X0083341Y0261269D01*
X0083374Y0260966D01*
X0083400Y0260663D01*
X0083419Y0260359D01*
X0083430Y0260055D01*
X0083434Y0259750D01*
X0083430Y0259445D01*
X0083419Y0259141D01*
X0083400Y0258837D01*
X0083374Y0258534D01*
X0083341Y0258231D01*
X0083300Y0257929D01*
X0083252Y0257629D01*
X0083196Y0257329D01*
X0083133Y0257031D01*
X0083063Y0256735D01*
X0082985Y0256441D01*
X0082901Y0256148D01*
X0082809Y0255858D01*
X0082710Y0255570D01*
X0082604Y0255284D01*
X0082491Y0255001D01*
X0082372Y0254721D01*
X0082245Y0254444D01*
X0082112Y0254170D01*
X0081972Y0253900D01*
X0081825Y0253633D01*
X0081672Y0253370D01*
X0081513Y0253110D01*
X0081347Y0252855D01*
X0081175Y0252604D01*
X0080997Y0252357D01*
X0080813Y0252114D01*
X0080623Y0251876D01*
X0080427Y0251643D01*
X0080226Y0251414D01*
X0080019Y0251191D01*
X0079807Y0250972D01*
X0079589Y0250759D01*
X0079366Y0250552D01*
X0079139Y0250350D01*
X0078906Y0250153D01*
X0078669Y0249962D01*
X0078427Y0249778D01*
X0078180Y0249599D01*
X0077929Y0249426D01*
X0077674Y0249259D01*
X0077416Y0249099D01*
X0077153Y0248945D01*
X0076886Y0248798D01*
X0076616Y0248657D01*
X0076343Y0248522D01*
X0076319Y0248573D01*
X0076591Y0248707D01*
X0076860Y0248847D01*
X0077125Y0248994D01*
X0077387Y0249147D01*
X0077645Y0249307D01*
X0077898Y0249472D01*
X0078148Y0249644D01*
X0078393Y0249823D01*
X0078634Y0250007D01*
X0078870Y0250196D01*
X0079102Y0250392D01*
X0079329Y0250593D01*
X0079551Y0250800D01*
X0079767Y0251012D01*
X0079978Y0251229D01*
X0080184Y0251452D01*
X0080385Y0251679D01*
X0080580Y0251911D01*
X0080769Y0252148D01*
X0080952Y0252390D01*
X0081129Y0252636D01*
X0081301Y0252886D01*
X0081466Y0253140D01*
X0081624Y0253399D01*
X0081777Y0253661D01*
X0081922Y0253926D01*
X0082062Y0254196D01*
X0082195Y0254468D01*
X0082321Y0254744D01*
X0082440Y0255023D01*
X0082552Y0255304D01*
X0082657Y0255588D01*
X0082756Y0255875D01*
X0082847Y0256164D01*
X0082932Y0256455D01*
X0083009Y0256749D01*
X0083079Y0257044D01*
X0083141Y0257340D01*
X0083197Y0257638D01*
X0083245Y0257938D01*
X0083285Y0258238D01*
X0083319Y0258539D01*
X0083345Y0258841D01*
X0083363Y0259144D01*
X0083374Y0259447D01*
X0083378Y0259750D01*
X0083374Y0260053D01*
X0083363Y0260356D01*
X0083345Y0260659D01*
X0083319Y0260961D01*
X0083285Y0261262D01*
X0083245Y0261562D01*
X0083197Y0261862D01*
X0083141Y0262160D01*
X0083079Y0262456D01*
X0083009Y0262751D01*
X0082932Y0263045D01*
X0082847Y0263336D01*
X0082756Y0263625D01*
X0082657Y0263912D01*
X0082552Y0264196D01*
X0082440Y0264477D01*
X0082321Y0264756D01*
X0082195Y0265032D01*
X0082062Y0265304D01*
X0081922Y0265574D01*
X0081777Y0265839D01*
X0081624Y0266101D01*
X0081466Y0266360D01*
X0081301Y0266614D01*
X0081129Y0266864D01*
X0080952Y0267110D01*
X0080769Y0267352D01*
X0080580Y0267589D01*
X0080385Y0267821D01*
X0080184Y0268048D01*
X0079978Y0268271D01*
X0079767Y0268488D01*
X0079551Y0268700D01*
X0079329Y0268907D01*
X0079102Y0269108D01*
X0078870Y0269304D01*
X0078634Y0269493D01*
X0078393Y0269677D01*
X0078148Y0269856D01*
X0077898Y0270028D01*
X0077645Y0270193D01*
X0077387Y0270353D01*
X0077125Y0270506D01*
X0076860Y0270653D01*
X0076591Y0270793D01*
X0076319Y0270927D01*
X0076295Y0270876D01*
X0076566Y0270743D01*
X0076834Y0270604D01*
X0077098Y0270458D01*
X0077358Y0270305D01*
X0077615Y0270146D01*
X0077867Y0269981D01*
X0078116Y0269810D01*
X0078360Y0269633D01*
X0078600Y0269449D01*
X0078835Y0269260D01*
X0079065Y0269066D01*
X0079291Y0268865D01*
X0079512Y0268659D01*
X0079728Y0268448D01*
X0079938Y0268232D01*
X0080143Y0268011D01*
X0080343Y0267784D01*
X0080536Y0267553D01*
X0080725Y0267317D01*
X0080907Y0267077D01*
X0081084Y0266832D01*
X0081254Y0266583D01*
X0081418Y0266330D01*
X0081576Y0266073D01*
X0081728Y0265812D01*
X0081873Y0265547D01*
X0082012Y0265279D01*
X0082144Y0265008D01*
X0082269Y0264733D01*
X0082388Y0264456D01*
X0082500Y0264176D01*
X0082605Y0263893D01*
X0082703Y0263607D01*
X0082794Y0263319D01*
X0082878Y0263030D01*
X0082954Y0262738D01*
X0083024Y0262444D01*
X0083086Y0262149D01*
X0083141Y0261852D01*
X0083189Y0261554D01*
X0083230Y0261255D01*
X0083263Y0260955D01*
X0083289Y0260655D01*
X0083307Y0260353D01*
X0083318Y0260052D01*
X0083322Y0259750D01*
X0083318Y0259448D01*
X0083307Y0259147D01*
X0083289Y0258845D01*
X0083263Y0258545D01*
X0083230Y0258245D01*
X0083189Y0257946D01*
X0083141Y0257648D01*
X0083086Y0257351D01*
X0083024Y0257056D01*
X0082954Y0256762D01*
X0082878Y0256470D01*
X0082794Y0256181D01*
X0082703Y0255893D01*
X0082605Y0255607D01*
X0082500Y0255324D01*
X0082388Y0255044D01*
X0082269Y0254767D01*
X0082144Y0254492D01*
X0082012Y0254221D01*
X0081873Y0253953D01*
X0081728Y0253688D01*
X0081576Y0253427D01*
X0081418Y0253170D01*
X0081254Y0252917D01*
X0081084Y0252668D01*
X0080907Y0252423D01*
X0080725Y0252183D01*
X0080536Y0251947D01*
X0080343Y0251716D01*
X0080143Y0251489D01*
X0079938Y0251268D01*
X0079728Y0251052D01*
X0079512Y0250841D01*
X0079291Y0250635D01*
X0079065Y0250434D01*
X0078835Y0250240D01*
X0078600Y0250051D01*
X0078360Y0249867D01*
X0078116Y0249690D01*
X0077867Y0249519D01*
X0077615Y0249354D01*
X0077358Y0249195D01*
X0077098Y0249042D01*
X0076834Y0248896D01*
X0076566Y0248757D01*
X0076295Y0248624D01*
X0076271Y0248674D01*
X0076541Y0248807D01*
X0076807Y0248946D01*
X0077070Y0249091D01*
X0077329Y0249243D01*
X0077585Y0249401D01*
X0077836Y0249566D01*
X0078083Y0249736D01*
X0078326Y0249912D01*
X0078565Y0250095D01*
X0078799Y0250283D01*
X0079029Y0250477D01*
X0079254Y0250676D01*
X0079473Y0250881D01*
X0079688Y0251091D01*
X0079897Y0251307D01*
X0080101Y0251527D01*
X0080300Y0251752D01*
X0080493Y0251982D01*
X0080681Y0252217D01*
X0080862Y0252457D01*
X0081038Y0252700D01*
X0081207Y0252948D01*
X0081371Y0253200D01*
X0081528Y0253456D01*
X0081679Y0253716D01*
X0081824Y0253979D01*
X0081962Y0254246D01*
X0082093Y0254516D01*
X0082218Y0254789D01*
X0082336Y0255066D01*
X0082448Y0255345D01*
X0082552Y0255626D01*
X0082650Y0255910D01*
X0082740Y0256197D01*
X0082824Y0256485D01*
X0082900Y0256776D01*
X0082969Y0257068D01*
X0083031Y0257362D01*
X0083086Y0257657D01*
X0083134Y0257954D01*
X0083174Y0258252D01*
X0083207Y0258550D01*
X0083233Y0258850D01*
X0083251Y0259149D01*
X0083262Y0259450D01*
X0083266Y0259750D01*
X0083262Y0260050D01*
X0083251Y0260351D01*
X0083233Y0260650D01*
X0083207Y0260950D01*
X0083174Y0261248D01*
X0083134Y0261546D01*
X0083086Y0261843D01*
X0083031Y0262138D01*
X0082969Y0262432D01*
X0082900Y0262724D01*
X0082824Y0263015D01*
X0082740Y0263303D01*
X0082650Y0263590D01*
X0082552Y0263874D01*
X0082448Y0264155D01*
X0082336Y0264434D01*
X0082218Y0264711D01*
X0082093Y0264984D01*
X0081962Y0265254D01*
X0081824Y0265521D01*
X0081679Y0265784D01*
X0081528Y0266044D01*
X0081371Y0266300D01*
X0081207Y0266552D01*
X0081038Y0266800D01*
X0080862Y0267043D01*
X0080681Y0267283D01*
X0080493Y0267518D01*
X0080300Y0267748D01*
X0080101Y0267973D01*
X0079897Y0268193D01*
X0079688Y0268409D01*
X0079473Y0268619D01*
X0079254Y0268824D01*
X0079029Y0269023D01*
X0078799Y0269217D01*
X0078565Y0269405D01*
X0078326Y0269588D01*
X0078083Y0269764D01*
X0077836Y0269934D01*
X0077585Y0270099D01*
X0077329Y0270257D01*
X0077070Y0270409D01*
X0076807Y0270554D01*
X0076541Y0270693D01*
X0076271Y0270826D01*
X0065514Y0271281D02*
X0065745Y0270793D01*
X0065744Y0270793D02*
X0065475Y0270661D01*
X0065210Y0270523D01*
X0064948Y0270377D01*
X0064689Y0270226D01*
X0064435Y0270068D01*
X0064184Y0269905D01*
X0063937Y0269735D01*
X0063695Y0269559D01*
X0063457Y0269377D01*
X0063223Y0269189D01*
X0062995Y0268996D01*
X0062771Y0268797D01*
X0062552Y0268593D01*
X0062338Y0268383D01*
X0062129Y0268169D01*
X0061925Y0267949D01*
X0061727Y0267724D01*
X0061535Y0267495D01*
X0061348Y0267261D01*
X0061167Y0267022D01*
X0060992Y0266779D01*
X0060823Y0266532D01*
X0060660Y0266280D01*
X0060503Y0266025D01*
X0060352Y0265766D01*
X0060208Y0265504D01*
X0060070Y0265238D01*
X0059939Y0264969D01*
X0059815Y0264696D01*
X0059697Y0264421D01*
X0059586Y0264142D01*
X0059482Y0263862D01*
X0059385Y0263578D01*
X0059294Y0263293D01*
X0059211Y0263005D01*
X0059135Y0262715D01*
X0059066Y0262424D01*
X0059004Y0262131D01*
X0058949Y0261836D01*
X0058902Y0261541D01*
X0058862Y0261244D01*
X0058829Y0260946D01*
X0058803Y0260648D01*
X0058785Y0260349D01*
X0058774Y0260049D01*
X0058770Y0259750D01*
X0058774Y0259451D01*
X0058785Y0259151D01*
X0058803Y0258852D01*
X0058829Y0258554D01*
X0058862Y0258256D01*
X0058902Y0257959D01*
X0058949Y0257664D01*
X0059004Y0257369D01*
X0059066Y0257076D01*
X0059135Y0256785D01*
X0059211Y0256495D01*
X0059294Y0256207D01*
X0059385Y0255922D01*
X0059482Y0255638D01*
X0059586Y0255358D01*
X0059697Y0255079D01*
X0059815Y0254804D01*
X0059939Y0254531D01*
X0060070Y0254262D01*
X0060208Y0253996D01*
X0060352Y0253734D01*
X0060503Y0253475D01*
X0060660Y0253220D01*
X0060823Y0252968D01*
X0060992Y0252721D01*
X0061167Y0252478D01*
X0061348Y0252239D01*
X0061535Y0252005D01*
X0061727Y0251776D01*
X0061925Y0251551D01*
X0062129Y0251331D01*
X0062338Y0251117D01*
X0062552Y0250907D01*
X0062771Y0250703D01*
X0062995Y0250504D01*
X0063223Y0250311D01*
X0063457Y0250123D01*
X0063695Y0249941D01*
X0063937Y0249765D01*
X0064184Y0249595D01*
X0064435Y0249432D01*
X0064689Y0249274D01*
X0064948Y0249123D01*
X0065210Y0248977D01*
X0065475Y0248839D01*
X0065744Y0248707D01*
X0065514Y0248219D01*
X0065513Y0248219D01*
X0065233Y0248357D01*
X0064955Y0248501D01*
X0064682Y0248653D01*
X0064412Y0248811D01*
X0064146Y0248975D01*
X0063884Y0249146D01*
X0063626Y0249324D01*
X0063373Y0249508D01*
X0063125Y0249697D01*
X0062881Y0249893D01*
X0062642Y0250095D01*
X0062408Y0250303D01*
X0062179Y0250516D01*
X0061956Y0250735D01*
X0061738Y0250959D01*
X0061525Y0251189D01*
X0061318Y0251423D01*
X0061117Y0251663D01*
X0060922Y0251907D01*
X0060733Y0252156D01*
X0060550Y0252410D01*
X0060374Y0252668D01*
X0060203Y0252931D01*
X0060040Y0253197D01*
X0059882Y0253467D01*
X0059732Y0253742D01*
X0059588Y0254019D01*
X0059451Y0254301D01*
X0059321Y0254585D01*
X0059198Y0254873D01*
X0059082Y0255163D01*
X0058973Y0255456D01*
X0058872Y0255752D01*
X0058778Y0256050D01*
X0058691Y0256351D01*
X0058611Y0256653D01*
X0058539Y0256958D01*
X0058474Y0257264D01*
X0058417Y0257571D01*
X0058368Y0257880D01*
X0058326Y0258190D01*
X0058291Y0258501D01*
X0058264Y0258813D01*
X0058245Y0259125D01*
X0058234Y0259437D01*
X0058230Y0259750D01*
X0058234Y0260063D01*
X0058245Y0260375D01*
X0058264Y0260687D01*
X0058291Y0260999D01*
X0058326Y0261310D01*
X0058368Y0261620D01*
X0058417Y0261929D01*
X0058474Y0262236D01*
X0058539Y0262542D01*
X0058611Y0262847D01*
X0058691Y0263149D01*
X0058778Y0263450D01*
X0058872Y0263748D01*
X0058973Y0264044D01*
X0059082Y0264337D01*
X0059198Y0264627D01*
X0059321Y0264915D01*
X0059451Y0265199D01*
X0059588Y0265481D01*
X0059732Y0265758D01*
X0059882Y0266033D01*
X0060040Y0266303D01*
X0060203Y0266569D01*
X0060374Y0266832D01*
X0060550Y0267090D01*
X0060733Y0267344D01*
X0060922Y0267593D01*
X0061117Y0267837D01*
X0061318Y0268077D01*
X0061525Y0268311D01*
X0061738Y0268541D01*
X0061956Y0268765D01*
X0062179Y0268984D01*
X0062408Y0269197D01*
X0062642Y0269405D01*
X0062881Y0269607D01*
X0063125Y0269803D01*
X0063373Y0269992D01*
X0063626Y0270176D01*
X0063884Y0270354D01*
X0064146Y0270525D01*
X0064412Y0270689D01*
X0064682Y0270847D01*
X0064955Y0270999D01*
X0065233Y0271143D01*
X0065513Y0271281D01*
X0065537Y0271231D01*
X0065258Y0271093D01*
X0064982Y0270949D01*
X0064709Y0270799D01*
X0064441Y0270641D01*
X0064176Y0270477D01*
X0063915Y0270307D01*
X0063659Y0270130D01*
X0063407Y0269947D01*
X0063159Y0269758D01*
X0062916Y0269563D01*
X0062679Y0269362D01*
X0062446Y0269156D01*
X0062218Y0268943D01*
X0061995Y0268726D01*
X0061778Y0268502D01*
X0061567Y0268274D01*
X0061361Y0268040D01*
X0061161Y0267802D01*
X0060966Y0267558D01*
X0060778Y0267310D01*
X0060596Y0267058D01*
X0060420Y0266801D01*
X0060251Y0266539D01*
X0060088Y0266274D01*
X0059931Y0266005D01*
X0059781Y0265732D01*
X0059638Y0265455D01*
X0059502Y0265175D01*
X0059372Y0264892D01*
X0059250Y0264606D01*
X0059134Y0264317D01*
X0059026Y0264025D01*
X0058925Y0263730D01*
X0058831Y0263433D01*
X0058745Y0263134D01*
X0058665Y0262833D01*
X0058594Y0262530D01*
X0058529Y0262225D01*
X0058472Y0261919D01*
X0058423Y0261612D01*
X0058381Y0261303D01*
X0058347Y0260994D01*
X0058320Y0260683D01*
X0058301Y0260373D01*
X0058290Y0260061D01*
X0058286Y0259750D01*
X0058290Y0259439D01*
X0058301Y0259127D01*
X0058320Y0258817D01*
X0058347Y0258506D01*
X0058381Y0258197D01*
X0058423Y0257888D01*
X0058472Y0257581D01*
X0058529Y0257275D01*
X0058594Y0256970D01*
X0058665Y0256667D01*
X0058745Y0256366D01*
X0058831Y0256067D01*
X0058925Y0255770D01*
X0059026Y0255475D01*
X0059134Y0255183D01*
X0059250Y0254894D01*
X0059372Y0254608D01*
X0059502Y0254325D01*
X0059638Y0254045D01*
X0059781Y0253768D01*
X0059931Y0253495D01*
X0060088Y0253226D01*
X0060251Y0252961D01*
X0060420Y0252699D01*
X0060596Y0252442D01*
X0060778Y0252190D01*
X0060966Y0251942D01*
X0061161Y0251698D01*
X0061361Y0251460D01*
X0061567Y0251226D01*
X0061778Y0250998D01*
X0061995Y0250774D01*
X0062218Y0250557D01*
X0062446Y0250344D01*
X0062679Y0250138D01*
X0062916Y0249937D01*
X0063159Y0249742D01*
X0063407Y0249553D01*
X0063659Y0249370D01*
X0063915Y0249193D01*
X0064176Y0249023D01*
X0064441Y0248859D01*
X0064709Y0248701D01*
X0064982Y0248551D01*
X0065258Y0248407D01*
X0065537Y0248269D01*
X0065561Y0248320D01*
X0065283Y0248457D01*
X0065008Y0248600D01*
X0064737Y0248750D01*
X0064469Y0248907D01*
X0064206Y0249070D01*
X0063946Y0249240D01*
X0063691Y0249415D01*
X0063440Y0249598D01*
X0063194Y0249786D01*
X0062952Y0249980D01*
X0062715Y0250180D01*
X0062483Y0250386D01*
X0062256Y0250597D01*
X0062035Y0250814D01*
X0061819Y0251036D01*
X0061608Y0251264D01*
X0061403Y0251496D01*
X0061204Y0251734D01*
X0061010Y0251976D01*
X0060823Y0252223D01*
X0060642Y0252475D01*
X0060467Y0252730D01*
X0060298Y0252991D01*
X0060136Y0253255D01*
X0059980Y0253523D01*
X0059831Y0253794D01*
X0059688Y0254070D01*
X0059552Y0254348D01*
X0059424Y0254630D01*
X0059302Y0254916D01*
X0059187Y0255203D01*
X0059079Y0255494D01*
X0058978Y0255787D01*
X0058885Y0256083D01*
X0058799Y0256381D01*
X0058720Y0256681D01*
X0058648Y0256982D01*
X0058584Y0257286D01*
X0058528Y0257590D01*
X0058478Y0257897D01*
X0058437Y0258204D01*
X0058403Y0258512D01*
X0058376Y0258821D01*
X0058357Y0259130D01*
X0058346Y0259440D01*
X0058342Y0259750D01*
X0058346Y0260060D01*
X0058357Y0260370D01*
X0058376Y0260679D01*
X0058403Y0260988D01*
X0058437Y0261296D01*
X0058478Y0261603D01*
X0058528Y0261910D01*
X0058584Y0262214D01*
X0058648Y0262518D01*
X0058720Y0262819D01*
X0058799Y0263119D01*
X0058885Y0263417D01*
X0058978Y0263713D01*
X0059079Y0264006D01*
X0059187Y0264297D01*
X0059302Y0264584D01*
X0059424Y0264870D01*
X0059552Y0265152D01*
X0059688Y0265430D01*
X0059831Y0265706D01*
X0059980Y0265977D01*
X0060136Y0266245D01*
X0060298Y0266509D01*
X0060467Y0266770D01*
X0060642Y0267025D01*
X0060823Y0267277D01*
X0061010Y0267524D01*
X0061204Y0267766D01*
X0061403Y0268004D01*
X0061608Y0268236D01*
X0061819Y0268464D01*
X0062035Y0268686D01*
X0062256Y0268903D01*
X0062483Y0269114D01*
X0062715Y0269320D01*
X0062952Y0269520D01*
X0063194Y0269714D01*
X0063440Y0269902D01*
X0063691Y0270085D01*
X0063946Y0270260D01*
X0064206Y0270430D01*
X0064469Y0270593D01*
X0064737Y0270750D01*
X0065008Y0270900D01*
X0065283Y0271043D01*
X0065561Y0271180D01*
X0065585Y0271129D01*
X0065308Y0270993D01*
X0065034Y0270851D01*
X0064764Y0270701D01*
X0064498Y0270545D01*
X0064236Y0270383D01*
X0063977Y0270214D01*
X0063723Y0270039D01*
X0063473Y0269857D01*
X0063228Y0269670D01*
X0062987Y0269477D01*
X0062752Y0269278D01*
X0062521Y0269073D01*
X0062295Y0268862D01*
X0062074Y0268646D01*
X0061859Y0268425D01*
X0061650Y0268199D01*
X0061445Y0267967D01*
X0061247Y0267731D01*
X0061055Y0267489D01*
X0060868Y0267244D01*
X0060688Y0266993D01*
X0060513Y0266738D01*
X0060345Y0266480D01*
X0060184Y0266217D01*
X0060029Y0265950D01*
X0059880Y0265679D01*
X0059738Y0265405D01*
X0059603Y0265128D01*
X0059475Y0264847D01*
X0059353Y0264563D01*
X0059239Y0264276D01*
X0059132Y0263987D01*
X0059031Y0263695D01*
X0058938Y0263401D01*
X0058853Y0263104D01*
X0058774Y0262806D01*
X0058703Y0262505D01*
X0058639Y0262203D01*
X0058583Y0261900D01*
X0058534Y0261595D01*
X0058492Y0261289D01*
X0058458Y0260983D01*
X0058432Y0260675D01*
X0058413Y0260367D01*
X0058402Y0260059D01*
X0058398Y0259750D01*
X0058402Y0259441D01*
X0058413Y0259133D01*
X0058432Y0258825D01*
X0058458Y0258517D01*
X0058492Y0258211D01*
X0058534Y0257905D01*
X0058583Y0257600D01*
X0058639Y0257297D01*
X0058703Y0256995D01*
X0058774Y0256694D01*
X0058853Y0256396D01*
X0058938Y0256099D01*
X0059031Y0255805D01*
X0059132Y0255513D01*
X0059239Y0255224D01*
X0059353Y0254937D01*
X0059475Y0254653D01*
X0059603Y0254372D01*
X0059738Y0254095D01*
X0059880Y0253821D01*
X0060029Y0253550D01*
X0060184Y0253283D01*
X0060345Y0253020D01*
X0060513Y0252762D01*
X0060688Y0252507D01*
X0060868Y0252256D01*
X0061055Y0252011D01*
X0061247Y0251769D01*
X0061445Y0251533D01*
X0061650Y0251301D01*
X0061859Y0251075D01*
X0062074Y0250854D01*
X0062295Y0250638D01*
X0062521Y0250427D01*
X0062752Y0250222D01*
X0062987Y0250023D01*
X0063228Y0249830D01*
X0063473Y0249643D01*
X0063723Y0249461D01*
X0063977Y0249286D01*
X0064236Y0249117D01*
X0064498Y0248955D01*
X0064764Y0248799D01*
X0065034Y0248649D01*
X0065308Y0248507D01*
X0065585Y0248371D01*
X0065609Y0248421D01*
X0065333Y0248557D01*
X0065061Y0248699D01*
X0064792Y0248848D01*
X0064527Y0249003D01*
X0064266Y0249165D01*
X0064008Y0249333D01*
X0063755Y0249507D01*
X0063507Y0249688D01*
X0063263Y0249874D01*
X0063023Y0250067D01*
X0062788Y0250265D01*
X0062558Y0250469D01*
X0062334Y0250678D01*
X0062114Y0250893D01*
X0061900Y0251113D01*
X0061691Y0251339D01*
X0061488Y0251569D01*
X0061290Y0251805D01*
X0061099Y0252045D01*
X0060913Y0252290D01*
X0060733Y0252539D01*
X0060560Y0252793D01*
X0060393Y0253050D01*
X0060232Y0253312D01*
X0060077Y0253578D01*
X0059929Y0253847D01*
X0059788Y0254120D01*
X0059654Y0254396D01*
X0059526Y0254676D01*
X0059405Y0254958D01*
X0059291Y0255244D01*
X0059184Y0255532D01*
X0059085Y0255823D01*
X0058992Y0256115D01*
X0058907Y0256411D01*
X0058828Y0256708D01*
X0058758Y0257007D01*
X0058694Y0257307D01*
X0058638Y0257610D01*
X0058589Y0257913D01*
X0058548Y0258217D01*
X0058514Y0258523D01*
X0058488Y0258829D01*
X0058469Y0259136D01*
X0058458Y0259443D01*
X0058454Y0259750D01*
X0058458Y0260057D01*
X0058469Y0260364D01*
X0058488Y0260671D01*
X0058514Y0260977D01*
X0058548Y0261283D01*
X0058589Y0261587D01*
X0058638Y0261890D01*
X0058694Y0262193D01*
X0058758Y0262493D01*
X0058828Y0262792D01*
X0058907Y0263089D01*
X0058992Y0263385D01*
X0059085Y0263677D01*
X0059184Y0263968D01*
X0059291Y0264256D01*
X0059405Y0264542D01*
X0059526Y0264824D01*
X0059654Y0265104D01*
X0059788Y0265380D01*
X0059929Y0265653D01*
X0060077Y0265922D01*
X0060232Y0266188D01*
X0060393Y0266450D01*
X0060560Y0266707D01*
X0060733Y0266961D01*
X0060913Y0267210D01*
X0061099Y0267455D01*
X0061290Y0267695D01*
X0061488Y0267931D01*
X0061691Y0268161D01*
X0061900Y0268387D01*
X0062114Y0268607D01*
X0062334Y0268822D01*
X0062558Y0269031D01*
X0062788Y0269235D01*
X0063023Y0269433D01*
X0063263Y0269626D01*
X0063507Y0269812D01*
X0063755Y0269993D01*
X0064008Y0270167D01*
X0064266Y0270335D01*
X0064527Y0270497D01*
X0064792Y0270652D01*
X0065061Y0270801D01*
X0065333Y0270943D01*
X0065609Y0271079D01*
X0065633Y0271028D01*
X0065358Y0270893D01*
X0065087Y0270752D01*
X0064820Y0270604D01*
X0064556Y0270449D01*
X0064296Y0270288D01*
X0064040Y0270121D01*
X0063788Y0269947D01*
X0063540Y0269767D01*
X0063297Y0269582D01*
X0063059Y0269390D01*
X0062825Y0269193D01*
X0062596Y0268990D01*
X0062372Y0268781D01*
X0062154Y0268567D01*
X0061940Y0268348D01*
X0061733Y0268123D01*
X0061530Y0267894D01*
X0061334Y0267660D01*
X0061143Y0267421D01*
X0060958Y0267177D01*
X0060779Y0266929D01*
X0060606Y0266676D01*
X0060440Y0266420D01*
X0060280Y0266159D01*
X0060126Y0265895D01*
X0059979Y0265626D01*
X0059838Y0265355D01*
X0059704Y0265080D01*
X0059577Y0264801D01*
X0059457Y0264520D01*
X0059343Y0264236D01*
X0059237Y0263949D01*
X0059138Y0263660D01*
X0059046Y0263368D01*
X0058961Y0263074D01*
X0058883Y0262779D01*
X0058812Y0262481D01*
X0058749Y0262182D01*
X0058693Y0261881D01*
X0058645Y0261579D01*
X0058604Y0261276D01*
X0058570Y0260972D01*
X0058544Y0260667D01*
X0058525Y0260362D01*
X0058514Y0260056D01*
X0058510Y0259750D01*
X0058514Y0259444D01*
X0058525Y0259138D01*
X0058544Y0258833D01*
X0058570Y0258528D01*
X0058604Y0258224D01*
X0058645Y0257921D01*
X0058693Y0257619D01*
X0058749Y0257318D01*
X0058812Y0257019D01*
X0058883Y0256721D01*
X0058961Y0256426D01*
X0059046Y0256132D01*
X0059138Y0255840D01*
X0059237Y0255551D01*
X0059343Y0255264D01*
X0059457Y0254980D01*
X0059577Y0254699D01*
X0059704Y0254420D01*
X0059838Y0254145D01*
X0059979Y0253874D01*
X0060126Y0253605D01*
X0060280Y0253341D01*
X0060440Y0253080D01*
X0060606Y0252824D01*
X0060779Y0252571D01*
X0060958Y0252323D01*
X0061143Y0252079D01*
X0061334Y0251840D01*
X0061530Y0251606D01*
X0061733Y0251377D01*
X0061940Y0251152D01*
X0062154Y0250933D01*
X0062372Y0250719D01*
X0062596Y0250510D01*
X0062825Y0250307D01*
X0063059Y0250110D01*
X0063297Y0249918D01*
X0063540Y0249733D01*
X0063788Y0249553D01*
X0064040Y0249379D01*
X0064296Y0249212D01*
X0064556Y0249051D01*
X0064820Y0248896D01*
X0065087Y0248748D01*
X0065358Y0248607D01*
X0065633Y0248472D01*
X0065657Y0248522D01*
X0065384Y0248657D01*
X0065114Y0248798D01*
X0064847Y0248945D01*
X0064584Y0249099D01*
X0064326Y0249259D01*
X0064071Y0249426D01*
X0063820Y0249599D01*
X0063573Y0249778D01*
X0063331Y0249962D01*
X0063094Y0250153D01*
X0062861Y0250350D01*
X0062634Y0250552D01*
X0062411Y0250759D01*
X0062193Y0250972D01*
X0061981Y0251191D01*
X0061774Y0251414D01*
X0061573Y0251643D01*
X0061377Y0251876D01*
X0061187Y0252114D01*
X0061003Y0252357D01*
X0060825Y0252604D01*
X0060653Y0252855D01*
X0060487Y0253110D01*
X0060328Y0253370D01*
X0060175Y0253633D01*
X0060028Y0253900D01*
X0059888Y0254170D01*
X0059755Y0254444D01*
X0059628Y0254721D01*
X0059509Y0255001D01*
X0059396Y0255284D01*
X0059290Y0255570D01*
X0059191Y0255858D01*
X0059099Y0256148D01*
X0059015Y0256441D01*
X0058937Y0256735D01*
X0058867Y0257031D01*
X0058804Y0257329D01*
X0058748Y0257629D01*
X0058700Y0257929D01*
X0058659Y0258231D01*
X0058626Y0258534D01*
X0058600Y0258837D01*
X0058581Y0259141D01*
X0058570Y0259445D01*
X0058566Y0259750D01*
X0058570Y0260055D01*
X0058581Y0260359D01*
X0058600Y0260663D01*
X0058626Y0260966D01*
X0058659Y0261269D01*
X0058700Y0261571D01*
X0058748Y0261871D01*
X0058804Y0262171D01*
X0058867Y0262469D01*
X0058937Y0262765D01*
X0059015Y0263059D01*
X0059099Y0263352D01*
X0059191Y0263642D01*
X0059290Y0263930D01*
X0059396Y0264216D01*
X0059509Y0264499D01*
X0059628Y0264779D01*
X0059755Y0265056D01*
X0059888Y0265330D01*
X0060028Y0265600D01*
X0060175Y0265867D01*
X0060328Y0266130D01*
X0060487Y0266390D01*
X0060653Y0266645D01*
X0060825Y0266896D01*
X0061003Y0267143D01*
X0061187Y0267386D01*
X0061377Y0267624D01*
X0061573Y0267857D01*
X0061774Y0268086D01*
X0061981Y0268309D01*
X0062193Y0268528D01*
X0062411Y0268741D01*
X0062634Y0268948D01*
X0062861Y0269150D01*
X0063094Y0269347D01*
X0063331Y0269538D01*
X0063573Y0269722D01*
X0063820Y0269901D01*
X0064071Y0270074D01*
X0064326Y0270241D01*
X0064584Y0270401D01*
X0064847Y0270555D01*
X0065114Y0270702D01*
X0065384Y0270843D01*
X0065657Y0270978D01*
X0065681Y0270927D01*
X0065409Y0270793D01*
X0065140Y0270653D01*
X0064875Y0270506D01*
X0064613Y0270353D01*
X0064355Y0270193D01*
X0064102Y0270028D01*
X0063852Y0269856D01*
X0063607Y0269677D01*
X0063366Y0269493D01*
X0063130Y0269304D01*
X0062898Y0269108D01*
X0062671Y0268907D01*
X0062449Y0268700D01*
X0062233Y0268488D01*
X0062022Y0268271D01*
X0061816Y0268048D01*
X0061615Y0267821D01*
X0061420Y0267589D01*
X0061231Y0267352D01*
X0061048Y0267110D01*
X0060871Y0266864D01*
X0060699Y0266614D01*
X0060534Y0266360D01*
X0060376Y0266101D01*
X0060223Y0265839D01*
X0060078Y0265574D01*
X0059938Y0265304D01*
X0059805Y0265032D01*
X0059679Y0264756D01*
X0059560Y0264477D01*
X0059448Y0264196D01*
X0059343Y0263912D01*
X0059244Y0263625D01*
X0059153Y0263336D01*
X0059068Y0263045D01*
X0058991Y0262751D01*
X0058921Y0262456D01*
X0058859Y0262160D01*
X0058803Y0261862D01*
X0058755Y0261562D01*
X0058715Y0261262D01*
X0058681Y0260961D01*
X0058655Y0260659D01*
X0058637Y0260356D01*
X0058626Y0260053D01*
X0058622Y0259750D01*
X0058626Y0259447D01*
X0058637Y0259144D01*
X0058655Y0258841D01*
X0058681Y0258539D01*
X0058715Y0258238D01*
X0058755Y0257938D01*
X0058803Y0257638D01*
X0058859Y0257340D01*
X0058921Y0257044D01*
X0058991Y0256749D01*
X0059068Y0256455D01*
X0059153Y0256164D01*
X0059244Y0255875D01*
X0059343Y0255588D01*
X0059448Y0255304D01*
X0059560Y0255023D01*
X0059679Y0254744D01*
X0059805Y0254468D01*
X0059938Y0254196D01*
X0060078Y0253926D01*
X0060223Y0253661D01*
X0060376Y0253399D01*
X0060534Y0253140D01*
X0060699Y0252886D01*
X0060871Y0252636D01*
X0061048Y0252390D01*
X0061231Y0252148D01*
X0061420Y0251911D01*
X0061615Y0251679D01*
X0061816Y0251452D01*
X0062022Y0251229D01*
X0062233Y0251012D01*
X0062449Y0250800D01*
X0062671Y0250593D01*
X0062898Y0250392D01*
X0063130Y0250196D01*
X0063366Y0250007D01*
X0063607Y0249823D01*
X0063852Y0249644D01*
X0064102Y0249472D01*
X0064355Y0249307D01*
X0064613Y0249147D01*
X0064875Y0248994D01*
X0065140Y0248847D01*
X0065409Y0248707D01*
X0065681Y0248573D01*
X0065705Y0248624D01*
X0065434Y0248757D01*
X0065166Y0248896D01*
X0064902Y0249042D01*
X0064642Y0249195D01*
X0064385Y0249354D01*
X0064133Y0249519D01*
X0063884Y0249690D01*
X0063640Y0249867D01*
X0063400Y0250051D01*
X0063165Y0250240D01*
X0062935Y0250434D01*
X0062709Y0250635D01*
X0062488Y0250841D01*
X0062272Y0251052D01*
X0062062Y0251268D01*
X0061857Y0251489D01*
X0061657Y0251716D01*
X0061464Y0251947D01*
X0061275Y0252183D01*
X0061093Y0252423D01*
X0060916Y0252668D01*
X0060746Y0252917D01*
X0060582Y0253170D01*
X0060424Y0253427D01*
X0060272Y0253688D01*
X0060127Y0253953D01*
X0059988Y0254221D01*
X0059856Y0254492D01*
X0059731Y0254767D01*
X0059612Y0255044D01*
X0059500Y0255324D01*
X0059395Y0255607D01*
X0059297Y0255893D01*
X0059206Y0256181D01*
X0059122Y0256470D01*
X0059046Y0256762D01*
X0058976Y0257056D01*
X0058914Y0257351D01*
X0058859Y0257648D01*
X0058811Y0257946D01*
X0058770Y0258245D01*
X0058737Y0258545D01*
X0058711Y0258845D01*
X0058693Y0259147D01*
X0058682Y0259448D01*
X0058678Y0259750D01*
X0058682Y0260052D01*
X0058693Y0260353D01*
X0058711Y0260655D01*
X0058737Y0260955D01*
X0058770Y0261255D01*
X0058811Y0261554D01*
X0058859Y0261852D01*
X0058914Y0262149D01*
X0058976Y0262444D01*
X0059046Y0262738D01*
X0059122Y0263030D01*
X0059206Y0263319D01*
X0059297Y0263607D01*
X0059395Y0263893D01*
X0059500Y0264176D01*
X0059612Y0264456D01*
X0059731Y0264733D01*
X0059856Y0265008D01*
X0059988Y0265279D01*
X0060127Y0265547D01*
X0060272Y0265812D01*
X0060424Y0266073D01*
X0060582Y0266330D01*
X0060746Y0266583D01*
X0060916Y0266832D01*
X0061093Y0267077D01*
X0061275Y0267317D01*
X0061464Y0267553D01*
X0061657Y0267784D01*
X0061857Y0268011D01*
X0062062Y0268232D01*
X0062272Y0268448D01*
X0062488Y0268659D01*
X0062709Y0268865D01*
X0062935Y0269066D01*
X0063165Y0269260D01*
X0063400Y0269449D01*
X0063640Y0269633D01*
X0063884Y0269810D01*
X0064133Y0269981D01*
X0064385Y0270146D01*
X0064642Y0270305D01*
X0064902Y0270458D01*
X0065166Y0270604D01*
X0065434Y0270743D01*
X0065705Y0270876D01*
X0065729Y0270826D01*
X0065459Y0270693D01*
X0065193Y0270554D01*
X0064930Y0270409D01*
X0064671Y0270257D01*
X0064415Y0270099D01*
X0064164Y0269934D01*
X0063917Y0269764D01*
X0063674Y0269588D01*
X0063435Y0269405D01*
X0063201Y0269217D01*
X0062971Y0269023D01*
X0062746Y0268824D01*
X0062527Y0268619D01*
X0062312Y0268409D01*
X0062103Y0268193D01*
X0061899Y0267973D01*
X0061700Y0267748D01*
X0061507Y0267518D01*
X0061319Y0267283D01*
X0061138Y0267043D01*
X0060962Y0266800D01*
X0060793Y0266552D01*
X0060629Y0266300D01*
X0060472Y0266044D01*
X0060321Y0265784D01*
X0060176Y0265521D01*
X0060038Y0265254D01*
X0059907Y0264984D01*
X0059782Y0264711D01*
X0059664Y0264434D01*
X0059552Y0264155D01*
X0059448Y0263874D01*
X0059350Y0263590D01*
X0059260Y0263303D01*
X0059176Y0263015D01*
X0059100Y0262724D01*
X0059031Y0262432D01*
X0058969Y0262138D01*
X0058914Y0261843D01*
X0058866Y0261546D01*
X0058826Y0261248D01*
X0058793Y0260950D01*
X0058767Y0260650D01*
X0058749Y0260351D01*
X0058738Y0260050D01*
X0058734Y0259750D01*
X0058738Y0259450D01*
X0058749Y0259149D01*
X0058767Y0258850D01*
X0058793Y0258550D01*
X0058826Y0258252D01*
X0058866Y0257954D01*
X0058914Y0257657D01*
X0058969Y0257362D01*
X0059031Y0257068D01*
X0059100Y0256776D01*
X0059176Y0256485D01*
X0059260Y0256197D01*
X0059350Y0255910D01*
X0059448Y0255626D01*
X0059552Y0255345D01*
X0059664Y0255066D01*
X0059782Y0254789D01*
X0059907Y0254516D01*
X0060038Y0254246D01*
X0060176Y0253979D01*
X0060321Y0253716D01*
X0060472Y0253456D01*
X0060629Y0253200D01*
X0060793Y0252948D01*
X0060962Y0252700D01*
X0061138Y0252457D01*
X0061319Y0252217D01*
X0061507Y0251982D01*
X0061700Y0251752D01*
X0061899Y0251527D01*
X0062103Y0251307D01*
X0062312Y0251091D01*
X0062527Y0250881D01*
X0062746Y0250676D01*
X0062971Y0250477D01*
X0063201Y0250283D01*
X0063435Y0250095D01*
X0063674Y0249912D01*
X0063917Y0249736D01*
X0064164Y0249566D01*
X0064415Y0249401D01*
X0064671Y0249243D01*
X0064930Y0249091D01*
X0065193Y0248946D01*
X0065459Y0248807D01*
X0065729Y0248674D01*
D19*
X0071000Y0261750D03*
D20*
X0052742Y0263067D02*
X0052742Y0233933D01*
X0035419Y0233933D01*
X0035419Y0237083D01*
X0032270Y0237083D01*
X0032270Y0240626D01*
X0032270Y0256374D01*
X0032270Y0259917D01*
X0035419Y0259917D01*
X0049593Y0259917D01*
X0049593Y0237083D01*
X0035419Y0237083D01*
X0032270Y0237083D02*
X0032270Y0233933D01*
X0029120Y0233933D01*
X0029120Y0240626D01*
X0029120Y0256374D01*
X0029120Y0263067D01*
X0032270Y0263067D01*
X0032270Y0259917D01*
X0035419Y0259917D02*
X0035419Y0263067D01*
X0052742Y0263067D01*
X0035419Y0263067D02*
X0032270Y0263067D01*
X0032270Y0256374D02*
X0029120Y0256374D01*
X0029120Y0240626D02*
X0032270Y0240626D01*
X0032270Y0233933D02*
X0035419Y0233933D01*
X0088018Y0259750D02*
X0088023Y0260161D01*
X0088038Y0260571D01*
X0088063Y0260981D01*
X0088099Y0261390D01*
X0088144Y0261798D01*
X0088199Y0262205D01*
X0088264Y0262611D01*
X0088340Y0263014D01*
X0088425Y0263416D01*
X0088519Y0263816D01*
X0088624Y0264213D01*
X0088738Y0264607D01*
X0088862Y0264999D01*
X0088996Y0265387D01*
X0089139Y0265772D01*
X0089292Y0266153D01*
X0089453Y0266530D01*
X0089624Y0266904D01*
X0089805Y0267273D01*
X0089994Y0267637D01*
X0090192Y0267997D01*
X0090398Y0268352D01*
X0090614Y0268702D01*
X0090838Y0269046D01*
X0091070Y0269384D01*
X0091311Y0269717D01*
X0091559Y0270044D01*
X0091816Y0270365D01*
X0092080Y0270679D01*
X0092352Y0270987D01*
X0092632Y0271287D01*
X0092919Y0271581D01*
X0093213Y0271868D01*
X0093513Y0272148D01*
X0093821Y0272420D01*
X0094135Y0272684D01*
X0094456Y0272941D01*
X0094783Y0273189D01*
X0095116Y0273430D01*
X0095454Y0273662D01*
X0095798Y0273886D01*
X0096148Y0274102D01*
X0096503Y0274308D01*
X0096863Y0274506D01*
X0097227Y0274695D01*
X0097596Y0274876D01*
X0097970Y0275047D01*
X0098347Y0275208D01*
X0098728Y0275361D01*
X0099113Y0275504D01*
X0099501Y0275638D01*
X0099893Y0275762D01*
X0100287Y0275876D01*
X0100684Y0275981D01*
X0101084Y0276075D01*
X0101486Y0276160D01*
X0101889Y0276236D01*
X0102295Y0276301D01*
X0102702Y0276356D01*
X0103110Y0276401D01*
X0103519Y0276437D01*
X0103929Y0276462D01*
X0104339Y0276477D01*
X0104750Y0276482D01*
X0105161Y0276477D01*
X0105571Y0276462D01*
X0105981Y0276437D01*
X0106390Y0276401D01*
X0106798Y0276356D01*
X0107205Y0276301D01*
X0107611Y0276236D01*
X0108014Y0276160D01*
X0108416Y0276075D01*
X0108816Y0275981D01*
X0109213Y0275876D01*
X0109607Y0275762D01*
X0109999Y0275638D01*
X0110387Y0275504D01*
X0110772Y0275361D01*
X0111153Y0275208D01*
X0111530Y0275047D01*
X0111904Y0274876D01*
X0112273Y0274695D01*
X0112637Y0274506D01*
X0112997Y0274308D01*
X0113352Y0274102D01*
X0113702Y0273886D01*
X0114046Y0273662D01*
X0114384Y0273430D01*
X0114717Y0273189D01*
X0115044Y0272941D01*
X0115365Y0272684D01*
X0115679Y0272420D01*
X0115987Y0272148D01*
X0116287Y0271868D01*
X0116581Y0271581D01*
X0116868Y0271287D01*
X0117148Y0270987D01*
X0117420Y0270679D01*
X0117684Y0270365D01*
X0117941Y0270044D01*
X0118189Y0269717D01*
X0118430Y0269384D01*
X0118662Y0269046D01*
X0118886Y0268702D01*
X0119102Y0268352D01*
X0119308Y0267997D01*
X0119506Y0267637D01*
X0119695Y0267273D01*
X0119876Y0266904D01*
X0120047Y0266530D01*
X0120208Y0266153D01*
X0120361Y0265772D01*
X0120504Y0265387D01*
X0120638Y0264999D01*
X0120762Y0264607D01*
X0120876Y0264213D01*
X0120981Y0263816D01*
X0121075Y0263416D01*
X0121160Y0263014D01*
X0121236Y0262611D01*
X0121301Y0262205D01*
X0121356Y0261798D01*
X0121401Y0261390D01*
X0121437Y0260981D01*
X0121462Y0260571D01*
X0121477Y0260161D01*
X0121482Y0259750D01*
X0121477Y0259339D01*
X0121462Y0258929D01*
X0121437Y0258519D01*
X0121401Y0258110D01*
X0121356Y0257702D01*
X0121301Y0257295D01*
X0121236Y0256889D01*
X0121160Y0256486D01*
X0121075Y0256084D01*
X0120981Y0255684D01*
X0120876Y0255287D01*
X0120762Y0254893D01*
X0120638Y0254501D01*
X0120504Y0254113D01*
X0120361Y0253728D01*
X0120208Y0253347D01*
X0120047Y0252970D01*
X0119876Y0252596D01*
X0119695Y0252227D01*
X0119506Y0251863D01*
X0119308Y0251503D01*
X0119102Y0251148D01*
X0118886Y0250798D01*
X0118662Y0250454D01*
X0118430Y0250116D01*
X0118189Y0249783D01*
X0117941Y0249456D01*
X0117684Y0249135D01*
X0117420Y0248821D01*
X0117148Y0248513D01*
X0116868Y0248213D01*
X0116581Y0247919D01*
X0116287Y0247632D01*
X0115987Y0247352D01*
X0115679Y0247080D01*
X0115365Y0246816D01*
X0115044Y0246559D01*
X0114717Y0246311D01*
X0114384Y0246070D01*
X0114046Y0245838D01*
X0113702Y0245614D01*
X0113352Y0245398D01*
X0112997Y0245192D01*
X0112637Y0244994D01*
X0112273Y0244805D01*
X0111904Y0244624D01*
X0111530Y0244453D01*
X0111153Y0244292D01*
X0110772Y0244139D01*
X0110387Y0243996D01*
X0109999Y0243862D01*
X0109607Y0243738D01*
X0109213Y0243624D01*
X0108816Y0243519D01*
X0108416Y0243425D01*
X0108014Y0243340D01*
X0107611Y0243264D01*
X0107205Y0243199D01*
X0106798Y0243144D01*
X0106390Y0243099D01*
X0105981Y0243063D01*
X0105571Y0243038D01*
X0105161Y0243023D01*
X0104750Y0243018D01*
X0104339Y0243023D01*
X0103929Y0243038D01*
X0103519Y0243063D01*
X0103110Y0243099D01*
X0102702Y0243144D01*
X0102295Y0243199D01*
X0101889Y0243264D01*
X0101486Y0243340D01*
X0101084Y0243425D01*
X0100684Y0243519D01*
X0100287Y0243624D01*
X0099893Y0243738D01*
X0099501Y0243862D01*
X0099113Y0243996D01*
X0098728Y0244139D01*
X0098347Y0244292D01*
X0097970Y0244453D01*
X0097596Y0244624D01*
X0097227Y0244805D01*
X0096863Y0244994D01*
X0096503Y0245192D01*
X0096148Y0245398D01*
X0095798Y0245614D01*
X0095454Y0245838D01*
X0095116Y0246070D01*
X0094783Y0246311D01*
X0094456Y0246559D01*
X0094135Y0246816D01*
X0093821Y0247080D01*
X0093513Y0247352D01*
X0093213Y0247632D01*
X0092919Y0247919D01*
X0092632Y0248213D01*
X0092352Y0248513D01*
X0092080Y0248821D01*
X0091816Y0249135D01*
X0091559Y0249456D01*
X0091311Y0249783D01*
X0091070Y0250116D01*
X0090838Y0250454D01*
X0090614Y0250798D01*
X0090398Y0251148D01*
X0090192Y0251503D01*
X0089994Y0251863D01*
X0089805Y0252227D01*
X0089624Y0252596D01*
X0089453Y0252970D01*
X0089292Y0253347D01*
X0089139Y0253728D01*
X0088996Y0254113D01*
X0088862Y0254501D01*
X0088738Y0254893D01*
X0088624Y0255287D01*
X0088519Y0255684D01*
X0088425Y0256084D01*
X0088340Y0256486D01*
X0088264Y0256889D01*
X0088199Y0257295D01*
X0088144Y0257702D01*
X0088099Y0258110D01*
X0088063Y0258519D01*
X0088038Y0258929D01*
X0088023Y0259339D01*
X0088018Y0259750D01*
X0136433Y0264081D02*
X0136433Y0246758D01*
X0165567Y0246758D01*
X0165567Y0264081D01*
X0162417Y0264081D01*
X0162417Y0267230D01*
X0165567Y0267230D01*
X0165567Y0264081D01*
X0162417Y0264081D02*
X0162417Y0249907D01*
X0139583Y0249907D01*
X0139583Y0264081D01*
X0139583Y0267230D01*
X0143126Y0267230D01*
X0158874Y0267230D01*
X0162417Y0267230D01*
X0165567Y0267230D02*
X0165567Y0270380D01*
X0158874Y0270380D01*
X0143126Y0270380D01*
X0143126Y0267230D01*
X0143126Y0270380D02*
X0136433Y0270380D01*
X0136433Y0267230D01*
X0139583Y0267230D01*
X0136433Y0267230D02*
X0136433Y0264081D01*
X0139583Y0264081D01*
X0158874Y0267230D02*
X0158874Y0270380D01*
D21*
G36*
X0350596Y0206391D02*
X0349181Y0204976D01*
X0323726Y0230431D01*
X0325141Y0231846D01*
X0350596Y0206391D01*
G37*
D22*
G36*
X0334686Y0212401D02*
X0331151Y0208866D01*
X0327616Y0212401D01*
X0331151Y0215936D01*
X0334686Y0212401D01*
G37*
G36*
X0364384Y0242099D02*
X0360849Y0238564D01*
X0357314Y0242099D01*
X0360849Y0245634D01*
X0364384Y0242099D01*
G37*
D23*
X0268300Y0062250D03*
X0218700Y0062250D03*
G36*
X0142971Y0025517D02*
X0141839Y0026649D01*
X0144101Y0028911D01*
X0145233Y0027779D01*
X0142971Y0025517D01*
G37*
G36*
X0112971Y0025517D02*
X0111839Y0026649D01*
X0114101Y0028911D01*
X0115233Y0027779D01*
X0112971Y0025517D01*
G37*
G36*
X0107899Y0060589D02*
X0106767Y0061721D01*
X0109029Y0063983D01*
X0110161Y0062851D01*
X0107899Y0060589D01*
G37*
G36*
X0077899Y0060589D02*
X0076767Y0061721D01*
X0079029Y0063983D01*
X0080161Y0062851D01*
X0077899Y0060589D01*
G37*
D24*
X0234250Y0119750D02*
X0234250Y0172250D01*
X0270250Y0172250D01*
X0270250Y0119750D01*
X0294500Y0067000D02*
X0307500Y0067000D01*
X0307500Y0062000D02*
X0294500Y0062000D01*
X0301000Y0061000D02*
X0301000Y0031000D01*
X0294500Y0030000D02*
X0307500Y0030000D01*
X0307500Y0025000D02*
X0294500Y0025000D01*
D25*
X0301000Y0020300D03*
X0301000Y0071700D03*
D26*
X0290754Y0044958D02*
X0286250Y0044958D01*
X0288502Y0044958D02*
X0288502Y0043457D01*
X0290754Y0044958D02*
X0290754Y0041955D01*
X0289253Y0040354D02*
X0290754Y0038853D01*
X0286250Y0038853D01*
X0286250Y0040354D02*
X0286250Y0037351D01*
D27*
X0307250Y0213200D02*
X0307250Y0253800D01*
D28*
X0262250Y0109250D03*
X0252250Y0109250D03*
X0252250Y0104250D03*
X0252250Y0099250D03*
X0252250Y0094250D03*
X0242250Y0109250D03*
X0184750Y0078000D03*
X0174750Y0078000D03*
X0174750Y0073000D03*
X0174750Y0067488D03*
X0174750Y0063551D03*
X0164750Y0078000D03*
X0107250Y0109250D03*
X0097250Y0109250D03*
X0097250Y0104250D03*
X0097250Y0098738D03*
X0097250Y0094801D03*
X0087250Y0109250D03*
D29*
X0097250Y0146000D03*
X0174750Y0114750D03*
X0252250Y0146000D03*
M02*
