G75*
%MOIN*%
%OFA0B0*%
%FSLAX25Y25*%
%IPPOS*%
%LPD*%
%AMOC8*
5,1,8,0,0,1.08239X$1,22.5*
%
%ADD10C,0.13398*%
%ADD11OC8,0.06400*%
%ADD12R,0.05918X0.06706*%
%ADD13R,0.13398X0.07887*%
%ADD14C,0.10800*%
%ADD15OC8,0.10800*%
%ADD16R,0.07898X0.07099*%
%ADD17R,0.06706X0.05918*%
%ADD18R,0.03162X0.05524*%
%ADD19R,0.07099X0.07898*%
%ADD20C,0.08300*%
%ADD21OC8,0.08300*%
%ADD22R,0.03950X0.04343*%
%ADD23R,0.07493X0.07887*%
%ADD24C,0.06343*%
%ADD25R,0.22060X0.25209*%
%ADD26R,0.04737X0.07099*%
%ADD27R,0.25209X0.22060*%
%ADD28R,0.07099X0.04737*%
%ADD29C,0.10250*%
%ADD30C,0.01360*%
%ADD31OC8,0.15800*%
%ADD32C,0.09658*%
%ADD33OC8,0.06800*%
%ADD34C,0.08600*%
%ADD35R,0.01575X0.05512*%
%ADD36R,0.07480X0.09252*%
%ADD37C,0.06737*%
%ADD38C,0.06312*%
%ADD39R,0.07887X0.07493*%
%ADD40C,0.06500*%
%ADD41OC8,0.13398*%
%ADD42C,0.08400*%
%ADD43C,0.25603*%
%ADD44C,0.09400*%
%ADD45C,0.04400*%
%ADD46C,0.04369*%
D10*
X0014750Y0016000D03*
X0083215Y0026207D03*
X0266285Y0026207D03*
X0384750Y0016000D03*
X0266285Y0198293D03*
X0384750Y0268500D03*
X0083215Y0198293D03*
X0014750Y0268500D03*
D11*
X0213500Y0042250D03*
X0243500Y0042250D03*
D12*
X0318510Y0138500D03*
X0325990Y0138500D03*
X0325990Y0162250D03*
X0318510Y0162250D03*
X0228490Y0184750D03*
X0221010Y0184750D03*
X0178490Y0191000D03*
X0171010Y0191000D03*
X0157240Y0201000D03*
X0149760Y0201000D03*
X0172260Y0211000D03*
X0179740Y0211000D03*
X0124740Y0201000D03*
X0117260Y0201000D03*
X0030990Y0161000D03*
X0023510Y0161000D03*
X0023510Y0117250D03*
X0030990Y0117250D03*
D13*
X0067250Y0119976D03*
X0087250Y0119976D03*
X0107250Y0119976D03*
X0127250Y0119976D03*
X0127250Y0142024D03*
X0107250Y0142024D03*
X0087250Y0142024D03*
X0067250Y0142024D03*
X0289750Y0222476D03*
X0307250Y0222476D03*
X0307250Y0244524D03*
X0289750Y0244524D03*
D14*
X0332250Y0172250D03*
X0332250Y0129750D03*
X0037250Y0151000D03*
X0037250Y0107250D03*
D15*
X0017250Y0107250D03*
X0017250Y0151000D03*
X0312250Y0129750D03*
X0312250Y0172250D03*
D16*
X0362250Y0184152D03*
X0362250Y0195348D03*
X0362250Y0155348D03*
X0362250Y0144152D03*
X0228500Y0196652D03*
X0228500Y0207848D03*
X0167250Y0102848D03*
X0167250Y0091652D03*
X0153500Y0089098D03*
X0153500Y0077902D03*
D17*
X0206000Y0187260D03*
X0206000Y0194740D03*
X0216000Y0197260D03*
X0216000Y0204740D03*
X0206000Y0209760D03*
X0206000Y0217240D03*
X0193500Y0217240D03*
X0193500Y0209760D03*
X0137250Y0256010D03*
X0137250Y0263490D03*
X0127250Y0263490D03*
X0127250Y0256010D03*
X0114750Y0218490D03*
X0114750Y0211010D03*
X0057250Y0244760D03*
X0057250Y0252240D03*
X0039750Y0204740D03*
X0039750Y0197260D03*
D18*
X0187260Y0201142D03*
X0191000Y0201142D03*
X0194740Y0201142D03*
X0194740Y0190858D03*
X0187260Y0190858D03*
D19*
X0184152Y0089750D03*
X0195348Y0089750D03*
D20*
X0071000Y0249750D03*
D21*
X0071000Y0269750D03*
D22*
X0111000Y0241187D03*
X0107260Y0233313D03*
X0114740Y0233313D03*
D23*
X0104750Y0251679D03*
X0104750Y0267821D03*
X0137250Y0202821D03*
X0137250Y0186679D03*
D24*
X0114593Y0256978D02*
X0114593Y0262522D01*
X0094907Y0262522D02*
X0094907Y0256978D01*
D25*
G36*
X0365322Y0068421D02*
X0380921Y0052822D01*
X0363098Y0034999D01*
X0347499Y0050598D01*
X0365322Y0068421D01*
G37*
D26*
G36*
X0338375Y0041918D02*
X0341723Y0038570D01*
X0336705Y0033552D01*
X0333357Y0036900D01*
X0338375Y0041918D01*
G37*
G36*
X0351070Y0029223D02*
X0354418Y0025875D01*
X0349400Y0020857D01*
X0346052Y0024205D01*
X0351070Y0029223D01*
G37*
D27*
X0297407Y0044750D03*
D28*
X0326148Y0035774D03*
X0326148Y0053726D03*
D29*
X0321446Y0202696D02*
X0328128Y0209378D01*
X0363872Y0245122D02*
X0370554Y0251804D01*
D30*
X0105234Y0063924D02*
X0105914Y0063244D01*
X0103660Y0063244D01*
X0102068Y0064836D01*
X0102068Y0067090D01*
X0103660Y0068682D01*
X0105914Y0068682D01*
X0107506Y0067090D01*
X0107506Y0064836D01*
X0105914Y0063244D01*
X0105491Y0064264D01*
X0104083Y0064264D01*
X0103088Y0065259D01*
X0103088Y0066667D01*
X0104083Y0067662D01*
X0105491Y0067662D01*
X0106486Y0066667D01*
X0106486Y0065259D01*
X0105491Y0064264D01*
X0105069Y0065284D01*
X0104505Y0065284D01*
X0104108Y0065681D01*
X0104108Y0066245D01*
X0104505Y0066642D01*
X0105069Y0066642D01*
X0105466Y0066245D01*
X0105466Y0065681D01*
X0105069Y0065284D01*
X0075234Y0063924D02*
X0075914Y0063244D01*
X0073660Y0063244D01*
X0072068Y0064836D01*
X0072068Y0067090D01*
X0073660Y0068682D01*
X0075914Y0068682D01*
X0077506Y0067090D01*
X0077506Y0064836D01*
X0075914Y0063244D01*
X0075491Y0064264D01*
X0074083Y0064264D01*
X0073088Y0065259D01*
X0073088Y0066667D01*
X0074083Y0067662D01*
X0075491Y0067662D01*
X0076486Y0066667D01*
X0076486Y0065259D01*
X0075491Y0064264D01*
X0075069Y0065284D01*
X0074505Y0065284D01*
X0074108Y0065681D01*
X0074108Y0066245D01*
X0074505Y0066642D01*
X0075069Y0066642D01*
X0075466Y0066245D01*
X0075466Y0065681D01*
X0075069Y0065284D01*
X0117660Y0021498D02*
X0118340Y0020818D01*
X0116086Y0020818D01*
X0114494Y0022410D01*
X0114494Y0024664D01*
X0116086Y0026256D01*
X0118340Y0026256D01*
X0119932Y0024664D01*
X0119932Y0022410D01*
X0118340Y0020818D01*
X0117917Y0021838D01*
X0116509Y0021838D01*
X0115514Y0022833D01*
X0115514Y0024241D01*
X0116509Y0025236D01*
X0117917Y0025236D01*
X0118912Y0024241D01*
X0118912Y0022833D01*
X0117917Y0021838D01*
X0117495Y0022858D01*
X0116931Y0022858D01*
X0116534Y0023255D01*
X0116534Y0023819D01*
X0116931Y0024216D01*
X0117495Y0024216D01*
X0117892Y0023819D01*
X0117892Y0023255D01*
X0117495Y0022858D01*
X0147660Y0021498D02*
X0148340Y0020818D01*
X0146086Y0020818D01*
X0144494Y0022410D01*
X0144494Y0024664D01*
X0146086Y0026256D01*
X0148340Y0026256D01*
X0149932Y0024664D01*
X0149932Y0022410D01*
X0148340Y0020818D01*
X0147917Y0021838D01*
X0146509Y0021838D01*
X0145514Y0022833D01*
X0145514Y0024241D01*
X0146509Y0025236D01*
X0147917Y0025236D01*
X0148912Y0024241D01*
X0148912Y0022833D01*
X0147917Y0021838D01*
X0147495Y0022858D01*
X0146931Y0022858D01*
X0146534Y0023255D01*
X0146534Y0023819D01*
X0146931Y0024216D01*
X0147495Y0024216D01*
X0147892Y0023819D01*
X0147892Y0023255D01*
X0147495Y0022858D01*
D31*
X0163500Y0019750D03*
X0193500Y0019750D03*
D32*
X0343500Y0061000D03*
X0343500Y0071000D03*
X0383500Y0071000D03*
X0383500Y0061000D03*
D33*
X0273500Y0062250D03*
X0213500Y0062250D03*
D34*
X0372100Y0139850D02*
X0379900Y0139850D01*
X0379900Y0159650D02*
X0372100Y0159650D01*
X0372100Y0179850D02*
X0379900Y0179850D01*
X0379900Y0199650D02*
X0372100Y0199650D01*
X0027400Y0189850D02*
X0019600Y0189850D01*
X0019600Y0209650D02*
X0027400Y0209650D01*
X0027400Y0069650D02*
X0019600Y0069650D01*
X0019600Y0049850D02*
X0027400Y0049850D01*
D35*
X0179848Y0231423D03*
X0183785Y0231423D03*
X0187722Y0231423D03*
X0191659Y0231423D03*
X0195596Y0231423D03*
X0199533Y0231423D03*
X0203470Y0231423D03*
X0207407Y0231423D03*
X0211344Y0231423D03*
X0215281Y0231423D03*
X0219219Y0231423D03*
X0223156Y0231423D03*
X0227093Y0231423D03*
X0231030Y0231423D03*
X0234967Y0231423D03*
X0238904Y0231423D03*
X0242841Y0231423D03*
X0246778Y0231423D03*
X0250715Y0231423D03*
X0254652Y0231423D03*
D36*
X0264100Y0242250D03*
X0170400Y0242250D03*
D37*
X0298031Y0076000D02*
X0303969Y0076000D01*
X0303969Y0016000D02*
X0298031Y0016000D01*
D38*
X0157250Y0211000D03*
X0147250Y0211000D03*
X0137250Y0211000D03*
X0127250Y0211000D03*
X0127250Y0241000D03*
X0137250Y0241000D03*
X0147250Y0241000D03*
X0157250Y0241000D03*
D39*
X0152821Y0222250D03*
X0136679Y0222250D03*
X0181679Y0102250D03*
X0197821Y0102250D03*
D40*
X0042600Y0243500D02*
X0036900Y0243500D01*
X0036900Y0253500D02*
X0042600Y0253500D01*
X0146000Y0256900D02*
X0146000Y0262600D01*
X0156000Y0262600D02*
X0156000Y0256900D01*
D41*
X0307250Y0263500D03*
X0307250Y0203500D03*
D42*
X0262250Y0099800D02*
X0262250Y0092200D01*
X0252250Y0084800D02*
X0252250Y0077200D01*
X0242250Y0092200D02*
X0242250Y0099800D01*
D43*
X0174750Y0132073D03*
X0097250Y0163323D03*
X0252250Y0163323D03*
D44*
X0184750Y0069050D02*
X0184750Y0060450D01*
X0174750Y0054050D02*
X0174750Y0045450D01*
X0164750Y0060450D02*
X0164750Y0069050D01*
X0107250Y0091700D02*
X0107250Y0100300D01*
X0097250Y0085300D02*
X0097250Y0076700D01*
X0087250Y0091700D02*
X0087250Y0100300D01*
D45*
X0157250Y0193500D03*
X0172250Y0203500D03*
X0191000Y0196000D03*
X0193500Y0223500D03*
X0212250Y0223500D03*
X0232250Y0216000D03*
X0227250Y0238500D03*
X0193500Y0236000D03*
X0111000Y0201000D03*
D46*
X0146000Y0188500D03*
X0187250Y0221000D03*
X0201000Y0223500D03*
X0203500Y0236000D03*
X0216000Y0238500D03*
X0232250Y0223500D03*
X0226000Y0219750D03*
X0238500Y0236000D03*
X0243500Y0239750D03*
X0202250Y0202250D03*
X0207250Y0179750D03*
X0162250Y0222250D03*
X0101000Y0233500D03*
X0198500Y0131000D03*
X0198500Y0124750D03*
X0198500Y0118500D03*
X0292250Y0113500D03*
X0302250Y0113500D03*
X0296000Y0121000D03*
M02*
